<?xml version="1.0" encoding="UTF-8" standalone="no"?>
<!-- Created with Inkscape (http://www.inkscape.org/) -->

<svg
   width="290"
   height="225"
   viewBox="0 0 76.729169 59.53125"
   version="1.1"
   id="svg1"
   inkscape:version="1.4 (86a8ad7, 2024-10-11)"
   sodipodi:docname="versey_bird_cloud_compact.svg"
   xmlns:inkscape="http://www.inkscape.org/namespaces/inkscape"
   xmlns:sodipodi="http://sodipodi.sourceforge.net/DTD/sodipodi-0.dtd"
   xmlns="http://www.w3.org/2000/svg"
   xmlns:svg="http://www.w3.org/2000/svg">
  <sodipodi:namedview
     id="namedview1"
     pagecolor="#ffffff"
     bordercolor="#000000"
     borderopacity="0.25"
     inkscape:showpageshadow="false"
     inkscape:pageopacity="0.0"
     inkscape:pagecheckerboard="0"
     inkscape:deskcolor="#d1d1d1"
     inkscape:document-units="px"
     borderlayer="false"
     inkscape:zoom="1.7015292"
     inkscape:cx="176.01814"
     inkscape:cy="107.84417"
     inkscape:window-width="2048"
     inkscape:window-height="1209"
     inkscape:window-x="-8"
     inkscape:window-y="-8"
     inkscape:window-maximized="1"
     inkscape:current-layer="layer1" />
  <defs
     id="defs1" />
  <g
     inkscape:label="Layer 1"
     inkscape:groupmode="layer"
     id="layer1">
    <g
       id="g27"
       transform="matrix(0.98284312,0,0,0.98284312,-1716.1049,188.76537)">
      <path
         id="path206"
         style="fill:#ffffff;fill-opacity:1"
         d="m 1785.1412,-186.70561 c -2.1791,-0.0216 -4.5761,0.24872 -6.0296,0.76223 -4.3196,1.52597 -8.0402,5.10887 -9.0708,8.73538 -0.1861,0.65484 -0.407,1.27156 -0.492,1.37046 -0.085,0.0989 -0.8048,0.01 -1.6004,-0.19844 -4.0332,-1.0543 -8.313,0.20915 -11.2148,3.31143 -1.8578,1.98613 -2.6112,3.84267 -2.7575,6.79442 l -0.1198,2.41484 -0.9617,0.29869 c -1.4818,0.46049 -3.3997,2.01938 -4.3905,3.56825 -2.6441,4.13348 -2.2149,9.35263 1.0568,12.85038 3.0064,3.21408 7.0683,4.21907 11.4153,2.82412 0.4845,-0.15546 0.6532,-0.0239 1.0491,0.81907 0.2595,0.55234 1.0813,1.61699 1.8262,2.36626 3.8573,3.87963 10.6514,4.88775 15.9148,2.3611 0.9897,-0.47511 2.1738,-1.17968 2.6314,-1.5658 0.4575,-0.38613 0.9128,-0.70228 1.0108,-0.70228 0.098,0 0.736,0.46969 1.4169,1.04387 1.458,1.22935 3.1627,2.02946 5.4229,2.54454 2.0975,0.478 5.5092,0.2871 7.627,-0.42633 1.9927,-0.67132 3.4572,-1.56867 5.0095,-3.07061 1.1403,-1.10322 1.2559,-1.15357 1.9844,-0.86145 0.4255,0.17061 1.6675,0.31601 2.76,0.32401 1.5885,0.0112 2.282,-0.12108 3.4623,-0.66145 1.6907,-0.77406 3.3048,-2.26893 3.8447,-3.56103 0.204,-0.48824 0.5516,-0.8878 0.7721,-0.8878 0.8275,0 3.6557,-1.66512 4.7625,-2.80396 2.4283,-2.49853 3.4827,-6.25917 2.6737,-9.5374 -1.0465,-4.24078 -4.2647,-7.32964 -8.062,-7.73803 l -1.5007,-0.16123 -0.1917,-1.53583 c -0.3821,-3.06483 -2.6143,-6.02725 -5.5976,-7.42797 -2.4998,-1.17369 -4.6036,-1.39272 -7.6398,-0.79478 -0.5242,0.10323 -0.7276,0.0362 -0.7276,-0.23926 -10e-5,-0.21029 -0.4185,-1.21893 -0.9302,-2.24173 -1.7017,-3.40165 -5.7871,-6.53561 -9.9178,-7.60883 -0.8995,-0.23372 -2.1285,-0.35187 -3.4359,-0.36484 z" />
      <path
         id="centering_circle_1"
         style="fill:#ffffff;stroke:none;stroke-width:0.0926042;stroke-linecap:round"
         d="m 1788.4607,-158.84965 a 3.3645027,3.3645027 0 0 1 -3.3645,3.36451 3.3645027,3.3645027 0 0 1 -3.3646,-3.36451 3.3645027,3.3645027 0 0 1 3.3646,-3.3645 3.3645027,3.3645027 0 0 1 3.3645,3.3645 z" />
    </g>
  </g>
</svg>
