<?xml version="1.0" encoding="UTF-8" standalone="no"?>
<!-- Created with Inkscape (http://www.inkscape.org/) -->

<svg
   width="155"
   height="136"
   viewBox="0 0 41.010417 35.983333"
   version="1.1"
   id="svg1"
   inkscape:version="1.4 (86a8ad7, 2024-10-11)"
   sodipodi:docname="versey_bird_bird.svg"
   xmlns:inkscape="http://www.inkscape.org/namespaces/inkscape"
   xmlns:sodipodi="http://sodipodi.sourceforge.net/DTD/sodipodi-0.dtd"
   xmlns="http://www.w3.org/2000/svg"
   xmlns:svg="http://www.w3.org/2000/svg">
  <sodipodi:namedview
     id="namedview1"
     pagecolor="#ffffff"
     bordercolor="#000000"
     borderopacity="0.25"
     inkscape:showpageshadow="false"
     inkscape:pageopacity="0.0"
     inkscape:pagecheckerboard="0"
     inkscape:deskcolor="#d1d1d1"
     inkscape:document-units="px"
     borderlayer="false"
     inkscape:zoom="2.8284271"
     inkscape:cx="51.795572"
     inkscape:cy="107.30345"
     inkscape:window-width="2048"
     inkscape:window-height="1209"
     inkscape:window-x="-8"
     inkscape:window-y="-8"
     inkscape:window-maximized="1"
     inkscape:current-layer="layer1" />
  <defs
     id="defs1" />
  <g
     inkscape:label="Layer 1"
     inkscape:groupmode="layer"
     id="layer1">
    <path
       id="bird_tail"
       style="fill:#a68235;fill-opacity:1;stroke-width:0.0111028;stroke-linecap:round"
       d="M 24.347351 0.59066162 C 24.068881 0.59583062 23.798153 0.70926988 23.551017 0.95859782 C 22.853363 1.6624357 23.159574 2.5381461 23.516394 3.0432251 C 23.708504 3.3151519 24.354311 3.8800827 24.944731 4.481897 C 25.530195 5.0786588 26.081187 5.6999249 26.26403 5.646167 C 26.33832 5.624321 26.402487 5.4873718 26.447481 5.2730631 C 26.463561 5.4400093 26.501055 5.5498363 26.557552 5.5748535 C 26.705518 5.6403605 27.238332 5.1782864 27.79727 4.7407959 C 28.360942 4.2996017 28.967635 3.8957711 29.15946 3.688147 C 29.515783 3.3025071 29.87031 2.5993574 29.360999 1.929598 C 29.098575 1.5844993 28.761873 1.4757668 28.402401 1.5373739 C 28.044837 1.5986581 27.69873 1.8242943 27.44432 2.0980631 C 27.163086 2.4006934 26.780494 3.1661512 26.580806 3.9961385 C 26.554759 4.104395 26.532807 4.210889 26.514144 4.3144653 C 26.509767 4.1500325 26.498813 3.9770017 26.480037 3.7992513 C 26.374392 2.7993608 26.045184 1.8466473 25.763285 1.4500407 C 25.508267 1.091258 25.138403 0.77452841 24.730273 0.64802246 C 24.602054 0.60827743 24.473928 0.58831063 24.347351 0.59066162 z M 4.3625244 19.877856 C 4.1446503 19.887455 3.9191254 19.962835 3.6824626 20.121769 C 2.0079206 21.24633 3.8128107 23.083985 4.7144409 23.857458 C 4.9562246 24.064874 4.9394305 24.090559 4.652946 23.950993 C 3.5833061 23.429889 1.1704788 22.470677 0.71933594 24.161833 C 0.24359184 25.9452 2.8276411 26.156424 3.7961507 26.173596 C 3.9922832 26.177096 3.9978709 26.21519 3.8132039 26.2816 C 3.1765248 26.510555 1.882298 27.085387 2.1120158 27.911475 C 2.4145946 28.99958 4.5508855 29.080182 5.8508057 27.552323 L 8.7875773 26.950293 L 10.014376 22.920048 C 7.4020807 24.072413 6.1366419 19.799701 4.3625244 19.877856 z " />
    <path
       id="bird_body"
       style="fill:#ffc751;fill-opacity:1;stroke:none;stroke-width:0.0183413;stroke-linecap:round"
       d="M 23.84609 5.0203654 C 21.524528 5.0876014 19.220592 5.7823406 17.266646 7.0419474 C 15.036518 8.4636102 13.245486 10.569058 12.228194 13.012642 C 11.103992 15.661893 10.699416 18.546428 9.6144002 21.205941 C 8.6854891 23.514569 7.3580199 25.673831 5.7154134 27.549223 C 8.6731929 31.437124 13.09844 34.187383 17.906401 35.072278 C 19.334763 35.338914 20.797728 35.440466 22.251355 35.369934 C 22.250956 35.368389 22.250202 35.366827 22.249805 35.365283 C 22.335059 34.796204 22.440544 34.230283 22.580017 33.671846 C 23.360832 30.477362 25.134968 27.486535 27.738875 25.448059 C 29.41621 24.134983 31.468128 23.21407 33.619137 23.14484 C 34.844463 23.104432 36.080703 23.374838 37.160522 23.960295 C 37.160817 23.960645 37.161261 23.960977 37.161556 23.961328 C 37.639174 22.351866 37.869621 20.669047 37.823014 18.989539 C 37.752724 16.135906 36.898206 13.284484 35.265548 10.932149 C 33.491647 8.3548915 30.844166 6.3512694 27.818457 5.5045736 C 26.529753 5.1400352 25.184383 4.9809293 23.84609 5.0203654 z " />
    <ellipse
       style="fill:#f2f2f2;fill-opacity:1;stroke:none;stroke-width:0.0202587;stroke-linecap:round"
       id="ellipse268"
       cx="28.804173"
       cy="16.848448"
       rx="3.353739"
       ry="3.4299603" />
    <ellipse
       style="fill:#0d1830;fill-opacity:1;stroke:none;stroke-width:0.0128279;stroke-linecap:round"
       id="ellipse269"
       cx="29.517395"
       cy="16.848448"
       rx="2.1178644"
       ry="2.1777527" />
    <ellipse
       style="fill:#fdfdfe;fill-opacity:1;stroke:none;stroke-width:0.00391512;stroke-linecap:round"
       id="ellipse270"
       cx="28.809612"
       cy="15.993678"
       rx="0.64638448"
       ry="0.66466242" />
    <path
       style="fill:#f2f2f2;fill-opacity:1;stroke:none;stroke-width:0.0183413;stroke-linecap:round"
       d="m 33.61922,23.144783 c -2.151009,0.06923 -4.203001,0.990003 -5.880336,2.303079 -2.603907,2.038476 -4.377919,5.029299 -5.158734,8.223783 -0.139473,0.558437 -0.244879,1.124696 -0.330133,1.693775 1.788047,-0.08637 3.567092,-0.427481 5.242456,-1.062997 2.828513,-1.056072 5.377779,-2.899415 7.17373,-5.335756 1.117231,-1.505354 1.957763,-3.190833 2.49453,-5.006426 -1.079819,-0.585457 -2.316187,-0.855866 -3.541513,-0.815458 z"
       id="path270"
       sodipodi:nodetypes="cccccccc" />
    <ellipse
       style="opacity:0.5;fill:#e6e6e6;fill-opacity:1;stroke:none;stroke-width:0.0185979;stroke-linecap:round"
       id="ellipse271"
       cx="24.905994"
       cy="20.507072"
       rx="1.2509055"
       ry="0.79487962" />
    <path
       style="fill:#000000;stroke-width:0.198062"
       d="m 26.098973,12.130871 c -0.0477,-0.05271 -0.08673,-0.136185 -0.08673,-0.185502 0,-0.280356 0.601871,-1.021099 1.036851,-1.276088 0.503427,-0.295112 1.18834,-0.403695 1.713035,-0.271576 0.428603,0.107924 0.616605,0.481316 0.38053,0.755772 -0.124791,0.145076 -0.141062,0.148857 -0.594385,0.13808 -0.765051,-0.01818 -1.32449,0.17947 -1.924868,0.680079 -0.337789,0.281651 -0.397298,0.299721 -0.524436,0.159235 z"
       id="path271" />
    <g
       id="g275"
       transform="matrix(0.19806166,0,0,0.19806166,-147.33409,21.474799)">
      <g
         id="g274"
         transform="translate(-37.041668)">
        <path
           style="fill:#e69349;fill-opacity:1;stroke:none;stroke-width:0.0926042;stroke-linecap:round"
           d="m 971.39533,-16.15807 c -2.98111,1.505237 -6.07686,2.717397 -9.29969,3.680396 -0.0399,-0.147556 -0.0734,-0.29469 -0.1111,-0.442351 0.43897,1.720418 1.02597,3.4497511 1.59163,4.7035893 l 0.76739,1.7011882 c 1.00095,2.2191349 3.3174,3.5409467 5.73712,3.2737019 l 11.55122,-1.2769246 c 1.9217,-0.2120363 2.5554,-2.6917824 0.971,-3.7997681 L 971.39585,-16.15807 c -1.4e-4,6.9e-5 -3.8e-4,-6.8e-5 -5.2e-4,0 z"
           id="path272" />
        <path
           id="path273"
           style="fill:#ffa351;fill-opacity:1;stroke:none;stroke-width:0.0926042;stroke-linecap:round"
           d="m 970.18229,-30.189805 c -0.30875,-0.0018 -0.61927,-0.0011 -0.93173,0.0021 -1.31973,0.01338 -2.7659,0.486213 -4.03076,1.259354 -0.18069,0.110443 -0.35729,0.226571 -0.52968,0.348816 -0.17261,0.122377 -0.34032,0.25016 -0.50281,0.383439 -0.1625,0.133281 -0.31916,0.271707 -0.46974,0.414962 -0.004,0.0036 -0.007,0.0077 -0.0109,0.01137 -0.14609,0.139515 -0.28701,0.282925 -0.42013,0.430981 -8e-5,9.1e-5 9e-5,4.26e-4 0,5.17e-4 -0.13665,0.152008 -0.26637,0.30809 -0.38757,0.468189 -0.12138,0.160308 -0.23438,0.324466 -0.33848,0.491959 -0.10402,0.16738 -0.19873,0.337966 -0.2837,0.511597 -0.085,0.17363 -0.16016,0.350211 -0.22428,0.529167 -0.0641,0.178955 -0.11716,0.36028 -0.15864,0.543636 -0.0657,0.290431 -0.12386,0.582845 -0.17829,0.876432 -0.014,0.07559 -0.027,0.151589 -0.0403,0.227376 -0.0399,0.227556 -0.0765,0.455894 -0.11007,0.68523 -0.0117,0.0797 -0.0237,0.159349 -0.0346,0.239262 -0.0353,0.25826 -0.0669,0.517868 -0.0946,0.778247 -0.004,0.03782 -0.009,0.07531 -0.0129,0.113171 -0.0307,0.300408 -0.0563,0.602314 -0.0775,0.905371 -0.005,0.07508 -0.009,0.15059 -0.0134,0.225826 -0.0148,0.237262 -0.0273,0.47488 -0.0367,0.713651 -0.003,0.07843 -0.006,0.157061 -0.008,0.235645 -0.008,0.247115 -0.0129,0.495005 -0.0155,0.743624 -6.9e-4,0.06653 -0.002,0.13284 -0.003,0.199471 -0.002,0.312879 3.8e-4,0.626988 0.007,0.942061 2.3e-4,0.011 8.1e-4,0.02207 10e-4,0.03307 0.006,0.27563 0.0155,0.552219 0.0269,0.829407 0.007,0.161711 0.0185,0.325097 0.0269,0.487309 0.0891,1.195771 0.37782,2.647907 0.76481,4.080888 3.22298,-0.963044 6.31897,-2.175062 9.30021,-3.680396 1.4e-4,-6.8e-5 3.8e-4,6.9e-5 5.2e-4,0 2.14158,-1.08138 4.22375,-2.316162 6.25181,-3.718636 0.10142,-0.07022 0.2022,-0.142352 0.30334,-0.213424 0.3797,-0.266501 0.7574,-0.538841 1.1333,-0.817521 0.1375,-0.102046 0.2748,-0.204811 0.4118,-0.308508 0.3385,-0.255959 0.6754,-0.518272 1.0108,-0.784448 0.1562,-0.124084 0.3126,-0.247298 0.4682,-0.373621 0.3308,-0.26841 0.6592,-0.544507 0.987,-0.823205 0.1412,-0.120063 0.2831,-0.237166 0.4238,-0.359152 0.432,-0.374599 0.8618,-0.758246 1.2888,-1.151351 0.031,-0.0286 0.062,-0.05553 0.093,-0.08423 0.09,-0.08308 0.1729,-0.167759 0.2486,-0.253731 0.076,-0.08609 0.1444,-0.173287 0.2062,-0.261483 0.024,-0.03356 0.042,-0.0675 0.063,-0.101286 0.074,-0.115634 0.1358,-0.232193 0.1861,-0.349333 0.012,-0.02814 0.028,-0.05607 0.039,-0.08423 10e-5,-1.58e-4 -1e-4,-3.59e-4 0,-5.17e-4 0.01,-0.02103 0.012,-0.04202 0.019,-0.06305 0.1171,-0.338448 0.1421,-0.676764 0.071,-0.993221 -0.075,-0.336244 -0.2538,-0.648217 -0.5312,-0.910539 -0.069,-0.06549 -0.1449,-0.128155 -0.2263,-0.187069 -1e-4,-8.3e-5 -4e-4,8.3e-5 -6e-4,0 -0.081,-0.0589 -0.1689,-0.114345 -0.2625,-0.165881 -10e-5,-7.3e-5 -4e-4,7.2e-5 -5e-4,0 -0.1872,-0.103125 -0.3984,-0.191046 -0.633,-0.259932 -2e-4,-4.7e-5 -4e-4,4.6e-5 -5e-4,0 0,-0.0015 -0.01,-0.0027 -0.015,-0.0041 -0.4637,-0.135887 -0.9322,-0.263222 -1.4046,-0.383439 -0.03,-0.0076 -0.059,-0.01575 -0.089,-0.02325 -0.4481,-0.112984 -0.9008,-0.217361 -1.357,-0.31626 -0.068,-0.01484 -0.1365,-0.03044 -0.2052,-0.04496 -0.4459,-0.09434 -0.8963,-0.181057 -1.3503,-0.262 -0.069,-0.01238 -0.1386,-0.02514 -0.2082,-0.03721 -0.4499,-0.07797 -0.90413,-0.149062 -1.3622,-0.21394 -0.0831,-0.01177 -0.16626,-0.02329 -0.2496,-0.03462 -0.45323,-0.06164 -0.91049,-0.116988 -1.37201,-0.165881 -0.0829,-0.0088 -0.16638,-0.01694 -0.2496,-0.02532 -0.4719,-0.04749 -0.94749,-0.08927 -1.42833,-0.123507 -0.0704,-0.005 -0.14133,-0.0092 -0.21188,-0.01395 -0.49329,-0.03305 -0.99045,-0.06042 -1.49344,-0.07958 -0.0543,-0.0021 -0.10938,-0.0033 -0.16382,-0.0052 -0.52966,-0.01856 -1.06379,-0.03089 -1.60455,-0.03411 z" />
        <path
           id="path274"
           style="opacity:0.35;fill:#000000;fill-opacity:1;stroke:none;stroke-width:0.0926042;stroke-linecap:round"
           d="m 971.39549,-16.158187 c -1.93995,0.979529 -3.92971,1.833176 -5.97018,2.576587 l 17.71675,5.8048137 c -0.13785,-0.200727 -0.31544,-0.385237 -0.53899,-0.541569 L 971.396,-16.158187 Z" />
      </g>
    </g>
    <g
       id="bird_wing_group"
       transform="matrix(0.19806166,0,0,0.19806166,-147.33409,21.474799)">
      <g
         id="g276"
         inkscape:transform-center-x="29.260851"
         inkscape:transform-center-y="16.105802">
        <path
           style="opacity:1;fill:#a68235;fill-opacity:1;stroke:none;stroke-width:0.0926042;stroke-linecap:round"
           d="m 790.1984,18.98507 39.07949,-23.452881 c 1.86673,-1.120288 3.75615,-2.226928 5.79343,-2.994538 2.03728,-0.76761 4.21535,-1.190985 6.39129,-1.119984 2.17593,0.071 4.33164,0.633993 6.27462,1.616124 1.94298,0.98213 3.66891,2.371284 5.11606,3.997784 4.30273,4.83599 6.00863,11.637322 5.43358,18.084771 -0.74938,8.401938 -5.2298,16.343578 -11.84311,21.579828 -6.6133,5.23625 -15.23883,7.76923 -23.65867,7.259 -7.24752,-0.43919 -14.34635,-3.08836 -20.10969,-7.50461 -5.76334,-4.41626 -10.16779,-10.58167 -12.477,-17.465494 z"
           id="bird_wing"
           sodipodi:nodetypes="cczcsc"
           inkscape:transform-center-x="30.680079"
           inkscape:transform-center-y="17.811943" />
        <path
           style="opacity:0.25;fill:#ffffff;fill-opacity:1;stroke:none;stroke-width:0.0926042;stroke-linecap:round"
           d="m 826.56402,22.422236 c -3.20723,7.306828 2.07167,8.013328 8.44847,7.865908 1.24432,-0.0288 1.49834,0.60102 0.46459,1.29251 -2.43492,1.62878 -7.02416,3.88309 -11.66277,1.81837 -6.77796,-3.01698 -3.0322,-8.04699 -3.0322,-8.04699 -4.71776,1.24231 -8.82019,1.29158 -11.71571,-0.86572 -2.69617,-2.0088 -2.01954,-5.651717 3.55514,-8.352126 0.71597,-0.346822 1.03253,-0.0019 0.75622,0.743998 -2.58151,6.969238 4.13365,6.310438 12.31256,4.450614 0.87585,-0.199162 1.23468,0.271029 0.8737,1.093436 z"
           id="path276"
           sodipodi:nodetypes="cczczcc" />
      </g>
      <path
         style="opacity:0;fill:#25aeab;fill-opacity:1;stroke:none;stroke-width:0.0926042;stroke-linecap:round"
         d="M 916.91668,-15.767176 877.83719,7.685705 c -1.86673,1.120288 -3.75615,2.226928 -5.79343,2.994538 -2.03728,0.76761 -4.21535,1.190985 -6.39129,1.119984 -2.17593,-0.071 -4.33164,-0.633993 -6.27462,-1.616124 -1.94298,-0.98213 -3.66891,-2.371284 -5.11606,-3.997784 -4.30273,-4.83599 -6.00863,-11.637322 -5.43358,-18.084771 0.74938,-8.401938 5.2298,-16.343578 11.84311,-21.579828 6.6133,-5.23625 15.23883,-7.76923 23.65867,-7.259 7.24752,0.43919 14.34635,3.08836 20.10969,7.50461 5.76334,4.41626 10.16779,10.58167 12.477,17.465494 z"
         id="path277"
         sodipodi:nodetypes="cczcsc"
         inkscape:transform-center-x="30.680079"
         inkscape:transform-center-y="17.811943" />
    </g>
  </g>
</svg>
