<?xml version="1.0" encoding="UTF-8" standalone="no"?>
<!-- Created with Inkscape (http://www.inkscape.org/) -->

<svg
   width="380"
   height="225"
   viewBox="0 0 100.54167 59.53125"
   version="1.1"
   id="svg1"
   inkscape:version="1.4 (86a8ad7, 2024-10-11)"
   sodipodi:docname="versey_bird_cloud_normal.svg"
   xmlns:inkscape="http://www.inkscape.org/namespaces/inkscape"
   xmlns:sodipodi="http://sodipodi.sourceforge.net/DTD/sodipodi-0.dtd"
   xmlns="http://www.w3.org/2000/svg"
   xmlns:svg="http://www.w3.org/2000/svg">
  <sodipodi:namedview
     id="namedview1"
     pagecolor="#ffffff"
     bordercolor="#000000"
     borderopacity="0.25"
     inkscape:showpageshadow="false"
     inkscape:pageopacity="0.0"
     inkscape:pagecheckerboard="0"
     inkscape:deskcolor="#d1d1d1"
     inkscape:document-units="px"
     borderlayer="false"
     inkscape:zoom="2.4063256"
     inkscape:cx="193.44846"
     inkscape:cy="98.282625"
     inkscape:window-width="2048"
     inkscape:window-height="1209"
     inkscape:window-x="-8"
     inkscape:window-y="-8"
     inkscape:window-maximized="1"
     inkscape:current-layer="layer1" />
  <defs
     id="defs1" />
  <g
     inkscape:label="Layer 1"
     inkscape:groupmode="layer"
     id="layer1">
    <g
       id="g28"
       transform="matrix(0.96901569,-0.03771082,0.03771082,0.96901569,-1782.8201,260.98092)">
      <path
         id="path205"
         style="fill:#ffffff;fill-opacity:1;stroke:none;stroke-width:0.116102;stroke-linecap:round;stroke-opacity:1"
         d="m 1896.8176,-195.04515 a 16.343126,16.343126 0 0 0 -15.6094,11.54657 14.469501,12.814501 60 0 0 -13.7609,-1.11416 14.469501,12.814501 60 0 0 -5.9764,11.6417 13.30501,12.829891 0 0 0 -0.6418,-0.015 13.30501,12.829891 0 0 0 -13.3047,12.83026 13.30501,12.829891 0 0 0 13.3047,12.8297 13.30501,12.829891 0 0 0 2.5466,-0.26771 13.30501,12.829891 0 0 0 12.8948,9.78492 13.30501,12.829891 0 0 0 9.0904,-3.49796 14.547357,12.206833 0 0 0 13.0354,6.83213 14.547357,12.206833 0 0 0 12.9667,-6.72671 11.410052,11.410052 0 0 0 8.7131,4.05817 11.410052,11.410052 0 0 0 10.3787,-6.6699 12.30708,10.405404 0 0 0 5.3191,1.03508 12.30708,10.405404 0 0 0 12.3067,-10.40507 12.30708,10.405404 0 0 0 -5.0757,-8.41755 10.407978,10.407978 0 0 0 0.6899,-3.65093 10.407978,10.407978 0 0 0 -10.4076,-10.40815 10.407978,10.407978 0 0 0 -2.4397,0.3142 13.863345,13.863345 0 0 0 -13.6968,-11.73418 13.863345,13.863345 0 0 0 -5.6487,1.21232 16.343126,16.343126 0 0 0 -14.6844,-9.17772 z" />
      <path
         id="centering_circle_2"
         style="fill:#ffffff;stroke:none;stroke-width:0.0926042;stroke-linecap:round"
         d="m 1901.167,-163.44338 a 3.3645027,3.3645027 0 0 1 -3.3645,3.36451 3.3645027,3.3645027 0 0 1 -3.3646,-3.36451 3.3645027,3.3645027 0 0 1 3.3646,-3.3645 3.3645027,3.3645027 0 0 1 3.3645,3.3645 z" />
    </g>
  </g>
</svg>
