<?xml version="1.0" encoding="UTF-8" standalone="no"?>
<!-- Created with Inkscape (http://www.inkscape.org/) -->

<svg
   width="155"
   height="136"
   viewBox="0 0 41.010417 35.983333"
   version="1.1"
   id="svg1"
   inkscape:version="1.4 (86a8ad7, 2024-10-11)"
   sodipodi:docname="dino_dash_bird.svg"
   xml:space="preserve"
   xmlns:inkscape="http://www.inkscape.org/namespaces/inkscape"
   xmlns:sodipodi="http://sodipodi.sourceforge.net/DTD/sodipodi-0.dtd"
   xmlns="http://www.w3.org/2000/svg"
   xmlns:svg="http://www.w3.org/2000/svg"><sodipodi:namedview
     id="namedview1"
     pagecolor="#ffffff"
     bordercolor="#000000"
     borderopacity="0.25"
     inkscape:showpageshadow="false"
     inkscape:pageopacity="0.0"
     inkscape:pagecheckerboard="0"
     inkscape:deskcolor="#d1d1d1"
     inkscape:document-units="px"
     borderlayer="false"
     inkscape:zoom="2"
     inkscape:cx="36.75"
     inkscape:cy="41.75"
     inkscape:window-width="2048"
     inkscape:window-height="1209"
     inkscape:window-x="-8"
     inkscape:window-y="-8"
     inkscape:window-maximized="1"
     inkscape:current-layer="layer1" /><defs
     id="defs1" /><g
     inkscape:label="Layer 1"
     inkscape:groupmode="layer"
     id="layer1"><path
       id="bird_tail"
       style="fill:#cc4841;fill-opacity:1;stroke-width:0.0111028;stroke-linecap:round"
       d="m 16.663047,0.59066162 c 0.27847,0.005169 0.549198,0.11860826 0.796334,0.3679362 0.697654,0.70383788 0.391443,1.57954828 0.03462,2.08462728 -0.19211,0.2719268 -0.837917,0.8368576 -1.428337,1.4386719 -0.585464,0.5967618 -1.136456,1.2180279 -1.319299,1.16427 C 14.672078,5.624321 14.607911,5.4873718 14.562917,5.2730631 14.546837,5.4400093 14.509343,5.5498363 14.452846,5.5748535 14.30488,5.6403605 13.772066,5.1782864 13.213128,4.7407959 12.649456,4.2996017 12.042763,3.8957711 11.850938,3.688147 11.494615,3.3025071 11.140088,2.5993574 11.649399,1.929598 c 0.262424,-0.3450987 0.599126,-0.4538312 0.958598,-0.3922241 0.357564,0.061284 0.703671,0.2869204 0.958081,0.5606892 0.281234,0.3026303 0.663826,1.0680881 0.863514,1.8980754 0.02605,0.1082565 0.048,0.2147505 0.06666,0.3183268 0.0044,-0.1644328 0.01533,-0.3374636 0.03411,-0.515214 0.105645,-0.9998905 0.434853,-1.952604 0.716752,-2.3492106 0.255018,-0.3587827 0.624882,-0.67551229 1.033012,-0.80201824 0.128219,-0.039745 0.256345,-0.0597118 0.382922,-0.0573608 z M 36.647873,19.877856 c 0.217875,0.0096 0.443399,0.08498 0.680062,0.243913 1.674542,1.124561 -0.130348,2.962216 -1.031978,3.735689 -0.241784,0.207416 -0.22499,0.233101 0.0615,0.09353 1.06964,-0.521104 3.482467,-1.480316 3.93361,0.21084 0.475744,1.783367 -2.108305,1.994591 -3.076815,2.011763 -0.196132,0.0035 -0.20172,0.04159 -0.01705,0.108004 0.636679,0.228955 1.930906,0.803787 1.701188,1.629875 -0.302579,1.088105 -2.43887,1.168707 -3.73879,-0.359152 l -2.936771,-0.60203 -1.226799,-4.030245 c 2.612295,1.152365 3.877734,-3.120347 5.651851,-3.042192 z" /><path
       id="bird_body"
       style="fill:#ff5a51;fill-opacity:1;stroke:none;stroke-width:0.0183413;stroke-linecap:round"
       d="m 17.164308,5.0203654 c 2.321562,0.067236 4.625498,0.7619752 6.579444,2.021582 2.230128,1.4216628 4.02116,3.5271106 5.038452,5.9706946 1.124202,2.649251 1.528778,5.533786 2.613794,8.193299 0.928911,2.308628 2.25638,4.46789 3.898986,6.343282 -2.957779,3.887901 -7.383026,6.63816 -12.190987,7.523055 -1.428362,0.266636 -2.891327,0.368188 -4.344954,0.297656 3.99e-4,-0.0015 0.0012,-0.0031 0.0016,-0.0047 -0.08525,-0.569079 -0.190739,-1.135 -0.330212,-1.693437 C 17.649566,30.477362 15.87543,27.486535 13.271523,25.448059 11.594188,24.134983 9.5422698,23.21407 7.3912608,23.14484 c -1.225326,-0.04041 -2.461566,0.229998 -3.541385,0.815455 -2.95e-4,3.5e-4 -7.39e-4,6.82e-4 -0.00103,0.001 -0.477618,-1.609462 -0.708065,-3.292281 -0.661458,-4.971789 0.07029,-2.853633 0.924808,-5.705055 2.557466,-8.05739 1.773901,-2.5772575 4.4213822,-4.5808796 7.4470912,-5.4275754 1.288704,-0.3645384 2.634074,-0.5236443 3.972367,-0.4842082 z" /><path
       style="fill:#f2f2f2;fill-opacity:1;stroke:none;stroke-width:0.0183413;stroke-linecap:round"
       d="m 7.3911778,23.144783 c 2.151009,0.06923 4.2030012,0.990003 5.8803362,2.303079 2.603907,2.038476 4.377919,5.029299 5.158734,8.223783 0.139473,0.558437 0.244879,1.124696 0.330133,1.693775 -1.788047,-0.08637 -3.567092,-0.427481 -5.242456,-1.062997 -2.828513,-1.056072 -5.3777792,-2.899415 -7.1737302,-5.335756 -1.117231,-1.505354 -1.957763,-3.190833 -2.49453,-5.006426 1.079819,-0.585457 2.316187,-0.855866 3.541513,-0.815458 z"
       id="path270"
       sodipodi:nodetypes="cccccccc" /><ellipse
       style="opacity:0.5;fill:#e6e6e6;fill-opacity:1;stroke:none;stroke-width:0.0185979;stroke-linecap:round"
       id="ellipse271"
       cx="-16.104403"
       cy="20.507072"
       rx="1.2509055"
       ry="0.79487962"
       transform="scale(-1,1)" /><g
       id="g275"
       transform="matrix(-0.19806166,0,0,0.19806166,188.34449,21.474799)"><g
         id="g274"
         transform="translate(-37.041668)"><path
           style="fill:#e69349;fill-opacity:1;stroke:none;stroke-width:0.0926042;stroke-linecap:round"
           d="m 971.39533,-16.15807 c -2.98111,1.505237 -6.07686,2.717397 -9.29969,3.680396 -0.0399,-0.147556 -0.0734,-0.29469 -0.1111,-0.442351 0.43897,1.720418 1.02597,3.4497511 1.59163,4.7035893 l 0.76739,1.7011882 c 1.00095,2.2191349 3.3174,3.5409467 5.73712,3.2737019 l 11.55122,-1.2769246 c 1.9217,-0.2120363 2.5554,-2.6917824 0.971,-3.7997681 L 971.39585,-16.15807 c -1.4e-4,6.9e-5 -3.8e-4,-6.8e-5 -5.2e-4,0 z"
           id="path272" /><path
           id="path273"
           style="fill:#ffa351;fill-opacity:1;stroke:none;stroke-width:0.0926042;stroke-linecap:round"
           d="m 970.18229,-30.189805 c -0.30875,-0.0018 -0.61927,-0.0011 -0.93173,0.0021 -1.31973,0.01338 -2.7659,0.486213 -4.03076,1.259354 -0.18069,0.110443 -0.35729,0.226571 -0.52968,0.348816 -0.17261,0.122377 -0.34032,0.25016 -0.50281,0.383439 -0.1625,0.133281 -0.31916,0.271707 -0.46974,0.414962 -0.004,0.0036 -0.007,0.0077 -0.0109,0.01137 -0.14609,0.139515 -0.28701,0.282925 -0.42013,0.430981 -8e-5,9.1e-5 9e-5,4.26e-4 0,5.17e-4 -0.13665,0.152008 -0.26637,0.30809 -0.38757,0.468189 -0.12138,0.160308 -0.23438,0.324466 -0.33848,0.491959 -0.10402,0.16738 -0.19873,0.337966 -0.2837,0.511597 -0.085,0.17363 -0.16016,0.350211 -0.22428,0.529167 -0.0641,0.178955 -0.11716,0.36028 -0.15864,0.543636 -0.0657,0.290431 -0.12386,0.582845 -0.17829,0.876432 -0.014,0.07559 -0.027,0.151589 -0.0403,0.227376 -0.0399,0.227556 -0.0765,0.455894 -0.11007,0.68523 -0.0117,0.0797 -0.0237,0.159349 -0.0346,0.239262 -0.0353,0.25826 -0.0669,0.517868 -0.0946,0.778247 -0.004,0.03782 -0.009,0.07531 -0.0129,0.113171 -0.0307,0.300408 -0.0563,0.602314 -0.0775,0.905371 -0.005,0.07508 -0.009,0.15059 -0.0134,0.225826 -0.0148,0.237262 -0.0273,0.47488 -0.0367,0.713651 -0.003,0.07843 -0.006,0.157061 -0.008,0.235645 -0.008,0.247115 -0.0129,0.495005 -0.0155,0.743624 -6.9e-4,0.06653 -0.002,0.13284 -0.003,0.199471 -0.002,0.312879 3.8e-4,0.626988 0.007,0.942061 2.3e-4,0.011 8.1e-4,0.02207 10e-4,0.03307 0.006,0.27563 0.0155,0.552219 0.0269,0.829407 0.007,0.161711 0.0185,0.325097 0.0269,0.487309 0.0891,1.195771 0.37782,2.647907 0.76481,4.080888 3.22298,-0.963044 6.31897,-2.175062 9.30021,-3.680396 1.4e-4,-6.8e-5 3.8e-4,6.9e-5 5.2e-4,0 2.14158,-1.08138 4.22375,-2.316162 6.25181,-3.718636 0.10142,-0.07022 0.2022,-0.142352 0.30334,-0.213424 0.3797,-0.266501 0.7574,-0.538841 1.1333,-0.817521 0.1375,-0.102046 0.2748,-0.204811 0.4118,-0.308508 0.3385,-0.255959 0.6754,-0.518272 1.0108,-0.784448 0.1562,-0.124084 0.3126,-0.247298 0.4682,-0.373621 0.3308,-0.26841 0.6592,-0.544507 0.987,-0.823205 0.1412,-0.120063 0.2831,-0.237166 0.4238,-0.359152 0.432,-0.374599 0.8618,-0.758246 1.2888,-1.151351 0.031,-0.0286 0.062,-0.05553 0.093,-0.08423 0.09,-0.08308 0.1729,-0.167759 0.2486,-0.253731 0.076,-0.08609 0.1444,-0.173287 0.2062,-0.261483 0.024,-0.03356 0.042,-0.0675 0.063,-0.101286 0.074,-0.115634 0.1358,-0.232193 0.1861,-0.349333 0.012,-0.02814 0.028,-0.05607 0.039,-0.08423 10e-5,-1.58e-4 -1e-4,-3.59e-4 0,-5.17e-4 0.01,-0.02103 0.012,-0.04202 0.019,-0.06305 0.1171,-0.338448 0.1421,-0.676764 0.071,-0.993221 -0.075,-0.336244 -0.2538,-0.648217 -0.5312,-0.910539 -0.069,-0.06549 -0.1449,-0.128155 -0.2263,-0.187069 -1e-4,-8.3e-5 -4e-4,8.3e-5 -6e-4,0 -0.081,-0.0589 -0.1689,-0.114345 -0.2625,-0.165881 -10e-5,-7.3e-5 -4e-4,7.2e-5 -5e-4,0 -0.1872,-0.103125 -0.3984,-0.191046 -0.633,-0.259932 -2e-4,-4.7e-5 -4e-4,4.6e-5 -5e-4,0 0,-0.0015 -0.01,-0.0027 -0.015,-0.0041 -0.4637,-0.135887 -0.9322,-0.263222 -1.4046,-0.383439 -0.03,-0.0076 -0.059,-0.01575 -0.089,-0.02325 -0.4481,-0.112984 -0.9008,-0.217361 -1.357,-0.31626 -0.068,-0.01484 -0.1365,-0.03044 -0.2052,-0.04496 -0.4459,-0.09434 -0.8963,-0.181057 -1.3503,-0.262 -0.069,-0.01238 -0.1386,-0.02514 -0.2082,-0.03721 -0.4499,-0.07797 -0.90413,-0.149062 -1.3622,-0.21394 -0.0831,-0.01177 -0.16626,-0.02329 -0.2496,-0.03462 -0.45323,-0.06164 -0.91049,-0.116988 -1.37201,-0.165881 -0.0829,-0.0088 -0.16638,-0.01694 -0.2496,-0.02532 -0.4719,-0.04749 -0.94749,-0.08927 -1.42833,-0.123507 -0.0704,-0.005 -0.14133,-0.0092 -0.21188,-0.01395 -0.49329,-0.03305 -0.99045,-0.06042 -1.49344,-0.07958 -0.0543,-0.0021 -0.10938,-0.0033 -0.16382,-0.0052 -0.52966,-0.01856 -1.06379,-0.03089 -1.60455,-0.03411 z" /><path
           id="path274"
           style="opacity:0.35;fill:#000000;fill-opacity:1;stroke:none;stroke-width:0.0926042;stroke-linecap:round"
           d="m 971.39549,-16.158187 c -1.93995,0.979529 -3.92971,1.833176 -5.97018,2.576587 l 17.71675,5.8048137 c -0.13785,-0.200727 -0.31544,-0.385237 -0.53899,-0.541569 L 971.396,-16.158187 Z" /></g></g><g
       id="bird_wing_group"
       transform="matrix(-0.19806166,0,0,0.19806166,188.34449,21.474799)"><g
         id="g276"
         inkscape:transform-center-x="29.260851"
         inkscape:transform-center-y="16.105802"><path
           style="opacity:1;fill:#cc4841;fill-opacity:1;stroke:none;stroke-width:0.0926042;stroke-linecap:round"
           d="m 790.1984,18.98507 39.07949,-23.452881 c 1.86673,-1.120288 3.75615,-2.226928 5.79343,-2.994538 2.03728,-0.76761 4.21535,-1.190985 6.39129,-1.119984 2.17593,0.071 4.33164,0.633993 6.27462,1.616124 1.94298,0.98213 3.66891,2.371284 5.11606,3.997784 4.30273,4.83599 6.00863,11.637322 5.43358,18.084771 -0.74938,8.401938 -5.2298,16.343578 -11.84311,21.579828 -6.6133,5.23625 -15.23883,7.76923 -23.65867,7.259 -7.24752,-0.43919 -14.34635,-3.08836 -20.10969,-7.50461 -5.76334,-4.41626 -10.16779,-10.58167 -12.477,-17.465494 z"
           id="bird_wing"
           sodipodi:nodetypes="cczcsc"
           inkscape:transform-center-x="30.680079"
           inkscape:transform-center-y="17.811943" /><path
           style="opacity:0.25;fill:#ffffff;fill-opacity:1;stroke:none;stroke-width:0.0926042;stroke-linecap:round"
           d="m 826.56402,22.422236 c -3.20723,7.306828 2.07167,8.013328 8.44847,7.865908 1.24432,-0.0288 1.49834,0.60102 0.46459,1.29251 -2.43492,1.62878 -7.02416,3.88309 -11.66277,1.81837 -6.77796,-3.01698 -3.0322,-8.04699 -3.0322,-8.04699 -4.71776,1.24231 -8.82019,1.29158 -11.71571,-0.86572 -2.69617,-2.0088 -2.01954,-5.651717 3.55514,-8.352126 0.71597,-0.346822 1.03253,-0.0019 0.75622,0.743998 -2.58151,6.969238 4.13365,6.310438 12.31256,4.450614 0.87585,-0.199162 1.23468,0.271029 0.8737,1.093436 z"
           id="path276"
           sodipodi:nodetypes="cczczcc" /></g><path
         style="opacity:0;fill:#25aeab;fill-opacity:1;stroke:none;stroke-width:0.0926042;stroke-linecap:round"
         d="M 916.91668,-15.767176 877.83719,7.685705 c -1.86673,1.120288 -3.75615,2.226928 -5.79343,2.994538 -2.03728,0.76761 -4.21535,1.190985 -6.39129,1.119984 -2.17593,-0.071 -4.33164,-0.633993 -6.27462,-1.616124 -1.94298,-0.98213 -3.66891,-2.371284 -5.11606,-3.997784 -4.30273,-4.83599 -6.00863,-11.637322 -5.43358,-18.084771 0.74938,-8.401938 5.2298,-16.343578 11.84311,-21.579828 6.6133,-5.23625 15.23883,-7.76923 23.65867,-7.259 7.24752,0.43919 14.34635,3.08836 20.10969,7.50461 5.76334,4.41626 10.16779,10.58167 12.477,17.465494 z"
         id="path277"
         sodipodi:nodetypes="cczcsc"
         inkscape:transform-center-x="30.680079"
         inkscape:transform-center-y="17.811943" /></g><g
       id="g3"
       transform="matrix(-3.1712,0,0,3.1712,124.2952,56.026286)"><g
         id="g2"
         transform="translate(0.42167969,-0.20670573)"><ellipse
           style="fill:#f2f2f2;fill-opacity:1;stroke:none;stroke-width:0.00638839;stroke-linecap:round"
           id="ellipse268-9-1"
           cx="34.924236"
           cy="-12.147562"
           rx="1.0575693"
           ry="1.081605" /><ellipse
           style="fill:#0d1830;fill-opacity:1;stroke:none;stroke-width:0.00404515;stroke-linecap:round"
           id="ellipse269-6-6"
           cx="35.149143"
           cy="-12.147562"
           rx="0.66784811"
           ry="0.68673331" /><ellipse
           style="fill:#fdfdfe;fill-opacity:1;stroke:none;stroke-width:0.0012346;stroke-linecap:round"
           id="ellipse270-7-1"
           cx="34.925949"
           cy="-12.417106"
           rx="0.20383111"
           ry="0.20959489" /></g><path
         style="opacity:1;fill:none;stroke:#000000;stroke-width:0.330729;stroke-linecap:round;stroke-dasharray:none;stroke-opacity:1"
         d="m 34.925257,-13.662048 1.571651,0.855244"
         id="path1"
         sodipodi:nodetypes="cc" /></g></g></svg>
