<?xml version="1.0" encoding="UTF-8" standalone="no"?>
<!-- Created with Inkscape (http://www.inkscape.org/) -->

<svg
   width="890"
   height="845"
   viewBox="0 0 235.47917 223.57292"
   version="1.1"
   id="svg1"
   inkscape:version="1.4 (86a8ad7, 2024-10-11)"
   sodipodi:docname="dino_dash_dinosuar.svg"
   xmlns:inkscape="http://www.inkscape.org/namespaces/inkscape"
   xmlns:sodipodi="http://sodipodi.sourceforge.net/DTD/sodipodi-0.dtd"
   xmlns="http://www.w3.org/2000/svg"
   xmlns:svg="http://www.w3.org/2000/svg">
  <sodipodi:namedview
     id="namedview1"
     pagecolor="#ffffff"
     bordercolor="#000000"
     borderopacity="0.25"
     inkscape:showpageshadow="false"
     inkscape:pageopacity="0.0"
     inkscape:pagecheckerboard="0"
     inkscape:deskcolor="#d1d1d1"
     inkscape:document-units="px"
     borderlayer="false"
     inkscape:zoom="0.35355339"
     inkscape:cx="166.8772"
     inkscape:cy="207.88939"
     inkscape:window-width="2048"
     inkscape:window-height="1209"
     inkscape:window-x="-8"
     inkscape:window-y="-8"
     inkscape:window-maximized="1"
     inkscape:current-layer="layer1" />
  <defs
     id="defs1">
    <inkscape:path-effect
       effect="fillet_chamfer"
       id="path-effect23"
       is_visible="true"
       lpeversion="1"
       nodesatellites_param="F,0,1,1,0,0.7126941,0,1 @ F,0,0,1,0,0.7126941,0,1 @ F,0,0,1,0,0,0,1"
       radius="0"
       unit="px"
       method="auto"
       mode="F"
       chamfer_steps="1"
       flexible="false"
       use_knot_distance="true"
       apply_no_radius="true"
       apply_with_radius="true"
       only_selected="false"
       hide_knots="false" />
    <inkscape:path-effect
       effect="fillet_chamfer"
       id="path-effect25"
       is_visible="true"
       lpeversion="1"
       nodesatellites_param="F,0,1,1,0,0.7126941,0,1 @ F,0,0,1,0,0.7126941,0,1 @ F,0,0,1,0,0,0,1"
       radius="0"
       unit="px"
       method="auto"
       mode="F"
       chamfer_steps="1"
       flexible="false"
       use_knot_distance="true"
       apply_no_radius="true"
       apply_with_radius="true"
       only_selected="false"
       hide_knots="false" />
    <inkscape:path-effect
       effect="fillet_chamfer"
       id="path-effect27"
       is_visible="true"
       lpeversion="1"
       nodesatellites_param="F,0,1,1,0,0.7126941,0,1 @ F,0,0,1,0,0.7126941,0,1 @ F,0,0,1,0,0,0,1"
       radius="0"
       unit="px"
       method="auto"
       mode="F"
       chamfer_steps="1"
       flexible="false"
       use_knot_distance="true"
       apply_no_radius="true"
       apply_with_radius="true"
       only_selected="false"
       hide_knots="false" />
    <inkscape:path-effect
       effect="fillet_chamfer"
       id="path-effect72-0-9"
       is_visible="true"
       lpeversion="1"
       nodesatellites_param="F,0,0,1,0,9.2902932,0,1 @ F,0,0,1,0,0,0,1 @ F,0,0,1,0,0,0,1 @ F,0,0,1,0,0,0,1 @ F,0,0,1,0,0,0,1 @ F,0,0,1,0,0,0,1 @ F,0,0,1,0,0,0,1 @ F,0,0,1,0,0,0,1 @ F,0,0,1,0,0,0,1 @ F,0,0,1,0,0,0,1 @ F,0,0,1,0,0,0,1"
       radius="0"
       unit="px"
       method="auto"
       mode="F"
       chamfer_steps="1"
       flexible="false"
       use_knot_distance="true"
       apply_no_radius="true"
       apply_with_radius="true"
       only_selected="false"
       hide_knots="false" />
    <inkscape:path-effect
       effect="fillet_chamfer"
       id="path-effect142-3"
       is_visible="true"
       lpeversion="1"
       nodesatellites_param="F,0,1,1,0,0.7126941,0,1 @ F,0,0,1,0,0.7126941,0,1 @ F,0,0,1,0,0,0,1"
       radius="0"
       unit="px"
       method="auto"
       mode="F"
       chamfer_steps="1"
       flexible="false"
       use_knot_distance="true"
       apply_no_radius="true"
       apply_with_radius="true"
       only_selected="false"
       hide_knots="false" />
    <inkscape:path-effect
       effect="fillet_chamfer"
       id="path-effect127-8-2-9-6"
       is_visible="true"
       lpeversion="1"
       nodesatellites_param="F,0,1,1,0,0.7126941,0,1 @ F,0,0,1,0,0.7126941,0,1 @ F,0,0,1,0,0,0,1"
       radius="0"
       unit="px"
       method="auto"
       mode="F"
       chamfer_steps="1"
       flexible="false"
       use_knot_distance="true"
       apply_no_radius="true"
       apply_with_radius="true"
       only_selected="false"
       hide_knots="false" />
    <inkscape:path-effect
       effect="fillet_chamfer"
       id="path-effect142"
       is_visible="true"
       lpeversion="1"
       nodesatellites_param="F,0,1,1,0,0.7126941,0,1 @ F,0,0,1,0,0.7126941,0,1 @ F,0,0,1,0,0,0,1"
       radius="0"
       unit="px"
       method="auto"
       mode="F"
       chamfer_steps="1"
       flexible="false"
       use_knot_distance="true"
       apply_no_radius="true"
       apply_with_radius="true"
       only_selected="false"
       hide_knots="false" />
  </defs>
  <g
     inkscape:label="Layer 1"
     inkscape:groupmode="layer"
     id="layer1">
    <g
       id="rear_leg_group"
       inkscape:transform-center-x="-4.7625025"
       inkscape:transform-center-y="38.89375"
       transform="translate(701.41046,-42.065298)">
      <path
         id="rear_thigh"
         style="fill:#7d9853;fill-opacity:1;stroke-width:1.14025"
         d="m -585.45517,199.46156 c 0.29156,1.83372 0.56905,7.84466 1.94718,11.95345 1.25863,3.7525 3.33101,11.63925 3.95599,15.05539 0.47051,2.57175 0.50218,3.59343 0.20254,6.55523 -0.34268,3.38694 -0.49084,4.41322 -1.51391,10.47636 -0.37554,2.22564 -0.39483,3.16722 -0.0925,4.60791 0.39299,1.87303 0.80571,2.71975 1.97423,4.05459 l -3.4e-4,4.8e-4 c 0.44541,0.50878 1.5079,1.23743 3.05291,2.0948 1.99813,1.10887 2.74824,1.39443 4.78777,1.82083 4.5302,0.94709 11.63608,1.3197 18.3104,0.96012 4.81122,-0.25919 14.01235,-1.44734 14.24399,-1.83944 0.66943,-2.10077 4.21587,-5.34902 4.36,-7.32464 0.0675,-1.59758 -1.68374,-4.75831 -3.6057,-6.50752 -1.5874,-1.44472 -4.62199,-2.91476 -6.87207,-3.32914 -1.04113,-0.19176 -1.90116,-0.39557 -1.9113,-0.45322 -0.0101,-0.0577 0.50759,-1.59639 1.15086,-3.41873 4.01226,-11.36647 5.22477,-42.28 2.68206,-50.58187 -5.04782,-16.48134 -47.64867,-15.42469 -42.67209,15.8754 z"
         sodipodi:nodetypes="ssssssccssscsssssss" />
      <g
         id="g20">
        <g
           id="g17"
           transform="matrix(1.1355616,0.10325994,-0.10325994,1.1355616,-36.460442,0.07743733)">
          <path
             style="fill:#ddcfa8;fill-opacity:1;stroke:none;stroke-width:2.11667;stroke-linecap:round"
             d="m 607.26591,434.43738 c 2.51087,-0.71509 4.75137,-2.1108 6.70041,-4.15617 0.27152,-0.28494 0.35524,-0.81872 0.17516,-1.16866 -0.9224,-1.79242 -3.87868,-6.53819 -8.20707,-3.82721 -4.32892,2.7113 -1.12255,7.25411 0.16825,8.79785 0.25223,0.30166 0.78473,0.46199 1.16325,0.35419 z"
             id="path16"
             sodipodi:nodetypes="cczc"
             transform="rotate(17.865484,638.19619,-2920.4587)"
             inkscape:original-d="m 606.57583,434.61518 c 3.00549,-0.6943 5.6409,-2.33076 7.87207,-4.85929 0,0 -3.23736,-7.77512 -8.51349,-4.47055 -5.27614,3.30456 0.64142,9.32984 0.64142,9.32984 z"
             inkscape:path-effect="#path-effect23" />
          <path
             id="path17"
             style="fill:#d2c496;fill-opacity:1;stroke:none;stroke-width:2.11667;stroke-linecap:round"
             d="m -422.17164,257.0055 c -0.52954,1.98199 0.24992,4.35136 0.70434,5.47408 0.14753,0.3645 0.60505,0.67998 0.99839,0.6935 0.15306,0.005 0.30616,0.007 0.45889,0.008 0.006,-0.0443 0.009,-0.0879 0.008,-0.13126 -0.0367,-1.38659 -0.33418,-4.45129 -2.16989,-6.04408 z" />
        </g>
        <g
           id="g19"
           transform="matrix(1.1355616,0.10325994,-0.10325994,1.1355616,-35.825505,0.16194996)">
          <path
             style="fill:#ddcfa8;fill-opacity:1;stroke:none;stroke-width:2.11667;stroke-linecap:round"
             d="m 607.26591,434.43738 c 2.51087,-0.71509 4.75137,-2.1108 6.70041,-4.15617 0.27152,-0.28494 0.35524,-0.81872 0.17516,-1.16866 -0.9224,-1.79242 -3.87868,-6.53819 -8.20707,-3.82721 -4.32892,2.7113 -1.12255,7.25411 0.16825,8.79785 0.25223,0.30166 0.78473,0.46199 1.16325,0.35419 z"
             id="path18"
             sodipodi:nodetypes="cczc"
             transform="rotate(25.715808,459.78344,-1922.2442)"
             inkscape:original-d="m 606.57583,434.61518 c 3.00549,-0.6943 5.6409,-2.33076 7.87207,-4.85929 0,0 -3.23736,-7.77512 -8.51349,-4.47055 -5.27614,3.30456 0.64142,9.32984 0.64142,9.32984 z"
             inkscape:path-effect="#path-effect25" />
          <path
             id="path19"
             style="fill:#d2c496;fill-opacity:1;stroke:none;stroke-width:2.11667;stroke-linecap:round"
             d="m -431.01968,259.44463 c -0.42816,1.744 -0.0559,3.73024 0.20205,4.75062 0.0964,0.38121 0.5062,0.7566 0.894,0.82371 0.23437,0.0406 0.46965,0.0728 0.70487,0.10129 -0.0343,-1.28823 -0.2961,-4.01722 -1.80092,-5.67562 z" />
        </g>
        <path
           style="fill:#ddcfa8;fill-opacity:1;stroke:none;stroke-width:2.11667;stroke-linecap:round"
           d="m 607.26591,434.43738 c 2.51087,-0.71509 4.75137,-2.1108 6.70041,-4.15617 0.27152,-0.28494 0.35524,-0.81872 0.17516,-1.16866 -0.9224,-1.79242 -3.87868,-6.53819 -8.20707,-3.82721 -4.32892,2.7113 -1.12255,7.25411 0.16825,8.79785 0.25223,0.30166 0.78473,0.46199 1.16325,0.35419 z"
           id="path20"
           sodipodi:nodetypes="cczc"
           inkscape:path-effect="#path-effect27"
           inkscape:original-d="m 606.57583,434.61518 c 3.00549,-0.6943 5.6409,-2.33076 7.87207,-4.85929 0,0 -3.23736,-7.77512 -8.51349,-4.47055 -5.27614,3.30456 0.64142,9.32984 0.64142,9.32984 z"
           transform="matrix(0.97828728,0.5857617,-0.5857617,0.97828728,-901.0646,-522.65901)" />
      </g>
    </g>
    <g
       id="g140"
       transform="translate(-71.215567,-40.804257)">
      <path
         style="opacity:1;fill:#a7cb6f;fill-opacity:1;stroke:none;stroke-width:2.11667;stroke-linecap:round"
         d="m 229.65833,158.79758 c -5.56709,-15.28585 13.43244,-18.26265 16.9328,-8.68631 l 2.91376,8.02659 c 12.90769,-0.19652 16.63173,3.54282 18.3622,8.13654 4.01185,17.10833 -14.58624,14.63059 -13.35932,6.04743 -15.26933,3.16809 -21.36794,-3.74029 -24.84944,-13.52425 z"
         id="back_arm"
         sodipodi:nodetypes="cccccc" />
      <path
         style="opacity:0.2;fill:#000000;fill-opacity:1;stroke:none;stroke-width:2.11667;stroke-linecap:round"
         d="m 262.32794,171.81059 c -0.10641,-0.2297 -0.32004,-0.16749 -0.29353,0.10025 0.21528,2.35306 -0.0576,4.6952 -1.53737,7.01146 0.56073,0.0628 1.12836,0.0724 1.69085,0.0129 1.4157,-3.30931 0.94235,-5.32924 0.14005,-7.12463 z"
         id="path140"
         sodipodi:nodetypes="ccccsc" />
    </g>
    <path
       style="fill:#ab3c36;fill-opacity:1;stroke:none;stroke-width:2.11667;stroke-linecap:round"
       d="m 214.06663,93.278817 c -3.45609,-4.02367 -6.17181,-7.4566 -4.05951,-17.34173 l -31.87225,-12.66927 -8.16361,7.85262 2.64345,13.13953 11.58457,4.04293 14.85,7.77487 z"
       id="path74-9-3"
       sodipodi:nodetypes="cccccccc" />
    <path
       id="path73-2-9-2"
       style="fill:#f2f2f2;fill-opacity:1;stroke:none;stroke-width:2.29037;stroke-linecap:round"
       d="m 211.69407,87.411587 a 7.5046794,5.40235 88.397918 0 0 -5.33662,7.45639 7.5046794,5.40235 88.397918 0 0 0.36019,2.56987 l 10.29446,-4.09846 a 7.5046794,5.40235 88.397918 0 0 -5.31803,-5.9278 z" />
    <ellipse
       style="fill:#f2f2f2;fill-opacity:1;stroke:none;stroke-width:2.29055;stroke-linecap:round"
       id="path73-3-5"
       cx="212.40292"
       cy="41.848076"
       rx="5.4040985"
       ry="7.5034204"
       transform="matrix(0.96813888,0.25041386,-0.26746467,0.96356767,0,0)" />
    <path
       style="fill:#faebbe;fill-opacity:1;stroke:none;stroke-width:2.11667;stroke-linecap:round"
       d="m 353.76262,-149.98364 c -6.48609,0.93533 -15.33009,1.31555 -22.69339,-1.58692 -13.42662,-5.29252 -15.50339,-20.4513 -15.50339,-20.4513 l -7.68101,-4.15667 -21.14767,15.08324 -3.42093,15.54974 -43.17833,53.184817 -58.49513,-9.675887 -27.59826,-6.37729 -1.0718,3.0228 c 27.0747,33.980654 165.72849,98.3289013 162.15331,-29.63148 14.95252,0.406 29.85339,2.91234 42.0266,-9.55967 3.57671,-3.66451 1.68446,-6.13314 -3.39,-5.40138 z"
       id="path72-7-2"
       sodipodi:nodetypes="czcccccccccc"
       inkscape:path-effect="#path-effect72-0-9"
       inkscape:original-d="m 362.84574,-151.90042 c 0,0 -18.34989,5.62238 -31.77651,0.32986 -13.42662,-5.29252 -15.50339,-20.4513 -15.50339,-20.4513 l -7.68101,-4.15667 -21.14767,15.08324 -3.42093,15.54974 -43.17833,53.184817 -58.49513,-9.675887 -27.59826,-6.37729 -1.0718,3.0228 c 27.0747,33.980654 165.72849,98.3289013 162.15331,-29.63148 17.37619,0.47181 34.68264,3.78004 47.71972,-16.87783 z"
       transform="translate(-140.47926,241.46782)" />
    <path
       id="spine"
       style="fill:#7d9853;fill-opacity:1;stroke-width:2.20731;stroke-linecap:round"
       d="m 129.82931,0.003487 c -1.23499,-0.004 -2.36539,0.2503 -3.34605,0.81649 -4.82979,2.78847 -4.90603,12.50372 -3.28146,21.24469 -9.36688,-2.5171 -21.31481,-3.5745 -24.23779,1.48829 -3.18564,5.51762 5.28048,16.68316 12.66847,23.50089 -9.11596,1.904 -19.20815,5.89556 -19.20813,11.11508 -3e-5,5.70777 12.06024,11.25775 21.72271,13.95884 l 1.56476,-11.64322 9.45575,-29.24731 28.40499,-15.49363 C 148.18079,9.129027 137.17688,0.024367 129.82931,0.003487 Z m -37.29954,82.14796 c -1.54695,0.0249 -2.88954,0.40196 -3.92741,1.22576 -5.61258,4.45475 -0.51204,20.519083 4.33152,29.336713 l 17.28009,-11.32644 1.4521,-10.803473 c -6.05371,-4.41154 -13.79893,-8.5185 -19.1363,-8.43256 z m -23.4642,14.27974 c -0.67779,0.0129 -1.32058,0.13877 -1.91978,0.39275 -5.69207,2.41251 -5.83042,15.685113 -4.19664,25.508523 l 21.09639,-3.79254 6.29677,-4.12739 C 85.36984,106.73982 75.62699,96.306587 69.06557,96.431187 Z m -23.4704,10.026273 c -0.26043,-0.006 -0.51993,0.009 -0.77773,0.045 -5.59721,0.78356 -9.05804,11.53711 -10.34872,20.95015 l 25.60567,-4.60334 c -3.67108,-8.01385 -9.2906,-16.27194 -14.47922,-16.39176 z" />
    <ellipse
       style="fill:#f2f2f2;fill-opacity:1;stroke:none;stroke-width:2.41063;stroke-linecap:round"
       id="ellipse73-5-6-8-8"
       cx="210.51793"
       cy="101.96123"
       rx="5.7347403"
       ry="7.8315806"
       transform="matrix(0.99163466,-0.12907631,0.10202452,0.99478188,0,0)" />
    <ellipse
       style="fill:#f2f2f2;fill-opacity:1;stroke:none;stroke-width:2.41063;stroke-linecap:round"
       id="ellipse73-5-5-6"
       cx="207.61819"
       cy="77.777718"
       rx="5.7347403"
       ry="7.8315806"
       transform="matrix(0.9999116,-0.01329615,-0.01393807,0.99990286,0,0)" />
    <ellipse
       style="fill:#f2f2f2;fill-opacity:1;stroke:none;stroke-width:2.41063;stroke-linecap:round"
       id="ellipse73-3-7"
       cx="202.98775"
       cy="24.047081"
       rx="5.7347403"
       ry="7.8315806"
       transform="matrix(0.96928174,0.24595307,-0.27225705,0.96222456,0,0)" />
    <path
       id="body"
       style="fill:#a7cb6f;fill-opacity:1;stroke:none;stroke-width:2.11667;stroke-linecap:round"
       d="m 159.70242,3.560377 c -5.86421,0.0174 -11.98436,1.26483 -17.95395,3.72845 -19.10268,7.88359 -29.83889,17.71302 -32.65433,34.83147 -2.81544,17.11845 -2.42616,28.23966 -1.08883,42.45064 -20.58596,22.625443 -42.83752,36.118363 -74.48279,32.809883 -8.21842,-1.10205 -14.86159,-4.58248 -20.95376,-8.55658 -8.75158,-5.7089 -13.67855,-2.26714 -10.58075,7.71529 1.30655,4.21028 2.81369,8.34921 4.73718,12.13879 3.13625,6.1789 12.00251,13.40897 18.14256,16.68994 9.80658,5.24019 20.16582,9.09883 30.70821,12.49949 7.11332,2.29455 18.92912,4.85873 26.32552,5.93608 19.83187,2.98577 42.81229,6.82125 56.79033,-8.96742 10.96376,-12.38394 14.98926,-29.5117 15.50345,-48.61098 0,0 -0.38474,-12.754553 1.53944,-22.210533 1.92418,-9.45597 9.56626,-15.76019 20.12177,-13.74438 16.94315,8.36257 32.26168,8.37097 47.16973,6.26732 9.60259,-1.83255 13.3411,-11.28837 11.21534,-28.36778 -2.96874,-15.39346 -12.99568,-23.83985 -24.46466,-24.07967 -11.46899,-0.23983 -15.41151,-0.20397 -19.40657,-2.63911 -6.10292,-12.01437 -17.76663,-17.92916 -30.66789,-17.8909 z"
       sodipodi:nodetypes="sssccssssscscscccscs" />
    <ellipse
       style="fill:#f2f2f2;fill-opacity:1;stroke:none;stroke-width:2.77363;stroke-linecap:round"
       id="path70-7-2"
       cx="167.93961"
       cy="47.702702"
       rx="14.788712"
       ry="15.47592" />
    <ellipse
       style="fill:#333333;fill-opacity:1;stroke:none;stroke-width:1.89901;stroke-linecap:round"
       id="ellipse70-1-2"
       cx="172.52844"
       cy="48.664646"
       rx="10.141453"
       ry="10.578981" />
    <ellipse
       style="fill:#f2f2f2;fill-opacity:1;stroke:none;stroke-width:0.562403;stroke-linecap:round"
       id="ellipse71-77-9"
       cx="169.02365"
       cy="44.651371"
       rx="2.980747"
       ry="3.1568873" />
    <ellipse
       style="opacity:0.2;fill:#ffffff;fill-opacity:1;stroke:none;stroke-width:2.11667;stroke-linecap:round"
       id="path71-7-4"
       cx="145.98578"
       cy="64.62841"
       rx="7.7359948"
       ry="5.2480364" />
    <path
       id="path69-6-8-1"
       style="opacity:0.5;fill:#ffffff;fill-opacity:1;stroke:none;stroke-width:2.11667;stroke-linecap:round"
       d="m 95.31617,97.027537 c -3.29671,2.84955 -6.67348,5.440493 -10.14822,7.763873 1.93861,4.13513 5.07979,8.42245 7.07709,10.1601 3.66446,3.18778 9.21608,2.80637 12.39924,-0.85266 3.18319,-3.65869 2.79271,-9.20961 -0.87178,-12.39769 -1.60362,-1.39503 -4.94524,-3.279723 -8.45633,-4.673623 z M 76.23516,110.01383 c -4.60435,2.31412 -9.40806,4.15769 -14.46423,5.47202 0.2216,4.07959 0.98943,8.10397 1.85053,10.23555 2.02818,5.02047 7.73672,7.45008 12.74961,5.42499 5.0129,-2.02507 7.43247,-7.73784 5.40432,-12.7584 -0.83557,-2.06835 -2.97093,-5.35843 -5.54023,-8.37416 z m -56.29062,3.08405 c -1.54181,1.70229 -2.83437,3.50121 -3.37912,4.68085 -1.42502,3.08627 -0.0821,6.7421 2.9993,8.16488 3.08161,1.42299 6.7351,0.0737 8.16022,-3.01222 0.6084,-1.31764 1.19722,-3.83923 1.45831,-6.4053 -3.30558,-0.82185 -6.36607,-2.00263 -9.23871,-3.42821 z m 33.71267,3.99149 c -4.96882,0.69965 -10.17988,0.9242 -15.68173,0.6165 -0.54044,1.42503 -0.93121,2.84104 -1.10639,4.11757 -0.79862,5.81984 2.39599,11.06617 7.13548,11.7166 4.73945,0.65038 9.22967,-3.54133 10.02833,-9.36118 0.28303,-2.06246 0.13468,-4.61804 -0.37569,-7.08949 z" />
    <path
       style="fill:#333333;fill-opacity:1"
       d="m 152.33561,29.814432 c -1.41588,-0.70213 -0.68377,-2.90133 1.76963,-5.31585 2.50607,-2.46634 5.87644,-3.75789 9.21715,-3.53206 2.95169,0.19953 4.68468,1.66099 4.06784,3.43047 -0.38047,1.09142 -0.92607,1.27923 -3.71617,1.27923 -3.75197,0 -6.29488,0.91857 -8.77997,3.17156 -1.32952,1.20534 -1.75385,1.36566 -2.55848,0.96665 z"
       id="path116-1-2-9" />
    <path
       style="opacity:0.25;fill:#000000;fill-opacity:1"
       d="m 221.51314,49.562637 c -0.8988,-0.37306 -2.5094,-2.16023 -3.0673,-3.40353 -0.6675,-1.48734 -0.8679,-3.68239 -0.414,-4.53621 1.3996,-2.63335 5.3467,-0.90035 6.7837,2.97849 0.7267,1.96129 0.7171,3.06245 -0.037,4.18428 -0.4999,0.74418 -0.7847,0.90862 -1.6536,0.95475 -0.5774,0.0306 -1.3028,-0.0494 -1.6122,-0.17778 z"
       id="path114-8-6" />
    <g
       id="g138"
       transform="translate(-99.582353,-40.738026)">
      <path
         id="path137-5"
         style="opacity:0.1;fill:#000000;fill-opacity:1;stroke:none;stroke-width:2.11667;stroke-linecap:round"
         d="m 240.65508,161.1452 -8.69766,2.61845 c 3.59829,8.77777 9.85625,14.63279 24.14064,11.66905 l 0.6811,-0.22996 v -8.21087 l -1.37356,-0.15813 z" />
      <path
         style="opacity:1;fill:#a7cb6f;fill-opacity:1;stroke:none;stroke-width:2.11667;stroke-linecap:round"
         d="m 229.65833,158.79758 c -5.56709,-15.28585 13.43244,-18.26265 16.9328,-8.68631 l 2.91376,8.02659 c 12.90769,-0.19652 16.63173,3.54282 18.3622,8.13654 4.01185,17.10833 -14.58624,14.63059 -13.35932,6.04743 -15.26933,3.16809 -21.36794,-3.74029 -24.84944,-13.52425 z"
         id="front_arm"
         sodipodi:nodetypes="cccccc" />
      <path
         style="opacity:0.2;fill:#000000;fill-opacity:1;stroke:none;stroke-width:2.11667;stroke-linecap:round"
         d="m 262.32794,171.81059 c -0.10641,-0.2297 -0.32004,-0.16749 -0.29353,0.10025 0.21528,2.35306 -0.0576,4.6952 -1.53737,7.01146 0.56073,0.0628 1.12836,0.0724 1.69085,0.0129 1.4157,-3.30931 0.94235,-5.32924 0.14005,-7.12463 z"
         id="path134-6-5"
         sodipodi:nodetypes="ccccsc" />
    </g>
    <g
       id="front_leg_group"
       inkscape:transform-center-x="-4.7625155"
       inkscape:transform-center-y="38.893747"
       transform="translate(673.89394,-36.773622)">
      <path
         id="front_thigh"
         style="fill:#a7cb6f;fill-opacity:1;stroke-width:1.14025"
         d="m -585.45517,199.46156 c 0.29156,1.83372 0.56905,7.84466 1.94718,11.95345 1.25863,3.7525 3.33101,11.63925 3.95599,15.05539 0.47051,2.57175 0.50218,3.59343 0.20254,6.55523 -0.34268,3.38694 -0.49084,4.41322 -1.51391,10.47636 -0.37554,2.22564 -0.39483,3.16722 -0.0925,4.60791 0.39299,1.87303 0.80571,2.71975 1.97423,4.05459 l -3.4e-4,4.8e-4 c 0.44541,0.50878 1.5079,1.23743 3.05291,2.0948 1.99813,1.10887 2.74824,1.39443 4.78777,1.82083 4.5302,0.94709 11.63608,1.3197 18.3104,0.96012 4.81122,-0.25919 14.01235,-1.44734 14.24399,-1.83944 0.66943,-2.10077 4.21587,-5.34902 4.36,-7.32464 0.0675,-1.59758 -1.68374,-4.75831 -3.6057,-6.50752 -1.5874,-1.44472 -4.62199,-2.91476 -6.87207,-3.32914 -1.04113,-0.19176 -1.90116,-0.39557 -1.9113,-0.45322 -0.0101,-0.0577 0.50759,-1.59639 1.15086,-3.41873 4.01226,-11.36647 5.22477,-42.28 2.68206,-50.58187 -5.04782,-16.48134 -47.64867,-15.42469 -42.67209,15.8754 z"
         sodipodi:nodetypes="ssssssccssscsssssss" />
      <g
         id="g2">
        <g
           id="g146"
           transform="matrix(1.1355616,0.10325994,-0.10325994,1.1355616,-36.460442,0.07743733)">
          <path
             style="fill:#fdeec4;fill-opacity:1;stroke:none;stroke-width:2.11667;stroke-linecap:round"
             d="m 607.26591,434.43738 c 2.51087,-0.71509 4.75137,-2.1108 6.70041,-4.15617 0.27152,-0.28494 0.35524,-0.81872 0.17516,-1.16866 -0.9224,-1.79242 -3.87868,-6.53819 -8.20707,-3.82721 -4.32892,2.7113 -1.12255,7.25411 0.16825,8.79785 0.25223,0.30166 0.78473,0.46199 1.16325,0.35419 z"
             id="path141-2"
             sodipodi:nodetypes="cczc"
             transform="rotate(17.865484,638.19619,-2920.4587)"
             inkscape:original-d="m 606.57583,434.61518 c 3.00549,-0.6943 5.6409,-2.33076 7.87207,-4.85929 0,0 -3.23736,-7.77512 -8.51349,-4.47055 -5.27614,3.30456 0.64142,9.32984 0.64142,9.32984 z"
             inkscape:path-effect="#path-effect142-3" />
          <path
             id="path141-2-5"
             style="fill:#d2c496;fill-opacity:1;stroke:none;stroke-width:2.11667;stroke-linecap:round"
             d="m -422.17164,257.0055 c -0.52954,1.98199 0.24992,4.35136 0.70434,5.47408 0.14753,0.3645 0.60505,0.67998 0.99839,0.6935 0.15306,0.005 0.30616,0.007 0.45889,0.008 0.006,-0.0443 0.009,-0.0879 0.008,-0.13126 -0.0367,-1.38659 -0.33418,-4.45129 -2.16989,-6.04408 z" />
        </g>
        <g
           id="g147"
           transform="matrix(1.1355616,0.10325994,-0.10325994,1.1355616,-35.825505,0.16194996)">
          <path
             style="fill:#fdeec4;fill-opacity:1;stroke:none;stroke-width:2.11667;stroke-linecap:round"
             d="m 607.26591,434.43738 c 2.51087,-0.71509 4.75137,-2.1108 6.70041,-4.15617 0.27152,-0.28494 0.35524,-0.81872 0.17516,-1.16866 -0.9224,-1.79242 -3.87868,-6.53819 -8.20707,-3.82721 -4.32892,2.7113 -1.12255,7.25411 0.16825,8.79785 0.25223,0.30166 0.78473,0.46199 1.16325,0.35419 z"
             id="path126-5-4"
             sodipodi:nodetypes="cczc"
             transform="rotate(25.715808,459.78344,-1922.2442)"
             inkscape:original-d="m 606.57583,434.61518 c 3.00549,-0.6943 5.6409,-2.33076 7.87207,-4.85929 0,0 -3.23736,-7.77512 -8.51349,-4.47055 -5.27614,3.30456 0.64142,9.32984 0.64142,9.32984 z"
             inkscape:path-effect="#path-effect127-8-2-9-6" />
          <path
             id="path126-5-4-5"
             style="fill:#d2c496;fill-opacity:1;stroke:none;stroke-width:2.11667;stroke-linecap:round"
             d="m -431.01968,259.44463 c -0.42816,1.744 -0.0559,3.73024 0.20205,4.75062 0.0964,0.38121 0.5062,0.7566 0.894,0.82371 0.23437,0.0406 0.46965,0.0728 0.70487,0.10129 -0.0343,-1.28823 -0.2961,-4.01722 -1.80092,-5.67562 z" />
        </g>
        <path
           style="fill:#fdeec4;fill-opacity:1;stroke:none;stroke-width:2.11667;stroke-linecap:round"
           d="m 607.26591,434.43738 c 2.51087,-0.71509 4.75137,-2.1108 6.70041,-4.15617 0.27152,-0.28494 0.35524,-0.81872 0.17516,-1.16866 -0.9224,-1.79242 -3.87868,-6.53819 -8.20707,-3.82721 -4.32892,2.7113 -1.12255,7.25411 0.16825,8.79785 0.25223,0.30166 0.78473,0.46199 1.16325,0.35419 z"
           id="path141"
           sodipodi:nodetypes="cczc"
           inkscape:path-effect="#path-effect142"
           inkscape:original-d="m 606.57583,434.61518 c 3.00549,-0.6943 5.6409,-2.33076 7.87207,-4.85929 0,0 -3.23736,-7.77512 -8.51349,-4.47055 -5.27614,3.30456 0.64142,9.32984 0.64142,9.32984 z"
           transform="matrix(0.97828728,0.5857617,-0.5857617,0.97828728,-901.0646,-522.65901)" />
      </g>
    </g>
    <circle
       style="opacity:0;fill:#ff5a51;fill-opacity:1;stroke-width:52.9167;stroke-linecap:round"
       id="front_centering_object"
       cx="110.48537"
       cy="140.16476"
       r="3.0489094" />
    <circle
       style="opacity:0;fill:#ff5a51;fill-opacity:1;stroke-width:52.9167;stroke-linecap:round"
       id="rear_centering_object"
       cx="138.00198"
       cy="134.87309"
       r="3.0489094" />
  </g>
</svg>
