<?xml version="1.0" encoding="UTF-8" standalone="no"?>
<!-- Created with Inkscape (http://www.inkscape.org/) -->

<svg
   width="100"
   height="100"
   viewBox="0 0 26.458333 26.458333"
   version="1.1"
   id="svg1"
   inkscape:version="1.4 (86a8ad7, 2024-10-11)"
   sodipodi:docname="verse_spalt_paint_blob_10.svg"
   xmlns:inkscape="http://www.inkscape.org/namespaces/inkscape"
   xmlns:sodipodi="http://sodipodi.sourceforge.net/DTD/sodipodi-0.dtd"
   xmlns="http://www.w3.org/2000/svg"
   xmlns:svg="http://www.w3.org/2000/svg">
  <sodipodi:namedview
     id="namedview1"
     pagecolor="#ffffff"
     bordercolor="#000000"
     borderopacity="0.25"
     inkscape:showpageshadow="false"
     inkscape:pageopacity="0.0"
     inkscape:pagecheckerboard="0"
     inkscape:deskcolor="#d1d1d1"
     inkscape:document-units="px"
     borderlayer="false"
     inkscape:zoom="4.8126513"
     inkscape:cx="91.633483"
     inkscape:cy="38.336457"
     inkscape:window-width="2048"
     inkscape:window-height="1209"
     inkscape:window-x="-8"
     inkscape:window-y="-8"
     inkscape:window-maximized="1"
     inkscape:current-layer="layer1" />
  <defs
     id="defs1" />
  <g
     inkscape:label="Layer 1"
     inkscape:groupmode="layer"
     id="layer1">
    <path
       style="fill:#000000;stroke-width:0.706534"
       d="M 16.784488,25.583921 C 16.607933,25.471012 16.066592,25.123571 15.581519,24.811848 14.344601,24.016927 12.806723,22.189417 11.542648,20.012296 9.495262,16.48609 8.3550685,15.422248 4.9211178,13.834164 3.0912348,12.98792 2.5647553,12.665455 1.9188491,11.995273 0.43195805,10.45253 -0.03561835,8.9175796 0.35411955,6.8586523 0.62236485,5.4415722 1.5146631,4.0359692 3.0230995,2.6541275 5.3581076,0.51513841 8.117671,-0.26243869 11.311464,0.31866931 c 1.412251,0.2569564 1.639975,0.3464645 2.849234,1.11988979 2.596492,1.6606773 3.96667,3.7934157 4.82881,7.5162277 0.25409,1.0971572 0.666097,2.1530462 1.141609,2.9256772 0.960345,1.560402 1.176515,1.797596 2.828312,3.103368 1.718683,1.358655 2.246559,1.948167 2.75802,3.080074 1.33588,2.956365 0.0055,6.310547 -3.053316,7.698199 -1.226688,0.556477 -2.664719,0.706038 -4.103581,0.426766 -1.1271,-0.218673 -1.223443,-0.251477 -1.776069,-0.604935 z"
       id="path18" />
  </g>
</svg>
