<?xml version="1.0" encoding="UTF-8" standalone="no"?>
<!-- Created with Inkscape (http://www.inkscape.org/) -->

<svg
   width="100"
   height="100"
   viewBox="0 0 26.458333 26.458333"
   version="1.1"
   id="svg1"
   inkscape:version="1.4 (86a8ad7, 2024-10-11)"
   sodipodi:docname="verse_spalt_paint_blob_11.svg"
   xmlns:inkscape="http://www.inkscape.org/namespaces/inkscape"
   xmlns:sodipodi="http://sodipodi.sourceforge.net/DTD/sodipodi-0.dtd"
   xmlns="http://www.w3.org/2000/svg"
   xmlns:svg="http://www.w3.org/2000/svg">
  <sodipodi:namedview
     id="namedview1"
     pagecolor="#ffffff"
     bordercolor="#000000"
     borderopacity="0.25"
     inkscape:showpageshadow="false"
     inkscape:pageopacity="0.0"
     inkscape:pagecheckerboard="0"
     inkscape:deskcolor="#d1d1d1"
     inkscape:document-units="px"
     borderlayer="false"
     inkscape:zoom="4.8126513"
     inkscape:cx="91.633483"
     inkscape:cy="38.336457"
     inkscape:window-width="2048"
     inkscape:window-height="1209"
     inkscape:window-x="-8"
     inkscape:window-y="-8"
     inkscape:window-maximized="1"
     inkscape:current-layer="layer1" />
  <defs
     id="defs1" />
  <g
     inkscape:label="Layer 1"
     inkscape:groupmode="layer"
     id="layer1">
    <path
       style="fill:#000000;stroke-width:0.78824"
       d="M 2.3804572,25.964502 C 0.72057801,25.019408 -0.03091909,23.563226 0.20279671,21.74484 0.41626831,20.083958 1.5407864,18.449897 3.9262038,16.334294 6.5927278,13.969373 8.0706308,12.253009 9.9353858,9.3555283 10.802214,8.0086326 12.083207,6.0228812 12.782032,4.9427471 c 2.308777,-3.5685572 4.858521,-5.13060952 7.763612,-4.75623402 0.747647,0.096349 1.775136,0.37946 2.283311,0.6291368 1.267446,0.62272022 2.64412,2.28661332 3.156383,3.81490922 0.362013,1.0800299 0.387713,1.5107642 0.185842,3.1156348 -0.208869,1.6605274 -0.322324,1.999081 -1.047325,3.1242921 -1.774582,2.754164 -4.011241,4.283358 -8.682716,5.936332 -1.605514,0.568104 -3.344739,1.294831 -3.864944,1.614948 -1.173175,0.721926 -2.307659,2.01279 -2.9452532,3.351239 -1.11481,2.340224 -2.397696,3.775278 -3.834268,4.289047 -1.083397,0.387462 -2.642617,0.342945 -3.4162497,-0.09757 z"
       id="path34" />
  </g>
</svg>
