<?xml version="1.0" encoding="UTF-8" standalone="no"?>
<!-- Created with Inkscape (http://www.inkscape.org/) -->

<svg
   width="100"
   height="100"
   viewBox="0 0 26.458333 26.458333"
   version="1.1"
   id="svg1"
   inkscape:version="1.4 (86a8ad7, 2024-10-11)"
   sodipodi:docname="verse_spalt_paint_blob_1.svg"
   xmlns:inkscape="http://www.inkscape.org/namespaces/inkscape"
   xmlns:sodipodi="http://sodipodi.sourceforge.net/DTD/sodipodi-0.dtd"
   xmlns="http://www.w3.org/2000/svg"
   xmlns:svg="http://www.w3.org/2000/svg">
  <sodipodi:namedview
     id="namedview1"
     pagecolor="#ffffff"
     bordercolor="#000000"
     borderopacity="0.25"
     inkscape:showpageshadow="false"
     inkscape:pageopacity="0.0"
     inkscape:pagecheckerboard="0"
     inkscape:deskcolor="#d1d1d1"
     inkscape:document-units="px"
     borderlayer="false"
     inkscape:zoom="4.8126513"
     inkscape:cx="91.633483"
     inkscape:cy="38.336457"
     inkscape:window-width="2048"
     inkscape:window-height="1209"
     inkscape:window-x="-8"
     inkscape:window-y="-8"
     inkscape:window-maximized="1"
     inkscape:current-layer="layer1" />
  <defs
     id="defs1" />
  <g
     inkscape:label="Layer 1"
     inkscape:groupmode="layer"
     id="layer1">
    <path
       style="fill:#000000;stroke-width:0.63536"
       d="M 5.963884,26.272834 C 3.6701969,26.580918 1.5603107,25.528054 0.83146256,23.711675 0.39028916,22.61162 0.52242986,20.956391 1.1508649,19.716804 1.4444025,19.1378 2.3828721,17.931022 3.4702607,16.734291 5.0489448,14.996865 5.3797142,14.529161 5.9092097,13.285624 6.4070893,12.116337 6.5520774,11.437261 6.6835969,9.65866 6.8720742,7.109778 7.3673097,5.6994561 8.6121711,4.1665081 12.72409,-0.89699295 21.618866,-1.2841616 23.535375,3.5169357 c 0.466335,1.1682276 0.470908,2.4714513 0.01374,3.9151588 -0.34362,1.0851405 -0.412455,2.3124998 -0.16447,2.9326705 0.102985,0.257547 0.53116,0.819695 0.951509,1.249214 1.616872,1.652166 1.917692,2.87112 1.139407,4.616969 -1.012162,2.270472 -3.340474,3.680822 -6.946954,4.208036 -2.933179,0.428789 -4.683201,1.174562 -6.961041,2.96645 -1.382918,1.087887 -2.0399633,1.49483 -3.337865,2.067319 -0.8888051,0.39204 -1.908422,0.752077 -2.265814,0.800081 z"
       id="path36" />
  </g>
</svg>
