<?xml version="1.0" encoding="UTF-8" standalone="no"?>
<!-- Created with Inkscape (http://www.inkscape.org/) -->

<svg
   width="100"
   height="100"
   viewBox="0 0 26.458333 26.458333"
   version="1.1"
   id="svg1"
   inkscape:version="1.4 (86a8ad7, 2024-10-11)"
   sodipodi:docname="verse_spalt_paint_blob_5.svg"
   xmlns:inkscape="http://www.inkscape.org/namespaces/inkscape"
   xmlns:sodipodi="http://sodipodi.sourceforge.net/DTD/sodipodi-0.dtd"
   xmlns="http://www.w3.org/2000/svg"
   xmlns:svg="http://www.w3.org/2000/svg">
  <sodipodi:namedview
     id="namedview1"
     pagecolor="#ffffff"
     bordercolor="#000000"
     borderopacity="0.25"
     inkscape:showpageshadow="false"
     inkscape:pageopacity="0.0"
     inkscape:pagecheckerboard="0"
     inkscape:deskcolor="#d1d1d1"
     inkscape:document-units="px"
     borderlayer="false"
     inkscape:zoom="4.8126513"
     inkscape:cx="91.633483"
     inkscape:cy="38.336457"
     inkscape:window-width="2048"
     inkscape:window-height="1209"
     inkscape:window-x="-8"
     inkscape:window-y="-8"
     inkscape:window-maximized="1"
     inkscape:current-layer="layer1" />
  <defs
     id="defs1" />
  <g
     inkscape:label="Layer 1"
     inkscape:groupmode="layer"
     id="layer1">
    <path
       style="fill:#000000;stroke-width:0.600156"
       d="M 5.3416131,26.297319 C 2.9193825,26.527859 0.86269086,25.351999 0.34104656,23.438378 -0.09240614,21.848282 0.07358376,21.279609 1.8729587,18.190124 4.3589571,13.921725 4.6176086,12.547265 3.7136678,8.4087064 3.0849316,5.5301296 3.099311,4.5491645 3.7907028,3.1536414 4.4420624,1.8389119 5.4148658,1.075534 7.1270267,0.53554809 c 1.7599938,-0.5550705 3.0046193,-0.5400706 5.2560053,0.063346 2.796873,0.74961991 4.335711,0.95270171 6.358308,0.83912281 3.342893,-0.1877165 5.45381,0.5286128 6.698837,2.2732252 0.667281,0.9350377 0.942796,1.8449492 0.864945,2.8565534 -0.152274,1.9786476 -1.012801,3.0652652 -4.002309,5.0538575 -2.394471,1.592774 -3.588528,2.722174 -5.494325,5.196792 -0.658037,0.854442 -1.852962,2.4048 -2.655391,3.445239 -2.268007,2.940739 -3.908725,4.363979 -6.1296226,5.317157 -1.1352322,0.487221 -1.6123269,0.614679 -2.6817958,0.716721 z"
       id="path7" />
  </g>
</svg>
