<?xml version="1.0" encoding="UTF-8" standalone="no"?>
<!-- Created with Inkscape (http://www.inkscape.org/) -->

<svg
   width="100"
   height="100"
   viewBox="0 0 26.458333 26.458333"
   version="1.1"
   id="svg1"
   inkscape:version="1.4 (86a8ad7, 2024-10-11)"
   sodipodi:docname="verse_spalt_paint_blob_6.svg"
   xmlns:inkscape="http://www.inkscape.org/namespaces/inkscape"
   xmlns:sodipodi="http://sodipodi.sourceforge.net/DTD/sodipodi-0.dtd"
   xmlns="http://www.w3.org/2000/svg"
   xmlns:svg="http://www.w3.org/2000/svg">
  <sodipodi:namedview
     id="namedview1"
     pagecolor="#ffffff"
     bordercolor="#000000"
     borderopacity="0.25"
     inkscape:showpageshadow="false"
     inkscape:pageopacity="0.0"
     inkscape:pagecheckerboard="0"
     inkscape:deskcolor="#d1d1d1"
     inkscape:document-units="px"
     borderlayer="false"
     inkscape:zoom="4.8126513"
     inkscape:cx="91.633483"
     inkscape:cy="38.336457"
     inkscape:window-width="2048"
     inkscape:window-height="1209"
     inkscape:window-x="-8"
     inkscape:window-y="-8"
     inkscape:window-maximized="1"
     inkscape:current-layer="layer1" />
  <defs
     id="defs1" />
  <g
     inkscape:label="Layer 1"
     inkscape:groupmode="layer"
     id="layer1">
    <path
       style="fill:#000000"
       d="m -84.195596,158.34506 c -3.997897,-0.67355 -6.800961,-3.453 -6.815271,-6.75785 -0.01189,-2.74612 0.500505,-3.58979 4.728871,-7.7862 5.841866,-5.79771 6.850894,-7.8983 7.180805,-14.94896 0.22947,-4.90409 0.675657,-6.47671 2.390245,-8.42458 1.615316,-1.8351 3.51021,-2.6442 6.49873,-2.77491 3.07201,-0.13436 5.068713,0.42653 8.431996,2.36862 4.178171,2.41264 6.567287,3.40312 9.871551,4.09257 5.461196,1.13951 8.549707,3.20275 9.801156,6.54755 0.670723,1.79267 0.721751,3.37595 0.160196,4.97051 -1.098375,3.11888 -2.951963,4.49664 -8.621035,6.40796 -4.540685,1.53088 -6.949527,2.83366 -11.084012,5.99457 -1.427563,1.09141 -4.01934,3.07133 -5.759505,4.39982 -4.918462,3.75491 -8.172905,5.33799 -12.158404,5.91432 -2.037223,0.29459 -2.860053,0.29398 -4.625323,-0.003 z"
       id="path7" />
    <path
       style="fill:#000000;stroke-width:1.28062"
       d="m 14.224253,25.608173 c -2.207706,0.53615 -3.543219,0.536267 -5.6502825,5.15e-4 -3.387884,-0.861446 -4.673985,-1.824434 -6.641225,-4.972766 -1.95478,-3.128378 -2.140204,-4.097404 -1.398241,-7.306772 0.584773,-2.529444 2.365539,-4.9277054 5.115525,-6.8893651 2.148946,-1.5329075 9.9269075,-4.9117884 13.2074165,-5.73751978 4.582783,-1.15353481 8.405412,1.77643958 7.265252,5.56866568 -0.244486,0.8131419 -1.068037,2.2769595 -1.830118,3.252927 -1.424195,1.8238962 -1.965841,3.4861642 -2.50573,7.6898842 -0.475107,3.699247 -3.904721,7.506101 -7.562597,8.394438 z"
       id="path5" />
  </g>
</svg>
