<?xml version="1.0" encoding="UTF-8" standalone="no"?>
<!-- Created with Inkscape (http://www.inkscape.org/) -->

<svg
   width="100"
   height="82"
   viewBox="0 0 26.458333 21.695833"
   version="1.1"
   id="svg1"
   inkscape:version="1.4 (86a8ad7, 2024-10-11)"
   sodipodi:docname="verse_invaders_alien.svg"
   xmlns:inkscape="http://www.inkscape.org/namespaces/inkscape"
   xmlns:sodipodi="http://sodipodi.sourceforge.net/DTD/sodipodi-0.dtd"
   xmlns="http://www.w3.org/2000/svg"
   xmlns:svg="http://www.w3.org/2000/svg">
  <!-- Eyelid blink animation: first blink starts after 5s, then repeats every 5s. -->
  <sodipodi:namedview
     id="namedview1"
     pagecolor="#ffffff"
     bordercolor="#000000"
     borderopacity="0.25"
     inkscape:showpageshadow="false"
     inkscape:pageopacity="0.0"
     inkscape:pagecheckerboard="0"
     inkscape:deskcolor="#d1d1d1"
     inkscape:document-units="px"
     borderlayer="false"
     inkscape:zoom="6.8061167"
     inkscape:cx="31.662695"
     inkscape:cy="26.079482"
     inkscape:window-width="2048"
     inkscape:window-height="1209"
     inkscape:window-x="-8"
     inkscape:window-y="-8"
     inkscape:window-maximized="1"
     inkscape:current-layer="layer1" />
  <defs
     id="defs1" />
  <g
     inkscape:label="Layer 1"
     inkscape:groupmode="layer"
     id="layer1">
    <path
       id="alien_body"
       style="fill:#ffc751;stroke-width:0.141672;stroke-linecap:round;stroke-linejoin:round"
       d="m 20.205485,4.8725707 c 0.797292,0 1.442289,0.6449971 1.442289,1.4422892 v 0.962732 6.5210491 3.025138 2.405538 1.524455 c 0,0.486377 -0.395618,0.881083 -0.881083,0.881083 h -1.524455 -2.405021 -1.219047 c -0.655018,0 -1.186491,-0.531922 -1.186491,-1.186491 v -0.04548 c 0,-0.655007 0.531473,-1.186491 1.186491,-1.186491 h 1.219047 1.822628 c 0.322731,0 0.582393,-0.2592 0.582393,-0.582394 V 17.39377 c 0,-0.322732 -0.259212,-0.582393 -0.582393,-0.582393 H 16.837215 14.431677 13.229167 12.026656 9.621118 7.79849 c -0.322744,0 -0.582393,0.259199 -0.582393,0.582393 v 1.240234 c 0,0.322732 0.2592,0.582394 0.582393,0.582394 h 1.822628 1.219047 c 0.654557,0 1.186491,0.531484 1.186491,1.186491 v 0.04548 c 0,0.654569 -0.531934,1.186491 -1.186491,1.186491 H 9.621118 7.216097 5.691642 c -0.486827,0 -0.881083,-0.395617 -0.881083,-0.881083 v -1.52446 -2.405538 -3.025138 -6.5210491 -0.962732 c 0,-0.7972921 0.644997,-1.4422892 1.442289,-1.4422892 h 0.963249 12.026139 z" />
    <g
       id="left_antenna_group">
      <path
         style="fill:#ffc751;stroke-width:0.141672;stroke-linecap:round;stroke-linejoin:round"
         d="m 5.9567423,0.08836669 c -0.6331848,0 -1.1461833,0.51344837 -1.1461833,1.14618321 v 0.1136882 c 0,0.633197 0.5129985,1.1461832 1.1461833,1.1461832 h 0.6764445 c 0.3227439,0 0.5829101,0.2638134 0.5829101,0.5829102 v 1.7952392 c 0,0 0.3247669,0.5291667 1.2025106,0.5291667 0.8777436,0 1.2025105,-0.5291667 1.2025105,-0.5291667 V 2.4933878 1.5301391 c 0,-0.79684211 -0.6449971,-1.44177241 -1.4422892,-1.44177241 H 7.2160969 Z"
         id="alien_body-9"
         sodipodi:nodetypes="ssssssczccsscs" />
      <path
         style="opacity:0;fill:#ffc751;stroke-width:0.141672;stroke-linecap:round;stroke-linejoin:round"
         d="m 10.880473,0.08836669 c 0.633184,0 1.146183,0.51344837 1.146183,1.14618321 v 0.1136882 c 0,0.633197 -0.512999,1.1461832 -1.146183,1.1461832 h -0.676445 c -0.3227438,0 -0.58291,0.2638134 -0.58291,0.5829102 v 1.7952392 c 0,0 -0.3247669,0.5291667 -1.2025106,0.5291667 -0.8777436,0 -1.2025105,-0.5291667 -1.2025105,-0.5291667 V 2.4933878 1.5301391 c 0,-0.79684211 0.6449971,-1.44177241 1.4422892,-1.44177241 H 9.621118 Z"
         id="path6"
         sodipodi:nodetypes="ssssssczccsscs" />
    </g>
    <g
       id="right_antenna_group"
       transform="matrix(-1,0,0,1,26.458333,0)">
      <path
         style="fill:#ffc751;stroke-width:0.141672;stroke-linecap:round;stroke-linejoin:round"
         d="m 5.9567423,0.08836669 c -0.6331848,0 -1.1461833,0.51344837 -1.1461833,1.14618321 v 0.1136882 c 0,0.633197 0.5129985,1.1461832 1.1461833,1.1461832 h 0.6764445 c 0.3227439,0 0.5829101,0.2638134 0.5829101,0.5829102 v 1.7952392 c 0,0 0.3247669,0.5291667 1.2025106,0.5291667 0.8777436,0 1.2025105,-0.5291667 1.2025105,-0.5291667 V 2.4933878 1.5301391 c 0,-0.79684211 -0.6449971,-1.44177241 -1.4422892,-1.44177241 H 7.2160969 Z"
         id="path7"
         sodipodi:nodetypes="ssssssczccsscs" />
      <path
         style="opacity:0;fill:#ffc751;stroke-width:0.141672;stroke-linecap:round;stroke-linejoin:round"
         d="m 10.880473,0.08836669 c 0.633184,0 1.146183,0.51344837 1.146183,1.14618321 v 0.1136882 c 0,0.633197 -0.512999,1.1461832 -1.146183,1.1461832 h -0.676445 c -0.3227438,0 -0.58291,0.2638134 -0.58291,0.5829102 v 1.7952392 c 0,0 -0.3247669,0.5291667 -1.2025106,0.5291667 -0.8777436,0 -1.2025105,-0.5291667 -1.2025105,-0.5291667 V 2.4933878 1.5301391 c 0,-0.79684211 0.6449971,-1.44177241 1.4422892,-1.44177241 H 9.621118 Z"
         id="path8"
         sodipodi:nodetypes="ssssssczccsscs" />
    </g>
    <g
       id="right_eye"
       transform="translate(0.52916666)">
      <path
         id="path10"
         style="opacity:1;fill:#f1f3f7;stroke-width:4.11338;stroke-linecap:round"
         d="M 19.817963,9.1305799 A 3.0218244,3.0218244 0 0 1 16.796139,12.152404 3.0218244,3.0218244 0 0 1 13.774314,9.1305799 3.0218244,3.0218244 0 0 1 16.796139,6.1087556 3.0218244,3.0218244 0 0 1 19.817963,9.1305799 Z" />
      <circle
         cy="9.1305799"
         cx="-16.796139"
         id="circle67"
         style="color:#000000;clip-rule:nonzero;display:inline;overflow:visible;visibility:visible;isolation:auto;mix-blend-mode:normal;color-interpolation:sRGB;color-interpolation-filters:linearRGB;solid-color:#000000;solid-opacity:1;fill:#333333;fill-opacity:1;fill-rule:nonzero;stroke:none;stroke-width:0.000778852;stroke-linecap:round;stroke-linejoin:round;stroke-miterlimit:4;stroke-dasharray:none;stroke-dashoffset:0;stroke-opacity:1;marker:none;color-rendering:auto;image-rendering:auto;shape-rendering:auto;text-rendering:auto;enable-background:accumulate"
         transform="scale(-1,1)"
         r="1.2046765" />
    </g>
    <g
       id="arms_group"
       style="fill:#ffc751;fill-opacity:1"
       transform="rotate(180,13.229167,10.537858)">
      <path
         id="arms"
         style="fill:#ffc751;fill-opacity:1;stroke-width:0.141672;stroke-linecap:round;stroke-linejoin:round"
         d="m 3.8473103,7.2775919 c -0.7968301,0 -1.4422892,0.645459 -1.4422892,1.442289 v 0.963249 H 1.4422892 C 0.64499719,9.6831299 0,10.328127 0,11.125419 v 3.293339 2.405021 1.195793 c -0.0036471,0.664112 0.53116352,1.20611 1.1952759,1.209745 0.667735,0 1.2097452,-0.54246 1.2097452,-1.209745 v -1.195793 -3.025138 c 0,-0.322732 0.2638134,-0.58291 0.5829102,-0.58291 h 1.2397176 c 0.3227317,0 0.5829101,0.259266 0.5829101,0.58291 0,0 0.5291667,-1.0327 0.5291667,-3.260783 0,-2.2280831 -0.5291667,-3.2602661 -0.5291667,-3.2602661 z m 17.8004637,0 c 0,0 -0.529167,1.032183 -0.529167,3.2602661 0,2.228083 0.529167,3.260783 0.529167,3.260783 0,-0.323644 0.260178,-0.58291 0.58291,-0.58291 h 1.239718 c 0.319097,0 0.58291,0.260178 0.58291,0.58291 v 3.025138 1.195793 c 0,0.667285 0.54201,1.209745 1.209745,1.209745 0.664112,-0.0036 1.198976,-0.545633 1.195276,-1.209745 v -1.195793 -2.405021 -3.293339 c 0,-0.797292 -0.644997,-1.4422891 -1.442289,-1.4422891 h -0.962732 v -0.963249 c 0,-0.79683 -0.645458,-1.442289 -1.442289,-1.442289 z" />
      <path
         id="path9"
         style="opacity:0;fill:#ffc751;fill-opacity:1;stroke-width:0.141672;stroke-linecap:round;stroke-linejoin:round"
         d="m 3.8473103,13.798124 c -0.7968301,0 -1.4422892,-0.645459 -1.4422892,-1.442289 V 11.392586 H 1.4422892 C 0.64499719,11.392586 0,10.747589 0,9.950297 V 6.656958 4.2519369 3.0561439 c -0.0036471,-0.664112 0.53116352,-1.20611 1.1952759,-1.209745 0.667735,0 1.2097452,0.54246 1.2097452,1.209745 v 1.195793 3.0251381 c 0,0.322732 0.2638134,0.58291 0.5829102,0.58291 h 1.2397176 c 0.3227317,0 0.5829101,-0.259266 0.5829101,-0.58291 0,0 0.5291667,1.0327 0.5291667,3.260783 0,2.228083 -0.5291667,3.260266 -0.5291667,3.260266 z m 17.8004637,0 c 0,0 -0.529167,-1.032183 -0.529167,-3.260266 0,-2.228083 0.529167,-3.260783 0.529167,-3.260783 0,0.323644 0.260178,0.58291 0.58291,0.58291 h 1.239718 c 0.319097,0 0.58291,-0.260178 0.58291,-0.58291 V 4.2519369 3.0561439 c 0,-0.667285 0.54201,-1.209745 1.209745,-1.209745 0.664112,0.0036 1.198976,0.545633 1.195276,1.209745 v 1.195793 2.4050211 3.293339 c 0,0.797292 -0.644997,1.442289 -1.442289,1.442289 h -0.962732 v 0.963249 c 0,0.79683 -0.645458,1.442289 -1.442289,1.442289 z" />
    </g>
    <g
       id="left_eye">
      <circle
         style="fill:#f1f3f7;fill-opacity:1;stroke-width:4.11338;stroke-linecap:round"
         id="circle12"
         cx="-9.1330271"
         cy="9.1305799"
         r="3.0218244"
         transform="scale(-1,1)" />
      <circle
         cy="9.1305799"
         cx="9.1330271"
         id="circle13"
         style="color:#000000;clip-rule:nonzero;display:inline;overflow:visible;visibility:visible;isolation:auto;mix-blend-mode:normal;color-interpolation:sRGB;color-interpolation-filters:linearRGB;solid-color:#000000;solid-opacity:1;fill:#333333;fill-opacity:1;fill-rule:nonzero;stroke:none;stroke-width:0.000778852;stroke-linecap:round;stroke-linejoin:round;stroke-miterlimit:4;stroke-dasharray:none;stroke-dashoffset:0;stroke-opacity:1;marker:none;color-rendering:auto;image-rendering:auto;shape-rendering:auto;text-rendering:auto;enable-background:accumulate"
         r="1.2046765" />
    </g>
    <path
       style="opacity:1;fill:#ffc751;fill-opacity:1;stroke-width:3.96875;stroke-linecap:round"
       d="M 18.517135,6.5807843 C 17.487782,7.2668172 16.021994,7.6897968 14.758874,7.499247 L 13.11621,6.5971951 18.34555,5.4017375 20.002032,5.7725457 Z"
       id="path12"
       sodipodi:nodetypes="cccccc" />
    <path
       style="opacity:1;fill:#ffc751;fill-opacity:1;stroke-width:3.96875;stroke-linecap:round"
       d="M 7.9411988,6.5807843 C 8.9705518,7.2668172 10.43634,7.6897968 11.69946,7.499247 L 13.342124,6.5971951 8.1127838,5.4017375 6.4563018,5.7725457 Z"
       id="path13"
       sodipodi:nodetypes="cccccc" />
    <path
       id="left_eyelid_top"
       style="opacity:1;fill:#ffc751;stroke-width:3.96875;stroke-linecap:round;fill-opacity:1"
       d="m 5.6763368,5.3852169 h 7.0919852 v 0.9060965 c 0,0 -2.360408,-0.2764834 -3.5459926,-0.2764834 -1.185585,0 -3.5459926,0.2764834 -3.5459926,0.2764834 z"
       sodipodi:nodetypes="ccczcc">
      <animate
         attributeName="d"
         begin="5s"
         dur="5s"
         repeatCount="indefinite"
         calcMode="spline"
         keyTimes="0;0.04;0.08;1"
         keySplines="0.42 0 0.58 1;0.42 0 0.58 1;0 0 1 1"
         values="m 5.6763368,5.3852169 h 7.0919852 v 0.9060965 c 0,0 -2.360408,-0.2764834 -3.5459926,-0.2764834 -1.185585,0 -3.5459926,0.2764834 -3.5459926,0.2764834 z;m 5.6763368,5.3852169 h 7.0919852 v 4.0218465 c 0,0 -2.360408,-0.2764834 -3.5459926,-0.2764834 -1.185585,0 -3.5459926,0.2764834 -3.5459926,0.2764834 z;m 5.6763368,5.3852169 h 7.0919852 v 0.9060965 c 0,0 -2.360408,-0.2764834 -3.5459926,-0.2764834 -1.185585,0 -3.5459926,0.2764834 -3.5459926,0.2764834 z;m 5.6763368,5.3852169 h 7.0919852 v 0.9060965 c 0,0 -2.360408,-0.2764834 -3.5459926,-0.2764834 -1.185585,0 -3.5459926,0.2764834 -3.5459926,0.2764834 z" />
    </path>
    <path
       id="left_eyelid_bottom"
       style="opacity:1;fill:#ffc751;stroke-width:3.96875;stroke-linecap:round;fill-opacity:1"
       d="m 5.6763368,12.875941 h 7.0919852 v -0.906096 c 0,0 -2.360408,0.276483 -3.5459926,0.276483 -1.185585,0 -3.5459926,-0.276483 -3.5459926,-0.276483 z"
       sodipodi:nodetypes="ccczcc">
      <animate
         attributeName="d"
         begin="5s"
         dur="5s"
         repeatCount="indefinite"
         calcMode="spline"
         keyTimes="0;0.04;0.08;1"
         keySplines="0.42 0 0.58 1;0.42 0 0.58 1;0 0 1 1"
         values="m 5.6763368,12.875941 h 7.0919852 v -0.906096 c 0,0 -2.360408,0.276483 -3.5459926,0.276483 -1.185585,0 -3.5459926,-0.276483 -3.5459926,-0.276483 z;m 5.6763368,12.875941 h 7.0919852 v -4.021844 c 0,0 -2.360408,0.276483 -3.5459926,0.276483 -1.185585,0 -3.5459926,-0.276483 -3.5459926,-0.276483 z;m 5.6763368,12.875941 h 7.0919852 v -0.906096 c 0,0 -2.360408,0.276483 -3.5459926,0.276483 -1.185585,0 -3.5459926,-0.276483 -3.5459926,-0.276483 z;m 5.6763368,12.875941 h 7.0919852 v -0.906096 c 0,0 -2.360408,0.276483 -3.5459926,0.276483 -1.185585,0 -3.5459926,-0.276483 -3.5459926,-0.276483 z" />
    </path>
    <path
       id="right_eyelid_top"
       style="opacity:1;fill:#ffc751;stroke-width:3.96875;stroke-linecap:round;fill-opacity:1"
       d="m 20.781996,5.3852169 h -7.091985 v 0.9060965 c 0,0 2.360408,-0.2764834 3.545993,-0.2764834 1.185585,0 3.545992,0.2764834 3.545992,0.2764834 z"
       sodipodi:nodetypes="ccczcc">
      <animate
         attributeName="d"
         begin="5s"
         dur="5s"
         repeatCount="indefinite"
         calcMode="spline"
         keyTimes="0;0.04;0.08;1"
         keySplines="0.42 0 0.58 1;0.42 0 0.58 1;0 0 1 1"
         values="m 20.781996,5.3852169 h -7.091985 v 0.9060965 c 0,0 2.360408,-0.2764834 3.545993,-0.2764834 1.185585,0 3.545992,0.2764834 3.545992,0.2764834 z;m 20.781996,5.3852169 h -7.091985 v 4.0218465 c 0,0 2.360408,-0.2764834 3.545993,-0.2764834 1.185585,0 3.545992,0.2764834 3.545992,0.2764834 z;m 20.781996,5.3852169 h -7.091985 v 0.9060965 c 0,0 2.360408,-0.2764834 3.545993,-0.2764834 1.185585,0 3.545992,0.2764834 3.545992,0.2764834 z;m 20.781996,5.3852169 h -7.091985 v 0.9060965 c 0,0 2.360408,-0.2764834 3.545993,-0.2764834 1.185585,0 3.545992,0.2764834 3.545992,0.2764834 z" />
    </path>
    <path
       id="right_eyelid_bottom"
       style="opacity:1;fill:#ffc751;stroke-width:3.96875;stroke-linecap:round;fill-opacity:1"
       d="m 20.781996,12.875941 h -7.091985 v -0.906096 c 0,0 2.360408,0.276483 3.545993,0.276483 1.185585,0 3.545992,-0.276483 3.545992,-0.276483 z"
       sodipodi:nodetypes="ccczcc">
      <animate
         attributeName="d"
         begin="5s"
         dur="5s"
         repeatCount="indefinite"
         calcMode="spline"
         keyTimes="0;0.04;0.08;1"
         keySplines="0.42 0 0.58 1;0.42 0 0.58 1;0 0 1 1"
         values="m 20.781996,12.875941 h -7.091985 v -0.906096 c 0,0 2.360408,0.276483 3.545993,0.276483 1.185585,0 3.545992,-0.276483 3.545992,-0.276483 z;m 20.781996,12.875941 h -7.091985 v -4.021844 c 0,0 2.360408,0.276483 3.545993,0.276483 1.185585,0 3.545992,-0.276483 3.545992,-0.276483 z;m 20.781996,12.875941 h -7.091985 v -0.906096 c 0,0 2.360408,0.276483 3.545993,0.276483 1.185585,0 3.545992,-0.276483 3.545992,-0.276483 z;m 20.781996,12.875941 h -7.091985 v -0.906096 c 0,0 2.360408,0.276483 3.545993,0.276483 1.185585,0 3.545992,-0.276483 3.545992,-0.276483 z" />
    </path>
    <path
       id="mouth"
       style="display:inline;overflow:visible;fill:#333333;stroke-width:1.09027;stroke-linejoin:round;marker:none;enable-background:accumulate"
       d="m 15.559897,14.728228 c 0.331825,-0.400002 0.463194,-0.944562 0.127272,-1.525484 -0.327279,-0.566382 -1.155474,-1.157297 -2.353691,-1.204575 0,-0.0013 -0.04545,-0.0013 -0.04545,-0.0013 0,0 -0.04546,0 -0.04546,0 -1.256839,0 -2.148676,0.595012 -2.495053,1.188662 -0.35,0.598197 -0.172727,1.146381 0.186367,1.532754 0.368199,0.395467 0.64911,0.413654 0.98412,0.327279 0.327279,-0.09091 0.758196,-0.304545 1.275476,-0.295452 0,0 0.04545,0 0.04545,0.0012 0,0 0,0 0.04546,0 0,0 0,0 0,0 0.504564,0 0.932745,0.227275 1.280933,0.322732 0.354559,0.09546 0.662289,0.06819 1.000023,-0.340919 z"
       sodipodi:nodetypes="sssss" />
  </g>
</svg>
