<?xml version="1.0" encoding="UTF-8" standalone="no"?>
<!-- Created with Inkscape (http://www.inkscape.org/) -->

<svg
   width="768"
   height="1024"
   viewBox="0 0 203.2 270.93333"
   version="1.1"
   id="svg1"
   inkscape:version="1.4 (86a8ad7, 2024-10-11)"
   xml:space="preserve"
   sodipodi:docname="verse_invaders_starfield_twinkling.svg"
   xmlns:inkscape="http://www.inkscape.org/namespaces/inkscape"
   xmlns:sodipodi="http://sodipodi.sourceforge.net/DTD/sodipodi-0.dtd"
   xmlns="http://www.w3.org/2000/svg"
   xmlns:svg="http://www.w3.org/2000/svg"><sodipodi:namedview
     id="namedview1"
     pagecolor="#ffffff"
     bordercolor="#000000"
     borderopacity="0.25"
     inkscape:showpageshadow="false"
     inkscape:pageopacity="0.0"
     inkscape:pagecheckerboard="0"
     inkscape:deskcolor="#d1d1d1"
     inkscape:document-units="px"
     borderlayer="false"
     inkscape:zoom="0.60158141"
     inkscape:cx="177.86454"
     inkscape:cy="384.81907"
     inkscape:window-width="2048"
     inkscape:window-height="1209"
     inkscape:window-x="-8"
     inkscape:window-y="-8"
     inkscape:window-maximized="1"
     inkscape:current-layer="layer1" /><defs
     id="defs1">

  <filter
   id="twinkleGlow"
   x="-2.7986707"
   y="-2.667181"
   width="6.5973413"
   height="6.3343619"
   color-interpolation-filters="sRGB">
    <feGaussianBlur
   in="SourceGraphic"
   stdDeviation="1.6"
   result="softGlow"
   id="feGaussianBlur1" />
    <feColorMatrix
   in="softGlow"
   type="matrix"
   values="1 0 0 0 1               0 1 0 0 0.78               0 0 1 0 0.20               0 0 0 1.6 0"
   result="warmGlow"
   id="feColorMatrix1" />
    <feMerge
   id="feMerge2">
      <feMergeNode
   in="warmGlow"
   id="feMergeNode1" />
      <feMergeNode
   in="SourceGraphic"
   id="feMergeNode2" />
    </feMerge>
  </filter>
  <style
   id="twinkleAnimations"><![CDATA[
/* Ten labeled stars, ten unique pulse durations from 5s to 12s. */
#star_1 {
  filter: url(#twinkleGlow);
  transform-box: fill-box;
  transform-origin: center;
  animation: twinkle_star_1 5s ease-in-out 0s infinite;
}
@keyframes twinkle_star_1 {
  0%, 100% { opacity: 0.68; transform: scale(0.92); }
  42% { opacity: 1; transform: scale(1.42); }
  58% { opacity: 0.9; transform: scale(1.12); }
}

#star_2 {
  filter: url(#twinkleGlow);
  transform-box: fill-box;
  transform-origin: center;
  animation: twinkle_star_2 5.8s ease-in-out -1.1s infinite;
}
@keyframes twinkle_star_2 {
  0%, 100% { opacity: 0.68; transform: scale(0.92); }
  42% { opacity: 1; transform: scale(1.28); }
  58% { opacity: 0.9; transform: scale(1.12); }
}

#star_3 {
  filter: url(#twinkleGlow);
  transform-box: fill-box;
  transform-origin: center;
  animation: twinkle_star_3 6.6s ease-in-out -2.3s infinite;
}
@keyframes twinkle_star_3 {
  0%, 100% { opacity: 0.68; transform: scale(0.92); }
  42% { opacity: 1; transform: scale(1.35); }
  58% { opacity: 0.9; transform: scale(1.12); }
}

#star_4 {
  filter: url(#twinkleGlow);
  transform-box: fill-box;
  transform-origin: center;
  animation: twinkle_star_4 7.4s ease-in-out -3.7s infinite;
}
@keyframes twinkle_star_4 {
  0%, 100% { opacity: 0.68; transform: scale(0.92); }
  42% { opacity: 1; transform: scale(1.55); }
  58% { opacity: 0.9; transform: scale(1.12); }
}

#star_5 {
  filter: url(#twinkleGlow);
  transform-box: fill-box;
  transform-origin: center;
  animation: twinkle_star_5 8.2s ease-in-out -0.6s infinite;
}
@keyframes twinkle_star_5 {
  0%, 100% { opacity: 0.68; transform: scale(0.92); }
  42% { opacity: 1; transform: scale(1.48); }
  58% { opacity: 0.9; transform: scale(1.12); }
}

#star_6 {
  filter: url(#twinkleGlow);
  transform-box: fill-box;
  transform-origin: center;
  animation: twinkle_star_6 9s ease-in-out -4.2s infinite;
}
@keyframes twinkle_star_6 {
  0%, 100% { opacity: 0.68; transform: scale(0.92); }
  42% { opacity: 1; transform: scale(1.31); }
  58% { opacity: 0.9; transform: scale(1.12); }
}

#star_7 {
  filter: url(#twinkleGlow);
  transform-box: fill-box;
  transform-origin: center;
  animation: twinkle_star_7 9.8s ease-in-out -1.8s infinite;
}
@keyframes twinkle_star_7 {
  0%, 100% { opacity: 0.68; transform: scale(0.92); }
  42% { opacity: 1; transform: scale(1.62); }
  58% { opacity: 0.9; transform: scale(1.12); }
}

#star_8 {
  filter: url(#twinkleGlow);
  transform-box: fill-box;
  transform-origin: center;
  animation: twinkle_star_8 10.6s ease-in-out -5.3s infinite;
}
@keyframes twinkle_star_8 {
  0%, 100% { opacity: 0.68; transform: scale(0.92); }
  42% { opacity: 1; transform: scale(1.5); }
  58% { opacity: 0.9; transform: scale(1.12); }
}

#star_9 {
  filter: url(#twinkleGlow);
  transform-box: fill-box;
  transform-origin: center;
  animation: twinkle_star_9 11.3s ease-in-out -2.9s infinite;
}
@keyframes twinkle_star_9 {
  0%, 100% { opacity: 0.68; transform: scale(0.92); }
  42% { opacity: 1; transform: scale(1.37); }
  58% { opacity: 0.9; transform: scale(1.12); }
}

#star_10 {
  filter: url(#twinkleGlow);
  transform-box: fill-box;
  transform-origin: center;
  animation: twinkle_star_10 12s ease-in-out -6.1s infinite;
}
@keyframes twinkle_star_10 {
  0%, 100% { opacity: 0.68; transform: scale(0.92); }
  42% { opacity: 1; transform: scale(1.44); }
  58% { opacity: 0.9; transform: scale(1.12); }
}
  ]]></style>
</defs><g
     inkscape:label="Layer 1"
     inkscape:groupmode="layer"
     id="layer1"><path
       style="fill:#ffffff;stroke-width:0.797798"
       d="m 192.02514,27.879339 c 0.48565,-0.186385 0.98924,0.09081 0.91023,0.501089 -0.0882,0.457997 -0.7972,0.618141 -1.04002,0.234911 -0.26128,-0.412181 -0.22841,-0.59857 0.12973,-0.736 z"
       id="path57" /><path
       style="fill:#ffffff;stroke-width:0.797798"
       d="m 198.47425,152.14121 c 0.46169,-0.38319 1.00517,-0.11009 0.92364,0.46424 -0.0492,0.34808 -0.20852,0.47589 -0.59233,0.47589 -0.61592,0 -0.80785,-0.54464 -0.33131,-0.94013 z"
       id="path56" /><path
       style="fill:#ffffff;stroke-width:0.797798"
       d="m 193.16613,195.48004 c 0.43574,-0.16721 0.94988,0.0595 0.94988,0.41886 0,0.16361 -0.14252,0.41568 -0.31668,0.56021 -0.25261,0.20967 -0.3806,0.20967 -0.6332,0 -0.17416,-0.14457 -0.31667,-0.3966 -0.31667,-0.56021 0,-0.16355 0.14252,-0.35206 0.31667,-0.41886 z"
       id="path55" /><path
       style="fill:#ffffff;stroke-width:0.797798"
       d="m 179.43114,256.45667 c 0.68685,-0.57006 1.51328,0.37334 0.88093,1.00568 -0.26877,0.26885 -0.43372,0.29634 -0.71489,0.11931 -0.48938,-0.30819 -0.56155,-0.79678 -0.16604,-1.12496 z"
       id="path54" /><path
       style="fill:#ffffff;stroke-width:0.355208"
       d="m 191.33418,84.908829 c 0.17991,-0.32709 0.49005,-0.512649 0.86044,-0.514812 0.67563,-0.0038 1.0901,0.381247 1.09501,1.017618 0.003,0.344635 -0.0487,0.460866 -0.32839,0.740302 -0.30729,0.307324 -0.36356,0.327854 -0.77227,0.281786 -0.57522,-0.06488 -0.96522,-0.465008 -0.96101,-0.985979 9.8e-4,-0.193021 0.049,-0.435532 0.10623,-0.538915 z"
       id="star_5" /><path
       style="fill:#ffffff;stroke-width:0.797798"
       d="m 188.97011,242.14212 c 0.62679,-1.43949 2.65384,-1.46903 3.35133,-0.0485 0.33928,0.69096 0.3476,0.84698 0.0786,1.4904 -0.62175,1.48796 -2.69918,1.52684 -3.39359,0.0636 -0.394,-0.83021 -0.39071,-0.6916 -0.0367,-1.50508 z"
       id="path52" /><path
       style="fill:#ffffff;stroke-width:0.797798"
       d="m 177.18506,13.50929 c 1.05567,-0.991767 2.88879,-0.211437 2.88879,1.229712 0,0.867787 -0.82089,1.688667 -1.68867,1.688667 -1.46458,0 -2.25659,-1.925889 -1.20012,-2.918379 z"
       id="star_3" /><path
       style="fill:#ffffff;stroke-width:0.797798"
       d="m 183.06757,108.31421 c 0.28064,-0.37858 0.32339,-0.38195 0.65853,-0.0518 0.39449,0.38858 0.27412,1.01903 -0.19458,1.01903 -0.54562,0 -0.79524,-0.5204 -0.46395,-0.96721 z"
       id="path50" /><path
       style="fill:#ffffff;stroke-width:0.797798"
       d="m 175.08418,162.27881 c 0.30591,-0.24061 0.67302,-0.43749 0.81582,-0.43749 0.50857,0 1.37207,0.87311 1.37207,1.38737 0,0.66398 -0.70059,1.35674 -1.37207,1.35674 -0.67149,0 -1.372,-0.69276 -1.372,-1.35674 0,-0.30213 0.2282,-0.69192 0.55618,-0.94988 z"
       id="star_6" /><path
       style="fill:#ffffff;stroke-width:0.797798"
       d="m 170.34848,61.829741 c 0.13932,-0.139311 0.32255,-0.253301 0.40711,-0.253301 0.32436,0 0.79374,0.659836 0.68013,0.955986 -0.15909,0.41465 -1.0509,0.397457 -1.21238,-0.02338 -0.16317,-0.425114 -0.17085,-0.383303 0.12506,-0.679313 z"
       id="path48" /><path
       style="fill:#ffffff;stroke-width:0.797798"
       d="m 167.48214,190.69917 c 0.26834,-0.26837 1.07652,-0.15909 1.36121,0.18387 0.39951,0.48143 -0.0164,1.03779 -0.77648,1.03779 -0.49617,0 -0.62195,-0.10005 -0.67268,-0.53562 -0.0346,-0.2946 0.007,-0.6033 0.0879,-0.68604 z"
       id="path47" /><path
       style="fill:#ffffff;stroke-width:0.797798"
       d="m 167.13742,229.17709 c 0.15622,-0.24517 0.28636,-0.26382 0.57706,-0.0823 0.54522,0.34 0.4663,0.8213 -0.13465,0.8213 -0.57673,0 -0.73962,-0.27199 -0.44236,-0.7388 z"
       id="path46" /><path
       style="fill:#ffffff;stroke-width:0.797798"
       d="m 161.87979,40.837443 c 0.42746,-0.733884 1.58524,-0.226964 1.42316,0.623114 -0.0868,0.455127 -0.91927,0.618615 -1.34613,0.264349 -0.3569,-0.29617 -0.36524,-0.392618 -0.0766,-0.887463 z"
       id="path45" /><path
       style="fill:#ffffff;stroke-width:0.797798"
       d="m 154.92778,251.31861 c 0.43489,-0.43495 0.79031,-0.41909 1.21866,0.0543 0.62477,0.69031 0.29809,1.51379 -0.60054,1.51379 -0.88884,0 -1.25573,-0.93052 -0.61812,-1.56806 z"
       id="path43" /><path
       style="fill:#ffffff;stroke-width:0.797798"
       d="m 161.12572,144.18601 c 0.1913,-0.0734 0.48635,0.005 0.65582,0.17455 0.42232,0.42236 0.149,1.05586 -0.42039,0.97461 -0.56115,-0.0801 -0.74047,-0.95538 -0.23543,-1.14916 z"
       id="path42" /><path
       style="fill:#ffffff;stroke-width:0.797798"
       d="m 148.2765,212.09466 c 0.63715,-0.50124 0.69992,-0.51131 1.4391,-0.2302 0.69707,0.26502 1.04916,1.12844 0.71725,1.75904 -0.32721,0.62163 -0.58911,0.77069 -1.36057,0.77453 -1.31326,0.007 -1.83026,-1.48971 -0.79578,-2.30337 z"
       id="star_9" /><path
       style="fill:#ffffff;stroke-width:0.797798"
       d="m 147.03972,95.375198 c 0.5245,-0.280682 1.10274,0.09143 1.10274,0.709734 0,0.321545 -0.15589,0.552493 -0.43231,0.640204 -0.86532,0.274631 -1.4618,-0.926405 -0.67043,-1.349938 z"
       id="path40" /><path
       style="fill:#ffffff;stroke-width:0.797798"
       d="m 144.25253,15.891842 c 0.68163,-0.681656 1.56806,-0.261459 1.56806,0.743354 0,0.866769 -1.27169,1.181731 -1.68129,0.416409 -0.29687,-0.554701 -0.27577,-0.770793 0.11316,-1.159763 z"
       id="path39" /><path
       style="fill:#ffffff;stroke-width:0.797798"
       d="m 132.9866,73.439354 c 0.41033,-0.410291 1.37742,-0.301887 1.72423,0.193259 0.68809,0.982392 -0.65864,2.159159 -1.54892,1.353447 -0.47831,-0.432821 -0.56084,-1.161162 -0.17531,-1.546706 z"
       id="path38" /><path
       style="fill:#ffffff;stroke-width:0.797798"
       d="m 132.83627,185.48493 c 0.37323,-0.30972 0.95254,-0.13834 0.95254,0.28199 0,0.16353 -0.14253,0.4156 -0.31667,0.56014 -0.2526,0.20966 -0.38059,0.20966 -0.6332,0 -0.39811,-0.33037 -0.3987,-0.51345 -0.003,-0.84213 z"
       id="path37" /><path
       style="fill:#ffffff;stroke-width:0.797798"
       d="m 107.6067,191.35313 c 0.38135,-0.3165 0.74807,-0.11333 0.74807,0.41448 0,0.21843 -0.0991,0.45851 -0.22033,0.53337 -0.22646,0.13998 -0.83508,-0.24877 -0.83508,-0.53337 0,-0.0876 0.13834,-0.27421 0.30734,-0.41448 z"
       id="path36" /><path
       style="fill:#ffffff;stroke-width:0.797798"
       d="m 126.60398,246.49885 c 0.24916,-0.4032 0.95787,-0.17631 0.95787,0.30668 0,0.26653 -0.16325,0.44252 -0.4481,0.48323 -0.48871,0.07 -0.77084,-0.36751 -0.50977,-0.78991 z"
       id="path35" /><path
       style="fill:#ffffff;stroke-width:0.797798"
       d="m 123.33149,129.59035 c 0.96156,-2.14166 4.44142,-1.27123 4.44142,1.11093 0,1.04102 -0.4644,1.69682 -1.51722,2.14248 -1.92882,0.81647 -3.81122,-1.27786 -2.9242,-3.25341 z"
       id="star_1" /><path
       style="fill:#ffffff;stroke-width:0.797798"
       d="m 123.35525,5.548727 c 0.40311,-0.403106 0.53545,-0.410371 1.02003,-0.05603 0.53821,0.393547 0.37246,1.287441 -0.25515,1.376423 -0.93366,0.132354 -1.40464,-0.680675 -0.76488,-1.320398 z"
       id="path33" /><path
       style="fill:#ffffff;stroke-width:0.797798"
       d="m 115.34684,47.159669 c 0.24949,-0.249501 0.87052,-0.164436 0.98543,0.13497 0.16322,0.425468 -0.16821,0.823853 -0.61398,0.737996 -0.40661,-0.07828 -0.6333,-0.611113 -0.37145,-0.872971 z"
       id="path32" /><path
       style="fill:#ffffff;stroke-width:0.797798"
       d="m 110.07704,167.68131 c 0.28048,-0.28044 0.90486,-0.13149 1.11794,0.2668 0.16463,0.30756 0.13694,0.48872 -0.11309,0.7388 -0.3977,0.3977 -0.55839,0.41173 -0.89218,0.0776 -0.27598,-0.27598 -0.33656,-0.8595 -0.11267,-1.08354 z"
       id="path31" /><path
       style="fill:#ffffff;stroke-width:0.797798"
       d="m 108.57942,215.15509 c 0.38891,-0.38899 0.60504,-0.41002 1.1597,-0.11308 0.4564,0.24425 0.54281,1.04012 0.15498,1.4279 -0.38786,0.38776 -1.18372,0.30142 -1.42798,-0.15491 -0.29685,-0.55475 -0.27576,-0.77079 0.11317,-1.15978 z"
       id="path30" /><path
       style="fill:#ffffff;stroke-width:0.797798"
       d="m 108.55396,261.98806 c 0.64155,-0.42043 1.3271,-0.23418 1.6363,0.4444 0.49512,1.08665 -0.97512,2.08864 -1.82198,1.24177 -0.49863,-0.49864 -0.41093,-1.29525 0.18568,-1.68617 z"
       id="path29" /><path
       style="fill:#ffffff;stroke-width:0.797798"
       d="m 105.77575,107.84077 c 0.21936,-0.18209 0.38448,-0.17193 0.6766,0.0417 0.52207,0.38178 0.2702,1.02948 -0.36515,0.93885 -0.55323,-0.0788 -0.72942,-0.63362 -0.31145,-0.98051 z"
       id="path28" /><path
       style="fill:#ffffff;stroke-width:0.797798"
       d="m 94.84324,50.043396 c 0.19005,-0.07292 0.4431,-0.03511 0.56231,0.08404 0.34409,0.344086 0.11218,1.000325 -0.35351,1.000325 -0.53688,0 -0.70878,-0.892529 -0.2088,-1.084387 z"
       id="path26" /><path
       style="fill:#ffffff;stroke-width:0.797798"
       d="m 81.98282,92.093137 c 0.39245,-0.392421 0.42064,-0.395784 0.94863,-0.113125 0.48842,0.261387 0.53704,1.100578 0.0853,1.475347 -0.24688,0.20491 -0.44556,0.212061 -0.84433,0.03034 -0.59574,-0.27144 -0.6815,-0.900759 -0.18972,-1.392522 z"
       id="path25" /><path
       style="fill:#ffffff;stroke-width:0.797798"
       d="m 89.72495,238.61667 c 0.22935,-0.22935 1.02164,-0.1605 1.29466,0.11259 0.67278,0.67286 -0.16102,1.68037 -1.01324,1.2243 -0.40442,-0.21642 -0.57788,-1.04035 -0.28142,-1.33682 z"
       id="path24" /><path
       style="fill:#ffffff;stroke-width:0.797798"
       d="m 80.69109,147.70712 c 0.67562,-0.56074 1.71357,0.26284 1.25294,0.99423 -0.46021,0.73085 -1.55943,0.47047 -1.55943,-0.36939 0,-0.20376 0.13784,-0.48494 0.30649,-0.62484 z"
       id="path23" /><path
       style="fill:#ffffff;stroke-width:0.797798"
       d="m 78.60825,185.56491 c 0.68606,-0.17216 1.24431,0.32183 1.05125,0.9302 -0.29044,0.9149 -1.59678,0.68828 -1.59678,-0.277 0,-0.37914 0.14482,-0.55263 0.54553,-0.6532 z"
       id="path22" /><path
       style="fill:#ffffff;stroke-width:0.122712"
       d="m 66.82416,226.23246 c 0.15632,-0.15632 0.30995,-0.19061 0.51071,-0.11391 0.34586,0.13206 0.40696,0.58739 0.10831,0.80617 -0.1247,0.0914 -0.34909,0.10822 -0.4981,0.0378 -0.16648,-0.0788 -0.24399,-0.21614 -0.24415,-0.43219 -1.1e-4,-0.15856 0.0113,-0.18539 0.12323,-0.29763 z"
       id="path20" /><path
       style="fill:#ffffff;stroke-width:0.797798"
       d="m 60.11843,36.985838 c 0.56699,-0.179959 1.09703,0.250946 1.01499,0.825187 -0.0476,0.334889 -0.21495,0.440638 -0.69627,0.440638 -0.52886,0 -0.64396,-0.09269 -0.69825,-0.562359 -0.0482,-0.419148 0.0479,-0.598293 0.37953,-0.703466 z"
       id="path19" /><path
       style="fill:#ffffff;stroke-width:0.797798"
       d="m 44.02017,239.78179 c 0.26835,-0.26829 1.07651,-0.15901 1.36121,0.18395 0.39957,0.48134 -0.0164,1.03771 -0.77647,1.03771 -0.49618,0 -0.62189,-0.10005 -0.6727,-0.53562 -0.0344,-0.29461 0.007,-0.6033 0.0879,-0.68604 z"
       id="path18" /><path
       style="fill:#ffffff;stroke-width:0.797798"
       d="m 56.95427,86.484349 c 0.23218,-0.232193 0.51714,-0.42218 0.63328,-0.42218 0.26593,0 1.05539,0.778224 1.05539,1.040349 0,0.778987 -1.52257,1.141968 -1.89228,0.451119 -0.2915,-0.544669 -0.28461,-0.58107 0.20361,-1.069288 z"
       id="path17" /><path
       style="fill:#ffffff;stroke-width:0.797798"
       d="m 51.38924,184.07044 c 0.45503,-0.17457 1.02674,0.20037 1.02674,0.67347 0,0.20691 -0.15335,0.47293 -0.34069,0.59106 -0.51122,0.32252 -1.03139,0.0243 -1.03139,-0.59106 0,-0.30611 0.15002,-0.59845 0.34534,-0.67347 z"
       id="star_8" /><path
       style="fill:#ffffff;stroke-width:0.797798"
       d="m 43.33672,50.602309 c 0.42258,-0.350739 0.95255,-0.117102 0.95255,0.419933 0,0.23948 -0.14375,0.490559 -0.31935,0.557947 -0.31604,0.1213 -0.94719,-0.250459 -0.94719,-0.557947 0,-0.08765 0.14121,-0.276633 0.31399,-0.419933 z"
       id="path15" /><path
       style="fill:#ffffff;stroke-width:0.797798"
       d="m 42.4529,130.64909 c 0.28937,-0.64149 1.07344,-0.81494 1.73234,-0.38322 0.62587,0.41011 0.69003,1.17671 0.14007,1.67436 -0.9785,0.88555 -2.40933,-0.10101 -1.87248,-1.29114 z"
       id="path13" /><path
       style="fill:#ffffff;stroke-width:0.797798"
       d="m 38.1881,202.67354 c 0.12718,-0.0784 0.38505,0.0115 0.57292,0.19866 0.31475,0.31475 0.31475,0.36841 0,0.68317 -0.39895,0.399 -0.80432,0.22681 -0.80432,-0.34156 0,-0.2185 0.10406,-0.46158 0.2314,-0.54027 z"
       id="path12" /><path
       style="fill:#ffffff;stroke-width:0.797798"
       d="m 65.12955,254.53167 c 1.09112,-0.71495 2.42001,0.61402 1.7051,1.70515 -0.44775,0.68337 -1.68383,0.76167 -2.02295,0.12809 -0.3845,-0.7185 -0.25652,-1.45686 0.31785,-1.83319 z"
       id="star_10" /><path
       style="fill:#ffffff;stroke-width:0.797798"
       d="m 23.06576,18.189094 c 0.64093,-0.64094 1.55025,-0.672775 2.30305,-0.08066 1.20947,0.951434 0.41782,2.939855 -1.17056,2.939855 -0.82868,0 -1.65062,-0.840939 -1.65062,-1.688669 0,-0.411271 0.19153,-0.84396 0.51813,-1.17056 z"
       id="star_2" /><path
       style="fill:#ffffff;stroke-width:0.797798"
       d="m 22.03046,63.045235 c 0.26977,-0.223841 0.38608,-0.212712 0.66212,0.06333 0.18423,0.184194 0.27742,0.484744 0.20714,0.667891 -0.1656,0.431473 -0.90263,0.430854 -1.06834,-8.78e-4 -0.16954,-0.441878 -0.1757,-0.419242 0.19908,-0.730323 z"
       id="path9" /><path
       style="fill:#ffffff;stroke-width:0.797798"
       d="m 19.72587,116.60629 c 0.24948,-0.24949 0.87051,-0.16443 0.98542,0.13498 0.16322,0.42547 -0.16821,0.82385 -0.614,0.73799 -0.40659,-0.0783 -0.63328,-0.6111 -0.37142,-0.87297 z"
       id="path8" /><path
       style="fill:#ffffff;stroke-width:0.797798"
       d="m 12.12525,93.810828 c 0.48238,-0.482379 1.46096,0.14887 1.21688,0.784908 -0.19837,0.517034 -1.22462,0.356265 -1.30482,-0.204428 -0.0341,-0.236982 0.007,-0.498197 0.0879,-0.58048 z"
       id="path6" /><path
       style="fill:#ffffff;stroke-width:0.797798"
       d="m 11.90292,169.13879 c 0.18244,-0.18245 0.46066,-0.33169 0.61819,-0.33169 0.35729,0 0.94987,0.57565 0.94987,0.9227 0,0.76764 -1.31242,1.04682 -1.68121,0.3577 -0.2826,-0.52808 -0.27922,-0.55626 0.11308,-0.94871 z"
       id="star_7" /><path
       style="fill:#ffffff;stroke-width:0.797798"
       d="m 11.14881,255.00069 c 0.35485,-0.88007 1.73796,-0.88531 2.03613,-0.008 0.2103,0.61879 0.11823,1.04154 -0.29661,1.36123 -0.49524,0.38168 -1.04509,0.32471 -1.52816,-0.15826 -0.46573,-0.46574 -0.47789,-0.53441 -0.21136,-1.19519 z"
       id="path4" /><path
       style="fill:#ffffff;stroke-width:0.797798"
       d="m 2.8276,48.55929 c 0.18316,-0.07028 0.48846,0.02772 0.67853,0.217708 0.31991,0.319928 0.31991,0.371044 0,0.69098 -0.43162,0.431558 -1.01147,0.233472 -1.01147,-0.345493 0,-0.23948 0.14982,-0.492916 0.33294,-0.563195 z"
       id="path1" /><path
       style="fill:#ffffff;stroke-width:0.797798"
       d="m 108.58983,24.904565 c 0.4226,-0.350738 0.95255,-0.117101 0.95255,0.419941 0,0.239473 -0.14359,0.490555 -0.31927,0.557949 -0.31612,0.121292 -0.94719,-0.250467 -0.94719,-0.557949 0,-0.08765 0.14121,-0.276639 0.31391,-0.419941 z"
       id="path44" /><path
       style="fill:#ffffff;stroke-width:0.797798"
       d="m 84.88516,26.468783 c 0.67569,-0.560737 1.71356,0.262845 1.25293,0.994232 -0.4602,0.730839 -1.55944,0.470465 -1.55944,-0.369395 0,-0.203767 0.13792,-0.484942 0.30651,-0.624837 z"
       id="path27" /><path
       style="fill:#ffffff;stroke-width:0.797798"
       d="m 54.99881,13.97004 c 0.41973,-0.161077 0.74888,0.07758 0.74888,0.542911 0,0.414947 -0.36229,0.638867 -0.7915,0.489151 -0.36406,-0.126975 -0.33254,-0.888086 0.0423,-1.032062 z"
       id="path14" /><path
       style="fill:#ffffff;stroke-width:0.797798"
       d="m 25.89801,41.000393 c 0.48113,-0.184642 1.10681,0.409238 0.77778,0.738276 -0.31925,0.319282 -0.99681,0.156931 -1.07673,-0.258008 -0.0362,-0.187223 0.0986,-0.403343 0.29895,-0.480268 z"
       id="path3" /><path
       style="fill:#ffffff;stroke-width:0.797798"
       d="m 68.68428,113.11026 c 0.18308,-0.0703 0.48846,0.0277 0.67845,0.2177 0.31991,0.31994 0.31991,0.37106 0,0.69098 -0.43154,0.43156 -1.01147,0.23348 -1.01147,-0.34548 0,-0.23948 0.14982,-0.49292 0.33302,-0.5632 z"
       id="path1-6" /><path
       style="fill:#ffffff;stroke-width:0.797798"
       d="m 49.88106,161.27737 c 0.18316,-0.0702 0.48846,0.0276 0.67845,0.2177 0.31991,0.31995 0.31991,0.37106 0,0.69099 -0.43154,0.43155 -1.01147,0.23348 -1.01147,-0.34549 0,-0.23948 0.14982,-0.49293 0.33302,-0.5632 z"
       id="path2" /><path
       style="fill:#ffffff;stroke-width:0.797798"
       d="m 22.03982,220.65451 c 0.26976,-0.22386 0.38609,-0.21274 0.66212,0.0635 0.18424,0.18425 0.27741,0.48473 0.20715,0.66789 -0.1656,0.43146 -0.90263,0.4309 -1.06834,-8.2e-4 -0.16954,-0.4418 -0.17572,-0.41918 0.19907,-0.73026 z"
       id="path7" /><path
       style="fill:#ffffff;stroke-width:0.443536"
       d="m 93.52686,72.035776 c 0.31582,-0.315868 0.49309,-0.398908 0.85072,-0.398561 1.28872,0.0013 1.89704,1.40935 0.9859,2.282234 -0.59979,0.574619 -1.698,0.4117 -2.06961,-0.307035 -0.29652,-0.573397 -0.21439,-1.129286 0.23299,-1.576638 z"
       id="star_4" /></g></svg>
