<?xml version="1.0" encoding="UTF-8" standalone="no"?>
<!-- Created with Inkscape (http://www.inkscape.org/) -->

<svg
   width="103"
   height="159"
   viewBox="0 0 27.252084 42.068749"
   version="1.1"
   id="svg1"
   inkscape:version="1.4 (86a8ad7, 2024-10-11)"
   xml:space="preserve"
   sodipodi:docname="versey_bird_lightning.svg"
   xmlns:inkscape="http://www.inkscape.org/namespaces/inkscape"
   xmlns:sodipodi="http://sodipodi.sourceforge.net/DTD/sodipodi-0.dtd"
   xmlns="http://www.w3.org/2000/svg"
   xmlns:svg="http://www.w3.org/2000/svg"><sodipodi:namedview
     id="namedview1"
     pagecolor="#ffffff"
     bordercolor="#000000"
     borderopacity="0.25"
     inkscape:showpageshadow="false"
     inkscape:pageopacity="0.0"
     inkscape:pagecheckerboard="0"
     inkscape:deskcolor="#d1d1d1"
     inkscape:document-units="px"
     borderlayer="false"
     inkscape:zoom="1.7015292"
     inkscape:cx="74.932597"
     inkscape:cy="10.872573"
     inkscape:window-width="2048"
     inkscape:window-height="1209"
     inkscape:window-x="-8"
     inkscape:window-y="-8"
     inkscape:window-maximized="1"
     inkscape:current-layer="layer1" /><defs
     id="defs1"><inkscape:path-effect
       effect="fillet_chamfer"
       id="path-effect1"
       is_visible="true"
       lpeversion="1"
       nodesatellites_param="F,0,0,1,0,0,0,1 @ F,0,0,1,0,0,0,1 @ F,0,0,1,0,3.1746209,0,1 @ F,0,0,1,0,0,0,1 @ F,0,0,1,0,3.1746209,0,1 @ F,0,0,1,0,0,0,1 @ F,0,0,1,0,0,0,1 @ F,0,0,1,0,0,0,1 @ F,0,0,1,0,3.1746209,0,1 @ F,0,0,1,0,0,0,1 @ F,0,0,1,0,0,0,1 @ F,0,0,1,0,0,0,1 @ F,0,0,1,0,18.342188,0,1 @ F,0,0,1,0,3.1746209,0,1 @ F,0,0,1,0,0,0,1 @ F,0,0,1,0,0,0,1 @ F,0,0,1,0,0,0,1 @ F,0,0,1,0,3.1746209,0,1 @ F,0,0,1,0,0,0,1 @ F,0,0,1,0,0,0,1 @ F,0,0,1,0,0,0,1 @ F,0,0,1,0,0,0,1 @ F,0,0,1,0,0,0,1 @ F,0,0,1,0,3.1746209,0,1 @ F,0,0,1,0,0,0,1 @ F,0,0,1,0,0,0,1"
       radius="0"
       unit="px"
       method="auto"
       mode="F"
       chamfer_steps="1"
       flexible="false"
       use_knot_distance="true"
       apply_no_radius="true"
       apply_with_radius="true"
       only_selected="false"
       hide_knots="false" /></defs><g
     inkscape:label="Layer 1"
     inkscape:groupmode="layer"
     id="layer1"><path
       id="path3073"
       style="display:inline;fill:#ffc751;fill-opacity:1;stroke-width:0.296679"
       d="m 18.968851,0.07390309 c -0.893513,-7.8826e-4 -1.804584,0 -2.683401,0.003185 l -4.957705,0.018791 A 2.1281494,1.699499 0 0 0 9.3619078,1.1641702 L 4.794367,10.282969 c -1.9976628,3.987904 -3.7255347,7.468867 -4.54479807,9.149828 -0.28704974,0.588974 0.13030403,1.00414 0.91079217,0.900264 C 2.1003568,20.207967 3.4263193,20.02439 4.8843206,19.81625 6.1726844,19.632601 7.3271249,19.47241 8.23354,19.34991 l -1.4919408,2.978198 c -1.6950791,3.383937 -3.1680261,6.350382 -3.9081638,7.865856 -0.2875881,0.58883 0.12829,1.002045 0.9086486,0.89743 0.8072389,-0.108222 1.8928034,-0.25882 3.0781324,-0.427922 2.448288,-0.349287 4.4697206,-0.621005 4.4921836,-0.602406 0.02243,0.01775 -1.8023211,3.464498 -4.0552877,7.659213 -0.2563108,0.477286 -0.5076862,0.945474 -0.7514143,1.400196 -1.7855511,3.331298 -0.5908,3.867681 2.3709471,1.084287 5.5829529,-5.24677 13.8541529,-13.076899 16.5719429,-15.696263 0.504785,-0.486484 0.264437,-0.823628 -0.518026,-0.728193 -2.511241,0.306315 -7.515169,0.94842 -7.958636,1.03028 -0.153286,0.02842 -0.173356,0.0032 -0.09223,-0.113056 0.05693,-0.08234 2.321773,-2.63169 5.032544,-5.665416 l 4.095898,-4.584154 a 0.7725441,0.6169388 0 0 0 -0.599864,-0.974846 l -0.799242,-0.02397 c -1.227434,-0.03702 -4.74677,-0.05573 -7.820376,-0.04514 l -0.829244,0.0032 0.430216,-0.414354 c 0.06541,-0.09398 2.655455,-3.0096883 5.755931,-6.4797046 l 4.80414,-5.377064 a 0.77248048,0.61688799 0 0 0 -0.59989,-0.97477199 l -1.120003,-0.033521 C 24.176795,0.09593456 21.64989,0.07594938 18.968861,0.07300336 Z"
       inkscape:export-filename="/home/andydoane/Downloads/TempDump/not getting a ground pin.png"
       inkscape:export-xdpi="96"
       inkscape:export-ydpi="96"
       sodipodi:nodetypes="cccccccccsccccccccccccccccc" /></g></svg>
