<?xml version="1.0" encoding="UTF-8" standalone="no"?>
<!-- Created with Inkscape (http://www.inkscape.org/) -->

<svg
   width="306"
   height="312"
   viewBox="0 0 80.9625 82.55"
   version="1.1"
   id="svg1"
   inkscape:version="1.4 (86a8ad7, 2024-10-11)"
   sodipodi:docname="versey_bird_bee.svg"
   xmlns:inkscape="http://www.inkscape.org/namespaces/inkscape"
   xmlns:sodipodi="http://sodipodi.sourceforge.net/DTD/sodipodi-0.dtd"
   xmlns="http://www.w3.org/2000/svg"
   xmlns:svg="http://www.w3.org/2000/svg">
  <sodipodi:namedview
     id="namedview1"
     pagecolor="#ffffff"
     bordercolor="#000000"
     borderopacity="0.25"
     inkscape:showpageshadow="false"
     inkscape:pageopacity="0.0"
     inkscape:pagecheckerboard="0"
     inkscape:deskcolor="#d1d1d1"
     inkscape:document-units="px"
     borderlayer="false"
     inkscape:zoom="1.2031628"
     inkscape:cx="13.298283"
     inkscape:cy="227.31753"
     inkscape:window-width="2048"
     inkscape:window-height="1209"
     inkscape:window-x="-8"
     inkscape:window-y="-8"
     inkscape:window-maximized="1"
     inkscape:current-layer="g1" />
  <defs
     id="defs1" />
  <g
     inkscape:label="Layer 1"
     inkscape:groupmode="layer"
     id="layer1">
    <g
       id="g1"
       inkscape:export-filename="..\..\Downloads\TempDump\Night's curtain falls, to the owl's distant calls.png"
       inkscape:export-xdpi="480.14999"
       inkscape:export-ydpi="480.14999">
      <g
         id="g30"
         transform="matrix(1.0812352,0,0,1.0812352,-726.83547,114.56761)">
        <path
           style="fill:#0e2332;fill-opacity:1;stroke:none;stroke-width:0.529167;stroke-linecap:round"
           d="m 735.42176,-49.624838 10.52969,-5.25742 a 0.72077967,0.72077967 0 0 0 -0.0881,-1.326626 l -10.82715,-3.715214 z"
           id="path14" />
        <path
           id="path8"
           style="fill:#f2f2f2;fill-opacity:1;stroke-width:0.530519;stroke-linecap:round"
           d="m 726.09063,-86.177445 c -4.8539,5.809844 -12.05687,9.597574 -19.59449,10.30387 -1.56511,-7.375643 -0.12982,-15.342983 3.91072,-21.708811 1.7659,-2.782214 4.09103,-5.324444 7.09178,-6.686324 1.50034,-0.68102 3.15277,-1.05078 4.79881,-0.97833 1.64611,0.072 3.28297,0.59779 4.6101,1.57428 1.32013,0.97129 2.30555,2.368 2.86624,3.90812 0.56068,1.540081 0.70583,3.217768 0.51173,4.845215 -0.38823,3.254881 -2.09325,6.226424 -4.19489,8.741989 z"
           sodipodi:nodetypes="scszs" />
        <path
           id="path13"
           style="fill:#f2f2f2;fill-opacity:1;stroke-width:0.467398;stroke-linecap:round"
           d="m 687.03415,-83.871488 c 4.63903,5.112357 12.07117,7.603204 17.81932,8.958982 10e-4,-5.784679 -0.94513,-13.628986 -4.91213,-19.243394 -1.73382,-2.453786 -3.93959,-4.68866 -6.65332,-5.86899 -1.35699,-0.59013 -2.82528,-0.9022 -4.25744,-0.82174 -1.4323,0.0799 -2.82522,0.56333 -3.91654,1.443722 -1.08516,0.87635 -1.84975,2.125988 -2.23309,3.499461 -0.38328,1.37338 -0.3943,2.864972 -0.11196,4.308531 0.5635,2.887245 2.2572,5.50976 4.26571,7.723448 z"
           sodipodi:nodetypes="scszscscss" />
        <path
           id="path24"
           style="fill:#4fbcbb;stroke-linecap:round"
           d="m 716.10547,-90.582031 c -0.28063,0.04985 -0.53053,0.209334 -0.69336,0.443359 a 0.54413204,0.54413204 0 0 0 -0.0371,0.0625 c -1.968,3.836271 -4.13307,7.597057 -7.20313,11.138672 a 0.54413204,0.54413204 0 0 0 -0.0371,0.04492 c -9.3e-4,0.0013 -0.031,0.01688 -0.17969,0.146484 -0.0743,0.0648 -0.26137,0.235825 -0.23633,0.541016 0.025,0.305191 0.20769,0.428485 0.31836,0.505859 0.48117,0.337663 1.16224,0.216834 1.49805,-0.265625 l -0.0996,0.107422 c 3.51008,-2.911556 6.10058,-6.659824 7.80078,-11.173828 l -0.0625,0.119141 c 0.33501,-0.480509 0.21444,-1.156536 -0.26563,-1.492188 -0.23246,-0.162844 -0.52118,-0.226502 -0.80078,-0.177734 a 0.54413204,0.54413204 0 0 0 -0.002,0 z" />
        <path
           id="path25"
           style="fill:#4fbcbb;stroke-linecap:round"
           d="m 695.25,-87.707031 c -0.24683,-0.02397 -0.50304,0.04534 -0.70703,0.21289 -0.40841,0.334827 -0.46905,0.95047 -0.13477,1.359375 l -0.082,-0.152343 c 0.96716,3.264486 4.29728,5.731567 6.79102,8.339843 l -0.0234,-0.02539 c 0.33506,0.410676 0.95389,0.471387 1.36328,0.134765 0.40962,-0.336105 0.47022,-0.954829 0.13281,-1.363281 a 0.43744015,0.43744015 0 0 0 -0.0332,-0.03516 c -1.80249,-1.744545 -2.88451,-2.082022 -6.62109,-8.078125 a 0.43744015,0.43744015 0 0 0 -0.0332,-0.04687 c -0.16793,-0.203672 -0.40551,-0.321733 -0.65234,-0.345703 z" />
        <path
           id="path5"
           style="fill:#ffc751;fill-opacity:1;stroke-width:0.843178;stroke-linecap:round"
           d="m 737.99711,-54.871497 c 0,13.561567 -14.86684,24.555389 -32.71645,24.555389 -21.49783,1e-6 -32.31957,-10.993822 -32.31957,-24.555389 0,-13.561568 14.46996,-24.55539 32.31957,-24.55539 19.83398,0 32.71645,10.993822 32.71645,24.55539 z"
           sodipodi:nodetypes="sssss" />
        <ellipse
           style="fill:#fcfbf7;fill-opacity:1;stroke:none;stroke-width:12.3756;stroke-linecap:round;stroke-dasharray:none"
           id="path17"
           cx="696.46448"
           cy="-52.016426"
           rx="4.161572"
           ry="4.3486605" />
        <path
           id="path17-2"
           style="fill:#000000;stroke:none;stroke-width:12.3756;stroke-linecap:round;stroke-dasharray:none"
           d="m 695.36507,-55.600239 a 3.2729008,3.5837405 0 0 0 -2.15542,0.888835 4.161572,4.3486605 0 0 0 -0.90692,2.694926 4.161572,4.3486605 0 0 0 0.90692,2.694409 3.2729008,3.5837405 0 0 0 2.15542,0.889352 3.2729008,3.5837405 0 0 0 3.27319,-3.583761 3.2729008,3.5837405 0 0 0 -3.27319,-3.583761 z" />
        <path
           id="path17-2-4"
           style="fill:#fcfbf7;fill-opacity:1;stroke:none;stroke-width:12.3756;stroke-linecap:round;stroke-dasharray:none"
           d="m 693.62255,-54.778067 a 1.1576111,1.1576111 0 0 0 -0.42479,0.08372 4.161572,4.3486605 0 0 0 -0.69246,1.369426 1.1576111,1.1576111 0 0 0 1.11725,0.861963 1.1576111,1.1576111 0 0 0 1.15755,-1.157553 1.1576111,1.1576111 0 0 0 -1.15755,-1.157552 z" />
        <ellipse
           style="fill:#fcfbf7;fill-opacity:1;stroke:none;stroke-width:8.29595;stroke-linecap:round;stroke-dasharray:none"
           id="path18"
           cx="680.3092"
           cy="-52.276413"
           rx="3.4561195"
           ry="4.2250652" />
        <path
           id="path18-2"
           style="fill:#000000;stroke:none;stroke-width:8.29595;stroke-linecap:round;stroke-dasharray:none"
           d="m 681.38918,-55.886009 a 3.080991,3.766475 0 0 0 -3.08095,3.766695 3.080991,3.766475 0 0 0 3.08095,3.766695 3.080991,3.766475 0 0 0 0.2217,-0.01964 3.4561195,4.2250652 0 0 0 2.15439,-3.904155 3.4561195,4.2250652 0 0 0 -1.43816,-3.429764 3.080991,3.766475 0 0 0 -0.93793,-0.179834 z" />
        <circle
           style="fill:#fcfbf7;fill-opacity:1;stroke:none;stroke-width:8.46667;stroke-linecap:round;stroke-dasharray:none"
           id="path19"
           cx="679.50714"
           cy="-54.442684"
           r="0.84335935" />
        <path
           style="fill:none;stroke:#000000;stroke-width:2.64583;stroke-linecap:round;stroke-dasharray:none"
           d="m 692.86267,-55.315835 c 2.25815,-1.109438 4.27185,-2.463334 6.22069,-3.882088"
           id="path20"
           sodipodi:nodetypes="cc" />
        <path
           style="fill:none;stroke:#000000;stroke-width:2.11667;stroke-linecap:round;stroke-dasharray:none"
           d="m 682.77074,-55.587957 c -1.71717,-1.03944 -3.18612,-2.214266 -4.41822,-3.518286"
           id="path21"
           sodipodi:nodetypes="cc" />
        <path
           style="fill:none;stroke:#000000;stroke-width:1.05833;stroke-linecap:round;stroke-dasharray:none"
           d="m 685.74162,-46.861765 c 1.14485,-1.313733 2.68269,-1.184512 3.8704,0.210476"
           id="path22"
           sodipodi:nodetypes="cc" />
        <ellipse
           style="fill:#ffe7b4;fill-opacity:1;stroke:none;stroke-width:1.41287;stroke-linecap:round;stroke-dasharray:none"
           id="path23"
           cx="701.47583"
           cy="-46.414238"
           rx="3.2796967"
           ry="2.2158854" />
        <path
           id="path5-8"
           style="fill:#ffe7b4;fill-opacity:1;stroke-width:0.843178;stroke-linecap:round"
           d="m 675.55801,-49.438858 a 2.8138487,1.9695659 35.143031 0 0 -1.57768,1.465544 c 0.16238,0.526819 0.33811,1.048604 0.53951,1.560111 a 2.8138487,1.9695659 35.143031 0 0 2.02003,1.414901 2.8138487,1.9695659 35.143031 0 0 2.56521,-1.419551 2.8138487,1.9695659 35.143031 0 0 -2.56521,-2.901632 2.8138487,1.9695659 35.143031 0 0 -0.98186,-0.119373 z" />
        <path
           id="path5-79"
           style="fill:#ffb051;fill-opacity:1;stroke-width:0.843178;stroke-linecap:round"
           d="m 736.52508,-47.615181 c -5.79181,8.058271 -17.71858,13.595035 -31.25804,13.595035 -15.20211,10e-7 -25.4065,-4.811388 -30.57695,-11.992033 3.83202,9.181758 14.04609,15.696201 30.59038,15.6962 14.52462,0 27.07317,-7.280213 31.24461,-17.299202 z" />
        <path
           id="path5-3"
           style="fill:#0d2232;fill-opacity:1;stroke-width:0.843178;stroke-linecap:round"
           d="m 705.28045,-79.426676 c -4.12162,0 -8.05883,0.592266 -11.68352,1.66088 22.35598,7.89596 20.07831,38.015769 4.52014,46.998165 2.24063,0.292733 4.62477,0.451652 7.16338,0.451652 1.58086,0 3.13697,-0.09074 4.66277,-0.257349 13.2197,-15.462771 13.90783,-36.359702 -3.24115,-48.735526 l -0.24339,-0.09767 c -0.39145,-0.0087 -0.78116,-0.02015 -1.17823,-0.02015 z" />
        <path
           id="path5-7"
           style="fill:#0d2232;fill-opacity:1;stroke-width:0.843178;stroke-linecap:round"
           d="m 718.7737,-77.492428 -0.16537,0.101803 c 13.28491,14.658611 10.78503,31.037254 0.94361,44.582808 4.35794,-1.604006 8.18651,-3.917073 11.21276,-6.737573 5.36348,-10.231908 4.67308,-20.770102 0.22427,-31.043066 -3.15191,-2.982604 -7.27999,-5.367635 -12.21527,-6.903972 z" />
      </g>
    </g>
  </g>
</svg>
