<?xml version="1.0" encoding="UTF-8" standalone="no"?>
<!-- Created with Inkscape (http://www.inkscape.org/) -->

<svg
   width="2400"
   height="240"
   viewBox="0 0 635 63.5"
   version="1.1"
   id="svg1"
   inkscape:version="1.4 (86a8ad7, 2024-10-11)"
   sodipodi:docname="versey_bird_hill.svg"
   xmlns:inkscape="http://www.inkscape.org/namespaces/inkscape"
   xmlns:sodipodi="http://sodipodi.sourceforge.net/DTD/sodipodi-0.dtd"
   xmlns="http://www.w3.org/2000/svg"
   xmlns:svg="http://www.w3.org/2000/svg">
  <sodipodi:namedview
     id="namedview1"
     pagecolor="#ffffff"
     bordercolor="#000000"
     borderopacity="0.25"
     inkscape:showpageshadow="false"
     inkscape:pageopacity="0.0"
     inkscape:pagecheckerboard="0"
     inkscape:deskcolor="#d1d1d1"
     inkscape:document-units="px"
     borderlayer="false"
     inkscape:zoom="0.85076459"
     inkscape:cx="1072.5646"
     inkscape:cy="55.832131"
     inkscape:window-width="2048"
     inkscape:window-height="1209"
     inkscape:window-x="-8"
     inkscape:window-y="-8"
     inkscape:window-maximized="1"
     inkscape:current-layer="layer1" />
  <defs
     id="defs1" />
  <g
     inkscape:label="Layer 1"
     inkscape:groupmode="layer"
     id="layer1">
    <path
       d="M 307.31296,0.6775 C 283.72213,1.8036 261.28882,11.2138 238.12495,16.613 211.65196,22.7835 186.63947,39.4537 158.74995,37.7796 130.86043,36.1056 107.5558,6.8578 79.374952,6.0296 51.194102,5.2015 26.534222,30.5526 -4.75e-5,32.488 V 63.5 H 635.00005 V 32.488 c -27.38302,1.7048 -52.78482,-13.2421 -79.37509,-15.875 -26.59028,-2.633 -52.85793,-1.7601 -79.375,0 -26.51707,1.76 -52.20602,13.1612 -79.375,10.5833 C 369.70598,24.6184 344.88285,2.4428 317.49996,0.738 314.0771,0.5249 310.6831,0.5166 307.31297,0.677 Z"
       fill="#7fb86a"
       id="path1-8"
       style="fill:#95d18a;fill-opacity:1;stroke-width:0.264583"
       clip-path="none" />
  </g>
</svg>
