<?xml version="1.0" encoding="UTF-8" standalone="no"?>
<!-- Created with Inkscape (http://www.inkscape.org/) -->

<svg
   width="103"
   height="200"
   viewBox="0 0 27.252084 52.916666"
   version="1.1"
   id="svg1"
   inkscape:version="1.4 (86a8ad7, 2024-10-11)"
   xml:space="preserve"
   sodipodi:docname="versey_bird_lightning.svg"
   xmlns:inkscape="http://www.inkscape.org/namespaces/inkscape"
   xmlns:sodipodi="http://sodipodi.sourceforge.net/DTD/sodipodi-0.dtd"
   xmlns="http://www.w3.org/2000/svg"
   xmlns:svg="http://www.w3.org/2000/svg"><sodipodi:namedview
     id="namedview1"
     pagecolor="#ffffff"
     bordercolor="#000000"
     borderopacity="0.25"
     inkscape:showpageshadow="false"
     inkscape:pageopacity="0.0"
     inkscape:pagecheckerboard="0"
     inkscape:deskcolor="#d1d1d1"
     inkscape:document-units="px"
     borderlayer="false"
     inkscape:zoom="3.4030584"
     inkscape:cx="34.233912"
     inkscape:cy="85.952096"
     inkscape:window-width="2048"
     inkscape:window-height="1209"
     inkscape:window-x="-8"
     inkscape:window-y="-8"
     inkscape:window-maximized="1"
     inkscape:current-layer="layer1" /><defs
     id="defs1"><inkscape:path-effect
       effect="fillet_chamfer"
       id="path-effect1"
       is_visible="true"
       lpeversion="1"
       nodesatellites_param="F,0,0,1,0,0,0,1 @ F,0,0,1,0,0,0,1 @ F,0,0,1,0,3.1746209,0,1 @ F,0,0,1,0,0,0,1 @ F,0,0,1,0,3.1746209,0,1 @ F,0,0,1,0,0,0,1 @ F,0,0,1,0,0,0,1 @ F,0,0,1,0,0,0,1 @ F,0,0,1,0,3.1746209,0,1 @ F,0,0,1,0,0,0,1 @ F,0,0,1,0,0,0,1 @ F,0,0,1,0,0,0,1 @ F,0,0,1,0,18.342188,0,1 @ F,0,0,1,0,3.1746209,0,1 @ F,0,0,1,0,0,0,1 @ F,0,0,1,0,0,0,1 @ F,0,0,1,0,0,0,1 @ F,0,0,1,0,3.1746209,0,1 @ F,0,0,1,0,0,0,1 @ F,0,0,1,0,0,0,1 @ F,0,0,1,0,0,0,1 @ F,0,0,1,0,0,0,1 @ F,0,0,1,0,0,0,1 @ F,0,0,1,0,3.1746209,0,1 @ F,0,0,1,0,0,0,1 @ F,0,0,1,0,0,0,1"
       radius="0"
       unit="px"
       method="auto"
       mode="F"
       chamfer_steps="1"
       flexible="false"
       use_knot_distance="true"
       apply_no_radius="true"
       apply_with_radius="true"
       only_selected="false"
       hide_knots="false" /></defs><g
     inkscape:label="Layer 1"
     inkscape:groupmode="layer"
     id="layer1"><path
       id="path3073"
       style="display:inline;fill:#ffc751;fill-opacity:1;stroke-width:0.331992"
       d="m 18.968856,0.21117736 c -0.893513,-9.8707e-4 -1.804584,0 -2.683401,0.003988 L 11.32775,0.23869585 A 2.1281494,2.1281494 0 0 0 9.3619123,1.5764334 L 4.7943715,12.99519 C 2.7967087,17.988929 1.0688368,22.347867 0.24957344,24.452802 -0.0374763,25.190328 0.37987747,25.710208 1.1603656,25.580133 2.1003613,25.423487 3.4263238,25.193608 4.8843251,24.93297 6.1726889,24.703001 7.3271294,24.502406 8.2335445,24.34901 l -1.4919408,3.729363 c -1.6950791,4.237439 -3.1680261,7.952086 -3.9081638,9.849795 -0.2875881,0.737346 0.12829,1.254783 0.9086486,1.123781 0.8072389,-0.135518 1.8928034,-0.3241 3.0781324,-0.535853 2.448288,-0.437384 4.4697211,-0.777636 4.4921841,-0.754345 0.02243,0.02223 -1.8023216,4.338319 -4.0552882,9.591031 -0.2563108,0.597669 -0.5076862,1.183943 -0.7514143,1.753356 -1.7855511,4.171524 -0.5908,4.843194 2.3709471,1.357768 5.5829534,-6.570119 13.8541534,-16.375176 16.5719434,-19.6552 0.504785,-0.609186 0.264437,-1.031365 -0.518026,-0.911859 -2.511241,0.383574 -7.515169,1.187632 -7.958636,1.290139 -0.153286,0.03559 -0.173356,0.004 -0.09223,-0.141571 0.05693,-0.103105 2.321773,-3.295459 5.032544,-7.094356 l 4.095898,-5.740377 a 0.7725441,0.7725441 0 0 0 -0.599864,-1.220724 l -0.799242,-0.03001 c -1.227434,-0.04636 -4.74677,-0.06979 -7.820376,-0.05653 l -0.829244,0.004 0.430216,-0.518863 c 0.06541,-0.117681 2.655455,-3.768796 5.755931,-8.1140256 l 4.80414,-6.7332757 A 0.77248048,0.77248048 0 0 0 26.349814,0.32062318 L 25.229811,0.27864751 C 24.1768,0.23876565 21.649895,0.21373977 18.968866,0.2100507 Z"
       inkscape:export-filename="/home/andydoane/Downloads/TempDump/not getting a ground pin.png"
       inkscape:export-xdpi="96"
       inkscape:export-ydpi="96"
       sodipodi:nodetypes="cccccccccsccccccccccccccccc" /></g></svg>
