<?xml version="1.0" encoding="UTF-8" standalone="no"?>
<!-- Created with Inkscape (http://www.inkscape.org/) -->

<svg
   width="390"
   height="496"
   viewBox="0 0 103.1875 131.23333"
   version="1.1"
   id="svg1"
   inkscape:version="1.4 (86a8ad7, 2024-10-11)"
   sodipodi:docname="brain_bible.svg"
   xmlns:inkscape="http://www.inkscape.org/namespaces/inkscape"
   xmlns:sodipodi="http://sodipodi.sourceforge.net/DTD/sodipodi-0.dtd"
   xmlns="http://www.w3.org/2000/svg"
   xmlns:svg="http://www.w3.org/2000/svg">
  <sodipodi:namedview
     id="namedview1"
     pagecolor="#ffffff"
     bordercolor="#000000"
     borderopacity="0.25"
     inkscape:showpageshadow="false"
     inkscape:pageopacity="0.0"
     inkscape:pagecheckerboard="0"
     inkscape:deskcolor="#d1d1d1"
     inkscape:document-units="px"
     borderlayer="false"
     inkscape:zoom="0.85076459"
     inkscape:cx="170.43493"
     inkscape:cy="478.98091"
     inkscape:window-width="2048"
     inkscape:window-height="1209"
     inkscape:window-x="-8"
     inkscape:window-y="-8"
     inkscape:window-maximized="1"
     inkscape:current-layer="layer1" />
  <defs
     id="defs1" />
  <g
     inkscape:label="Layer 1"
     inkscape:groupmode="layer"
     id="layer1">
    <g
       id="g894-9-2"
       transform="matrix(0.20646479,0.01443742,-0.01443742,0.20646479,1054.5766,-298.31062)"
       style="display:inline"
       inkscape:export-filename="C:\Users\andyd\Downloads\TempDump\I graduated from New Haven in 1915 just a quarter of a century after my father and a little later I participated in that delayed Teutonic migration known as the Great War.png"
       inkscape:export-xdpi="96"
       inkscape:export-ydpi="96">
      <path
         style="fill:#ffffff;fill-rule:evenodd;stroke:none;stroke-width:1px;stroke-linecap:butt;stroke-linejoin:miter;stroke-opacity:1"
         d="m -4518.9227,2377.9737 17,-21.8652 11.7845,-18.2925 v -538.2006 h -410.3735 l -29.55,39.2729 v 518.174 z"
         id="path4182-2-6-3-1-1"
         inkscape:connector-curvature="0" />
      <path
         style="fill:#333333;fill-opacity:1"
         d="m -4596.8286,1786.4835 c -26.3521,0.024 -59.1611,0.1241 -100.0625,0.2187 l -198.5312,0.4688 -11.0625,5.25 c -13.8571,6.6033 -24.5267,16.9044 -30.3438,29.3125 l -4.5,9.625 v 276.2188 c 0,82.1935 0.026,137.9642 0.1348,178.7441 h -0.016 v 52.3633 39.289 c 0,10.9843 8.8439,19.8282 19.8281,19.8282 h 45.4707 c 29.1012,0.1693 73.8806,0.142 145.039,0 h 0.8047 l 191.3164,-6e-4 c 10.9842,0 19.8282,-8.8433 19.8282,-19.8276 v -39.289 -52.3633 -169.3379 -210.3555 -29.7871 -19.9551 c 0,-10.9842 -8.842,-19.8262 -19.8262,-19.8262 h -27.2481 -42.4941 -287.3691 -24.8243 l 24.8243,-28.6699 h 358.7539 14.5156 c 10.9842,0 19.8281,8.8439 19.8281,19.8281 v 3.0176 0.2285 l 0.4024,251.2071 0.4375,273.4375 4.4062,-1.125 c 7.6137,-1.9109 12.3174,-6.067 15.0938,-13.4062 2.4072,-6.3629 2.6391,-34.313 2.2187,-273.9375 -0.4459,-254.2151 -0.6341,-267.093 -3.5625,-271.4063 -5.8359,-8.5959 1.1298,-9.8535 -113.0625,-9.75 z"
         id="path4186-0-4-0-4-6"
         inkscape:connector-curvature="0"
         sodipodi:nodetypes="ccccccscccsscccsscccccssccccccsscccccssscc" />
      <path
         style="fill:#ffffff;fill-opacity:1"
         d="m -4758.3286,1974.296 h 56.0938 v 69.2188 h 70.75 v 56.0937 h -70.75 v 145.4688 h -56.0938 v -145.4688 h -70.75 v -56.0937 h 70.75 z"
         id="path4170-8-8-6-7-9-8"
         inkscape:connector-curvature="0" />
      <path
         inkscape:connector-curvature="0"
         style="color:#000000;clip-rule:nonzero;display:inline;overflow:visible;visibility:visible;opacity:1;isolation:auto;mix-blend-mode:normal;color-interpolation:sRGB;color-interpolation-filters:linearRGB;solid-color:#000000;solid-opacity:1;fill:#9a3c23;fill-opacity:1;fill-rule:nonzero;stroke:none;stroke-width:0.5;stroke-linecap:round;stroke-linejoin:round;stroke-miterlimit:4;stroke-dasharray:none;stroke-dashoffset:0;stroke-opacity:0.992157;marker:none;color-rendering:auto;image-rendering:auto;shape-rendering:auto;text-rendering:auto;enable-background:accumulate"
         d="m -4814.9202,1823.3239 v 13.7364 h 13.4726 c 0,-7.5233 -5.9863,-13.5871 -13.4726,-13.7364 z"
         id="rect4220-9-7-9-5" />
      <path
         style="color:#000000;clip-rule:nonzero;display:inline;overflow:visible;visibility:visible;opacity:1;isolation:auto;mix-blend-mode:normal;color-interpolation:sRGB;color-interpolation-filters:linearRGB;solid-color:#000000;solid-opacity:1;fill:#ff5a51;fill-opacity:1;fill-rule:evenodd;stroke:none;stroke-width:5;stroke-linecap:round;stroke-linejoin:miter;stroke-miterlimit:4;stroke-dasharray:none;stroke-dashoffset:0;stroke-opacity:1;marker:none;color-rendering:auto;image-rendering:auto;shape-rendering:auto;text-rendering:auto;enable-background:accumulate"
         d="m -4869.011,1823.3103 c -7.6176,0 -13.75,6.1324 -13.75,13.75 v 150.2812 l 33.9531,-33.834 33.9531,33.834 v -150.2812 0 -13.7364 c -0.094,0 -0.185,-0.014 -0.2793,-0.014 z"
         id="rect4265-1-3-6-4-3-76" />
    </g>
  </g>
</svg>
