<?xml version="1.0" encoding="UTF-8" standalone="no"?>
<svg
   width="112"
   height="112"
   viewBox="0 0 112 112"
   fill="none"
   version="1.1"
   id="svg4"
   sodipodi:docname="test head.svg"
   inkscape:version="1.4 (86a8ad7, 2024-10-11)"
   xml:space="preserve"
   xmlns:inkscape="http://www.inkscape.org/namespaces/inkscape"
   xmlns:sodipodi="http://sodipodi.sourceforge.net/DTD/sodipodi-0.dtd"
   xmlns="http://www.w3.org/2000/svg"
   xmlns:svg="http://www.w3.org/2000/svg"
   xmlns:rdf="http://www.w3.org/1999/02/22-rdf-syntax-ns#"
   xmlns:cc="http://creativecommons.org/ns#"
   xmlns:dc="http://purl.org/dc/elements/1.1/"><defs
     id="defs4">
  <filter
   id="antenna-glow"
   x="-0.48876136"
   y="-0.48876136"
   width="1.9775227"
   height="1.9775227">
    <feGaussianBlur
   stdDeviation="3.2"
   result="blur"
   id="feGaussianBlur1" />
    <feColorMatrix
   in="blur"
   type="matrix"
   values="          1 0 0 0 1          0 1 0 0 0.75          0 0 1 0 0.25          0 0 0 0.9 0"
   id="feColorMatrix1" />
    <feMerge
   id="feMerge2">
      <feMergeNode
   id="feMergeNode1" />
      <feMergeNode
   in="SourceGraphic"
   id="feMergeNode2" />
    </feMerge>
  </filter>
</defs><sodipodi:namedview
     id="namedview4"
     pagecolor="#ffffff"
     bordercolor="#000000"
     borderopacity="0.25"
     inkscape:showpageshadow="2"
     inkscape:pageopacity="0.0"
     inkscape:pagecheckerboard="0"
     inkscape:deskcolor="#d1d1d1"
     inkscape:zoom="2.6074563"
     inkscape:cx="33.174094"
     inkscape:cy="21.668628"
     inkscape:current-layer="svg4" /><title
     id="title1">Verse Typer starter caterpillar head</title><desc
     id="desc1">Starter SVG head matching the current Verse Typer CSS head style, including red head, antennae, eyes, and smile.</desc><!-- Antennae --><!-- Head --><!-- Eyes --><!-- Smile --><metadata
     id="metadata4"><rdf:RDF><cc:Work
         rdf:about=""><dc:title>Verse Typer starter caterpillar head</dc:title></cc:Work></rdf:RDF></metadata><circle
     id="circle12-2"
     cx="-56"
     cy="60"
     r="38"
     fill="#F24C43"
     style="fill:#f24c43;fill-opacity:1"
     transform="scale(-1,1)" /><path
     id="path13-3"
     style="opacity:0.2;fill:#000000;stroke-width:14.6223;stroke-linecap:round;stroke-linejoin:round"
     d="m 69.41212,24.456239 a 5.7938085,5.7938085 0 0 0 -3.51758,5.31836 5.7938085,5.7938085 0 0 0 5.79297,5.794918 5.7938085,5.7938085 0 0 0 5.79492,-5.794918 5.7938085,5.7938085 0 0 0 -0.14258,-1.210938 38,38 0 0 0 -7.92773,-4.107422 z" /><path
     id="path21-7"
     style="opacity:0.1;fill:#000000;fill-opacity:1"
     d="m 93.82618,56.417957 a 38,38 0 0 1 -37.82617,35.58203 38,38 0 0 1 -37.78516,-35 38,38 0 0 0 -0.21484,3 38,38 0 0 0 38,38 38,38 0 0 0 38,-38 38,38 0 0 0 -0.17383,-3.58203 z" /><path
     style="fill:none;fill-opacity:1;stroke:#2f302f;stroke-width:7;stroke-linecap:round;stroke-linejoin:round;stroke-dasharray:none;stroke-opacity:1"
     d="M 71.68811,29.775125 78.2034,13.581372"
     id="path22-4"
     sodipodi:nodetypes="cc" /><circle
     id="antenna-ball-right"
     cx="-78.2034"
     cy="13.581367"
     r="7.856595"
     fill="#ff5a51"
     style="fill-opacity:1;stroke-width:0.206753"
     transform="scale(-1,1)"
     filter="url(#antenna-glow)">
  <animate
   attributeName="fill"
   values="#ff5a51;#ff9e3d;#ffe15c;#7ed957;#40b9c5;#8b6cff;#ff5a51"
   dur="1.15s"
   repeatCount="indefinite" />
</circle><path
     id="path23-7"
     style="opacity:0.2;fill:#000000;stroke-width:14.6223;stroke-linecap:round;stroke-linejoin:round"
     d="m 42.5879,24.456239 a 5.7938085,5.7938085 0 0 1 3.51758,5.31836 5.7938085,5.7938085 0 0 1 -5.79297,5.794918 5.7938085,5.7938085 0 0 1 -5.79492,-5.794918 5.7938085,5.7938085 0 0 1 0.14258,-1.210938 38,38 0 0 1 7.92773,-4.107422 z" /><path
     style="fill:none;fill-opacity:1;stroke:#2f302f;stroke-width:7;stroke-linecap:round;stroke-linejoin:round;stroke-dasharray:none;stroke-opacity:1"
     d="M 40.31191,29.775125 33.79662,13.581372"
     id="path24-7"
     sodipodi:nodetypes="cc" /><circle
     id="antenna-ball-left"
     cx="33.796631"
     cy="13.581367"
     r="7.856595"
     fill="#ff9e3d"
     style="fill-opacity:1;stroke-width:0.206753"
     filter="url(#antenna-glow)">
  <animate
   attributeName="fill"
   values="#ff9e3d;#ffe15c;#7ed957;#40b9c5;#8b6cff;#ff5a51;#ff9e3d"
   dur="1.15s"
   repeatCount="indefinite" />
</circle><path
     id="path37-3"
     d="m 44.00001,72.999987 c 0,0 3.94847,4 12,4 8.05153,0 12,-4 12,-4"
     stroke="#2f302f"
     stroke-width="5"
     stroke-linecap="round"
     stroke-linejoin="round"
     style="stroke:#2f302f;stroke-opacity:1"
     sodipodi:nodetypes="czc" /><path
     style="opacity:0.1;fill:none;fill-opacity:1;stroke:#000000;stroke-width:1;stroke-linecap:round;stroke-linejoin:round;stroke-dasharray:none;stroke-opacity:1"
     d="M 35.98691,35.140707 V 67.208504"
     id="path72" /><path
     style="fill:#2f302f;fill-opacity:1;stroke-width:0.0717723"
     d="M 35.22502,66.101046 C 30.8504,65.808203 27.59896,64.468231 25.65146,62.155626 24.30781,60.560067 23.38189,58.592682 22.62679,55.72882 22.29401,54.46664 22.1422,53.704804 21.76155,51.386596 21.49788,49.780813 21.39876,49.332576 21.22981,48.982224 20.97707,48.45808 20.61649,48.162726 19.90977,47.900961 19.0323,47.575946 18.94321,47.523682 18.73794,47.213556 l -0.19998,-0.302149 v -2.122573 c 0,-2.081278 0.003,-2.127665 0.16275,-2.384293 0.0896,-0.143946 0.24225,-0.313802 0.33939,-0.377457 0.34501,-0.226068 5.96037,-1.117882 8.82826,-1.402078 2.87476,-0.284879 3.76469,-0.324217 7.35666,-0.325191 3.60961,-9.76e-4 4.25944,0.02958 6.89014,0.323964 2.9212,0.326899 6.52851,1.124126 8.57298,1.894661 2.31512,0.872542 4.75707,1.256671 6.67864,1.050582 1.30231,-0.139675 2.12827,-0.341679 4.16279,-1.018094 2.20797,-0.734085 3.31541,-1.028152 5.20349,-1.381726 3.75638,-0.703445 7.03735,-0.954247 11.55533,-0.883307 2.88838,0.04536 3.85364,0.09829 6.17243,0.33846 2.9386,0.304378 7.87979,1.09779 8.39272,1.347629 0.30273,0.147454 0.49707,0.403656 0.57783,0.761768 0.0596,0.264314 0.0249,3.935245 -0.0403,4.255475 -0.0659,0.323878 -0.44339,0.641927 -1.0538,0.887823 -0.71898,0.289626 -1.35435,0.855422 -1.48289,1.32049 -0.0436,0.157899 -0.22235,1.126826 -0.39714,2.153169 -0.67286,3.950898 -1.25662,6.095479 -2.19019,8.046277 -1.47801,3.088402 -3.3155,4.777262 -6.31828,5.80719 -2.89783,0.993935 -6.92998,1.237846 -10.54589,0.637942 -2.26636,-0.376007 -4.01752,-1.027458 -5.67465,-2.111042 -0.84913,-0.555243 -2.28185,-1.978799 -2.94406,-2.925244 -1.37409,-1.963891 -2.5295,-4.534499 -3.47556,-7.732587 -0.96865,-3.27448 -1.02025,-3.401251 -1.58756,-3.90062 -0.43034,-0.378796 -0.88505,-0.525597 -1.61329,-0.520838 -1.16918,0.0077 -1.92605,0.414698 -2.35055,1.264158 -0.18875,0.377726 -0.59001,1.594788 -0.98177,2.977869 -1.4343,5.063599 -3.19781,8.404481 -5.37575,10.18406 -1.98614,1.62286 -4.36467,2.540937 -7.54767,2.913272 -1.15414,0.135006 -3.44066,0.189315 -4.62701,0.109898 z"
     id="path73" /><g
     id="g2"
     transform="matrix(0.94767065,0,0,0.94767065,3.9167215,2.7884014)"><path
       style="fill:#3b3b3b;fill-opacity:1;stroke-width:0.0717723"
       d="m 77.89409,63.479926 c 2.88075,-0.333472 4.69442,-1.053227 6.12848,-2.432102 0.9245,-0.888927 1.60154,-1.893527 2.16636,-3.214552 1.378,-3.222864 2.00853,-8.245601 1.35559,-10.798721 -0.23494,-0.918679 -0.50633,-1.413328 -1.09206,-1.990503 -0.99599,-0.981422 -2.48433,-1.475363 -5.55974,-1.84512 -1.62838,-0.195781 -5.53565,-0.269471 -7.49968,-0.141442 -4.77164,0.311049 -8.7559,1.361257 -10.23199,2.697038 -0.53631,0.485329 -0.83972,0.95291 -1.08179,1.667082 -0.18041,0.532279 -0.18833,0.621107 -0.18742,2.098905 10e-4,1.709693 0.0841,2.319196 0.58166,4.270452 0.92338,3.620949 2.68137,6.56103 4.77817,7.991103 1.24254,0.847453 3.43149,1.502772 5.76147,1.72485 1.11429,0.106212 3.86153,0.09102 4.88095,-0.02699 z"
       id="path75" /><path
       id="path75-9"
       style="fill:#434443;fill-opacity:1;stroke-width:0.0717723"
       d="m 75.16524,42.997268 c -0.66794,0.008 -1.28047,0.02854 -1.77148,0.06055 -4.77164,0.311049 -8.75633,1.361485 -10.23242,2.697266 -0.53631,0.485329 -0.83996,0.951843 -1.08203,1.666015 -0.18041,0.532279 -0.18841,0.621812 -0.1875,2.09961 10e-4,1.709693 0.0845,2.318275 0.58203,4.269531 0.63224,2.479279 1.6545,4.64013 2.91015,6.214844 L 81.09298,43.225787 c -0.0698,-0.0087 -0.1297,-0.01875 -0.20117,-0.02734 -1.22129,-0.146836 -3.72274,-0.225282 -5.72657,-0.201172 z" /></g><g
     id="g3"
     transform="matrix(0.94755525,0,0,0.94755525,1.966228,2.794481)"><path
       style="fill:#3b3b3b;fill-opacity:1;stroke-width:0.0717723"
       d="m 39.13661,63.516156 c 4.18378,-0.379489 6.39448,-1.471211 8.13889,-4.01929 1.5639,-2.284414 2.79825,-5.989015 3.0969,-9.294513 0.17339,-1.919066 -0.13836,-3.255912 -0.97668,-4.188331 -1.21068,-1.346561 -3.99542,-2.280139 -8.39559,-2.814598 -2.41079,-0.292824 -7.33242,-0.268975 -9.78728,0.04743 -4.45833,0.574618 -5.98937,1.558434 -6.51923,4.189089 -0.17475,0.867561 -0.17209,3.608684 0.005,4.953577 0.51525,3.917288 1.64373,6.756737 3.38049,8.505876 0.67383,0.678633 0.98904,0.905803 1.87141,1.348655 1.35136,0.678241 3.30566,1.158484 5.27467,1.296177 0.79662,0.05571 3.19476,0.04096 3.91159,-0.02407 z"
       id="path74" /><path
       id="path74-8"
       style="fill:#434443;fill-opacity:1;stroke-width:0.0717723"
       d="m 36.12227,42.995315 c -1.83861,0.0089 -3.68272,0.09375 -4.91015,0.251953 -4.45833,0.574618 -5.98772,1.558798 -6.51758,4.189453 -0.17475,0.867561 -0.17318,3.608232 0.004,4.953125 0.46051,3.501128 1.41292,6.137962 2.84961,7.908203 L 43.24151,43.538284 c -0.69903,-0.125071 -1.43459,-0.239796 -2.24219,-0.337891 -1.2054,-0.146412 -3.03834,-0.213988 -4.87696,-0.205078 z" /></g></svg>
