<?xml version="1.0" encoding="UTF-8" standalone="no"?>
<svg
   width="112"
   height="112"
   viewBox="0 0 112 112"
   fill="none"
   version="1.1"
   id="svg4"
   sodipodi:docname="caterpillar_head_2.svg"
   inkscape:version="1.4 (86a8ad7, 2024-10-11)"
   xml:space="preserve"
   xmlns:inkscape="http://www.inkscape.org/namespaces/inkscape"
   xmlns:sodipodi="http://sodipodi.sourceforge.net/DTD/sodipodi-0.dtd"
   xmlns="http://www.w3.org/2000/svg"
   xmlns:svg="http://www.w3.org/2000/svg"
   xmlns:rdf="http://www.w3.org/1999/02/22-rdf-syntax-ns#"
   xmlns:cc="http://creativecommons.org/ns#"
   xmlns:dc="http://purl.org/dc/elements/1.1/"><defs
     id="defs4">
  <filter
   id="antenna-glow"
   x="-0.48876136"
   y="-0.48876136"
   width="1.9775227"
   height="1.9775227">
    <feGaussianBlur
   stdDeviation="3.2"
   result="blur"
   id="feGaussianBlur1" />
    <feColorMatrix
   in="blur"
   type="matrix"
   values="          1 0 0 0 1          0 1 0 0 0.75          0 0 1 0 0.25          0 0 0 0.9 0"
   id="feColorMatrix1" />
    <feMerge
   id="feMerge2">
      <feMergeNode
   id="feMergeNode1" />
      <feMergeNode
   in="SourceGraphic"
   id="feMergeNode2" />
    </feMerge>
  </filter>
</defs><sodipodi:namedview
     id="namedview4"
     pagecolor="#ffffff"
     bordercolor="#000000"
     borderopacity="0.25"
     inkscape:showpageshadow="2"
     inkscape:pageopacity="0.0"
     inkscape:pagecheckerboard="0"
     inkscape:deskcolor="#d1d1d1"
     inkscape:zoom="2.6074563"
     inkscape:cx="73.05971"
     inkscape:cy="73.826741"
     inkscape:current-layer="svg4" /><title
     id="title1">Verse Typer starter caterpillar head</title><desc
     id="desc1">Starter SVG head matching the current Verse Typer CSS head style, including red head, antennae, eyes, and smile.</desc><!-- Antennae --><!-- Head --><!-- Eyes --><!-- Smile --><metadata
     id="metadata4"><rdf:RDF><cc:Work
         rdf:about=""><dc:title>Verse Typer starter caterpillar head</dc:title></cc:Work></rdf:RDF></metadata><g
     id="g1"
     transform="translate(-127,12.907912)"><circle
       id="circle25"
       cx="-183"
       cy="47.092075"
       r="38"
       fill="#F24C43"
       style="fill:#f24c43;fill-opacity:1"
       transform="scale(-1,1)" /><path
       id="path25"
       style="opacity:0.2;fill:#000000;stroke-width:14.6223;stroke-linecap:round;stroke-linejoin:round"
       d="m 196.41212,11.548325 a 5.7938085,5.7938085 0 0 0 -3.51758,5.31836 5.7938085,5.7938085 0 0 0 5.79297,5.794922 5.7938085,5.7938085 0 0 0 5.79492,-5.794922 5.7938085,5.7938085 0 0 0 -0.14258,-1.210938 38,38 0 0 0 -7.92773,-4.107422 z" /><ellipse
       id="ellipse27"
       cx="167"
       cy="39.092075"
       fill="#FFFFFF"
       style="fill:#fada7a;fill-opacity:1;stroke-width:1.18035"
       rx="10"
       ry="13.932203" /><ellipse
       id="ellipse28"
       cx="199"
       cy="39.092075"
       fill="#FFFFFF"
       style="fill:#fada7a;fill-opacity:1;stroke-width:1.18035"
       rx="10"
       ry="13.932203" /><ellipse
       id="ellipse29"
       cx="167"
       cy="39.092075"
       fill="#FFFFFF"
       style="fill:#2f302f;fill-opacity:1;stroke-width:0.564556"
       rx="4.7829695"
       ry="6.6637297" /><ellipse
       id="ellipse30"
       cx="199"
       cy="39.092075"
       fill="#FFFFFF"
       style="fill:#2f302f;fill-opacity:1;stroke-width:0.564556"
       rx="4.7829695"
       ry="6.6637297" /><ellipse
       id="ellipse31"
       cx="57.39716"
       cy="-199"
       fill="#FFFFFF"
       style="fill:#f24c43;fill-opacity:1;stroke-width:1.18035"
       rx="10"
       ry="13.932203"
       transform="rotate(90)" /><ellipse
       id="ellipse32"
       cx="57.39716"
       cy="167"
       fill="#FFFFFF"
       style="fill:#f24c43;fill-opacity:1;stroke-width:1.18035"
       rx="10"
       ry="13.932203"
       transform="matrix(0,1,1,0,0,0)" /><path
       id="path32"
       d="m 171.00001,60.092075 c 3,8 21,8 24,0"
       stroke="#2f302f"
       stroke-width="5"
       stroke-linecap="round"
       stroke-linejoin="round" /><path
       id="path33"
       style="opacity:0.1;fill:#000000;fill-opacity:1"
       d="m 220.82618,43.510044 a 38,38 0 0 1 -37.82617,35.582031 38,38 0 0 1 -37.78516,-35 38,38 0 0 0 -0.21484,3 38,38 0 0 0 38,38 38,38 0 0 0 38,-38 38,38 0 0 0 -0.17383,-3.582031 z" /><path
       style="fill:none;fill-opacity:1;stroke:#2f302f;stroke-width:7;stroke-linecap:round;stroke-linejoin:round;stroke-dasharray:none;stroke-opacity:1"
       d="m 198.65092,16.870198 3.90182,-17.013597"
       id="path34"
       sodipodi:nodetypes="cc" /><circle
       id="circle34"
       cx="-200.08141"
       cy="31.54459"
       r="7.856595"
       fill="#F24C43"
       style="fill:#513b30;fill-opacity:1;stroke-width:0.206753"
       transform="matrix(-0.98768834,0.15643447,0.15643447,0.98768834,0,0)" /><path
       id="path35"
       style="opacity:0.2;fill:#000000;stroke-width:14.6223;stroke-linecap:round;stroke-linejoin:round"
       d="m 169.5879,11.548325 a 5.7938085,5.7938085 0 0 1 3.51758,5.31836 5.7938085,5.7938085 0 0 1 -5.79297,5.794922 5.7938085,5.7938085 0 0 1 -5.79492,-5.794922 5.7938085,5.7938085 0 0 1 0.14258,-1.210938 38,38 0 0 1 7.92773,-4.107422 z" /><path
       style="fill:none;fill-opacity:1;stroke:#2f302f;stroke-width:7;stroke-linecap:round;stroke-linejoin:round;stroke-dasharray:none;stroke-opacity:1"
       d="M 167.3491,16.870196 163.44728,-0.143401"
       id="path36"
       sodipodi:nodetypes="cc" /><circle
       id="circle36"
       cx="161.41254"
       cy="-25.710426"
       r="7.856595"
       fill="#F24C43"
       style="fill:#513b30;fill-opacity:1;stroke-width:0.206753"
       transform="rotate(9)" /></g></svg>
