<?xml version="1.0" encoding="UTF-8" standalone="no"?>
<svg
   width="112"
   height="112"
   viewBox="0 0 112 112"
   fill="none"
   version="1.1"
   id="svg4"
   sodipodi:docname="caterpillar_head_1.svg"
   inkscape:version="1.4 (86a8ad7, 2024-10-11)"
   xml:space="preserve"
   xmlns:inkscape="http://www.inkscape.org/namespaces/inkscape"
   xmlns:sodipodi="http://sodipodi.sourceforge.net/DTD/sodipodi-0.dtd"
   xmlns="http://www.w3.org/2000/svg"
   xmlns:svg="http://www.w3.org/2000/svg"
   xmlns:rdf="http://www.w3.org/1999/02/22-rdf-syntax-ns#"
   xmlns:cc="http://creativecommons.org/ns#"
   xmlns:dc="http://purl.org/dc/elements/1.1/"><defs
     id="defs4">
  <filter
   id="antenna-glow"
   x="-0.48876136"
   y="-0.48876136"
   width="1.9775227"
   height="1.9775227">
    <feGaussianBlur
   stdDeviation="3.2"
   result="blur"
   id="feGaussianBlur1" />
    <feColorMatrix
   in="blur"
   type="matrix"
   values="          1 0 0 0 1          0 1 0 0 0.75          0 0 1 0 0.25          0 0 0 0.9 0"
   id="feColorMatrix1" />
    <feMerge
   id="feMerge2">
      <feMergeNode
   id="feMergeNode1" />
      <feMergeNode
   in="SourceGraphic"
   id="feMergeNode2" />
    </feMerge>
  </filter>
</defs><sodipodi:namedview
     id="namedview4"
     pagecolor="#ffffff"
     bordercolor="#000000"
     borderopacity="0.25"
     inkscape:showpageshadow="2"
     inkscape:pageopacity="0.0"
     inkscape:pagecheckerboard="0"
     inkscape:deskcolor="#d1d1d1"
     inkscape:zoom="2.6074563"
     inkscape:cx="73.05971"
     inkscape:cy="73.826741"
     inkscape:current-layer="svg4" /><title
     id="title1">Verse Typer starter caterpillar head</title><desc
     id="desc1">Starter SVG head matching the current Verse Typer CSS head style, including red head, antennae, eyes, and smile.</desc><!-- Antennae --><!-- Head --><!-- Eyes --><!-- Smile --><metadata
     id="metadata4"><rdf:RDF><cc:Work
         rdf:about=""><dc:title>Verse Typer starter caterpillar head</dc:title></cc:Work></rdf:RDF></metadata><g
     id="g2"
     transform="translate(-229.79661,91.479675)"><circle
       id="circle12"
       cx="-285.7966"
       cy="-31.479689"
       r="38"
       fill="#F24C43"
       style="fill:#f24c43;fill-opacity:1"
       transform="scale(-1,1)" /><path
       id="path13"
       style="opacity:0.2;fill:#000000;stroke-width:14.6223;stroke-linecap:round;stroke-linejoin:round"
       d="m 299.20872,-67.023438 a 5.7938085,5.7938085 0 0 0 -3.51758,5.31836 5.7938085,5.7938085 0 0 0 5.79297,5.794922 5.7938085,5.7938085 0 0 0 5.79492,-5.794922 5.7938085,5.7938085 0 0 0 -0.14258,-1.210938 38,38 0 0 0 -7.92773,-4.107422 z" /><ellipse
       id="ellipse15"
       cx="269.7966"
       cy="-39.479687"
       fill="#FFFFFF"
       style="fill:#fada7a;fill-opacity:1;stroke-width:1.18035"
       rx="10"
       ry="13.932203" /><ellipse
       id="ellipse16"
       cx="301.7966"
       cy="-39.479687"
       fill="#FFFFFF"
       style="fill:#fada7a;fill-opacity:1;stroke-width:1.18035"
       rx="10"
       ry="13.932203" /><ellipse
       id="ellipse17"
       cx="269.7966"
       cy="-39.479687"
       fill="#FFFFFF"
       style="fill:#2f302f;fill-opacity:1;stroke-width:0.564556"
       rx="4.7829695"
       ry="6.6637297" /><ellipse
       id="ellipse18"
       cx="301.7966"
       cy="-39.479687"
       fill="#FFFFFF"
       style="fill:#2f302f;fill-opacity:1;stroke-width:0.564556"
       rx="4.7829695"
       ry="6.6637297" /><path
       id="path21"
       style="opacity:0.1;fill:#000000;fill-opacity:1"
       d="m 323.62278,-35.061719 a 38,38 0 0 1 -37.82617,35.582031 38,38 0 0 1 -37.78516,-35 38,38 0 0 0 -0.21484,3 38,38 0 0 0 38,38 38,38 0 0 0 38,-38 38,38 0 0 0 -0.17383,-3.582031 z" /><path
       style="opacity:1;fill:none;fill-opacity:1;stroke:#2f302f;stroke-width:7;stroke-linecap:round;stroke-linejoin:round;stroke-dasharray:none;stroke-opacity:1"
       d="M 301.48471,-61.704552 308,-77.898305"
       id="path22"
       sodipodi:nodetypes="cc" /><circle
       id="circle22"
       cx="-308"
       cy="-77.898308"
       r="7.856595"
       fill="#F24C43"
       style="fill:#513b30;fill-opacity:1;stroke-width:0.206753"
       transform="scale(-1,1)" /><path
       id="path23"
       style="opacity:0.2;fill:#000000;stroke-width:14.6223;stroke-linecap:round;stroke-linejoin:round"
       d="m 272.3845,-67.023438 a 5.7938085,5.7938085 0 0 1 3.51758,5.31836 5.7938085,5.7938085 0 0 1 -5.79297,5.794922 5.7938085,5.7938085 0 0 1 -5.79492,-5.794922 5.7938085,5.7938085 0 0 1 0.14258,-1.210938 38,38 0 0 1 7.92773,-4.107422 z" /><path
       style="opacity:1;fill:none;fill-opacity:1;stroke:#2f302f;stroke-width:7;stroke-linecap:round;stroke-linejoin:round;stroke-dasharray:none;stroke-opacity:1"
       d="m 270.10851,-61.704552 -6.51529,-16.193753"
       id="path24"
       sodipodi:nodetypes="cc" /><circle
       id="circle24"
       cx="263.59323"
       cy="-77.898308"
       r="7.856595"
       fill="#F24C43"
       style="fill:#513b30;fill-opacity:1;stroke-width:0.206753" /><path
       id="path37"
       d="m 273.79661,-18.479688 c 0,0 3.94847,4 12,4 8.05153,0 12,-4 12,-4"
       stroke="#2f302f"
       stroke-width="5"
       stroke-linecap="round"
       stroke-linejoin="round"
       style="stroke:#2f302f;stroke-opacity:1"
       sodipodi:nodetypes="czc" /></g></svg>
