<?xml version="1.0" encoding="UTF-8" standalone="no"?>
<!-- Created with Inkscape (http://www.inkscape.org/) -->

<svg
   width="100"
   height="52.169529"
   viewBox="0 0 26.458333 13.803188"
   version="1.1"
   id="svg1"
   inkscape:version="1.4 (86a8ad7, 2024-10-11)"
   sodipodi:docname="cloud.svg"
   xmlns:inkscape="http://www.inkscape.org/namespaces/inkscape"
   xmlns:sodipodi="http://sodipodi.sourceforge.net/DTD/sodipodi-0.dtd"
   xmlns="http://www.w3.org/2000/svg"
   xmlns:svg="http://www.w3.org/2000/svg">
  <sodipodi:namedview
     id="namedview1"
     pagecolor="#ffffff"
     bordercolor="#000000"
     borderopacity="0.25"
     inkscape:showpageshadow="false"
     inkscape:pageopacity="0.0"
     inkscape:pagecheckerboard="0"
     inkscape:deskcolor="#d1d1d1"
     inkscape:document-units="px"
     borderlayer="false"
     inkscape:zoom="3.4030584"
     inkscape:cx="37.319372"
     inkscape:cy="39.817125"
     inkscape:window-width="2048"
     inkscape:window-height="1209"
     inkscape:window-x="-8"
     inkscape:window-y="-8"
     inkscape:window-maximized="1"
     inkscape:current-layer="layer1" />
  <defs
     id="defs1" />
  <g
     inkscape:label="Layer 1"
     inkscape:groupmode="layer"
     id="layer1">
    <path
       style="color:#000000;font-style:normal;font-variant:normal;font-weight:normal;font-stretch:normal;font-size:medium;line-height:normal;font-family:sans-serif;text-indent:0;text-align:start;text-decoration:none;text-decoration-line:none;text-decoration-style:solid;text-decoration-color:#000000;letter-spacing:normal;word-spacing:normal;text-transform:none;writing-mode:lr-tb;direction:ltr;baseline-shift:baseline;text-anchor:start;white-space:normal;clip-rule:nonzero;display:inline;overflow:visible;visibility:visible;isolation:auto;mix-blend-mode:normal;color-interpolation:sRGB;color-interpolation-filters:linearRGB;solid-color:#000000;solid-opacity:1;fill:#000000;fill-opacity:1;fill-rule:evenodd;stroke:none;stroke-width:103.651;stroke-linecap:round;stroke-linejoin:miter;stroke-miterlimit:4;stroke-dasharray:none;stroke-dashoffset:0;stroke-opacity:1;color-rendering:auto;image-rendering:auto;shape-rendering:auto;text-rendering:auto;enable-background:accumulate"
       d="m 11.00775,1.0194325e-4 c -1.3983104,0 -2.9710604,0.59392999675 -3.9931804,1.50817995675 -0.92191,0.82459 -1.63375,2.06378 -1.91004,3.32412 -0.0525,0.23917 -0.0811,0.24966 -0.90391,0.29661 -0.72097,0.0409 -0.9576,0.0992 -1.56488,0.38763 -2.78363003,1.32198 -3.36836003,4.9627101 -1.13267,7.0541201 0.37417,0.34999 0.73478,0.60755 1.12456,0.79665 h 10e-4 c 0.63818,0.24261 1.00562,0.38663 2.39187,0.38663 1.50983,0.0316 4.29493,0.0451 9.0694404,0.0487 5.57501,0.005 8.18314,-0.0414 9.58465,-0.0638 0.98932,0 1.36463,-0.20466 1.98495,-0.85736 1.37073,-1.55394 0.5135,-4.0354201 -1.53856,-4.2472401 l -0.52129,-0.0537 -0.10021,-0.48284 c -0.36574,-1.75973 -1.7492,-3.18213 -3.54983,-3.64904 -0.75697,-0.19626 -2.13428,-0.0891 -2.8919,0.22473 -0.11439,0.0472 -0.18444,-0.062 -0.31582,-0.48686 C 15.98817,1.7490319 13.59329,7.1943246e-5 11.00875,7.1943246e-5 Z"
       id="path4178-6" />
  </g>
</svg>
