<?xml version="1.0" encoding="UTF-8" standalone="no"?>
<!-- Created with Inkscape (http://www.inkscape.org/) -->

<svg
   width="100"
   height="100"
   viewBox="0 0 26.458333 26.458333"
   version="1.1"
   id="svg1"
   inkscape:version="1.4 (86a8ad7, 2024-10-11)"
   xml:space="preserve"
   sodipodi:docname="Crown.svg"
   xmlns:inkscape="http://www.inkscape.org/namespaces/inkscape"
   xmlns:sodipodi="http://sodipodi.sourceforge.net/DTD/sodipodi-0.dtd"
   xmlns="http://www.w3.org/2000/svg"
   xmlns:svg="http://www.w3.org/2000/svg"><sodipodi:namedview
     id="namedview1"
     pagecolor="#ffffff"
     bordercolor="#000000"
     borderopacity="0.25"
     inkscape:showpageshadow="false"
     inkscape:pageopacity="0.0"
     inkscape:pagecheckerboard="0"
     inkscape:deskcolor="#d1d1d1"
     inkscape:document-units="px"
     borderlayer="false"
     inkscape:zoom="3.4030584"
     inkscape:cx="-4.1139465"
     inkscape:cy="88.00907"
     inkscape:window-width="2048"
     inkscape:window-height="1209"
     inkscape:window-x="-8"
     inkscape:window-y="-8"
     inkscape:window-maximized="1"
     inkscape:current-layer="layer1" /><defs
     id="defs1" /><g
     inkscape:label="Layer 1"
     inkscape:groupmode="layer"
     id="layer1"><path
       id="path1"
       style="stroke-width:0.0937182"
       d="m 13.314932,4.1211636 c -0.192171,0.00183 -0.384256,0.025266 -0.537654,0.069374 -0.291769,0.083897 -0.586824,0.2371332 -0.82864,0.4316645 -0.347433,0.2794945 -0.591179,0.662745 -0.734216,1.1427545 -0.135253,0.4538905 -0.08715,0.9772185 0.12526,1.4086905 0.1416,0.2876306 0.269651,0.4327547 0.703382,0.7823918 l 0.0038,0.00386 -0.04818,0.1830719 C 11.893186,8.5384908 11.652541,9.2727347 11.464942,9.7674883 10.566356,12.137317 9.627143,13.326246 8.5184468,13.642832 8.2969062,13.706092 7.8177577,13.724115 7.5857433,13.67752 7.1239093,13.584775 6.6578602,13.382078 6.1346571,13.035804 5.434241,12.572245 4.618932,11.821322 3.9474289,11.016231 l -0.080937,-0.09828 0.023124,-0.03661 v -0.002 c 0.066046,-0.105736 0.1375573,-0.269993 0.1849996,-0.4143 0.071096,-0.21621 0.087587,-0.317329 0.088646,-0.5992719 C 4.1645907,9.499374 4.1172758,9.2749994 3.976335,8.9850966 3.6578197,8.3299389 2.9836218,7.9254578 2.2304066,7.9271333 1.9060387,7.9278496 1.6469275,7.9865612 1.3612966,8.1256219 0.71640602,8.4395897 0.30838104,9.0652896 0.26864598,9.7944674 c -0.011545,0.2118866 6.0658e-4,0.3306496 0.0481768,0.5222366 0.16502087,0.664606 0.62557824,1.147298 1.3277535,1.40869 0.023585,0.0088 0.046999,0.01966 0.06552,0.02891 0.00976,0.02688 0.02459,0.06863 0.042396,0.127186 0.035612,0.117111 0.085722,0.297451 0.1541658,0.549216 0.136888,0.503531 0.3452039,1.297131 0.6532779,2.485925 0.075712,0.29216 0.2815287,1.097808 0.4567165,1.786397 0.1752799,0.688951 0.4375777,1.713888 0.581976,2.279728 0.2804242,1.098867 0.3577197,1.428774 0.5087474,2.150613 0.092407,0.44166 0.1406534,0.671991 0.1946344,0.826715 0.053981,0.154723 0.1539776,0.252665 0.2389571,0.304478 0.1084836,0.06614 0.2407145,0.08037 0.4104665,0.06937 0.1697522,-0.011 0.3915273,-0.04761 0.7110902,-0.11177 1.8220996,-0.365865 3.8223202,-0.589165 6.0259589,-0.676403 1.183282,-0.04684 3.171827,-0.02721 4.343622,0.04624 2.023594,0.126861 3.419048,0.308589 5.154922,0.666767 0.273478,0.05643 0.460085,0.08497 0.620517,0.07515 0.160432,-0.0098 0.301887,-0.07869 0.393124,-0.181145 0.05551,-0.06234 0.105948,-0.156663 0.150311,-0.321822 0.04436,-0.165157 0.0995,-0.427366 0.198488,-0.90765 0.07469,-0.362388 0.428997,-1.783854 1.308483,-5.237786 0.607425,-2.385485 0.739279,-2.891998 0.894162,-3.428263 0.0973,-0.336908 0.14372,-0.490082 0.167656,-0.531873 0.01197,-0.0209 0.01048,-0.01843 0.03276,-0.03276 0.02228,-0.01433 0.07027,-0.03878 0.142603,-0.07709 0.397677,-0.210586 0.643398,-0.427361 0.830569,-0.74385 0.171009,-0.28915 0.251551,-0.572656 0.265933,-0.9365412 C 26.214997,9.3438039 26.045678,8.8986265 25.648198,8.5013933 25.464474,8.317782 25.357494,8.2373929 25.154867,8.1391035 24.84433,7.9884744 24.607005,7.9334052 24.262635,7.9329145 23.793966,7.9322607 23.378681,8.0733119 23.023528,8.3587977 22.708493,8.6120338 22.505169,8.912172 22.374104,9.3165532 c -0.06139,0.1895207 -0.07716,0.2996253 -0.07709,0.5607783 9e-5,0.2734785 0.01516,0.3717645 0.09058,0.5954655 0.05467,0.162188 0.13658,0.335809 0.22354,0.468278 l 0.05588,0.08672 0.0038,-0.0058 h 0.002 c -0.0011,0.0015 -0.0046,0.0043 -0.0058,0.0058 -0.299808,0.391965 -1.138268,1.241773 -1.572492,1.589835 -0.558779,0.447905 -1.139792,0.78823 -1.603325,0.950048 -0.96837,0.338056 -1.799637,0.107966 -2.630455,-0.749632 -0.422599,-0.436229 -0.734461,-0.902151 -1.12926,-1.690045 -0.136926,-0.273262 -0.332272,-0.70586 -0.425883,-0.942338 -0.221552,-0.5596781 -0.59743,-1.6922295 -0.693747,-2.081239 v -0.00193 l -0.05396,-0.2196864 0.09828,-0.090573 c 0.313475,-0.2836446 0.537293,-0.639095 0.653279,-1.0444738 0.08915,-0.3115959 0.09682,-0.8083562 0.01349,-1.1177025 -0.191003,-0.7091175 -0.75412,-1.2654979 -1.466499,-1.451086 -0.155884,-0.04061 -0.349337,-0.059633 -0.541508,-0.057812 z m -0.173436,0.9770261 c 0.663214,-0.1031076 1.277649,0.4260096 1.277649,1.0984318 0,0.494804 -0.354583,0.9654272 -0.840204,1.1080671 -0.105677,0.031045 -0.469978,0.032857 -0.599319,-0.00192 -0.358121,-0.09631 -0.674668,-0.4071587 -0.784319,-0.7804647 -0.03479,-0.1184689 -0.03779,-0.4214963 0,-0.5665596 0.112384,-0.4314719 0.508169,-0.7894498 0.946193,-0.8575476 z m 0.481768,3.1950876 0.03661,0.1233326 c 0.184318,0.6010561 0.42702,1.3418592 0.543434,1.6688461 0.972233,2.730801 2.223935,4.229813 3.902324,4.553673 0.313849,0.06058 0.813968,0.05935 1.150463,0 1.245824,-0.219695 2.721371,-1.262548 3.996749,-2.76535 0.06348,-0.07481 0.124406,-0.145717 0.169583,-0.198488 0.01143,-0.01336 0.0092,-0.01146 0.01927,-0.02313 0.02336,0.0062 0.04544,0.01052 0.07515,0.0212 0.103687,0.03726 0.238756,0.07978 0.335311,0.102134 -0.0075,0.04402 -0.05295,0.245098 -0.499112,1.979105 -0.346313,1.345971 -1.491129,5.878493 -1.647648,6.523143 -0.114128,0.470059 -0.186889,0.752044 -0.235103,0.911505 -0.0185,0.06119 -0.0298,0.08779 -0.04047,0.113697 -0.01986,-0.0018 -0.03351,-0.0014 -0.06552,-0.0058 -0.1036,-0.01425 -0.269519,-0.04356 -0.516455,-0.09058 -1.615065,-0.307491 -3.161251,-0.49138 -5.129869,-0.605101 -0.751042,-0.04338 -3.10885,-0.05909 -3.969771,-0.02698 -2.3011182,0.08582 -4.2413569,0.298835 -6.1878326,0.676403 -0.2253946,0.04374 -0.3302147,0.0585 -0.3757793,0.06167 -0.008,-0.02871 -0.019175,-0.07007 -0.03276,-0.121406 -0.02716,-0.102632 -0.065213,-0.247658 -0.1098316,-0.422001 -0.089236,-0.348687 -0.2070773,-0.818579 -0.3333836,-1.325827 -0.5428825,-2.180221 -0.8375,-3.33785 -1.4780653,-5.81398 -0.1304337,-0.504197 -0.251003,-0.97715 -0.3391649,-1.329681 -0.044081,-0.176265 -0.08054,-0.321976 -0.1059889,-0.42781 -0.012725,-0.05291 -0.021993,-0.09662 -0.028906,-0.127187 -0.00126,-0.0056 -8.444e-4,-0.0025 -0.00192,-0.0077 l 0.01156,-0.0039 c 0.1049495,-0.0291 0.2389802,-0.08025 0.3353108,-0.129114 0.00833,-0.0042 0.013231,-0.0057 0.021197,-0.0097 0.045293,0.05409 0.1044745,0.123935 0.1695825,0.202343 0.5300909,0.638375 1.1680193,1.246691 1.8326467,1.744001 1.1451528,0.85688 2.1618132,1.235483 3.1449836,1.135046 0.9567743,-0.09775 1.7893146,-0.587249 2.5109766,-1.489627 0.721662,-0.902379 1.344804,-2.215022 1.930927,-3.9986773 0.138531,-0.42157 0.263725,-0.8026269 0.289061,-0.8883807 l 0.312186,-0.00386 z M 24.22024,8.9041595 c 0.209467,-0.00663 0.23674,-0.00447 0.343019,0.03276 0.374206,0.1310775 0.617978,0.4259166 0.674476,0.8190062 0.02463,0.1713732 0.02572,0.1562335 -0.02119,0.3410913 -0.09665,0.380816 -0.359456,0.636444 -0.749631,0.728434 -0.283852,0.06692 -0.549084,0.01645 -0.797809,-0.15802 -0.276121,-0.193688 -0.40371,-0.447545 -0.402758,-0.7900997 0.0011,-0.4209539 0.182613,-0.7053369 0.576195,-0.894162 0.165527,-0.079415 0.141125,-0.071528 0.377706,-0.07901 z m -22.1035307,0.00192 c 0.1510477,-0.016037 0.3052843,-0.00554 0.4278102,0.034687 0.2823489,0.092688 0.5346925,0.3509098 0.6262989,0.6474967 0.1665694,0.5392898 -0.176948,1.1186538 -0.736142,1.2371808 -0.1889182,0.04 -0.2319619,0.04057 -0.4143208,0 C 1.8301217,10.783123 1.7782545,10.759631 1.6137431,10.638526 1.4006305,10.481639 1.2587152,10.221504 1.2341097,9.9274354 1.2080828,9.6163825 1.4291579,9.1918015 1.7062426,9.0294192 1.8172289,8.9643769 1.9656615,8.9221238 2.1167093,8.9060865 Z M 13.191599,14.517723 c -0.05674,-2.94e-4 -0.134964,-0.0055 -0.22354,0.03276 -0.08857,0.03825 -0.158582,0.104679 -0.246665,0.208124 -0.176168,0.20689 -0.442418,0.595604 -1.004005,1.399055 -0.08746,0.125124 -0.1718,0.247586 -0.237031,0.346873 -0.03262,0.04964 -0.06093,0.09343 -0.08286,0.129114 -0.02193,0.03569 -0.03558,0.05314 -0.05203,0.0925 -0.06785,0.162376 -0.0564,0.34887 0.02697,0.504894 0.02413,0.04517 0.0445,0.07133 0.08672,0.131041 0.04222,0.0597 0.09849,0.137354 0.165728,0.229321 0.134474,0.183935 0.311156,0.422956 0.499112,0.672549 0.281098,0.37328 0.45587,0.6025 0.574268,0.747705 0.118397,0.145205 0.175501,0.212459 0.267863,0.258227 0.154583,0.07662 0.335067,0.08028 0.497185,0.01542 0.02998,-0.01199 0.07813,-0.03475 0.119479,-0.06937 0.04134,-0.03462 0.07854,-0.07616 0.13104,-0.140676 0.104998,-0.129034 0.270238,-0.353901 0.589685,-0.788173 0.1102,-0.14981 0.324983,-0.4411 0.475987,-0.645569 0.07973,-0.107972 0.153206,-0.212793 0.210051,-0.300624 0.02843,-0.04392 0.05365,-0.08283 0.07323,-0.117551 0.01958,-0.03472 0.03264,-0.05732 0.04625,-0.105989 0.03154,-0.112873 0.03917,-0.273538 -0.05396,-0.445154 -0.09313,-0.171616 -0.265937,-0.404674 -0.601246,-0.863329 -0.467903,-0.640024 -0.681534,-0.94022 -0.832496,-1.104214 -0.07548,-0.08199 -0.145936,-0.138286 -0.229322,-0.165727 -0.08338,-0.02744 -0.146432,-0.02092 -0.200416,-0.0212 z m 0.01349,1.171661 c 0.0258,0.03481 0.04825,0.0653 0.08094,0.109843 0.104337,0.142199 0.239563,0.327475 0.371926,0.510674 0.132362,0.1832 0.263145,0.364274 0.360362,0.50104 0.0396,0.05572 0.06823,0.09739 0.09442,0.134895 -0.02499,0.03568 -0.05242,0.07365 -0.09058,0.127187 -0.09667,0.135631 -0.230786,0.320125 -0.377706,0.522237 -0.146817,0.20197 -0.281902,0.386713 -0.38156,0.520309 -0.01454,0.0195 -0.02176,0.02902 -0.03469,0.04625 -0.007,-0.009 -0.01,-0.01355 -0.01735,-0.02313 -0.0912,-0.118318 -0.213459,-0.279619 -0.339165,-0.447081 -0.241445,-0.321644 -0.486852,-0.658382 -0.551143,-0.753485 l 0.470205,-0.674476 c 0.228165,-0.325423 0.339442,-0.47691 0.414321,-0.574268 z" /></g></svg>
