<?xml version="1.0" encoding="UTF-8" standalone="no"?>
<!-- Created with Inkscape (http://www.inkscape.org/) -->

<svg
   width="100"
   height="100"
   viewBox="0 0 26.458333 26.458333"
   version="1.1"
   id="svg1"
   inkscape:version="1.4 (86a8ad7, 2024-10-11)"
   xml:space="preserve"
   sodipodi:docname="ghost_writer_border_face.svg"
   xmlns:inkscape="http://www.inkscape.org/namespaces/inkscape"
   xmlns:sodipodi="http://sodipodi.sourceforge.net/DTD/sodipodi-0.dtd"
   xmlns="http://www.w3.org/2000/svg"
   xmlns:svg="http://www.w3.org/2000/svg"><sodipodi:namedview
     id="namedview1"
     pagecolor="#ffffff"
     bordercolor="#000000"
     borderopacity="0.25"
     inkscape:showpageshadow="false"
     inkscape:pageopacity="0.0"
     inkscape:pagecheckerboard="0"
     inkscape:deskcolor="#d1d1d1"
     inkscape:document-units="px"
     borderlayer="false"
     inkscape:zoom="6.8061168"
     inkscape:cx="56.419837"
     inkscape:cy="38.421321"
     inkscape:window-width="2048"
     inkscape:window-height="1209"
     inkscape:window-x="-8"
     inkscape:window-y="-8"
     inkscape:window-maximized="1"
     inkscape:current-layer="layer1" /><defs
     id="defs1" /><g
     inkscape:label="Layer 1"
     inkscape:groupmode="layer"
     id="layer1"><path
       id="path24"
       style="stroke-width:0.1134"
       d="m 13.048294,0.70880148 c -0.786868,-0.0031 -1.206856,0.0429436 -2.03249,0.21970155 C 10.248845,1.0926972 9.9187156,1.1991101 8.5283606,1.7360817 8.4496712,1.7664725 8.198917,1.8613415 7.9786051,1.9427416 7.121038,2.2595884 6.5175666,2.5570973 5.8533187,2.9930956 5.2307194,3.4017566 4.9041746,3.6590709 4.3329638,4.191422 4.1657073,4.3473 3.8956188,4.6327794 3.6522904,4.8981789 3.5306261,5.0308786 3.4174515,5.1577544 3.3322684,5.2568242 c -0.042591,0.049535 -0.078624,0.090771 -0.1083459,0.1289116 -0.014861,0.01907 -0.027796,0.036674 -0.043639,0.060694 -0.00792,0.01201 -0.015781,0.024801 -0.02809,0.049157 -4.653e-4,9.207e-4 -0.00153,0.00305 -0.00201,0.00401 -0.00354,0.00455 -0.00532,0.00606 -0.00953,0.011035 C 2.8970293,5.7984931 2.2642414,6.6418872 2.0692354,6.9401994 1.9075542,7.1875328 1.5693168,7.8293489 1.3263633,8.3241185 1.067977,8.8503153 0.67660045,10.206552 0.60405682,10.796513 c -0.003721,0.03026 -0.0595336,0.353482 -0.11386359,0.629008 -0.16309484,0.827177 -0.2043786,1.200507 -0.22170795,2.003899 -0.0198982,0.92233 0.0346056,1.553793 0.21217752,2.475906 0.10158854,0.527536 0.38682882,1.440357 0.6069381,1.943205 0.034827,0.07955 0.1029882,0.246949 0.1439597,0.354632 0.1379154,0.362454 0.526213,1.140364 0.7639393,1.545435 0.2056507,0.350417 0.5601321,0.888421 0.7508978,1.118071 0.03581,0.04311 0.1393364,0.174322 0.2197015,0.276884 0.4772082,0.608995 1.1482758,1.32853 1.6512728,1.767143 0.4462937,0.389166 0.5753,0.483854 0.9384969,0.684184 0.1714785,0.09458 0.4501283,0.250158 0.614462,0.343096 0.214757,0.121455 0.6423524,0.313557 1.032798,0.472007 0.3782311,0.153492 0.8102464,0.328704 0.9575576,0.388741 0.3622661,0.147638 0.9639061,0.317762 1.4220409,0.407803 0.9003956,0.176965 1.3212196,0.247156 1.9126076,0.322029 0.09529,0.01206 0.184711,0.02449 0.248293,0.03411 0.0283,0.0043 0.04809,0.0069 0.0627,0.0095 0.0018,3.17e-4 0.006,0.0017 0.0075,0.002 0.0069,0.0013 0.01127,0.0028 0.0075,0.002 0.0076,0.002 0.01636,0.0045 0.02107,0.0055 0.01362,0.003 0.02182,0.0046 0.0301,0.006 0.01656,0.0027 0.03104,0.005 0.04966,0.0075 0.03723,0.005 0.08489,0.01043 0.141954,0.01705 0.114112,0.01324 0.264601,0.02915 0.42285,0.04565 0.316495,0.033 0.653226,0.06588 0.805572,0.07574 0.431694,0.02791 1.018728,0.01972 1.391443,-0.02658 0.192185,-0.02387 0.504014,-0.05768 0.675157,-0.07223 0.53851,-0.04578 0.939929,-0.132633 1.920632,-0.418838 0.787503,-0.229821 1.88492,-0.684818 2.386621,-1.025776 -0.02996,0.02036 0.165391,-0.0939 0.308987,-0.168537 0.210697,-0.109507 0.512738,-0.320758 0.773469,-0.51966 0.449049,-0.342556 0.726918,-0.547603 1.08647,-0.805572 0.12056,-0.0865 0.256426,-0.193809 0.346607,-0.274878 0.06072,-0.05459 0.181474,-0.157788 0.254311,-0.218197 0.293126,-0.243123 0.540409,-0.505774 1.068914,-1.1276 0.312412,-0.367575 0.665683,-0.847322 0.860749,-1.171742 0.349236,-0.580832 0.717269,-1.390591 1.05236,-2.303354 0.08472,-0.23076 0.166798,-0.453574 0.182082,-0.495082 0.173822,-0.472069 0.313717,-1.224793 0.424354,-2.155382 0.136089,-1.144657 0.16897,-1.537699 0.16904,-2.110239 8.6e-5,-0.695505 -0.09536,-1.791498 -0.223714,-2.291818 -0.0047,-0.01832 -0.05736,-0.263334 -0.09882,-0.474013 C 25.703634,9.2224884 25.349589,8.2383537 24.940769,7.4994853 24.595016,6.8745961 24.470333,6.6715501 24.180341,6.2444779 23.842762,5.7473246 23.481772,5.2911867 23.129986,4.9212525 23.088956,4.8781053 22.890033,4.6609511 22.713156,4.4642934 22.169692,3.8600512 21.872112,3.5600861 21.53389,3.2830214 21.12365,2.9469589 20.627699,2.608631 20.23725,2.4092312 19.760008,2.1655078 18.939744,1.873478 18.071835,1.6242246 17.519829,1.4656938 17.35212,1.4144246 16.835889,1.2525377 16.377174,1.1086881 15.56428,0.92941305 15.15452,0.88887649 14.83199,0.85696571 14.441623,0.80860894 14.153322,0.76548248 13.890423,0.7261539 13.557586,0.7107732 13.048294,0.70880148 Z m 0.07775,1.27557312 c 0.405528,0.00152 0.818774,0.024994 1.012232,0.057183 0.216119,0.03596 0.471302,0.07111 0.615968,0.083266 0.491102,0.041194 1.280337,0.2070787 1.812286,0.3847285 0.253335,0.084605 0.561285,0.1799745 0.72632,0.2217079 0.87416,0.2210802 2.075149,0.6605018 2.485436,0.8873334 0.604047,0.3339536 0.960639,0.6257778 1.600109,1.3177078 0.248269,0.2686362 0.552353,0.5952169 0.678667,0.7298304 0.410685,0.437671 0.90991,1.0806838 1.279586,1.6457552 0.863541,1.3199741 1.245513,2.4405426 1.520356,4.5023762 0.06068,0.455313 0.05712,1.715529 0.002,2.070111 -0.02981,0.191523 -0.0738,0.553157 -0.100321,0.834164 -0.02523,0.267248 -0.06499,0.594651 -0.07374,0.643053 -0.01854,0.102636 -0.03475,0.201055 -0.04364,0.278389 -0.0022,0.01964 -0.123858,0.639374 -0.169039,0.813597 -0.175382,0.676246 -0.683506,1.88468 -1.184784,2.79643 -0.209015,0.380166 -1.303649,1.699725 -1.649266,1.984837 -0.158107,0.13043 -0.769808,0.599868 -1.378401,1.055872 -0.130504,0.09778 -0.366479,0.260231 -0.56681,0.392253 -0.100167,0.06602 -0.192074,0.124686 -0.257824,0.165027 -0.03126,0.01918 -0.0568,0.03417 -0.07022,0.04163 -0.0011,3.93e-4 -0.0025,0.0016 -0.0035,0.002 -8.63e-4,3.29e-4 -0.0031,-3.22e-4 -0.004,0 -0.02021,0.0078 -0.03197,0.01337 -0.04364,0.01906 -0.02334,0.01139 -0.04146,0.02203 -0.0627,0.03411 -0.04249,0.02414 -0.09014,0.05341 -0.139947,0.08527 -0.04024,0.02575 -0.08081,0.05011 -0.106339,0.06471 -0.0051,0.0029 -0.0057,0.0015 -0.0095,0.0035 -3.15e-4,1.73e-4 3.02e-4,0.0018 0,0.002 -0.0025,9.55e-4 -0.0073,0.0011 -0.0095,0.002 -0.01727,0.0069 -0.02729,0.01209 -0.03762,0.01706 -0.02066,0.0099 -0.03972,0.02072 -0.06069,0.0321 -0.04194,0.02275 -0.09012,0.04996 -0.142455,0.08176 -0.067,0.04071 -0.240463,0.129676 -0.328048,0.166532 -0.117578,0.04948 -0.399101,0.171549 -0.631015,0.271366 -0.930584,0.400525 -1.828398,0.630986 -2.908286,0.746885 -0.189121,0.0203 -0.604717,0.04263 -0.96107,0.05467 -0.178177,0.006 -0.344596,0.01126 -0.462978,0.01154 -0.0567,1.38e-4 -0.102468,-8.36e-4 -0.128912,-0.002 -0.0022,-5.27e-4 -0.0036,4.35e-4 -0.0055,0 -0.01023,-0.0023 -0.02187,-0.0064 -0.02859,-0.0075 -0.0195,-0.0034 -0.03223,-0.0035 -0.04916,-0.0055 -0.03385,-0.0041 -0.07518,-0.0093 -0.123394,-0.01354 -0.09642,-0.0085 -0.223342,-0.01738 -0.361655,-0.02659 -0.255027,-0.01699 -0.60586,-0.06727 -0.654089,-0.07925 -0.151107,-0.03752 -0.346849,-0.07264 -0.504611,-0.08728 -0.09327,-0.0086 -0.379693,-0.0505 -0.583865,-0.08728 -0.218192,-0.0393 -0.492379,-0.08403 -0.623491,-0.104333 C 10.085341,24.023605 9.5860316,23.908674 9.0685856,23.763921 8.8109522,23.691848 8.0278569,23.395825 7.2527874,23.067697 6.9995627,22.960497 5.8258074,22.276086 5.6902981,22.169329 5.5548192,22.062595 5.1314497,21.650173 4.7502965,21.249893 4.3691434,20.849613 3.981546,20.402701 3.9271681,20.320926 3.8817251,20.252586 3.7936673,20.132272 3.6939233,20.000403 3.4047555,19.618097 3.0037615,18.9988 2.8201332,18.654605 2.7671237,18.555245 2.718228,18.465167 2.6836975,18.398789 c -0.017265,-0.03319 -0.029589,-0.06079 -0.038122,-0.07775 -0.00201,-0.004 -0.00219,-0.0054 -0.00351,-0.008 -0.00394,-0.01012 -0.00773,-0.01703 -0.011537,-0.02608 -0.00764,-0.01811 -0.017101,-0.04067 -0.028591,-0.06671 -0.022981,-0.05209 -0.05276,-0.12076 -0.086777,-0.195123 C 2.4484532,17.87928 2.3792348,17.731398 2.3671868,17.704572 2.322313,17.604665 2.0689403,16.935202 1.9764391,16.65823 1.7845538,16.083679 1.5791976,15.119875 1.5480712,14.695964 1.4313282,13.105919 1.4230905,13.265291 1.8058945,11.162181 1.8905757,10.696949 1.8955251,10.671412 2.0882962,9.9623497 2.3212448,9.1055019 2.3574036,9.0183867 2.8296636,8.138526 3.0847991,7.6631868 3.1369271,7.5873646 3.7190034,6.8243294 4.856172,5.3336297 5.6358288,4.6046367 6.875583,3.8653809 7.440498,3.5285276 7.677073,3.4268114 9.1884684,2.8681968 9.360774,2.8045134 9.6430196,2.6950335 9.8310202,2.6178975 10.270772,2.437467 11.200591,2.1725679 11.605186,2.109775 c 0.09723,-0.015089 0.321219,-0.048996 0.495081,-0.075742 0.20403,-0.031398 0.620588,-0.051189 1.025775,-0.049659 z m 3.825716,6.9276211 c -0.216427,0 -0.406294,0.073853 -0.565304,0.1855927 -0.159011,0.111739 -0.2988,0.2654093 -0.352626,0.4910681 -3.41e-4,0.00143 -0.0036,0.012157 -0.0055,0.017054 -0.02056,0.03534 -0.02714,0.055772 -0.0321,0.070224 -0.0067,0.019437 -0.0098,0.032858 -0.01354,0.047151 -0.0076,0.028586 -0.01417,0.055964 -0.02057,0.087279 -0.01279,0.062628 -0.02628,0.1375938 -0.03812,0.2161905 -0.05736,0.380779 -0.01591,0.78778 0.113865,1.150674 0.04918,0.137538 0.100099,0.256018 0.184087,0.368176 0.08399,0.112156 0.205082,0.203984 0.320022,0.257823 0.135536,0.06343 0.327111,0.09248 0.487557,0.07574 0.281906,-0.02943 0.554517,-0.215093 0.722306,-0.458965 0.190577,-0.276991 0.266984,-0.602156 0.263342,-1.035306 C 18.011859,9.9866905 17.950723,9.6492695 17.778398,9.3724661 17.606072,9.0956627 17.281901,8.9119957 16.951758,8.9119957 Z M 9.3986395,9.1562758 C 9.0525978,9.1522501 8.7130036,9.3279228 8.5092996,9.6438327 8.3748501,9.8523332 8.3233886,10.080234 8.2840805,10.328018 c -0.039308,0.247784 -0.055753,0.49741 -0.00752,0.735849 0.019205,0.09496 0.045872,0.235049 0.056681,0.297449 0.057127,0.329843 0.2649587,0.57695 0.5763404,0.693715 0.2081795,0.07807 0.4239196,0.09676 0.6275037,0.05518 0.2035839,-0.04158 0.4189335,-0.151728 0.5347074,-0.379212 -0.0026,0.0051 0.0563,-0.08047 0.0627,-0.08728 0.291724,-0.310175 0.38967,-0.748928 0.356134,-1.203845 C 10.463262,10.0687 10.316212,9.7140864 10.060252,9.4426904 9.8821896,9.2538902 9.6357021,9.1590341 9.3986395,9.1562758 Z M 19.822926,13.568866 c -0.05278,-0.0017 -0.106421,0.0035 -0.158505,0.01806 -0.201498,0.05613 -0.329142,0.193499 -0.424356,0.341089 -0.03544,0.05493 -0.08754,0.147542 -0.09882,0.261836 -0.01069,0.108361 0.01416,0.182987 0.0321,0.242776 -9.71e-4,0.0044 -0.0083,0.04736 -0.03762,0.139946 -0.101553,0.321475 -0.1975,0.520171 -0.460971,0.950034 -0.350116,0.571225 -0.627678,0.903873 -1.046342,1.262532 -1.080866,0.925948 -2.27683,1.488875 -3.719376,1.751593 -0.356335,0.06489 -1.432864,0.06345 -1.879,-0.01304 -0.578761,-0.09923 -0.909037,-0.180965 -1.188797,-0.286415 C 10.14155,17.973533 9.5588744,17.641363 9.0916592,17.246108 8.0569549,16.370766 7.788053,16.084628 7.2753595,15.310427 7.1432158,15.110876 7.1424349,14.98715 7.1424351,15.124332 c 0,-0.164724 -0.084886,-0.329182 -0.1911103,-0.428368 -0.106225,-0.09919 -0.2248357,-0.151919 -0.3506196,-0.189605 -0.1178423,-0.0353 -0.3066254,-0.05774 -0.468496,0.0321 -0.1618704,0.08984 -0.2280306,0.219721 -0.2824018,0.332061 -0.058143,0.120104 -0.1102302,0.271497 -0.074237,0.447429 0.035993,0.175932 0.1548303,0.307123 0.2618361,0.388741 9.163e-4,6.98e-4 0.00107,7.29e-4 0.00201,0.0015 0.00182,0.0039 0.00367,0.0098 0.00552,0.01354 0.016445,0.03385 0.034355,0.06573 0.055176,0.102327 0.041642,0.07319 0.093705,0.161241 0.1534901,0.255817 0.1195689,0.189151 0.2609808,0.401771 0.3751981,0.553768 0.4701416,0.625656 1.4584542,1.519442 2.2220955,2.03249 0.3373532,0.226649 1.0191178,0.572566 1.4084978,0.718293 0.564361,0.211216 1.258116,0.358235 2.072117,0.443417 1.338196,0.140044 2.661858,-0.104221 4.032376,-0.729831 0.825259,-0.376713 1.362827,-0.722789 2.164913,-1.391443 0.565023,-0.471027 1.175396,-1.292241 1.520355,-2.024464 0.0617,-0.130983 0.142382,-0.294373 0.132924,-0.276885 0.06102,-0.112842 0.07155,-0.171441 0.107845,-0.280897 0.03629,-0.109456 0.07413,-0.233687 0.102828,-0.343095 6.3e-4,-0.0024 0.0519,-0.115313 0.05468,-0.119382 0.0363,-0.05321 0.07518,-0.11178 0.104333,-0.204652 0.02915,-0.09287 0.03258,-0.226903 -0.0035,-0.330054 -0.07219,-0.206302 -0.184611,-0.280956 -0.312999,-0.39426 C 20.134637,13.644039 19.981294,13.574 19.822949,13.568856 Z M 5.9897543,15.513073 h 5.016e-4 c 0,0.0044 4.446e-4,0.0045 5.016e-4,0.0085 -1.079e-4,-10e-4 -0.001,-0.0086 -0.001,-0.0085 z" /></g></svg>
