<?xml version="1.0" encoding="UTF-8" standalone="no"?>
<!-- Created with Inkscape (http://www.inkscape.org/) -->

<svg
   width="100"
   height="100"
   viewBox="0 0 26.458333 26.458333"
   version="1.1"
   id="svg1"
   inkscape:version="1.4 (86a8ad7, 2024-10-11)"
   xml:space="preserve"
   sodipodi:docname="fish.svg"
   xmlns:inkscape="http://www.inkscape.org/namespaces/inkscape"
   xmlns:sodipodi="http://sodipodi.sourceforge.net/DTD/sodipodi-0.dtd"
   xmlns="http://www.w3.org/2000/svg"
   xmlns:svg="http://www.w3.org/2000/svg"><sodipodi:namedview
     id="namedview1"
     pagecolor="#ffffff"
     bordercolor="#000000"
     borderopacity="0.25"
     inkscape:showpageshadow="false"
     inkscape:pageopacity="0.0"
     inkscape:pagecheckerboard="0"
     inkscape:deskcolor="#d1d1d1"
     inkscape:document-units="px"
     borderlayer="false"
     inkscape:zoom="4.8126513"
     inkscape:cx="46.336206"
     inkscape:cy="51.842526"
     inkscape:window-width="2048"
     inkscape:window-height="1209"
     inkscape:window-x="-8"
     inkscape:window-y="-8"
     inkscape:window-maximized="1"
     inkscape:current-layer="layer1" /><defs
     id="defs1" /><g
     inkscape:label="Layer 1"
     inkscape:groupmode="layer"
     id="layer1"><path
       style="fill:#000000;stroke-width:0.0967632"
       d="M 10.428105,18.106294 C 7.2589776,17.960968 4.3983636,16.887982 1.8770576,14.898885 1.4947166,14.59725 0.89110662,14.057328 0.59599962,13.752995 c -0.287314,-0.296297 -0.332419,-0.378148 -0.331301,-0.601212 9.39e-4,-0.187119 0.0735,-0.296022 0.424909,-0.637757 C 2.5211616,10.732919 4.8269426,9.4466155 7.3440556,8.8017744 9.4675816,8.2577637 11.655436,8.2017096 13.80756,8.6361756 c 1.397351,0.2820938 2.584408,0.6922986 3.929898,1.358033 1.23715,0.6121294 2.353068,1.3307954 3.528892,2.2726534 0.152595,0.122233 0.287338,0.222241 0.299429,0.222241 0.01209,0 0.152219,-0.117465 0.311399,-0.261033 1.118574,-1.008876 1.989873,-1.935385 2.962278,-3.1499815 0.277263,-0.3463208 0.365535,-0.4393863 0.460774,-0.4857959 0.238935,-0.1164316 0.550567,-0.045439 0.686515,0.1563938 0.156331,0.2320929 0.132425,0.4652619 -0.07585,0.7398113 -0.892528,1.1765533 -2.051216,2.4311743 -3.236235,3.5041733 l -0.259255,0.234747 0.400432,0.364547 c 1.220342,1.110982 3.206746,3.080024 3.308608,3.279691 0.07574,0.14846 0.09059,0.32975 0.03824,0.466818 -0.08721,0.228358 -0.360653,0.399784 -0.575918,0.361051 -0.205702,-0.03701 -0.29107,-0.106759 -0.7756,-0.633693 -0.5588,-0.607702 -1.661965,-1.704643 -2.299012,-2.28604 -0.762599,-0.695982 -0.915967,-0.831379 -0.941723,-0.831379 -0.0137,0 -0.138622,0.08929 -0.277616,0.198431 -1.228118,0.964311 -2.354203,1.679445 -3.657774,2.322916 -1.841253,0.908883 -3.607251,1.42251 -5.453212,1.586024 -0.440308,0.039 -1.401183,0.06668 -1.753733,0.05051 z m 1.676927,-1.174479 c 1.385725,-0.147748 2.701102,-0.471533 3.963475,-0.975622 0.407457,-0.162705 1.368954,-0.623628 1.79696,-0.861429 0.860264,-0.477962 1.843336,-1.121397 2.603642,-1.704118 l 0.248262,-0.190277 -0.06905,-0.05751 c -0.03798,-0.03163 -0.257852,-0.197666 -0.48861,-0.368964 C 17.82176,11.038371 15.616137,10.060237 13.115842,9.6501295 11.32061,9.3556688 9.7942006,9.389919 8.0563196,9.7636567 6.9836336,9.994342 6.0893246,10.310147 5.0132946,10.838233 c -0.924347,0.453644 -1.59073,0.859382 -2.355378,1.434111 -0.503369,0.378345 -1.093562,0.878531 -1.081322,0.916416 0.01347,0.0417 0.498758,0.450829 0.92771,0.782124 2.325708,1.796231 4.75825,2.785123 7.373357,2.997462 0.4177264,0.03392 1.7755034,0.01165 2.2273694,-0.03653 z"
       id="path1" /></g></svg>
