<?xml version="1.0" encoding="UTF-8" standalone="no"?>
<!-- Created with Inkscape (http://www.inkscape.org/) -->

<svg
   width="100"
   height="100"
   viewBox="0 0 26.458333 26.458333"
   version="1.1"
   id="svg1"
   inkscape:version="1.4 (86a8ad7, 2024-10-11)"
   xml:space="preserve"
   sodipodi:docname="ghost_writer_images_flame.svg"
   xmlns:inkscape="http://www.inkscape.org/namespaces/inkscape"
   xmlns:sodipodi="http://sodipodi.sourceforge.net/DTD/sodipodi-0.dtd"
   xmlns="http://www.w3.org/2000/svg"
   xmlns:svg="http://www.w3.org/2000/svg"><sodipodi:namedview
     id="namedview1"
     pagecolor="#ffffff"
     bordercolor="#000000"
     borderopacity="0.25"
     inkscape:showpageshadow="false"
     inkscape:pageopacity="0.0"
     inkscape:pagecheckerboard="0"
     inkscape:deskcolor="#d1d1d1"
     inkscape:document-units="px"
     borderlayer="false"
     inkscape:zoom="3.4030584"
     inkscape:cx="18.806613"
     inkscape:cy="114.74972"
     inkscape:window-width="2048"
     inkscape:window-height="1209"
     inkscape:window-x="-8"
     inkscape:window-y="-8"
     inkscape:window-maximized="1"
     inkscape:current-layer="layer1" /><defs
     id="defs1" /><g
     inkscape:label="Layer 1"
     inkscape:groupmode="layer"
     id="layer1"><path
       style="fill:#000000;stroke-width:0.109327"
       d="M 10.397063,26.169198 C 9.1098091,26.029325 8.4113779,25.835622 7.286115,25.306404 6.4330489,24.9052 5.672502,24.353621 5.0041341,23.651417 4.5671278,23.192288 4.4676975,23.071438 4.1363539,22.596705 3.5093101,21.698302 2.7072441,19.954873 2.4798583,18.99602 2.4118646,18.709305 2.2926801,17.968634 2.2183087,17.370634 2.1631269,16.926983 2.17208,15.724268 2.232096,15.517979 c 0.017787,-0.06113 0.067159,-0.292426 0.1097242,-0.514003 0.042565,-0.221577 0.1112612,-0.552901 0.1526535,-0.736275 0.094029,-0.416539 0.5017287,-1.86056 0.6191899,-2.193075 0.1265095,-0.35813 0.4793232,-0.961638 0.6332308,-1.083179 0.2561928,-0.202316 0.6208753,-0.195501 0.8819057,0.01648 0.1061039,0.08617 0.1759857,0.186406 0.3129864,0.44897 0.2536208,0.486067 0.5570147,0.888153 0.950605,1.259829 0.1835384,0.173319 0.3506458,0.315004 0.3713496,0.314857 0.02416,-1.68e-4 0.037644,-0.04255 0.037655,-0.11835 8.7e-6,-0.185092 0.1090793,-0.755447 0.2226318,-1.164202 0.2287775,-0.823527 0.7343683,-1.9228091 1.154523,-2.5102271 0.277689,-0.388236 0.7824711,-0.997094 1.1056659,-1.33363 0.9252122,-0.963406 1.1192262,-1.193911 1.6068872,-1.909112 0.486172,-0.713018 0.685697,-1.101542 1.024287,-1.994534 0.185411,-0.489003 0.262544,-0.739958 0.42698,-1.389198 0.197037,-0.777963 0.403707,-1.442477 0.516756,-1.66154096 0.123158,-0.238656 0.376239,-0.471454 0.642917,-0.591393 0.190395,-0.08563 0.23607,-0.09481 0.471721,-0.09481 0.241925,0 0.27042,0.0061 0.391499,0.08443 0.152867,0.09884 0.310232,0.325516 0.338264,0.487247 0.02996,0.17283496 0.276395,0.77958496 0.456108,1.12297596 0.08801,0.168183 0.260096,0.455821 0.382394,0.639196 0.122297,0.183374 0.365005,0.552206 0.539351,0.819626 0.174346,0.267421 0.459219,0.698767 0.633051,0.958547 0.62006,0.926639 1.100831,1.831533 1.350691,2.542232 0.02955,0.08405 0.08825,0.24144 0.130459,0.349763 0.102083,0.262009 0.280233,1.396135 0.324756,2.067441 0.02856,0.430579 0.02592,0.626739 -0.01627,1.2086021 -0.08768,1.209242 -0.120922,1.845237 -0.09758,1.866771 0.06606,0.06095 0.800883,-0.434343 1.223393,-0.824602 0.342032,-0.315925 0.613199,-0.623143 0.932723,-1.056726 0.43987,-0.5968861 0.768838,-0.7747651 1.21269,-0.6557221 0.293718,0.07878 0.43076,0.2226561 0.725424,0.7616241 0.232941,0.42607 0.408924,0.711522 0.6888,1.117258 0.329122,0.47713 0.829414,1.49421 1.141163,2.31996 0.136446,0.361415 0.248299,0.856454 0.310745,1.375306 0.02482,0.206296 0.06763,0.506363 0.0951,0.666815 0.04153,0.242565 0.04722,0.429866 0.03365,1.111358 -0.01779,0.894264 -0.05559,1.186529 -0.226467,1.75039 -0.04862,0.160452 -0.110744,0.385502 -0.138045,0.500111 -0.08737,0.366794 -0.198487,0.668789 -0.429347,1.166926 -0.341126,0.736067 -0.646023,1.244442 -1.224758,2.042121 -0.441068,0.60793 -1.142071,1.303922 -1.783523,1.770775 -0.552585,0.402173 -1.544801,0.946085 -2.183825,1.197128 -0.739621,0.290562 -1.352741,0.424996 -2.120067,0.464851 -0.600596,0.03119 -0.767102,0.01 -0.95679,-0.122006 -0.189351,-0.131736 -0.269109,-0.293905 -0.2565,-0.521531 0.01154,-0.208427 0.04364,-0.260884 0.372138,-0.608176 0.540334,-0.571251 0.904651,-1.249107 1.056185,-1.965162 0.08276,-0.39107 0.0708,-1.01879 -0.02751,-1.443559 -0.183505,-0.792918 -0.613399,-1.729334 -1.240114,-2.701274 -0.153605,-0.23822 -0.383042,-0.599628 -0.509859,-0.803128 -0.126816,-0.2035 -0.313556,-0.484812 -0.414975,-0.625139 -0.23979,-0.331779 -0.99737,-1.268059 -1.026579,-1.268732 -0.01242,-2.84e-4 -0.02259,0.01759 -0.02259,0.03972 0,0.102871 -0.173148,0.532627 -0.33368,0.828201 -0.362555,0.667537 -0.68931,1.073096 -1.468504,1.822668 -0.510344,0.49094 -0.617117,0.600522 -0.761857,0.781883 -0.267646,0.335369 -0.639741,1.004948 -0.7719964,1.389199 -0.1569292,0.455934 -0.1724313,0.558804 -0.1716639,1.139142 7.805e-4,0.590683 0.052039,0.921944 0.2127907,1.375306 0.1959816,0.552704 0.3814456,0.816166 0.9864506,1.401321 0.2459,0.23783 0.472894,0.478807 0.504431,0.535503 0.129649,0.233071 0.0441,0.568844 -0.180497,0.708486 -0.191157,0.118848 -0.32488,0.134323 -0.755966,0.08748 z m 6.887262,-1.401648 c 0.823519,-0.256889 1.677091,-0.69305 2.421375,-1.237282 0.491846,-0.359646 1.185027,-1.073533 1.615399,-1.663655 0.37419,-0.513085 0.898328,-1.433882 1.075437,-1.889309 0.116181,-0.298756 0.241766,-0.721672 0.375396,-1.26417 0.183208,-0.743775 0.191761,-0.818005 0.1937,-1.680929 0.0016,-0.728119 -0.0048,-0.830972 -0.07996,-1.278063 -0.187567,-1.115771 -0.222319,-1.23795 -0.600588,-2.11158 -0.281504,-0.65015 -0.345733,-0.764838 -0.925381,-1.652367 -0.119482,-0.182946 -0.251678,-0.395328 -0.293769,-0.471959 l -0.07652,-0.139331 -0.04858,0.06827 c -0.02672,0.03755 -0.166407,0.201645 -0.310416,0.364659 -0.681201,0.771096 -1.622712,1.484817 -2.282908,1.730578 -0.202733,0.07547 -0.25979,0.08419 -0.557133,0.08517 -0.303105,9.98e-4 -0.345859,-0.0055 -0.502897,-0.07667 -0.328776,-0.148953 -0.555102,-0.437713 -0.643015,-0.820397 -0.05452,-0.237351 -0.05399,-0.721915 0.0016,-1.477375 0.09317,-1.2656831 0.08801,-2.0686141 -0.01732,-2.6950441 -0.105475,-0.627275 -0.169138,-0.894455 -0.304508,-1.278062 -0.272033,-0.770882 -0.598561,-1.385971 -1.342198,-2.52834 -0.927294,-1.424502 -1.383523,-2.173006 -1.590714,-2.609781 l -0.09794,-0.206469 -0.03595,0.123117 c -0.01978,0.06771 -0.102528,0.398178 -0.183898,0.734364 -0.238113,0.983807 -0.43455,1.591712 -0.753077,2.330521 -0.476488,1.10519 -1.20248,2.123873 -2.3883951,3.351299 C 8.9136442,9.5288289 8.5521626,10.043669 8.1081,11.072545 7.7257086,11.958531 7.5352342,12.739129 7.4871195,13.617444 7.4647259,14.026226 7.4103787,14.17222 7.2204842,14.333707 6.7777386,14.710223 5.9770893,14.427177 5.033391,13.560522 4.8246094,13.368785 4.5690897,13.105636 4.4655709,12.975746 4.3620467,12.845856 4.2681194,12.736305 4.2568337,12.7323 c -0.011283,-0.004 -0.022654,0.01475 -0.025266,0.04168 -0.0026,0.02693 -0.1194913,0.474053 -0.2597383,0.993613 -0.3083452,1.1423 -0.3581704,1.364455 -0.4424259,1.972661 -0.073717,0.53212 -0.086225,1.055003 -0.035552,1.486441 0.018838,0.160453 0.049578,0.435514 0.068308,0.611247 0.081131,0.761472 0.248211,1.353794 0.6484489,2.298853 0.316338,0.746947 0.6936371,1.436635 1.0755082,1.965985 0.2531211,0.350877 0.8487554,0.998596 1.1763357,1.279201 0.5416643,0.463989 1.1392269,0.827096 1.8416198,1.119056 0.3341227,0.138882 0.8582862,0.31991 0.8582862,0.296423 0,-0.007 -0.040506,-0.07342 -0.090008,-0.147646 -0.4667272,-0.699808 -0.7332009,-1.668649 -0.7349341,-2.672062 -8.313e-4,-0.479559 0.033482,-0.726991 0.1647965,-1.188417 0.1509681,-0.530493 0.288191,-0.807015 0.7605426,-1.532598 0.3180483,-0.488556 0.495872,-0.691462 1.1338367,-1.293767 0.291346,-0.275061 0.598222,-0.581379 0.681947,-0.680707 0.387186,-0.459344 0.653053,-0.899214 0.83502,-1.381522 0.09421,-0.249726 0.133933,-0.407774 0.231385,-0.920801 0.05293,-0.278596 0.231144,-0.454031 0.517552,-0.509455 0.242281,-0.04688 0.388653,10e-4 0.739622,0.242136 0.455381,0.312829 0.740041,0.606676 1.426147,1.472176 0.425913,0.537273 0.595621,0.778583 1.192261,1.695286 0.966731,1.485325 1.321302,2.232298 1.621955,3.416963 0.09631,0.379482 0.128908,1.022906 0.074,1.460564 -0.0737,0.587435 -0.344796,1.366718 -0.649174,1.866067 -0.07437,0.121999 -0.135207,0.226718 -0.135207,0.232711 0,0.01939 0.02774,0.01239 0.352244,-0.08883 z"
       id="path1" /></g></svg>
