<?xml version="1.0" encoding="UTF-8" standalone="no"?>
<!-- Created with Inkscape (http://www.inkscape.org/) -->

<svg
   width="100"
   height="100"
   viewBox="0 0 26.458333 26.458333"
   version="1.1"
   id="svg1"
   inkscape:version="1.4 (86a8ad7, 2024-10-11)"
   xml:space="preserve"
   sodipodi:docname="ghost_writer_border_cloud.svg"
   xmlns:inkscape="http://www.inkscape.org/namespaces/inkscape"
   xmlns:sodipodi="http://sodipodi.sourceforge.net/DTD/sodipodi-0.dtd"
   xmlns="http://www.w3.org/2000/svg"
   xmlns:svg="http://www.w3.org/2000/svg"><sodipodi:namedview
     id="namedview1"
     pagecolor="#ffffff"
     bordercolor="#000000"
     borderopacity="0.25"
     inkscape:showpageshadow="false"
     inkscape:pageopacity="0.0"
     inkscape:pagecheckerboard="0"
     inkscape:deskcolor="#d1d1d1"
     inkscape:document-units="px"
     borderlayer="false"
     inkscape:zoom="9.6253024"
     inkscape:cx="63.322686"
     inkscape:cy="53.868437"
     inkscape:window-width="2048"
     inkscape:window-height="1209"
     inkscape:window-x="-8"
     inkscape:window-y="-8"
     inkscape:window-maximized="1"
     inkscape:current-layer="layer1" /><defs
     id="defs1" /><g
     inkscape:label="Layer 1"
     inkscape:groupmode="layer"
     id="layer1"><path
       id="path1"
       style="stroke-width:0.109101"
       d="M 13.594114,1.9054871 C 12.226217,1.8405024 10.874618,2.3070263 9.8650644,3.1896377 9.3821235,3.611854 8.9096895,4.2478368 8.6927467,4.7784365 8.6729779,4.8267841 8.6630171,4.841352 8.6503274,4.8671317 8.592373,4.8506135 8.5451812,4.8362819 8.4536556,4.809287 8.0735449,4.6971736 7.6766516,4.655421 7.1695051,4.6762444 6.5124112,4.7032207 5.9812268,4.8511957 5.3705373,5.1679237 4.3922708,5.6752927 3.5924319,6.6088415 3.2418553,7.6552424 3.0322556,8.2808441 3.0141574,8.9132398 3.1589447,9.5891809 2.9106834,9.6684829 2.478318,9.8968031 2.2334307,10.069291 c -0.3613426,0.254514 -0.791778,0.706902 -1.0604847,1.110617 -0.52093929,0.782677 -0.80342649,1.584807 -0.88887902,2.523953 -0.1912876,2.102313 1.04370142,4.021175 2.92500962,4.500312 0.054187,0.0138 0.097814,0.02671 0.1407554,0.03856 -0.032518,0.132081 -0.046288,0.300555 -0.05206,0.503247 -0.00626,0.219755 -0.00331,0.445903 0.019281,0.603512 0.1085337,0.757126 0.5486708,1.554576 1.1742457,2.149893 0.7349563,0.699405 1.6487935,1.084753 2.6801342,1.12797 0.6275143,0.0263 1.2093346,-0.07255 1.6948474,-0.291152 0.031949,-0.01438 0.044019,-0.02044 0.063629,-0.02893 0.013526,0.02295 0.026287,0.04445 0.050132,0.08677 0.1622585,0.287956 0.5182836,0.697889 0.8213936,0.962149 0.7343651,0.640241 1.6308081,1.029156 2.7341231,1.193527 0.0372,0.0055 0.05979,0.0045 0.104121,0.0058 0.04433,0.0013 0.101671,0.0014 0.167748,0.002 0.132156,0.0011 0.300473,0.0023 0.476254,0 0.72642,-0.0092 1.075424,-0.06276 1.604224,-0.244876 0.694307,-0.239122 1.178077,-0.535423 1.675567,-1.029635 0.330143,-0.327966 0.529349,-0.592867 0.703775,-0.937082 0.0028,-0.0054 0.005,-0.0083 0.0077,-0.01349 0.03159,0.01402 0.059,0.02731 0.09641,0.04435 1.150255,0.524186 2.624218,0.44574 3.786895,-0.196672 1.08556,-0.599805 1.916738,-1.69697 2.155675,-2.855596 0.108911,-0.528112 0.09275,-1.218962 -0.04242,-1.706417 -0.005,-0.01799 -0.0071,-0.02962 -0.01157,-0.04627 0.0356,-0.01106 0.06725,-0.0216 0.109904,-0.03471 1.400084,-0.430178 2.488346,-1.771015 2.761117,-3.366557 0.105875,-0.619293 0.07592,-1.498138 -0.0752,-2.082406 -0.260789,-1.008454 -0.807239,-1.872631 -1.57143,-2.4796955 -0.371223,-0.2948938 -0.945069,-0.5819739 -1.35742,-0.6671414 l -0.03856,-0.00771 0.0097,-0.2680133 C 23.114095,8.184355 23.075507,7.8925595 22.94759,7.5087027 22.541294,6.2894845 21.505464,5.3159874 20.209611,4.9230481 c -0.744366,-0.225763 -1.636944,-0.2257188 -2.396695,-0.00386 -0.03616,0.010562 -0.06176,0.018384 -0.09255,0.026994 -0.01108,-0.033722 -0.01995,-0.06414 -0.03278,-0.1041202 C 17.464389,4.1462944 17.02132,3.490332 16.44971,3.0064631 15.645958,2.3260838 14.692732,1.9576771 13.594114,1.9054871 Z m -0.609296,0.7770461 c 0.580655,-0.048463 1.161696,0.020686 1.716057,0.2063125 1.181225,0.3955287 2.085006,1.3566772 2.331138,2.4564682 0.03417,0.1526898 0.05055,0.2355017 0.08677,0.3142891 0.01811,0.039394 0.04826,0.081938 0.08869,0.1118329 0.04044,0.029896 0.08011,0.04121 0.107976,0.048204 0.144541,0.036281 0.290736,-0.00243 0.512889,-0.096407 0.327205,-0.1384135 0.610873,-0.1854817 1.141467,-0.1870309 0.534931,-0.00159 0.740977,0.029126 1.172318,0.1812464 0.843229,0.297379 1.542468,0.9041142 1.920441,1.6582125 0.06037,0.1204395 0.136072,0.2932991 0.15618,0.3528522 0.12104,0.3585055 0.154186,0.912725 0.07906,1.239803 -0.01347,0.05861 -0.02566,0.1191428 -0.03471,0.1716057 -0.0091,0.052463 -0.01796,0.085084 -0.01736,0.136899 0.0012,0.101699 0.06188,0.2141092 0.148468,0.2718697 0.08659,0.057761 0.185487,0.081437 0.306576,0.098335 0.560666,0.078237 1.081153,0.3409477 1.556021,0.7963275 0.289563,0.277681 0.428632,0.455889 0.634362,0.80404 0.355292,0.601255 0.536045,1.307922 0.536026,2.117113 -1.1e-5,0.574371 -0.06786,0.933907 -0.277654,1.469254 -0.186998,0.477172 -0.443934,0.867083 -0.80404,1.220521 -0.43591,0.427842 -0.927659,0.705137 -1.395983,0.798255 -0.161771,0.03216 -0.258254,0.05292 -0.339355,0.08291 -0.0811,0.02998 -0.158104,0.09687 -0.190888,0.158108 -0.03494,0.06528 -0.05289,0.164749 -0.03664,0.256445 0.01625,0.09169 0.05127,0.19467 0.109904,0.360564 0.137145,0.387971 0.167488,0.986141 0.06749,1.461541 -0.151222,0.718884 -0.646643,1.509662 -1.235947,1.968645 -0.66677,0.51932 -1.294812,0.759366 -2.113257,0.807897 -0.624764,0.03705 -1.346294,-0.134539 -1.820178,-0.426122 -0.129059,-0.07941 -0.254775,-0.129223 -0.391414,-0.104121 -0.13664,0.0251 -0.239661,0.144812 -0.281511,0.273798 -0.0585,0.180301 -0.279942,0.581567 -0.426122,0.765478 -0.4988,0.627548 -1.249741,1.06776 -2.176886,1.264869 -0.332311,0.07064 -1.243131,0.09543 -1.588799,0.04242 -1.360373,-0.208652 -2.557988,-1.014591 -3.0117765,-1.989855 -0.027106,-0.05826 -0.057253,-0.114499 -0.084838,-0.161965 -0.013793,-0.02373 -0.026673,-0.04576 -0.040492,-0.06556 -0.013819,-0.0198 -0.02051,-0.03442 -0.057845,-0.06363 -0.077224,-0.06043 -0.185873,-0.07902 -0.2795824,-0.06363 -0.093709,0.01539 -0.1829569,0.05448 -0.2872949,0.111833 -0.4058331,0.223072 -0.8389657,0.324561 -1.413337,0.32393 C 6.8889859,21.855555 6.6102821,21.809491 6.2266274,21.674844 5.2098691,21.318 4.383732,20.451345 4.130724,19.494102 4.076989,19.2908 4.05274,19.007151 4.06131,18.747906 4.06988,18.488661 4.118422,18.244938 4.1654303,18.154035 4.2366383,18.016334 4.2564983,17.85105 4.1712103,17.724056 4.0859425,17.597069 3.9410144,17.547086 3.7778821,17.529319 3.102479,17.455766 2.4551029,17.124434 1.9634892,16.598021 1.1754681,15.754214 0.85504646,14.463205 1.1324548,13.179403 1.2932549,12.435252 1.6953346,11.662091 2.1852269,11.14713 2.6126003,10.697887 3.0433636,10.42519 3.5445755,10.281389 3.6704422,10.245279 3.7473261,10.223209 3.8164452,10.188839 3.8855642,10.154469 3.9478875,10.085797 3.9745539,10.03073 3.9975669,9.983204 4.0189349,9.9047911 4.0111889,9.8340585 4.0034425,9.7633239 3.9833573,9.6993102 3.9494878,9.5930373 3.8175341,9.1789948 3.7891958,8.8410699 3.851152,8.387941 3.9898967,7.3731992 4.8235846,6.2755226 5.8429351,5.7926456 6.7639353,5.3563579 7.7977561,5.3190748 8.6175488,5.6788845 c 0.076685,0.033657 0.1423187,0.061573 0.214025,0.075198 0.071706,0.013626 0.160309,0.00776 0.2333067,-0.034707 C 9.2108759,5.6344519 9.2468318,5.4962181 9.3116842,5.3048231 9.5992111,4.4562651 10.34255,3.6394746 11.262976,3.1780687 11.821481,2.8980941 12.404079,2.7310041 12.984818,2.6825332 Z" /></g></svg>
