<?xml version="1.0" encoding="UTF-8" standalone="no"?>
<!-- Created with Inkscape (http://www.inkscape.org/) -->

<svg
   width="100"
   height="100"
   viewBox="0 0 26.458333 26.458333"
   version="1.1"
   id="svg1"
   inkscape:version="1.4 (86a8ad7, 2024-10-11)"
   xml:space="preserve"
   sodipodi:docname="ghost_writer_border_moon.svg"
   xmlns:inkscape="http://www.inkscape.org/namespaces/inkscape"
   xmlns:sodipodi="http://sodipodi.sourceforge.net/DTD/sodipodi-0.dtd"
   xmlns="http://www.w3.org/2000/svg"
   xmlns:svg="http://www.w3.org/2000/svg"><sodipodi:namedview
     id="namedview1"
     pagecolor="#ffffff"
     bordercolor="#000000"
     borderopacity="0.25"
     inkscape:showpageshadow="false"
     inkscape:pageopacity="0.0"
     inkscape:pagecheckerboard="0"
     inkscape:deskcolor="#d1d1d1"
     inkscape:document-units="px"
     borderlayer="false"
     inkscape:zoom="2.4063257"
     inkscape:cx="23.895353"
     inkscape:cy="47.167348"
     inkscape:window-width="2048"
     inkscape:window-height="1209"
     inkscape:window-x="-8"
     inkscape:window-y="-8"
     inkscape:window-maximized="1"
     inkscape:current-layer="layer1" /><defs
     id="defs1" /><g
     inkscape:label="Layer 1"
     inkscape:groupmode="layer"
     id="layer1"><path
       id="path1"
       style="stroke-width:0.125487"
       d="m 14.096241,0.26522051 c -0.202547,-0.002868 -0.406124,0.003956 -0.713369,0.0210377 C 10.871433,0.42632496 8.3283405,1.3240274 6.314198,2.7820967 5.1578487,3.6191962 4.1277048,4.6272594 3.4186429,5.6183637 2.6635938,6.6737449 2.1505172,7.6314737 1.6744248,8.8734726 1.3645234,9.6819243 1.0460007,11.01025 0.94001715,11.93733 c -0.0900204,0.787485 -0.10728341,2.205191 -0.0306003,2.88408 0.22624465,2.002932 0.95893575,4.02481 2.04257125,5.632371 1.286754,1.908887 3.2392142,3.546384 5.4258189,4.557535 1.4345874,0.663396 3.082371,1.074559 4.628298,1.151337 1.747168,0.08678 2.851,-0.0023 4.197981,-0.340428 1.285795,-0.322816 2.354136,-0.765116 3.515212,-1.455428 0.360666,-0.214432 0.972622,-0.639118 1.359802,-0.942872 0.552754,-0.433654 1.448236,-1.313475 1.855144,-1.824544 0.436641,-0.548415 0.878217,-1.242042 1.170462,-1.839845 0.220434,-0.450906 0.36964,-0.833367 0.441793,-1.157074 0.07216,-0.323707 0.08316,-0.606584 -0.07077,-0.841509 -0.06209,-0.09477 -0.178925,-0.171741 -0.290703,-0.191252 -0.111778,-0.01952 -0.212756,-3.44e-4 -0.313653,0.0306 -0.201795,0.06189 -0.42167,0.185093 -0.71337,0.372942 -1.0952,0.705282 -2.109376,1.103935 -3.388986,1.334939 -0.60854,0.109857 -1.792803,0.141814 -2.392562,0.06503 -2.002595,-0.256388 -3.428407,-0.90618 -4.985939,-2.270161 -0.958671,-0.839538 -1.830816,-2.073104 -2.264424,-3.205384 -0.434622,-1.134933 -0.663185,-2.385134 -0.617743,-3.278058 0.06142,-1.2070989 0.248717,-2.0460416 0.709544,-3.1633087 0.571374,-1.3852862 1.857051,-2.9409097 3.159483,-3.8154772 0.917097,-0.6158197 1.615362,-0.958148 2.750203,-1.3483265 0.153476,-0.052767 0.300947,-0.1080127 0.418843,-0.1568267 0.05895,-0.024407 0.108998,-0.047426 0.153001,-0.06885 0.04401,-0.021424 0.06636,-0.019675 0.137702,-0.086064 0.24079,-0.2240613 0.217696,-0.5892355 -0.0153,-0.8051719 C 17.556379,0.92956819 17.159342,0.7576337 16.647543,0.61521166 16.135745,0.47278961 15.507696,0.36868717 14.794311,0.30729594 14.497075,0.28171142 14.298657,0.26803517 14.096241,0.26522051 Z M 13.866739,1.3821322 c 0.490879,-0.00598 0.989728,0.00816 1.220188,0.040163 0.300368,0.041678 0.600515,0.106061 0.868284,0.1663893 -2.088132,0.8328657 -3.827479,2.2338701 -5.04714,4.1329551 -0.691218,1.0762663 -1.1746235,2.4064244 -1.4018772,3.8479901 -0.091946,0.5832623 -0.092853,1.9131213 0,2.4901013 0.3526231,2.191025 1.2461492,3.969597 2.7674162,5.508057 0.623986,0.631038 1.806326,1.511638 2.528352,1.872358 1.136029,0.567551 2.284118,0.8936 3.616575,1.030848 0.947152,0.09756 2.208177,0.0027 3.207295,-0.237153 0.832316,-0.199852 1.695643,-0.563852 2.478626,-0.994511 -0.164346,0.345876 -0.302753,0.686654 -0.52403,1.011724 -1.150338,1.689925 -2.885261,3.078701 -4.915176,3.932141 -1.157812,0.48678 -2.321538,0.779605 -3.555374,0.895059 -1.421773,0.133039 -3.131181,-0.03021 -4.559448,-0.43988 C 9.4339374,24.318129 8.6928219,23.993332 7.6395744,23.364636 5.2104411,21.914658 3.3753799,19.674146 2.558009,17.179547 2.3594079,16.573421 2.202739,15.990443 2.123867,15.555818 2.0856505,15.345234 2.0415534,15.101897 2.0225033,15.005012 c -0.04423,-0.22494 -0.075636,-0.814085 -0.072676,-1.424827 0.00296,-0.610743 0.034815,-1.264564 0.089889,-1.675368 C 2.2564404,10.28821 2.842286,8.5946321 3.6232826,7.3147689 4.5349874,5.8207073 5.1775585,5.0984204 6.6087262,3.9563839 7.6074107,3.1594592 8.9273059,2.4451825 10.154538,2.0362139 c 0.774554,-0.2581164 1.514596,-0.4333197 2.469063,-0.581406 0.250617,-0.038885 0.752793,-0.066675 1.243138,-0.072676 z m 7.099274,3.84799 c -0.217826,0 -0.467456,0.099699 -0.642607,0.3117407 -0.17515,0.2120416 -0.33425,0.5175949 -0.583318,1.0289358 -0.201773,0.4142445 -0.40715,0.8382378 -0.45518,0.9352222 -0.01962,0.039625 -0.04273,0.074813 -0.05929,0.095626 -0.01656,0.020813 -0.03483,0.023966 0.0076,0.00383 0.0377,-0.017875 0.01257,-0.0059 -0.01338,0 -0.02597,0.0059 -0.06596,0.013271 -0.110926,0.021037 -0.08994,0.015533 -0.206296,0.032666 -0.323216,0.045901 -0.246517,0.027893 -0.539833,0.064817 -0.669382,0.08415 -0.09408,0.01404 -0.319485,0.030282 -0.453268,0.0306 -0.406704,9.792e-4 -0.738031,0.084391 -0.965822,0.3117407 -0.06034,0.060226 -0.119769,0.119953 -0.160651,0.2142023 -0.04088,0.094249 -0.04399,0.1828527 -0.04399,0.2639277 0,0.182918 0.06827,0.4078394 0.242891,0.5986188 0.174619,0.1907792 0.444202,0.4024001 0.925659,0.776483 0.313849,0.2438566 0.475167,0.3765946 0.525943,0.4303176 0.05077,0.05372 0.01062,-0.05354 0.0076,0.02103 9.42e-4,-0.02366 -0.009,0.06081 -0.02869,0.153001 -0.01969,0.09219 -0.04673,0.214264 -0.08032,0.349991 -0.06718,0.271454 -0.155975,0.600766 -0.240978,0.891234 -0.06286,0.214794 -0.0996,0.44089 -0.110926,0.64452 -0.01133,0.20363 -0.02025,0.370485 0.07459,0.552718 0.106359,0.20437 0.344721,0.326908 0.569931,0.327041 0.225212,1.32e-4 0.45344,-0.07973 0.711458,-0.21229 0.148957,-0.07651 0.486739,-0.269494 0.782221,-0.445617 0.44505,-0.265273 0.680916,-0.399828 0.778395,-0.437967 0.04874,-0.01906 0.04817,-0.01413 0.03825,-0.0153 -0.0099,-0.0012 -0.0012,-0.0012 0.0459,0.02295 -0.02213,-0.01136 0.107688,0.06677 0.246715,0.156826 0.139027,0.09005 0.318103,0.207141 0.50108,0.328953 0.187239,0.124648 0.382875,0.247697 0.548894,0.348079 0.166018,0.100383 0.287592,0.172368 0.390153,0.216114 0.164726,0.07026 0.328363,0.112359 0.48578,0.120489 0.157418,0.0081 0.318526,-0.0074 0.460918,-0.126226 0.169113,-0.141042 0.245429,-0.354779 0.263928,-0.583318 0.0185,-0.228539 -0.01384,-0.488148 -0.08415,-0.795609 -0.07766,-0.339577 -0.147112,-0.673496 -0.19699,-0.937134 -0.04988,-0.263639 -0.07651,-0.496047 -0.07651,-0.489605 0,-0.06083 0.0035,-0.06539 -0.002,-0.04972 -0.0054,0.01567 -0.0105,0.0097 0.03825,-0.03634 0.09749,-0.09214 0.36438,-0.290727 0.900796,-0.6865951 0.308331,-0.2275426 0.523962,-0.4084232 0.677033,-0.5890561 0.15307,-0.180633 0.244802,-0.3815637 0.244802,-0.5852311 0,-0.2967961 -0.215354,-0.5362514 -0.48578,-0.6521693 -0.248801,-0.1066527 -0.637022,-0.1610405 -1.166637,-0.2161148 -0.182603,-0.018986 -0.52995,-0.055109 -0.772658,-0.080326 -0.154465,-0.016046 -0.264508,-0.031011 -0.328953,-0.043988 -0.06444,-0.012977 -0.08403,-0.043801 -0.02295,0.011475 0.0735,0.06652 0.01909,0.020254 -0.0076,-0.036337 C 22.321953,7.4513393 22.286544,7.3646251 22.243496,7.2554782 22.157487,7.0371872 22.043535,6.7262853 21.91271,6.3432088 21.782657,5.962385 21.686422,5.7137956 21.545507,5.5246502 21.404591,5.335505 21.17102,5.2301222 20.966013,5.2301222 Z m -0.07651,1.3846644 c 0.06243,0.1643045 0.135051,0.3535791 0.237153,0.6368691 0.159978,0.4438656 0.25404,0.698806 0.353816,0.8835843 0.09978,0.1847782 0.25506,0.3139483 0.39398,0.3672038 0.08846,0.033917 0.11824,0.031396 0.196989,0.043988 0.07875,0.012592 0.177674,0.027634 0.292616,0.042076 0.229882,0.028882 0.521095,0.059461 0.814733,0.086064 0.247309,0.022404 0.387772,0.043574 0.541243,0.065026 -0.116889,0.092729 -0.222837,0.178545 -0.413105,0.3193907 -0.436564,0.3231685 -0.69073,0.5176154 -0.860633,0.7018949 -0.169904,0.1842794 -0.2429,0.4055316 -0.242891,0.5928816 8e-6,0.149615 0.03091,0.346563 0.07842,0.615831 0.0475,0.269268 0.114272,0.595717 0.193165,0.940961 0.01744,0.07632 0.0288,0.134746 0.04399,0.204639 -0.155541,-0.09112 -0.293643,-0.169522 -0.596707,-0.371029 -0.367571,-0.2444 -0.593503,-0.389334 -0.770746,-0.481955 -0.177242,-0.09262 -0.333367,-0.134595 -0.470479,-0.133877 -0.285292,0.0015 -0.533443,0.14276 -1.260351,0.579494 -0.214679,0.128982 -0.380836,0.221285 -0.533593,0.306003 0.01919,-0.07808 0.01991,-0.08882 0.04781,-0.19699 0.184676,-0.715792 0.27815,-1.072606 0.31939,-1.2986 0.02062,-0.112998 0.0292,-0.197848 0.02103,-0.284966 -0.0081,-0.08712 -0.03663,-0.159583 -0.05546,-0.20464 -0.04049,-0.096912 -0.07404,-0.1739259 -0.15873,-0.2696656 -0.04354,-0.049207 -0.07498,-0.075451 -0.133877,-0.1262264 -0.0589,-0.050776 -0.134568,-0.1143171 -0.223765,-0.1874269 -0.178394,-0.1462197 -0.40992,-0.3311464 -0.65982,-0.525943 -0.04683,-0.036505 -0.07137,-0.059608 -0.120488,-0.099451 0.239642,-0.019276 0.517086,-0.045768 0.654082,-0.065026 0.126444,-0.017775 0.402399,-0.055817 0.612006,-0.08415 0.252834,-0.03418 0.44868,-0.070178 0.612006,-0.1510891 0.07585,-0.037573 0.204457,-0.1305147 0.283054,-0.2601028 0.07859,-0.129588 0.162414,-0.3101427 0.330865,-0.6712945 0.221623,-0.4751471 0.363263,-0.764291 0.474306,-0.9734734 z" /></g></svg>
