<?xml version="1.0" encoding="UTF-8" standalone="no"?>
<!-- Created with Inkscape (http://www.inkscape.org/) -->

<svg
   width="100"
   height="100"
   viewBox="0 0 26.458333 26.458333"
   version="1.1"
   id="svg1"
   inkscape:version="1.4 (86a8ad7, 2024-10-11)"
   xml:space="preserve"
   sodipodi:docname="ghost_writer_images_bible.svg"
   xmlns:inkscape="http://www.inkscape.org/namespaces/inkscape"
   xmlns:sodipodi="http://sodipodi.sourceforge.net/DTD/sodipodi-0.dtd"
   xmlns="http://www.w3.org/2000/svg"
   xmlns:svg="http://www.w3.org/2000/svg"><sodipodi:namedview
     id="namedview1"
     pagecolor="#ffffff"
     bordercolor="#000000"
     borderopacity="0.25"
     inkscape:showpageshadow="false"
     inkscape:pageopacity="0.0"
     inkscape:pagecheckerboard="0"
     inkscape:deskcolor="#d1d1d1"
     inkscape:document-units="px"
     borderlayer="false"
     inkscape:zoom="3.4030584"
     inkscape:cx="18.806613"
     inkscape:cy="114.74972"
     inkscape:window-width="2048"
     inkscape:window-height="1209"
     inkscape:window-x="-8"
     inkscape:window-y="-8"
     inkscape:window-maximized="1"
     inkscape:current-layer="layer1" /><defs
     id="defs1" /><g
     inkscape:label="Layer 1"
     inkscape:groupmode="layer"
     id="layer1"><path
       id="path1"
       style="fill:#000000;stroke-width:0.853244"
       d="m 18.997946,0.26547149 c -0.348598,0.0059 -0.636364,0.0394 -1.00487,0.111113 -0.155206,0.03021 -0.510768,0.07327 -0.790139,0.09568 -0.746218,0.05988 -1.15238,0.120153 -2.271651,0.338631 -0.897787,0.175246 -1.015761,0.19566501 -1.947129,0.33686801 -0.787362,0.11937 -2.146679,0.28637 -2.892475,0.354945 -0.555898,0.05112 -1.047741,0.112302 -1.481511,0.184308 -0.75037,0.124563 -1.503195,0.235687 -2.172884,0.321434 -0.364733,0.0467 -0.726646,0.105548 -0.804249,0.130514 -0.0776,0.02497 -0.253084,0.06327 -0.390219,0.0851 -1.148567,0.182873 -2.305502,1.272704 -2.681712,2.526506 -0.1070328,0.35671 -0.130955,0.533183 -0.130955,0.970919 0,0.338381 0.010174,0.433106 0.067021,0.623029 0.036869,0.123178 0.100817,0.471773 0.141978,0.774266 0.129583,0.952343 0.157728,1.119112 0.356268,2.116003 0.106642,0.535461 0.226749,1.1957915 0.267201,1.4674015 0.16778,1.126469 0.295253,1.724436 0.610242,2.864256 0.353612,1.279576 0.526138,1.989819 0.75707,3.119552 0.182415,0.892389 0.267914,1.243127 0.426375,1.749593 0.109006,0.348399 0.25525,0.855838 0.325403,1.127449 0.279532,1.082323 0.78179,2.444764 1.063955,2.88586 0.146191,0.228533 0.457319,0.545884 0.639343,0.65257 0.08716,0.05108 0.221459,0.141424 0.298506,0.200622 0.339183,0.260598 0.84565,0.409155 1.392445,0.408739 0.309534,-2.37e-4 0.899222,-0.0482 1.220483,-0.09965 l 0.102295,-0.01675 0.01896,0.206794 c 0.04863,0.530953 0.120479,1.710888 0.108909,1.788396 -0.0304,0.203662 0.125509,0.482645 0.316144,0.565708 0.04685,0.02042 0.13894,0.03775 0.204589,0.03836 0.232704,0.0022 0.319407,-0.05948 0.709891,-0.503096 0.200045,-0.227263 0.402227,-0.449916 0.449744,-0.49472 l 0.08642,-0.08113 0.446217,0.202827 c 0.245264,0.111782 0.471401,0.227336 0.502656,0.256619 0.140492,0.131643 0.429481,0.180074 0.61421,0.102736 0.129108,-0.05405 0.295444,-0.249015 0.318789,-0.373465 0.02586,-0.137863 -0.05758,-1.050184 -0.14286,-1.562201 -0.03732,-0.224077 -0.06156,-0.417732 -0.05379,-0.430343 0.0078,-0.01261 0.07402,-0.02281 0.146828,-0.02293 0.07281,-1.2e-4 0.240217,-0.01297 0.372141,-0.02822 0.131925,-0.01526 0.519235,-0.04728 0.860688,-0.07099 0.698599,-0.04851 0.924059,-0.0738 1.50973,-0.169756 0.225049,-0.03687 0.682201,-0.106296 1.015894,-0.154325 0.333693,-0.04802 0.828941,-0.130262 1.100551,-0.182984 0.856488,-0.166246 1.264125,-0.236397 1.975349,-0.339072 1.329285,-0.191901 2.409978,-0.413265 2.700671,-0.553362 0.143056,-0.06894 0.278276,-0.216721 0.35715,-0.39066 0.04671,-0.103008 0.05772,-0.184152 0.05688,-0.410503 -9.11e-4,-0.245372 -0.01232,-0.312839 -0.08863,-0.515883 -0.04827,-0.128431 -0.107385,-0.331611 -0.131395,-0.451509 -0.04125,-0.205967 -0.114456,-1.18183 -0.111555,-1.487684 0.0016,-0.167658 0.152216,-0.537224 0.302916,-0.742519 0.05417,-0.0738 0.107518,-0.171785 0.11861,-0.217817 0.01109,-0.04603 0.05317,-0.14043 0.09304,-0.20944 0.101607,-0.175897 0.0961,-0.350293 -0.03219,-1.045436 -0.180946,-0.980471 -0.218653,-1.164906 -0.27646,-1.353202 -0.03073,-0.100089 -0.0749,-0.309617 -0.09833,-0.465617 -0.02342,-0.156003 -0.105124,-0.594636 -0.181217,-0.97489 -0.146614,-0.732652 -0.197682,-1.039212 -0.269406,-1.608498 -0.115023,-0.912956 -0.281149,-1.699686 -0.535725,-2.5397335 -0.183829,-0.606597 -0.259571,-0.930482 -0.368614,-1.57631 -0.137474,-0.814216 -0.162116,-0.934945 -0.369055,-1.810002 -0.215514,-0.911315 -0.287148,-1.254847 -0.421085,-2.017677 -0.15163,-0.863599 -0.281003,-1.409699 -0.491191,-2.074116 -0.105563,-0.333693 -0.219557,-0.701954 -0.253533,-0.818358 -0.08012,-0.27446701 -0.163917,-0.41510901 -0.341717,-0.57496801 -0.208944,-0.18786 -0.334232,-0.219018 -0.946668,-0.235896 -0.134921,-0.0037 -0.258147,-0.005 -0.374347,-0.0031 z m 0.549395,1.09614201 0.231486,0.754865 c 0.262001,0.855251 0.323278,1.110456 0.485459,2.024733 0.107887,0.608199 0.211049,1.096155 0.518088,2.444493 0.06936,0.304599 0.171969,0.818896 0.227959,1.142881 0.143214,0.828716 0.221673,1.176356 0.426816,1.892895 0.283571,0.9904825 0.411024,1.6239825 0.592164,2.9431805 0.03943,0.287131 0.128229,0.807777 0.197094,1.15699 0.06886,0.349214 0.145166,0.76192 0.169756,0.917126 0.02459,0.155206 0.0814,0.428228 0.126105,0.606714 0.08792,0.350965 0.292633,1.381959 0.277342,1.396412 -0.02165,0.02047 -1.465801,0.214852 -1.998717,0.268965 -0.712445,0.07235 -0.85409,0.09177 -1.436537,0.199299 -0.624087,0.115218 -1.393233,0.233783 -2.084258,0.321435 -0.314415,0.03988 -0.854108,0.117151 -1.199317,0.17152 -1.150096,0.181122 -1.751838,0.264223 -2.235936,0.308208 -0.263851,0.02398 -0.568618,0.05579 -0.677263,0.07099 -0.108644,0.0152 -0.476905,0.05342 -0.818359,0.0851 -0.341453,0.03169 -0.931942,0.108247 -1.312196,0.169757 -0.380255,0.06151 -0.911627,0.143533 -1.180799,0.182543 -0.269171,0.039 -0.493098,0.07099 -0.497364,0.07099 -0.0043,0 -0.02318,-0.07937 -0.04189,-0.17637 -0.01872,-0.097 -0.0827,-0.373201 -0.142419,-0.613769 C 9.114835,17.460001 9.013002,16.933006 8.94836,16.529471 8.88372,16.125936 8.788473,15.592592 8.736716,15.344263 8.684956,15.095933 8.596556,14.645131 8.540062,14.342478 8.483572,14.039827 8.311817,13.265208 8.158662,12.621103 7.820633,11.199501 7.71228,10.709198 7.580608,10.010822 7.525008,9.7159305 7.397439,9.0746485 7.297533,8.5857485 7.197623,8.0968505 7.089498,7.5381085 7.057229,7.3441015 6.989979,6.9397915 6.82652,6.1597045 6.74373,5.8489215 6.567115,5.1859625 6.282282,3.7067155 6.24857,3.2765585 l -0.01675,-0.215612 0.08157,-0.01631 c 0.237312,-0.04735 2.491904,-0.367262 2.889388,-0.410061 0.147446,-0.01587 0.566502,-0.04921 0.931236,-0.07363 0.653261,-0.04376 1.857407,-0.157057 2.243432,-0.211203 1.2106,-0.169801 1.695139,-0.250192 2.948913,-0.49031 0.891597,-0.170756 1.324124,-0.233641 1.961238,-0.28528 0.294892,-0.0239 0.637756,-0.06267 0.761921,-0.08598 0.477193,-0.08959 0.803061,-0.125606 1.144203,-0.126105 z m -14.360079,2.01415 c 0.0061,0.0061 0.0423,0.219097 0.08025,0.473113 0.08188,0.547984 0.196749,1.134177 0.369937,1.886723 0.152034,0.660625 0.272612,1.248483 0.350095,1.707265 0.03146,0.186287 0.132315,0.719592 0.223991,1.18521 0.09167,0.465618 0.225164,1.151346 0.296742,1.5238395 0.126681,0.659238 0.237204,1.150632 0.61906,2.751378 0.245155,1.027693 0.507996,2.403804 0.802927,4.20467 0.04795,0.292802 0.134121,0.683155 0.196212,0.888907 0.104678,0.346893 0.217122,0.82943 0.196653,0.843492 C 7.834423,19.1761 7.592303,19.386768 7.356178,19.681647 7.253096,19.810379 7.101472,20.047423 7.01887,20.208554 L 6.868514,20.50177 6.777684,20.250883 C 6.727644,20.113032 6.637293,19.809071 6.577063,19.574943 6.474571,19.176531 6.341143,18.724314 6.071321,17.862387 6.009291,17.66422 5.901212,17.226115 5.831016,16.888822 5.760816,16.551528 5.670742,16.123111 5.630836,15.936863 5.530562,15.468891 5.194626,14.13042 5.011335,13.467677 4.772182,12.602951 4.578644,11.755324 4.473405,11.111368 4.286167,9.9656665 4.206174,9.5350535 4.064666,8.9151165 3.977736,8.5342705 3.878816,7.9832215 3.812016,7.5067995 3.693532,6.6617255 3.639794,6.3487985 3.568625,6.0945135 c -0.06644,-0.237372 -0.03933,-0.714258 0.05997,-1.050286 0.18203,-0.61603 0.63816,-1.206441 1.172863,-1.518108 0.135208,-0.07881 0.367056,-0.16911 0.38581,-0.150356 z m 8.097165,0.99032 c -0.276263,0.0167 -0.530165,0.160023 -0.66712,0.382723 -0.15652,0.254516 -0.165538,0.578668 -0.04983,0.884939 0.03346,0.08856 0.09338,0.274022 0.123019,0.379637 0.03142,0.111958 0.10485,0.41113 0.163583,0.67153 0.01305,0.05786 0.02159,0.09918 0.03307,0.151679 -0.11922,0.01642 -0.243613,0.03333 -0.398156,0.05335 -0.552957,0.07164 -0.887627,0.119548 -1.136707,0.188276 -0.24908,0.06873 -0.446758,0.199578 -0.556449,0.353622 -0.213016,0.299166 -0.236471,0.695847 -0.02822,1.004871 0.109715,0.162805 0.275025,0.296696 0.468263,0.351418 0.193238,0.05472 0.393995,0.03715 0.594809,-0.01808 0.07243,-0.01992 0.33552,-0.06854 0.513238,-0.08995 0.192348,-0.02317 0.529995,-0.06267 0.748252,-0.08863 0.05844,-0.0069 0.101992,-0.01181 0.153442,-0.01808 0.04447,0.177455 0.107246,0.457862 0.203267,0.89993 0.172109,0.7923735 0.277021,1.2119825 0.543221,2.1530405 0.167625,0.592585 0.203642,0.747318 0.258382,1.179918 0.03555,0.280923 0.06344,0.622498 0.06349,0.629643 0.0024,0.369652 0.228175,0.715213 0.578054,0.839964 0.426605,0.152106 0.915384,-0.04289 1.103196,-0.456359 0.121722,-0.267957 0.09763,-0.548623 0.03836,-0.980178 -0.02202,-0.160347 -0.05282,-0.426466 -0.06658,-0.573204 -0.01983,-0.211384 -0.07642,-0.474529 -0.151679,-0.736346 -0.20275,-0.705378 -0.400332,-1.470023 -0.596572,-2.3117755 -0.09483,-0.406749 -0.177518,-0.755425 -0.220022,-0.931235 0.09868,-0.01996 0.209663,-0.04321 0.331576,-0.06702 0.293725,-0.05736 0.69101,-0.142124 0.908308,-0.197976 0.19824,-0.05096 0.443546,-0.110319 0.508387,-0.123459 0.29135,-0.05905 0.546509,-0.229849 0.678145,-0.501774 0.20659,-0.426757 0.02056,-0.949517 -0.401684,-1.164926 -0.237443,-0.121136 -0.519531,-0.102571 -0.829823,-0.0097 -0.122555,0.03668 -0.619324,0.150379 -1.056458,0.241628 -0.202913,0.04236 -0.39078,0.07999 -0.540135,0.108027 -0.01657,-0.07031 -0.03053,-0.132332 -0.04982,-0.216495 -0.07398,-0.322588 -0.155362,-0.642108 -0.230163,-0.90478 -0.0748,-0.262672 -0.129581,-0.44623 -0.201503,-0.591722 -0.133173,-0.269409 -0.411774,-0.469939 -0.711655,-0.491634 -0.0401,-0.0029 -0.08002,-0.0033 -0.119491,-8.81e-4 z m 9.31368,13.4292825 c 0.0056,0.0056 -0.01526,0.06915 -0.0463,0.141537 -0.03103,0.07239 -0.0777,0.23607 -0.103617,0.363765 -0.0399,0.196601 -0.04189,0.269495 -0.01455,0.475318 0.01776,0.133684 0.03219,0.292962 0.03219,0.354063 v 0.111114 l -0.472673,0.07672 c -0.471348,0.07626 -0.715793,0.109896 -1.57631,0.216053 -0.250017,0.03084 -0.808758,0.124969 -1.241649,0.20944 -0.432889,0.08447 -0.850546,0.162212 -0.928148,0.172843 -0.733614,0.100526 -1.763725,0.291758 -2.493878,0.462532 -0.30636,0.07165 -0.361214,0.09314 -0.445335,0.177252 -0.154591,0.154586 -0.162969,0.360228 -0.02161,0.528229 0.129583,0.154002 0.216098,0.157588 0.83291,0.03351 0.692873,-0.139379 1.624946,-0.297549 2.09969,-0.356269 0.201767,-0.02495 0.741461,-0.120187 1.199318,-0.211203 0.543231,-0.107987 1.059736,-0.190575 1.486803,-0.238101 0.543821,-0.06052 0.967333,-0.121563 1.567933,-0.226195 0.06541,-0.0114 0.07783,-0.0035 0.07804,0.04938 1.38e-4,0.03453 0.04402,0.189599 0.09789,0.344805 0.05386,0.155206 0.09845,0.303493 0.09877,0.329372 0.001,0.08404 -0.656515,0.217968 -2.412306,0.491191 -0.356974,0.05555 -1.030003,0.175331 -1.495621,0.266319 -0.465617,0.09099 -1.11325,0.205043 -1.439182,0.253532 -0.325934,0.04849 -0.821181,0.125718 -1.100552,0.17152 -0.279371,0.04581 -0.812714,0.107763 -1.185209,0.138011 -0.372494,0.03025 -0.898313,0.08106 -1.168454,0.112876 -0.270141,0.03182 -0.495231,0.05416 -0.500009,0.04938 -0.0048,-0.0048 -0.0522,-0.217046 -0.105823,-0.471791 -0.08794,-0.417697 -0.09384,-0.470805 -0.05776,-0.540575 0.05227,-0.101091 0.05119,-0.315623 -0.0022,-0.418879 -0.02327,-0.04499 -0.08677,-0.115528 -0.141096,-0.15697 -0.28745,-0.219253 -1.715596,-0.185507 -3.174667,0.07496 -0.360915,0.06443 -0.471346,0.119886 -0.563063,0.283074 -0.156417,0.278307 0.01514,0.619739 0.332458,0.66183 l 0.134042,0.01764 0.05908,0.384929 c 0.03254,0.211844 0.05706,0.387759 0.05467,0.39066 -0.0024,0.0029 -0.184114,0.02509 -0.404328,0.04938 -0.764416,0.08432 -1.158276,0.0534 -1.489448,-0.117286 -0.141349,-0.07285 -0.19465,-0.131758 -0.265879,-0.292774 -0.143943,-0.325411 -0.132698,-0.777168 0.03042,-1.22798 0.244817,-0.676585 0.824274,-1.180835 1.54765,-1.346587 0.0388,-0.0089 0.280076,-0.04258 0.536166,-0.07496 0.256091,-0.03238 0.789435,-0.108783 1.185209,-0.169756 0.395776,-0.06098 0.973565,-0.136275 1.283977,-0.167111 1.457567,-0.144813 2.258161,-0.238579 2.920694,-0.343041 1.304871,-0.205742 1.59379,-0.248961 2.175529,-0.322758 0.666714,-0.08457 1.363118,-0.193256 2.142018,-0.335103 0.302652,-0.05512 0.829646,-0.126828 1.1711,-0.159175 0.341452,-0.03235 0.880236,-0.09632 1.197114,-0.141978 0.316877,-0.04566 0.580444,-0.0783 0.58599,-0.07275 z m -10.722879,3.670268 c 0.11174,-0.0096 0.2546,-0.0089 0.317467,0.0018 0.107902,0.01823 0.1142,0.02478 0.1142,0.117286 0,0.05388 0.03197,0.239429 0.07099,0.412266 0.03902,0.172838 0.103187,0.505779 0.142419,0.739433 0.03924,0.233654 0.101604,0.576996 0.138891,0.763243 0.0776,0.387574 0.152134,0.841861 0.140214,0.855837 -0.0044,0.0052 -0.164885,-0.06406 -0.356267,-0.154324 -0.304829,-0.143772 -0.368883,-0.164131 -0.517207,-0.163584 -0.189435,6.99e-4 -0.296017,0.04575 -0.442689,0.187835 -0.05247,0.05083 -0.141448,0.147774 -0.197976,0.215172 l -0.102736,0.122577 -0.01631,-0.122577 c -0.0088,-0.06739 -0.04202,-0.433694 -0.07408,-0.813949 -0.06318,-0.749506 -0.104985,-1.07871 -0.211644,-1.662732 -0.03803,-0.208225 -0.0661,-0.380975 -0.06217,-0.384047 0.0088,-0.0069 0.78237,-0.09048 1.0569,-0.1142 z" /></g></svg>
