<?xml version="1.0" encoding="UTF-8" standalone="no"?>
<!-- Created with Inkscape (http://www.inkscape.org/) -->

<svg
   width="100"
   height="100"
   viewBox="0 0 26.458333 26.458333"
   version="1.1"
   id="svg1"
   inkscape:version="1.4 (86a8ad7, 2024-10-11)"
   xml:space="preserve"
   sodipodi:docname="squiggle.svg"
   xmlns:inkscape="http://www.inkscape.org/namespaces/inkscape"
   xmlns:sodipodi="http://sodipodi.sourceforge.net/DTD/sodipodi-0.dtd"
   xmlns="http://www.w3.org/2000/svg"
   xmlns:svg="http://www.w3.org/2000/svg"><sodipodi:namedview
     id="namedview1"
     pagecolor="#ffffff"
     bordercolor="#000000"
     borderopacity="0.25"
     inkscape:showpageshadow="false"
     inkscape:pageopacity="0.0"
     inkscape:pagecheckerboard="0"
     inkscape:deskcolor="#d1d1d1"
     inkscape:document-units="px"
     borderlayer="false"
     inkscape:zoom="4.8126513"
     inkscape:cx="62.95906"
     inkscape:cy="61.192882"
     inkscape:window-width="2048"
     inkscape:window-height="1209"
     inkscape:window-x="-8"
     inkscape:window-y="-8"
     inkscape:window-maximized="1"
     inkscape:current-layer="layer1" /><defs
     id="defs1" /><g
     inkscape:label="Layer 1"
     inkscape:groupmode="layer"
     id="layer1"><path
       style="fill:#000000;stroke-width:0.107008"
       d="m 12.45094,25.72687 c -1.491761,-0.06475 -2.7051926,-0.340589 -3.6057976,-0.819684 -0.784964,-0.417578 -1.30823,-0.929346 -1.619734,-1.58414 -0.172564,-0.362737 -0.245275,-0.626106 -0.287281,-1.040577 -0.02912,-0.287355 -0.04008,-0.330746 -0.08032,-0.317977 -0.127429,0.04044 -0.504164,0.09836 -0.833812,0.128187 -0.646561,0.0585 -1.325849,-0.02191 -1.853777,-0.219439 -0.981663,-0.367293 -1.613199,-1.062641 -1.873651,-2.062972 -0.07864,-0.302051 -0.08938,-0.393056 -0.10168,-0.861562 -0.01036,-0.394674 -0.0025,-0.60072 0.03198,-0.835632 0.02515,-0.171485 0.04572,-0.318878 0.04572,-0.327538 0,-0.0087 -0.133458,-0.134097 -0.296573,-0.278748 -0.859901,-0.762564 -1.40681098,-1.670703 -1.62952198,-2.705808 -0.08651,-0.40207 -0.109615,-1.315341 -0.0445,-1.758819 0.0783,-0.533279 0.197749,-0.944274 0.422154,-1.452531 C 1.1260694,10.679311 1.7055964,9.8401646 2.4797764,9.0475066 l 0.368196,-0.376984 -0.03496,-0.360586 c -0.08039,-0.829166 0.101459,-1.790781 0.492638,-2.604996 0.317166,-0.660162 0.8826,-1.412727 1.351286,-1.798496 1.078228,-0.887474 2.392207,-1.451529 3.976119,-1.706837 0.34302,-0.05529 0.598724,-0.07606 1.085725,-0.08819 0.8357206,-0.02082 1.3780416,0.03701 2.0951256,0.223402 0.179077,0.04655 0.352224,0.09093 0.384772,0.09863 0.0404,0.0096 0.195649,-0.06771 0.489262,-0.2435 1.284292,-0.768917 2.570762,-1.25433899 3.712594,-1.40086699 2.429204,-0.311734 4.393078,0.49585499 5.48042,2.25367299 0.384177,0.62107 0.573723,1.17818 0.70727,2.078801 l 0.04669,0.314887 0.287387,0.178046 c 0.641859,0.397652 1.017338,0.723246 1.345751,1.166958 0.517126,0.698676 0.825977,1.337103 0.969645,2.004356 0.05427,0.25204 0.0649,0.396991 0.0715,0.97498 0.0061,0.5313774 -5.35e-4,0.6915554 -0.03032,0.7370394 -0.02094,0.03196 -0.06514,0.153257 -0.09821,0.269544 l -0.06013,0.21143 0.119068,0.169875 c 0.498084,0.710624 0.702983,1.087445 0.827601,1.522012 0.321676,1.121739 0.0324,2.394736 -0.894902,3.938113 -0.745805,1.241298 -1.804917,2.419132 -3.094749,3.441653 l -0.345909,0.274222 0.121659,0.223769 c 0.186802,0.343585 0.249453,0.605528 0.250551,1.047549 9.63e-4,0.398671 -0.02975,0.5576 -0.180872,0.934998 -0.556131,1.388871 -2.40745,2.451015 -5.026998,2.884104 -1.238229,0.204717 -3.40702,0.35684 -4.445065,0.311785 z m 1.493485,-1.300874 c 0.708703,-0.03146 2.050817,-0.164517 2.710923,-0.268768 1.313227,-0.207401 2.442813,-0.598573 3.232284,-1.119329 0.308265,-0.20334 0.724022,-0.632134 0.852457,-0.879187 0.141801,-0.272767 0.201229,-0.513845 0.176406,-0.715635 -0.01745,-0.141872 -0.115447,-0.4275 -0.14667,-0.4275 -0.0067,0 -0.173941,0.09623 -0.371654,0.213845 -1.408412,0.837835 -3.000798,1.390552 -4.648823,1.613604 -0.453892,0.06143 -1.649392,0.08573 -2.155845,0.04382 -1.729304,-0.143105 -3.11821,-0.607267 -4.4785326,-1.496693 l -0.278218,-0.181908 -0.292777,0.136191 c -0.339894,0.15811 -0.325991,0.132388 -0.325337,0.60191 6.95e-4,0.503552 0.117606,0.845938 0.40979,1.200166 0.497448,0.603079 1.5956046,1.055545 2.9731366,1.224999 0.690203,0.0849 1.324898,0.09966 2.34286,0.05448 z m 1.635048,-2.801341 c 1.386112,-0.186547 2.89274,-0.700811 4.086671,-1.394922 l 0.193701,-0.112611 -0.08151,-0.05804 c -0.124201,-0.08844 -0.644569,-0.358293 -0.914608,-0.4743 -0.552309,-0.237269 -1.306093,-0.495884 -2.466176,-0.846116 l -0.877035,-0.26478 -0.458911,0.151052 c -1.012431,0.333245 -1.87102,0.554439 -2.893787,0.745514 -0.717727,0.134087 -0.741276,0.142557 -1.053605,0.378977 -0.152396,0.115358 -0.465397,0.337978 -0.695558,0.494713 l -0.418474,0.284973 0.17015,0.10336 c 0.780436,0.474091 2.133964,0.896838 3.214925,1.004117 0.171291,0.017 0.3624,0.0359 0.424688,0.042 0.249618,0.02446 1.461513,-0.01248 1.769532,-0.05394 z M 6.1598864,20.860008 c 0.319539,-0.04189 0.823795,-0.155954 0.914954,-0.206969 0.02598,-0.01454 0.108874,-0.195825 0.184353,-0.403186 l 0.137143,-0.376767 -0.11522,-0.149346 c -0.103123,-0.133667 -0.129089,-0.151103 -0.247324,-0.166075 -1.249456,-0.158221 -2.220801,-0.404074 -3.090762,-0.782291 -0.210221,-0.09139 -0.390229,-0.166213 -0.400019,-0.166266 -0.0098,-5.2e-5 -0.03371,0.03833 -0.05316,0.08528 -0.07954,0.192036 0.05113,0.939667 0.219661,1.256799 0.04216,0.07933 0.172464,0.241165 0.28957,0.359641 0.167517,0.169477 0.264238,0.240176 0.453577,0.331546 0.485033,0.234062 1.041121,0.304951 1.707231,0.217631 z m 2.86973,-1.169974 c -0.09399,-0.01099 -0.133454,0.01552 -0.07598,0.05104 0.02438,0.01507 0.06294,0.01176 0.09827,-0.0084 0.0554,-0.03165 0.05434,-0.03366 -0.0223,-0.04262 z M 21.07569,19.253122 c 0.671591,-0.495355 1.329216,-1.097027 1.84899,-1.691672 0.927218,-1.06078 1.637491,-2.287226 1.902011,-3.284252 0.08838,-0.333117 0.119639,-0.822481 0.06904,-1.080824 -0.06173,-0.315195 -0.205909,-0.680188 -0.348519,-0.882297 l -0.05669,-0.08034 -0.07493,0.136965 c -0.08785,0.16058 -0.506846,0.702696 -0.838932,1.085433 -1.250535,1.441267 -3.370824,2.965767 -5.684915,4.087484 -0.244011,0.11828 -0.443656,0.226547 -0.443656,0.240592 0,0.01404 0.213405,0.09899 0.474234,0.188766 1.214038,0.417866 2.158914,0.868917 2.751428,1.313436 0.08456,0.06344 0.16425,0.11535 0.17708,0.11535 0.01283,0 0.114011,-0.06689 0.224849,-0.148641 z M 10.430697,18.339754 c 0.301396,-0.02352 0.575792,-0.04902 0.60977,-0.05668 0.03398,-0.0077 0.237828,-0.158938 0.453,-0.336178 0.57929,-0.47717 0.624875,-0.519731 0.575254,-0.537104 -0.02336,-0.0082 -0.282258,-0.08779 -0.575333,-0.176915 l -0.532864,-0.162046 -0.354899,0.351482 c -0.316831,0.313779 -0.8585296,0.911038 -0.8585296,0.946586 0,0.02094 0.09211,0.01701 0.6836016,-0.02914 z M 8.5036094,18.036309 c 0.273982,-0.368671 0.621341,-0.778394 0.974836,-1.149857 0.142622,-0.149871 0.238192,-0.271969 0.223513,-0.285555 -0.01411,-0.01305 -0.204013,-0.09712 -0.42202,-0.186815 -0.772913,-0.317999 -1.766446,-0.844177 -2.477345,-1.312009 -0.116789,-0.07686 -0.216666,-0.135623 -0.22195,-0.130592 -0.02131,0.0203 0.0868,0.784795 0.154057,1.089405 0.163824,0.741936 0.537524,1.644486 0.912533,2.20393 0.02759,0.04116 0.243728,0.08021 0.475231,0.08585 l 0.144901,0.0035 z m -2.396121,-0.256974 c -0.418565,-0.975066 -0.64132,-1.998809 -0.668198,-3.070917 -0.0036,-0.14434 -0.01615,-0.259006 -0.02785,-0.254812 -0.03577,0.01282 -0.50222,0.61541 -0.678909,0.877051 -0.451451,0.66851 -0.9565,1.738457 -0.895564,1.897254 0.02084,0.05431 0.538798,0.320596 0.912967,0.469365 0.392503,0.156059 1.273386,0.411495 1.475516,0.427866 0.01737,0.0014 -0.03572,-0.154206 -0.117964,-0.345807 z m 7.3414676,0.10402 c 0.03504,-0.0094 0.0637,-0.02833 0.0637,-0.04208 0,-0.04108 -0.103581,-0.02831 -0.141562,0.01746 -0.03809,0.04589 -0.02131,0.0512 0.07786,0.02462 z m 2.693283,-0.906533 c 1.649387,-0.683952 3.095651,-1.483001 4.451555,-2.459445 1.244098,-0.895929 2.279114,-1.958977 2.869611,-2.947329 l 0.184095,-0.308133 -0.105652,-0.09349 c -0.175377,-0.155188 -0.853226,-0.661667 -1.124904,-0.840512 -0.48961,-0.32231 -1.495568,-0.8638424 -1.604686,-0.8638424 -0.01696,0 -0.21084,0.181554 -0.430849,0.403453 -0.602356,0.6075324 -1.557867,1.4347844 -2.102731,1.8204804 -0.0979,0.0693 -0.140782,0.133864 -0.252907,0.380775 -0.806223,1.7754 -1.627361,2.951511 -3.022351,4.328895 -0.242799,0.239734 -0.434723,0.44677 -0.426498,0.460078 0.0082,0.01331 0.0365,0.02491 0.06283,0.02577 0.02633,8.67e-4 0.238985,0.05739 0.472563,0.125607 0.233578,0.06822 0.474083,0.12484 0.534454,0.12583 0.07216,0.0012 0.24193,-0.053 0.495469,-0.15814 z m -2.417737,-0.99911 c 0.924736,-0.862059 1.562874,-1.582243 2.077021,-2.34406 0.218846,-0.324268 0.319549,-0.379751 -1.217788,0.670962 -1.349084,0.922049 -2.539666,1.800538 -2.496211,1.841868 0.01302,0.01238 0.240256,0.08202 0.504978,0.154752 0.264723,0.07273 0.494054,0.136824 0.509626,0.142424 0.07661,0.02755 0.159823,-0.03475 0.622374,-0.465946 z m -10.8868386,0.04071 c 0.157409,-0.367468 0.405726,-0.836176 0.664629,-1.254511 0.310413,-0.501565 0.888099,-1.231066 1.126735,-1.422839 0.06437,-0.05173 0.10438,-0.105092 0.09572,-0.127659 -0.0082,-0.02133 -0.09244,-0.140462 -0.187232,-0.264744 -0.479597,-0.62879 -1.003932,-1.63727 -1.273974,-2.450299 l -0.09374,-0.282237 -0.140065,0.15483 c -0.355928,0.393452 -0.720162,0.926007 -0.967591,1.414738 -0.70322,1.389025 -0.687547,2.789531 0.04353,3.889768 0.165644,0.249287 0.555209,0.714783 0.578326,0.691049 0.0045,-0.0046 0.07362,-0.161234 0.153666,-0.348096 z m 8.4203556,-0.744245 c 0.534053,-0.427547 1.40066,-1.063604 2.084765,-1.530138 0.210221,-0.143362 0.535107,-0.374164 0.721969,-0.512893 0.186863,-0.138729 0.721969,-0.511973 1.189126,-0.829432 0.467156,-0.317458 1.081517,-0.746004 1.365246,-0.952323 l 0.515871,-0.375126 0.101115,-0.31278 c 0.181169,-0.560413 0.338197,-1.2944414 0.397171,-1.8565824 l 0.01856,-0.176954 h -0.381999 c -0.618825,0 -1.179178,0.06814 -1.990856,0.242102 -2.864265,0.613868 -6.0853886,2.1427414 -8.4048166,3.9892574 l -0.264068,0.210226 -0.0099,0.147257 -0.0099,0.147257 0.254816,0.209774 c 0.777048,0.639696 1.842688,1.236448 3.072823,1.720765 0.3031496,0.119353 0.5957736,0.234627 0.6502756,0.256164 0.0545,0.02154 0.114355,0.03982 0.133007,0.04062 0.01865,8.02e-4 0.269237,-0.186934 0.556854,-0.417192 z M 5.6396334,12.097138 c 0.243468,-1.486477 0.953367,-3.2696654 1.924592,-4.8343614 0.07974,-0.128468 0.132069,-0.233578 0.116282,-0.233578 -0.05703,0 -0.897255,0.406263 -1.272545,0.615295 -0.510554,0.284373 -1.075897,0.648444 -1.533295,0.987416 l -0.373959,0.277136 -0.134044,0.27974 c -0.08266,0.172505 -0.128688,0.303307 -0.120073,0.341217 0.11256,0.4952964 0.381796,1.2174074 0.650249,1.7440174 0.200707,0.393716 0.656216,1.094688 0.687851,1.058516 0.01109,-0.01268 0.03581,-0.118608 0.05494,-0.235398 z m 2.766124,-1.658952 C 9.8434764,9.5769126 11.88279,8.6522536 13.259271,8.2375196 c 0.828506,-0.249629 2.09791,-0.538929 2.744889,-0.625567 0.391248,-0.05239 1.035471,-0.101168 1.338306,-0.101327 l 0.219961,-1.17e-4 -0.01888,-0.07786 c -0.08496,-0.350435 -0.304243,-0.850967 -0.497071,-1.134628 -0.279317,-0.410893 -0.679601,-0.808601 -0.8655,-0.85993 -0.207633,-0.05733 -2.06587,0.05652 -3.110208,0.190565 -1.186789,0.152323 -2.778273,0.47337 -3.2547356,0.656571 -0.219874,0.08454 -0.216558,0.08124 -0.618679,0.616563 -0.90232,1.201215 -1.61842,2.55253 -2.062997,3.8929704 -0.214099,0.64553 -0.243197,0.620419 0.299078,0.258104 0.256411,-0.171318 0.693955,-0.447924 0.97232,-0.61468 z M 24.071237,9.6872046 c 0.0068,-0.833795 -0.434648,-1.808584 -1.109236,-2.449376 -0.21507,-0.204296 -0.525323,-0.451966 -0.541186,-0.432021 -0.0048,0.0061 -0.0565,0.150829 -0.114823,0.321675 -0.150877,0.441984 -0.358817,0.866931 -0.539915,1.10337 -0.08582,0.112048 -0.156039,0.217696 -0.156039,0.234773 0,0.01708 0.182861,0.126268 0.406358,0.242645 0.631575,0.328867 1.471215,0.870152 1.901112,1.225577 0.14005,0.1157884 0.150915,0.09835 0.153729,-0.246643 z m -4.908301,-0.318962 c 0.201373,-0.192854 0.356384,-0.360798 0.34447,-0.373209 -0.02379,-0.02478 -0.622293,-0.156348 -0.638324,-0.140318 -0.0055,0.0055 -0.02799,0.167113 -0.05004,0.359201 -0.02205,0.192088 -0.04751,0.384288 -0.05658,0.427111 -0.0091,0.04282 -0.0051,0.07786 0.0089,0.07786 0.01398,0 0.190174,-0.15779 0.391547,-0.350644 z m 1.37724,-1.617075 c 0.280714,-0.416985 0.565761,-1.038294 0.658341,-1.434968 l 0.03755,-0.160904 -0.103218,-0.04088 c -0.591671,-0.234346 -2.000116,-0.525048 -2.917392,-0.602146 -0.199226,-0.01675 -0.233881,-0.0136 -0.213954,0.01943 0.01308,0.02168 0.06421,0.103112 0.113632,0.180972 0.253822,0.399893 0.484466,0.95832 0.607531,1.470929 0.09549,0.397732 0.112763,0.417425 0.42418,0.483488 0.300813,0.06381 1.022588,0.243059 1.090032,0.270699 0.114433,0.0469 0.168484,0.01364 0.303295,-0.186615 z M 4.4857314,7.3514166 c 1.121058,-0.772477 2.73396,-1.566869 4.012564,-1.976281 0.224115,-0.07176 0.471873,-0.165323 0.550572,-0.207911 0.09437,-0.05107 0.355662,-0.290498 0.767487,-0.703272 0.3434176,-0.344211 0.7302756,-0.712284 0.8596836,-0.817939 0.129408,-0.105655 0.224962,-0.202263 0.212344,-0.214684 -0.01262,-0.01242 -0.16309,-0.03777 -0.33438,-0.05632 -0.415965,-0.04506 -1.2017626,-0.01787 -1.6495406,0.05707 -2.654738,0.444309 -4.326576,1.772307 -4.762153,3.78274 -0.03174,0.146515 -0.05772,0.300019 -0.05772,0.341119 0,0.06829 0.0047,0.07138 0.05431,0.03589 0.02987,-0.02136 0.185943,-0.129547 0.346828,-0.240407 z M 21.200301,4.7146506 c -0.06062,-0.327291 -0.348243,-0.948795 -0.583122,-1.260014 -0.320656,-0.424878 -0.819655,-0.842161 -1.286298,-1.075659 -0.526128,-0.263262 -1.055567,-0.385668 -1.769532,-0.409116 -1.093282,-0.0359 -2.124283,0.199845 -3.309655,0.756789 l -0.350997,0.164915 0.166966,0.04655 c 0.652889,0.182036 1.616949,0.613891 2.219623,0.994291 0.349091,0.220342 0.496083,0.259071 1.061719,0.279738 1.203931,0.04399 2.437306,0.222995 3.403954,0.494034 0.214458,0.06013 0.407266,0.110525 0.428464,0.111986 0.02935,0.002 0.03385,-0.02267 0.01888,-0.103516 z m -9.216518,-0.189809 c 0.485659,-0.07593 1.27439,-0.173825 1.635048,-0.202934 0.128468,-0.01037 0.233578,-0.02976 0.233578,-0.04309 0,-0.01333 -0.0057,-0.02424 -0.0127,-0.02424 -0.007,0 -0.207648,-0.04985 -0.445922,-0.110783 -0.238274,-0.06093 -0.583484,-0.145945 -0.767134,-0.188921 l -0.333908,-0.07814 -0.147404,0.143329 c -0.08107,0.07883 -0.2557,0.21363 -0.388061,0.299554 -0.132361,0.08592 -0.278878,0.189507 -0.325594,0.230183 l -0.08494,0.07396 0.09909,-0.01515 c 0.0545,-0.0083 0.296573,-0.04602 0.537937,-0.08376 z"
       id="path2" /></g></svg>
