<?xml version="1.0" encoding="UTF-8" standalone="no"?>
<!-- Created with Inkscape (http://www.inkscape.org/) -->

<svg
   width="100"
   height="100"
   viewBox="0 0 26.458333 26.458333"
   version="1.1"
   id="svg1"
   inkscape:version="1.4 (86a8ad7, 2024-10-11)"
   xml:space="preserve"
   sodipodi:docname="bolt.svg"
   xmlns:inkscape="http://www.inkscape.org/namespaces/inkscape"
   xmlns:sodipodi="http://sodipodi.sourceforge.net/DTD/sodipodi-0.dtd"
   xmlns="http://www.w3.org/2000/svg"
   xmlns:svg="http://www.w3.org/2000/svg"><sodipodi:namedview
     id="namedview1"
     pagecolor="#ffffff"
     bordercolor="#000000"
     borderopacity="0.25"
     inkscape:showpageshadow="false"
     inkscape:pageopacity="0.0"
     inkscape:pagecheckerboard="0"
     inkscape:deskcolor="#d1d1d1"
     inkscape:document-units="px"
     borderlayer="false"
     inkscape:zoom="4.8126513"
     inkscape:cx="62.95906"
     inkscape:cy="61.192882"
     inkscape:window-width="2048"
     inkscape:window-height="1209"
     inkscape:window-x="-8"
     inkscape:window-y="-8"
     inkscape:window-maximized="1"
     inkscape:current-layer="layer1" /><defs
     id="defs1" /><g
     inkscape:label="Layer 1"
     inkscape:groupmode="layer"
     id="layer1"><path
       style="fill:#000000;stroke-width:0.117662"
       d="m 8.2753097,26.144117 c -0.149422,-0.09273 -0.193418,-0.209276 -0.172742,-0.457571 0.05726,-0.687615 1.444977,-5.999779 2.6544403,-10.161168 0.113076,-0.38906 0.323635,-1.113647 0.467909,-1.610194 0.144274,-0.496546 0.269944,-0.927327 0.279267,-0.957291 0.01594,-0.05125 -0.05475,-0.05445 -1.191491,-0.05392 -0.6646423,3.06e-4 -1.6415593,0.01423 -2.1709263,0.03093 -0.672051,0.02121 -0.999538,0.0204 -1.085279,-0.0027 -0.16865,-0.04541 -0.271527,-0.163031 -0.271527,-0.310434 0,-0.263476 0.945407,-2.7202385 2.28162,-5.9290865 0.29946,-0.719136 0.831712,-2.021986 1.1827833,-2.895222 0.914955,-2.275816 1.174035,-2.91148305 1.238306,-3.03826205 0.07423,-0.146417 0.247081,-0.295928 0.394212,-0.340973 0.126002,-0.03858 0.967344,-0.06863 3.401959,-0.121519 2.710287,-0.05888 3.412159,-0.04147 3.671975,0.09108 0.155037,0.07909 0.193244,0.132245 0.211502,0.294233 0.01442,0.127921 -0.01063,0.18851 -0.350654,0.84831505 -0.960507,1.863809 -2.600469,4.774847 -3.294101,5.84724 -0.306661,0.474116 -0.612299,0.997883 -0.612299,1.049289 0,0.0219 0.173019,0.02547 0.537017,0.01108 0.876208,-0.03466 3.881442,-0.07509 3.955428,-0.05322 0.171473,0.05069 0.270663,0.183325 0.270663,0.361935 0,0.0967 -0.0417,0.196998 -0.181549,0.436696 -0.446454,0.765184 -1.481169,2.4363065 -3.315333,5.3544515 -0.290574,0.462302 -0.803938,1.281837 -1.140808,1.821189 -0.58888,0.942834 -1.339923,2.13973 -2.148821,3.424457 -0.210222,0.333885 -0.49025,0.782177 -0.622283,0.996206 -0.132034,0.214028 -0.419581,0.67633 -0.638995,1.027337 -0.219414,0.351007 -0.468512,0.750268 -0.553551,0.887246 -0.08504,0.136978 -0.269931,0.431171 -0.410872,0.65376 -0.140941,0.22259 -0.491218,0.775951 -0.7783943,1.229691 -0.750304,1.185488 -0.911223,1.399552 -1.167656,1.553281 -0.13062,0.07831 -0.325419,0.08412 -0.4398,0.01314 z m 1.018142,-1.977169 c 0.22208,-0.342224 3.2167223,-5.134185 4.4805973,-7.169752 0.809806,-1.304255 1.160039,-1.863936 2.717629,-4.342834 1.408534,-2.241676 2.220964,-3.5550165 2.207473,-3.5685075 -0.0066,-0.0066 -0.767229,0.0056 -1.690301,0.02712 -0.923071,0.02151 -1.949149,0.03911 -2.280172,0.03911 h -0.60186 l -0.09081,-0.101669 c -0.150562,-0.168556 -0.130559,-0.276058 0.15371,-0.826104 0.134489,-0.260228 0.363293,-0.669269 0.508455,-0.908982 0.145161,-0.239712 0.366077,-0.603949 0.490923,-0.809417 0.124847,-0.205467 0.457919,-0.779842 0.740159,-1.276388 0.282241,-0.496547 0.594038,-1.042903 0.692882,-1.214126 0.09884,-0.171223 0.249619,-0.437397 0.335057,-0.591497 0.08544,-0.154101 0.257984,-0.462302 0.383436,-0.684892 0.125452,-0.222589 0.393001,-0.705905 0.594553,-1.074034 l 0.366458,-0.66932605 -1.127538,-0.01012 c -1.101206,-0.0099 -4.113106,0.03847 -4.744419,0.07617 l -0.31695,0.01892 -0.254616,0.642405 c -0.140039,0.353323 -0.441397,1.118716 -0.669685,1.700874 -0.39781,1.014456 -0.535679,1.352256 -1.3214173,3.237668 -0.192662,0.462302 -0.424184,1.022667 -0.514493,1.245257 -0.09031,0.22259 -0.271442,0.663878 -0.402517,0.98064 -0.349398,0.844371 -1.013888,2.5099705 -1.177548,2.9516225 -0.107851,0.291044 -0.132095,0.387093 -0.100744,0.399123 0.02271,0.0087 0.690538,8.59e-4 1.484069,-0.01747 2.0381903,-0.04706 2.8040343,-0.04425 2.9356693,0.01075 0.145125,0.06064 0.216245,0.179912 0.212484,0.356357 -0.0017,0.07939 -0.06908,0.368493 -0.149755,0.642449 -0.08067,0.273957 -0.199806,0.680222 -0.264739,0.902812 -0.06493,0.222589 -0.190428,0.649868 -0.278877,0.949508 -0.813851,2.757087 -1.8148133,6.419001 -2.3321943,8.532094 -0.102993,0.420641 -0.196307,0.788381 -0.207366,0.8172 -0.04753,0.123859 0.03027,0.0312 0.222451,-0.264959 z"
       id="path2" /></g></svg>
