<?xml version="1.0" encoding="UTF-8" standalone="no"?>
<!-- Created with Inkscape (http://www.inkscape.org/) -->

<svg
   width="100"
   height="100"
   viewBox="0 0 26.458333 26.458333"
   version="1.1"
   id="svg1"
   inkscape:version="1.4 (86a8ad7, 2024-10-11)"
   xml:space="preserve"
   sodipodi:docname="ghost_writer_border_heart.svg"
   xmlns:inkscape="http://www.inkscape.org/namespaces/inkscape"
   xmlns:sodipodi="http://sodipodi.sourceforge.net/DTD/sodipodi-0.dtd"
   xmlns="http://www.w3.org/2000/svg"
   xmlns:svg="http://www.w3.org/2000/svg"><sodipodi:namedview
     id="namedview1"
     pagecolor="#ffffff"
     bordercolor="#000000"
     borderopacity="0.25"
     inkscape:showpageshadow="false"
     inkscape:pageopacity="0.0"
     inkscape:pagecheckerboard="0"
     inkscape:deskcolor="#d1d1d1"
     inkscape:document-units="px"
     borderlayer="false"
     inkscape:zoom="4.8126513"
     inkscape:cx="40.518207"
     inkscape:cy="71.789951"
     inkscape:window-width="2048"
     inkscape:window-height="1209"
     inkscape:window-x="-8"
     inkscape:window-y="-8"
     inkscape:window-maximized="1"
     inkscape:current-layer="layer1" /><defs
     id="defs1" /><g
     inkscape:label="Layer 1"
     inkscape:groupmode="layer"
     id="layer1"><path
       id="path1"
       style="stroke-width:0.130703"
       d="M 20.710001,0.26792056 C 19.909602,0.29613855 19.17315,0.49219751 18.348843,0.88695779 17.527019,1.2805276 16.915061,1.7282521 16.003018,2.6003302 14.784433,3.765515 13.866318,5.0928117 13.32755,6.4276285 12.745358,4.9976494 11.774422,3.641712 10.602252,2.6635755 9.8995029,2.0771533 8.8335915,1.5364605 7.9459504,1.3200922 6.0489367,0.85768462 4.3115051,1.137137 2.8729116,2.1518635 1.9792836,2.7821922 1.1704623,3.8456847 0.866311,4.8100823 0.68175458,5.3952696 0.5213367,6.405534 0.5213367,6.9968361 c 0,0.6415147 0.15562348,1.5430244 0.37563868,2.2097522 0.60006322,1.8184157 1.50310812,3.2565827 3.27150642,5.2340277 0.6801817,0.760587 1.5806176,1.64429 3.123934,3.062604 1.3026562,1.197145 2.9314872,2.824973 3.5283212,3.522571 0.965742,1.128792 1.640165,2.192111 2.073679,3.256174 0.09908,0.243197 0.198707,0.534538 0.272146,0.785776 0.07344,0.251237 0.114991,0.494044 0.114991,0.511711 0,0.143622 0.07573,0.317216 0.187819,0.429302 0.09154,0.09154 0.209541,0.166617 0.348808,0.18207 0.139268,0.01545 0.268706,-0.03213 0.379472,-0.09966 0.205628,-0.125378 0.325677,-0.371509 0.277896,-0.611371 0.0079,0.04002 0.0011,0.01165 0.0077,-0.02683 0.0066,-0.03847 0.0194,-0.09548 0.03833,-0.162905 0.03786,-0.134854 0.09938,-0.31237 0.172487,-0.505962 0.146206,-0.387185 0.344286,-0.840387 0.52321,-1.170996 0.329836,-0.609454 1.01746,-1.679415 1.642461,-2.554727 1.134129,-1.588342 1.30311,-1.817979 1.795784,-2.42057 0.243998,-0.298434 0.651036,-0.812224 0.908432,-1.147998 0.254137,-0.33152 0.558299,-0.722515 0.668867,-0.858603 0.116239,-0.143063 0.413762,-0.509768 0.659284,-0.814522 0.529684,-0.657464 1.012495,-1.241984 1.335818,-1.617546 0.986257,-1.145615 2.162766,-2.8661 2.731046,-3.999785 0.61703,-1.2309164 0.931248,-2.4347706 0.973609,-3.7525583 C 25.962395,5.517639 25.840268,4.5415564 25.599052,3.7981576 25.459606,3.3684011 25.135557,2.7132901 24.886106,2.3780134 24.5858,1.9743849 23.969243,1.378331 23.569454,1.1073581 22.67472,0.50091615 21.759325,0.23092934 20.710001,0.26792056 Z m 0.375638,1.04642204 c 1.582693,0.1063484 3.128351,1.3597534 3.560901,3.0281078 0.31729,1.2237738 0.312649,2.5556283 -0.01725,3.7717192 -0.298713,1.1011415 -0.770209,2.0285264 -1.788116,3.5053224 -0.654454,0.949492 -0.784299,1.119908 -1.546635,2.021933 -0.354336,0.419262 -0.733942,0.874895 -0.85477,1.02534 -0.113798,0.141694 -0.426411,0.528718 -0.691865,0.858602 -0.267058,0.331878 -0.701644,0.885439 -0.971678,1.236159 -0.266767,0.346477 -0.680144,0.870896 -0.914181,1.159497 -0.619246,0.76362 -0.800926,1.008809 -1.853279,2.49723 -0.907776,1.283937 -1.498292,2.223607 -1.895443,3.024275 -0.07455,0.150297 -0.151457,0.330964 -0.226149,0.502129 C 13.354488,22.573768 12.460746,21.23295 11.029635,19.670809 10.541094,19.137536 8.9216549,17.553832 8.0877733,16.790274 7.1755697,15.954997 5.7036037,14.536184 5.3088135,14.114806 3.9792741,12.695729 3.0667392,11.44783 2.4857737,10.268343 1.7094488,8.6922459 1.4775051,7.5527038 1.6482528,6.232143 1.7697088,5.2928045 2.0078979,4.6681578 2.4704415,4.0530553 2.9880273,3.3647548 3.4041663,3.0186624 4.1397339,2.6578259 4.9767686,2.2472141 5.2759009,2.1800186 6.2459937,2.1806114 c 0.8555506,5.263e-4 1.3075738,0.082251 2.0832615,0.3813883 1.1977475,0.4619002 2.2724748,1.3476101 3.1373498,2.6064726 0.352378,0.5128994 0.779604,1.3212108 0.94868,1.7804507 0.198489,0.5391334 0.33137,0.9883952 0.350724,1.1249996 0.02269,0.1601548 0.06245,0.3040185 0.168654,0.4216353 0.106207,0.1176167 0.269484,0.1686541 0.415886,0.1686541 0.07024,0 0.151565,-0.0084 0.229982,-0.045997 0.07841,-0.037596 0.134545,-0.093373 0.180153,-0.1475723 0.04089,-0.048592 0.07104,-0.098899 0.09583,-0.1514054 0.02478,-0.052507 0.04983,-0.098118 0.04983,-0.1916524 0,0.025481 0.0074,-0.05592 0.02683,-0.1418228 0.01943,-0.085903 0.04813,-0.1957381 0.08049,-0.3123935 0.06472,-0.2333106 0.146267,-0.4959923 0.206984,-0.6535346 0.34369,-0.8917741 0.87649,-1.7899876 1.583049,-2.6658849 0.273357,-0.3388718 1.181739,-1.2408512 1.575382,-1.5600504 1.043281,-0.8459794 1.994238,-1.2971573 3.030025,-1.4527252 0.224463,-0.033713 0.450434,-0.042024 0.676533,-0.026832 z" /></g></svg>
