<?xml version="1.0" encoding="UTF-8" standalone="no"?>
<!-- Created with Inkscape (http://www.inkscape.org/) -->

<svg
   width="100"
   height="100"
   viewBox="0 0 26.458333 26.458333"
   version="1.1"
   id="svg1"
   inkscape:version="1.4 (86a8ad7, 2024-10-11)"
   xml:space="preserve"
   sodipodi:docname="ghost_writer_images_asteerisk.svg"
   xmlns:inkscape="http://www.inkscape.org/namespaces/inkscape"
   xmlns:sodipodi="http://sodipodi.sourceforge.net/DTD/sodipodi-0.dtd"
   xmlns="http://www.w3.org/2000/svg"
   xmlns:svg="http://www.w3.org/2000/svg"><sodipodi:namedview
     id="namedview1"
     pagecolor="#ffffff"
     bordercolor="#000000"
     borderopacity="0.25"
     inkscape:showpageshadow="false"
     inkscape:pageopacity="0.0"
     inkscape:pagecheckerboard="0"
     inkscape:deskcolor="#d1d1d1"
     inkscape:document-units="px"
     borderlayer="false"
     inkscape:zoom="4.8126513"
     inkscape:cx="26.388781"
     inkscape:cy="64.309667"
     inkscape:window-width="2048"
     inkscape:window-height="1209"
     inkscape:window-x="-8"
     inkscape:window-y="-8"
     inkscape:window-maximized="1"
     inkscape:current-layer="layer1" /><defs
     id="defs1" /><g
     inkscape:label="Layer 1"
     inkscape:groupmode="layer"
     id="layer1"><path
       id="path1"
       style="stroke-width:0.115126"
       d="m 12.997427,0.40432205 c -0.194823,0 -0.518893,0.104014 -0.661974,0.214062 -0.136895,0.105286 -0.294277,0.257659 -0.377756,0.46769895 -0.08348,0.210039 -0.07985,0.400566 -0.06836,0.582825 0.01,0.158071 0.02937,0.373849 0.04857,0.523462 0.05757,0.448658 0.06253,0.562766 0.03058,0.980369 -0.03126,0.408605 -0.02686,0.612217 0.03238,1.198028 0.185881,1.838151 0.204446,2.288393 0.140309,3.33865 -0.03545,0.58016 -0.05354,0.91672 -0.02518,1.185438 0.0057,0.05414 0.01148,0.361357 0,0.546847 -0.01633,0.263649 -0.02361,0.71194 -0.02518,1.127874 -7.85e-4,0.207967 6.42e-4,0.405337 0.0036,0.561238 4.45e-4,0.02346 0.0013,0.0396 0.0018,0.06116 C 11.903265,10.998441 11.68638,10.783536 11.572745,10.663116 11.397599,10.477512 11.149902,10.227388 10.988121,10.076693 10.726904,9.833378 10.541101,9.675899 9.4267264,8.743751 9.1317708,8.497029 8.7637309,8.175982 8.6424315,8.063789 8.4963111,7.928641 8.3298053,7.779093 8.2682724,7.723808 8.2174104,7.67811 8.0216454,7.499607 7.8455447,7.338857 7.6580042,7.167663 7.337872,6.888581 7.1098184,6.698469 6.397052,6.104288 5.9903173,5.76151 5.7588884,5.563399 5.6191016,5.443738 5.3974297,5.264561 5.2480174,5.146068 5.1215337,5.045759 4.9086065,4.863545 4.8108988,4.773708 4.6222973,4.600301 4.4289375,4.456048 4.1777066,4.381561 3.9264757,4.307081 3.632572,4.341161 3.4131989,4.442721 3.146904,4.566011 2.9377315,4.790495 2.8051904,5.041735 2.7458723,5.154177 2.6843364,5.28162 2.6612831,5.457268 c -0.023053,0.175648 0.020158,0.389547 0.1043328,0.54325 0.1683495,0.307406 0.3930426,0.458779 0.7249332,0.71414 0.3465307,0.266626 0.9412949,0.770516 1.316752,1.115282 0.2030444,0.186447 0.50807,0.452755 0.705146,0.615204 C 6.0975822,8.927468 6.3612626,9.165353 6.6726999,9.486673 6.77785,9.59516 6.8788414,9.690832 6.9713076,9.77089 7.0637736,9.85095 7.0914728,9.904368 7.2933003,9.98855 7.2089643,9.95337 7.2466093,9.96603 7.2717143,9.98315 c 0.025106,0.01712 0.065381,0.04614 0.1115282,0.08095 0.092293,0.06961 0.2126551,0.164934 0.329188,0.262631 0.9383256,0.786657 1.3091018,1.100611 1.5380096,1.300563 0.1022792,0.08934 0.6631921,0.629849 1.1512589,1.111684 0.002,0.002 0.0034,0.0034 0.0054,0.0054 -0.4265355,1.21e-4 -0.7742655,2.3e-4 -1.5649925,-0.0018 -1.1595238,-0.0029 -1.876742,6.89e-4 -2.2125752,0.03238 -0.090557,0.0086 -0.1900399,0.01372 -0.2680273,0.01619 -0.077987,0.0025 -0.1685081,-0.0063 -0.1007352,0.0036 -0.1458543,-0.02122 -0.2876303,-0.02439 -0.5018768,-0.03058 -0.2142465,-0.0062 -0.4741278,-0.0095 -0.7465193,-0.01079 -0.544783,-0.0026 -1.1303443,0.0035 -1.4930386,0.02338 -0.3588148,0.01968 -1.0413981,0.03357 -1.4714524,0.02878 -0.4329329,-0.0048 -0.6752896,-0.0095 -0.8922255,0.01619 -0.21693588,0.02564 -0.49727408,0.171692 -0.60800848,0.293211 -0.1944128,0.213349 -0.2433615,0.424028 -0.2698262,0.634991 -0.026465,0.210964 -0.019575,0.425693 0.079149,0.661974 0.1037756,0.248365 0.1842961,0.308713 0.3687625,0.422728 0.172623,0.106673 0.29814728,0.126618 0.44791148,0.1547 0.1497643,0.02808 0.3154424,0.04718 0.500078,0.05936 0.3692712,0.02435 0.8127886,0.02299 1.2897695,-0.0054 0.2927898,-0.01743 1.4847446,-0.04094 2.5741424,-0.04497 1.0919543,-0.0041 2.3729668,-0.01727 2.8745489,-0.03058 1.1343905,-0.03013 1.3857712,-0.02723 2.0992487,0.01619 0.03886,0.0024 0.0579,-0.0019 0.09534,0 -0.261813,0.268374 -0.540417,0.561336 -0.7788989,0.787893 -0.1773037,0.168437 -0.4786069,0.478171 -0.7033471,0.717738 -0.1990011,0.212128 -0.5720693,0.576113 -0.7896914,0.771702 -0.2588155,0.232612 -0.7290881,0.689637 -1.0811039,1.048725 -0.559381,0.570617 -0.9847304,0.965014 -1.4678547,1.36712 -0.1815247,0.151082 -0.546231,0.50587 -0.9605815,0.910213 -0.2031418,0.198236 -0.4046554,0.391996 -0.5648363,0.543251 -0.1601808,0.151255 -0.3167421,0.288897 -0.2878146,0.266229 -0.2549966,0.199821 -0.4650463,0.470451 -0.5594398,0.769903 -0.025819,0.08192 -0.063162,0.176986 -0.061161,0.330987 0.002,0.154003 0.047498,0.262927 0.075551,0.336383 0.109783,0.287462 0.3762348,0.572981 0.6583761,0.694354 0.3080614,0.132521 0.7033366,0.114285 0.9965583,-0.03598 0.1143864,-0.05862 0.1233935,-0.07902 0.1654934,-0.113327 0.0421,-0.0343 0.086549,-0.07336 0.1349132,-0.116924 0.096728,-0.08713 0.2097017,-0.194225 0.3219925,-0.307602 0.7267099,-0.733737 1.4765404,-1.45329 1.8582034,-1.78625 0.2619266,-0.228506 0.8179926,-0.765471 1.295166,-1.243 0.4695486,-0.469897 1.4022306,-1.398244 2.0704666,-2.063271 0.490558,-0.488201 0.877021,-0.882264 1.230408,-1.242999 5.77e-4,0.03224 0.0013,0.05755 0.0018,0.08995 0.0091,0.559376 0.02384,1.085097 0.05397,1.345533 0.01257,0.108458 0.02001,0.644014 -0.0054,1.80064 -0.02665,1.213512 -0.02714,1.706455 0.0036,2.079461 0.02643,0.321304 0.02574,0.44447 -0.0018,0.735727 -0.04134,0.43747 -0.04935,1.022375 -0.03238,1.879789 0.0039,0.19508 0.0067,0.321587 0.02339,0.451509 0.01668,0.129922 0.06014,0.268468 0.102534,0.363366 0.143749,0.32183 0.430439,0.575444 0.782496,0.656578 0.308776,0.07117 0.628453,0.02659 0.903019,-0.149304 0.190622,-0.122109 0.419019,-0.383864 0.480291,-0.661974 0.06127,-0.27811 0.03595,-0.525525 -0.0018,-0.881433 -0.04531,-0.427233 -0.04935,-0.543278 -0.02699,-1.02354 0.03021,-0.648737 0.03494,-1.223637 0.0144,-1.921163 -0.0123,-0.417623 0.01838,-2.012287 0.04497,-2.397856 0.01525,-0.221102 0.0054,-0.51786 -0.0144,-0.778898 -0.05244,-0.691436 -0.056,-0.974503 -0.06296,-1.572188 0.502854,0.465118 0.998415,0.925553 1.304161,1.185436 0.611533,0.519803 0.730088,0.624163 0.951587,0.834663 0.596256,0.566646 0.954561,0.89689 1.52002,1.404896 0.332494,0.298708 0.785452,0.713213 0.99476,0.910213 0.230129,0.2166 0.598178,0.543731 0.847254,0.751916 0.514849,0.430319 0.809113,0.695387 1.260989,1.138667 0.107074,0.105038 0.218579,0.205228 0.320193,0.291413 0.101615,0.08619 0.147195,0.140924 0.3112,0.224854 0.358933,0.183659 0.742051,0.200287 1.113483,0.01079 0.384443,-0.196126 0.514901,-0.454373 0.617002,-0.795087 0.15751,-0.525644 -0.144861,-0.904797 -0.473095,-1.18004 -0.07271,-0.06097 -0.274282,-0.24508 -0.410135,-0.37416 -0.273433,-0.259799 -0.72181,-0.640874 -1.13507,-0.971374 -0.213799,-0.170985 -0.63541,-0.538154 -0.771703,-0.669169 -0.247713,-0.238118 -0.793949,-0.738417 -1.124276,-1.030737 -0.164644,-0.145699 -0.496203,-0.450619 -0.717738,-0.660175 -0.761334,-0.720163 -0.977764,-0.910497 -1.903174,-1.685514 -0.301825,-0.252774 -0.746042,-0.678824 -1.165649,-1.070311 0.278503,-0.0024 0.571544,5.39e-4 0.771703,-0.0072 0.370909,-0.01429 0.827674,-0.01198 1.133269,0.0054 0.406183,0.02316 1.073654,0.02206 2.084858,0.0018 1.293791,-0.02591 1.528074,-0.02392 2.029093,0.01799 0.458038,0.03836 0.791491,0.04558 1.22681,0.02878 0.294989,-0.01139 0.744039,-0.01605 0.953387,-0.01079 0.475853,0.01193 0.729597,0.01964 0.933599,0.0072 0.204001,-0.01244 0.444154,-0.101346 0.548646,-0.169092 0.697359,-0.452114 0.740748,-1.443829 0.06836,-1.94095 -0.124312,-0.09191 -0.358693,-0.193861 -0.566635,-0.214062 -0.207941,-0.0202 -0.417972,-0.0087 -0.771704,0.01079 -1.10377,0.06081 -2.104184,0.06213 -2.433832,0.02699 -0.232149,-0.02474 -0.48259,-0.04216 -0.665571,-0.03958 -0.131272,0.0018 -0.745383,0.01487 -1.390505,0.02878 -0.642752,0.01387 -1.318537,0.02286 -1.395901,0.02159 -0.167554,-0.0028 -1.023071,-0.0047 -1.966134,-0.0054 -0.124979,-9.5e-5 -0.202759,-0.0014 -0.320193,-0.0018 0.149038,-0.140715 0.253557,-0.231373 0.399342,-0.37236 0.374186,-0.361871 0.902389,-0.834769 1.109886,-1.000156 0.24586,-0.195965 0.555012,-0.442965 0.687157,-0.548647 0.160227,-0.128141 0.445657,-0.377028 0.681761,-0.591819 0.381027,-0.346631 0.692219,-0.617085 0.969576,-0.840059 0.474473,-0.38144 0.767857,-0.639721 1.185436,-1.046926 0.45336,-0.442095 0.673852,-0.629278 1.068512,-0.906616 0.314566,-0.221053 0.696075,-0.497553 0.865243,-0.63679 0.244699,-0.201397 0.375711,-0.524497 0.408337,-0.82207 0.09851,-0.898356 -0.886649,-1.528454 -1.680118,-1.126075 -0.145652,0.07386 -0.258747,0.152964 -0.379556,0.253636 -0.05815,0.04845 -0.690911,0.529428 -1.066713,0.804082 -0.136825,0.1 -0.196016,0.166942 -0.345377,0.307603 -0.149363,0.14066 -0.334154,0.318952 -0.519865,0.501876 -0.181045,0.178327 -0.351373,0.34452 -0.478493,0.4659 -0.06356,0.06069 -0.117186,0.109229 -0.152901,0.142109 -0.01786,0.01644 -0.0303,0.02923 -0.03597,0.03418 -0.0057,0.005 -0.06047,0.02805 0.06296,-0.04317 -0.115724,0.06678 -0.175076,0.118915 -0.278821,0.20147 -0.103745,0.08256 -0.225597,0.184265 -0.35797,0.29681 -0.264743,0.225087 -0.567114,0.491965 -0.811277,0.721335 -0.288323,0.270854 -0.643161,0.586037 -0.679962,0.615204 -0.09661,0.07656 -0.365091,0.287156 -0.591819,0.4659 -0.115074,0.09072 -0.224865,0.179893 -0.3112,0.250038 -0.04317,0.03507 -0.08122,0.06454 -0.111528,0.08995 -0.03031,0.02539 -0.0329,0.02302 -0.08995,0.08095 -0.335269,0.340633 -1.029213,0.998863 -1.39766,1.336597 v -0.0036 c -0.0057,-0.341582 -0.0073,-0.656388 -0.0072,-0.885031 2.5e-5,-0.114321 5.21e-4,-0.207454 0.0018,-0.268027 4.89e-4,-0.02316 0.0014,-0.03607 0.0018,-0.04677 3.87e-4,-0.0028 0.0015,-0.0083 0.0018,-0.01079 0.0033,-0.0241 0.0042,-0.03907 0.0054,-0.05396 0.0023,-0.0298 0.004,-0.05708 0.0054,-0.09174 0.0029,-0.06931 0.0049,-0.159056 0.0072,-0.268028 0.0045,-0.217942 0.0072,-0.510123 0.009,-0.827467 0.0036,-0.620007 0.02773,-1.374923 0.04497,-1.588377 0.03223,-0.399118 0.03339,-0.656361 0.0036,-1.066713 -0.01843,-0.253631 -0.0171,-0.620841 -0.01799,-0.611607 0.02269,-0.237211 -0.0011,-0.4839 -0.04317,-0.829265 -0.09195,-0.755426 -0.09515,-0.793617 -0.10973,-1.843813 -0.0038,-0.272398 -0.0099,-0.535283 -0.01799,-0.742922 -0.0041,-0.103818 -0.0079,-0.194572 -0.01259,-0.268027 -0.0047,-0.07346 8.3e-4,-0.08976 -0.02518,-0.210464 -0.0026,-0.01218 -0.0178,-0.149039 -0.01799,-0.17089 -0.0018,-0.203341 -0.05207,-0.35614 -0.120522,-0.505475 -0.06826,-0.14940895 -0.12633,-0.29381195 -0.35958,-0.44078995 -0.192641,-0.121391 -0.486095,-0.206867 -0.703348,-0.206867 z m 1.341936,9.77850295 c -0.0036,0.01499 -0.01319,0.05097 -0.0144,0.05396 -0.0054,0.01564 -0.01446,0.03974 -0.0144,0.03957 8.5e-5,-2.09e-4 -0.04146,0.08109 -0.04137,0.08095 1.74e-4,-2.81e-4 0.04757,-0.09551 0.05577,-0.120522 0.0082,-0.02501 0.01148,-0.04094 0.0144,-0.05396 z" /></g></svg>
