<?xml version="1.0" encoding="UTF-8" standalone="no"?>
<!-- Created with Inkscape (http://www.inkscape.org/) -->

<svg
   width="100"
   height="100"
   viewBox="0 0 26.458333 26.458333"
   version="1.1"
   id="svg1"
   inkscape:version="1.4 (86a8ad7, 2024-10-11)"
   xml:space="preserve"
   sodipodi:docname="ghost_writer_border_cross.svg"
   xmlns:inkscape="http://www.inkscape.org/namespaces/inkscape"
   xmlns:sodipodi="http://sodipodi.sourceforge.net/DTD/sodipodi-0.dtd"
   xmlns="http://www.w3.org/2000/svg"
   xmlns:svg="http://www.w3.org/2000/svg"><sodipodi:namedview
     id="namedview1"
     pagecolor="#ffffff"
     bordercolor="#000000"
     borderopacity="0.25"
     inkscape:showpageshadow="false"
     inkscape:pageopacity="0.0"
     inkscape:pagecheckerboard="0"
     inkscape:deskcolor="#d1d1d1"
     inkscape:document-units="px"
     borderlayer="false"
     inkscape:zoom="4.8126512"
     inkscape:cx="42.907743"
     inkscape:cy="60.36174"
     inkscape:window-width="2048"
     inkscape:window-height="1209"
     inkscape:window-x="-8"
     inkscape:window-y="-8"
     inkscape:window-maximized="1"
     inkscape:current-layer="layer1" /><defs
     id="defs1" /><g
     inkscape:label="Layer 1"
     inkscape:groupmode="layer"
     id="layer1"><path
       id="path1"
       style="stroke-width:0.0920222"
       d="m 13.66016,0.26472529 c -0.335573,-0.002339 -0.747443,0.0227653 -1.285022,0.0732505 -0.330998,0.0310665 -0.567718,0.0663134 -0.761806,0.12557226 -0.194088,0.0592589 -0.348083,0.1489034 -0.470896,0.26788749 -0.198892,0.19270129 -0.315584,0.46634336 -0.351602,0.91458466 -0.03602,0.4482412 -0.01029,1.0995028 0.0565,2.1598429 0.02195,0.348122 0.06051,1.139104 0.09418,1.8710267 0.03367,0.7319226 0.06069,1.4289222 0.06069,1.5257029 0,0.042319 -0.0012,0.054404 -0.0021,0.077437 0.0035,-0.012271 -0.04093,0.00221 -0.223938,0.00628 -0.184312,0.00428 -0.710329,-0.00415 -1.1427068,-0.018836 C 8.2903935,7.2219898 6.877811,7.1859806 6.1718678,7.181664 5.6010354,7.1785473 5.4475748,7.1874537 5.2823977,7.2298 5.0153703,7.2983351 4.7489893,7.4220361 4.5854716,7.6127955 4.2534537,8.0001462 4.1461612,8.6431373 4.1710831,9.5340511 c 0.019344,0.6915449 0.082868,1.1769089 0.2616089,1.5382599 0.1787404,0.361353 0.494462,0.571145 0.8894702,0.657162 0.1602697,0.03491 0.3903421,0.04442 0.7199477,0.04396 0.3296055,-4.65e-4 0.7477211,-0.01546 1.2347938,-0.04185 0.686478,-0.03723 1.0928395,-0.05397 2.6642245,-0.113015 0.3632138,-0.01362 0.6473478,-0.01614 0.8434278,-0.0105 0.09344,0.0027 0.162494,0.0087 0.211379,0.01465 0.0085,0.05859 0.01582,0.154287 0.02093,0.311839 0.01084,0.334194 0.0094,0.908257 0.0021,1.864747 -0.01588,2.057218 -0.09139,3.234358 -0.123481,4.336429 -0.05152,1.769161 -0.06314,2.092933 -0.07325,2.218443 -0.0093,0.11614 -0.02821,0.589594 -0.04813,1.10713 -0.01988,0.51636 -0.04763,1.178947 -0.06069,1.471287 -0.05102,1.141584 -0.03154,1.774725 0.09627,2.218444 0.07887,0.273808 0.181441,0.454578 0.357881,0.613211 0.155671,0.139963 0.342556,0.24266 0.594375,0.301374 0.25182,0.05871 0.57148,0.08397 1.0569,0.106737 1.167621,0.05478 1.831325,0.01224 2.26658,-0.219751 0.253134,-0.134919 0.479535,-0.367774 0.577632,-0.629955 0.06362,-0.170026 0.106126,-0.303042 0.125573,-0.483453 0.01945,-0.180412 0.02117,-0.40384 0.02093,-0.805756 -4.87e-4,-0.78555 -0.04184,-2.151498 -0.08372,-2.764682 -0.154558,-2.263409 -0.317535,-6.935024 -0.322302,-8.264747 l -0.0042,-1.389666 c 0.03782,-0.0047 0.113528,-0.0098 0.265795,-0.01465 0.18225,-0.0058 0.683592,0.0015 1.088293,0.01675 1.541476,0.05821 2.511797,0.09994 2.917461,0.125572 0.330798,0.02112 0.64441,0.03083 0.906213,0.0293 0.261805,-0.0015 0.460975,-0.01007 0.604841,-0.04185 0.253578,-0.05611 0.49676,-0.165312 0.652976,-0.34323 0.196961,-0.224325 0.31187,-0.554325 0.382994,-0.960628 0.07113,-0.406304 0.09049,-0.8897028 0.0565,-1.4126885 C 22.244016,8.5450918 22.191913,8.2077859 22.071409,7.9392833 21.950905,7.6707808 21.74939,7.4848071 21.493776,7.3595581 21.314607,7.2717821 21.151283,7.2120867 20.907772,7.1900355 c -0.243511,-0.022052 -0.571117,-0.015726 -1.146893,0 -0.539384,0.014768 -1.336545,0.048814 -1.783126,0.077437 -0.40532,0.025937 -1.021544,0.044242 -1.548724,0.052322 -0.263591,0.00404 -0.505845,0.00633 -0.688555,0.00419 -0.09136,-0.00107 -0.166566,-0.00362 -0.221845,-0.00628 -0.01953,-9.39e-4 -0.01,-2.56e-4 -0.02512,-0.00209 -5.53e-4,-0.013399 4.79e-4,-0.020602 0,-0.037671 -0.0023,-0.081602 -0.0039,-0.2039403 -0.0042,-0.3683453 -5.82e-4,-0.3288099 0.0032,-0.8271419 0.0105,-1.5194244 0.01145,-1.0854137 0.01923,-2.3658895 0.01884,-2.8504903 -3.37e-4,-0.410655 -0.0027,-0.6327803 -0.0105,-0.7869195 -0.0077,-0.1541393 -0.0241,-0.2477648 -0.05022,-0.3516023 C 15.317651,0.84368139 14.990854,0.48654625 14.484752,0.35681161 14.253611,0.29757595 13.995734,0.26706482 13.66016,0.26472529 Z M 12.906726,1.4388259 c 0.440128,-0.027305 0.926059,-0.027032 1.128058,0.00419 0.15771,0.024386 0.209231,0.053685 0.232309,0.079529 0.02308,0.025845 0.05426,0.098151 0.07325,0.276259 0.0346,0.3246833 0.05107,1.5357622 0.02512,2.3293655 -0.02207,0.6749806 -0.03851,1.4012266 -0.04396,2.0070633 -0.0055,0.6058367 -0.0017,1.0804729 0.01465,1.2913015 0.01711,0.2208868 0.0352,0.3710554 0.07325,0.5001961 0.03805,0.1291407 0.108288,0.2378135 0.192544,0.3139307 0.08636,0.078008 0.196998,0.1382812 0.32858,0.1737083 0.131582,0.035426 0.287002,0.053105 0.502289,0.069065 0.50754,0.037572 1.813274,0.010094 2.718641,-0.052322 0.414261,-0.028524 1.001956,-0.055922 1.51733,-0.07325 0.515376,-0.017328 0.985998,-0.02132 1.067365,-0.01465 0.117419,0.00962 0.184766,0.03056 0.217658,0.048136 0.0329,0.017577 0.04385,0.026932 0.06697,0.077437 0.03553,0.077599 0.09601,0.4401166 0.104648,0.8141269 0.0087,0.3740103 -0.01599,0.7877008 -0.07116,1.0485278 -0.01973,0.09325 -0.04056,0.157523 -0.0565,0.192545 -0.01594,0.03502 -0.01964,0.03857 -0.0314,0.04604 -0.0235,0.01494 -0.143815,0.03924 -0.403924,0.03767 -0.183039,-0.0013 -0.647588,-0.0185 -1.01295,-0.03976 -0.648781,-0.03774 -1.169171,-0.05884 -2.902812,-0.115108 -0.448119,-0.01457 -0.830049,-0.01718 -1.134336,-0.0063 -0.304287,0.0109 -0.521145,0.02982 -0.680184,0.07744 -0.173359,0.05188 -0.328691,0.159106 -0.424852,0.316023 -0.09616,0.156917 -0.141104,0.346379 -0.16743,0.583911 -0.0093,0.08446 -0.01,0.209752 -0.0105,0.399739 -5.01e-4,0.189986 4.9e-5,0.434012 0.0042,0.717854 0.0083,0.567686 0.0248,1.291267 0.04394,2.027992 0.03831,1.473449 0.08966,3.000694 0.110923,3.472072 0.01295,0.287143 0.04007,0.923979 0.06069,1.412688 0.02069,0.490334 0.05916,1.275077 0.08581,1.745455 0.03715,0.655712 0.06722,1.420991 0.08581,2.061477 0.01858,0.640487 0.02264,1.178187 0.01256,1.299674 -0.01733,0.208698 -0.05237,0.299238 -0.08162,0.332766 -0.02925,0.03353 -0.09323,0.06548 -0.278353,0.09209 -0.362957,0.05215 -1.514043,0.04223 -2.038456,-0.02512 -0.114085,-0.01465 -0.190082,-0.03396 -0.228122,-0.05232 -0.03804,-0.01837 -0.04645,-0.02485 -0.06697,-0.06906 -0.04105,-0.08842 -0.06862,-0.354415 -0.06697,-0.841334 0.001,-0.293449 0.01848,-0.952612 0.03977,-1.452453 0.02139,-0.502386 0.04923,-1.175253 0.06278,-1.496402 0.01355,-0.321077 0.03518,-0.813959 0.04813,-1.094571 0.08634,-1.869422 0.186036,-5.150203 0.16743,-7.178548 -0.0075,-0.815232 -0.01474,-1.247641 -0.04813,-1.525703 -0.03334,-0.27807 -0.134128,-0.44121 -0.246912,-0.54834 -0.119028,-0.11297 -0.289048,-0.190804 -0.533682,-0.219751 -0.244634,-0.02895 -0.588435,-0.0305 -1.153172,-0.02093 -0.9533192,0.01621 -1.6440418,0.04125 -2.904905,0.104644 -0.509026,0.02557 -0.9280194,0.0397 -1.232701,0.04186 -0.1523407,0.0011 -0.276332,-0.0017 -0.3662524,-0.0063 C 5.6152576,10.59678 5.5465128,10.58264 5.5649553,10.58882 5.4876263,10.56291 5.4895373,10.56443 5.4624045,10.51557 5.4352715,10.46671 5.3986605,10.343086 5.357761,10.124204 5.313341,9.8864971 5.316285,8.9059176 5.355671,8.7177949 5.38403,8.5823356 5.413603,8.501707 5.437293,8.4603717 5.460655,8.4196087 5.471736,8.4077077 5.516822,8.3850287 l 0.081622,-0.037671 0.6801831,0.00419 c 0.683372,0.0047 1.0922374,0.015297 3.0011771,0.081622 0.535495,0.018659 1.0646808,0.023717 1.4859388,0.016743 0.210628,-0.00348 0.392976,-0.00938 0.537868,-0.018836 0.144892,-0.00945 0.234815,-0.01226 0.332767,-0.043951 0.224978,-0.072739 0.398363,-0.2531184 0.468803,-0.4813603 0.04606,-0.149271 0.05571,-0.2878532 0.05441,-0.8371484 -8.58e-4,-0.3534 -0.01702,-0.8688846 -0.03348,-1.1573618 -0.01593,-0.2791201 -0.04124,-0.7946076 -0.05441,-1.1406148 -0.01335,-0.3507268 -0.04051,-0.9027418 -0.06279,-1.2347939 -0.02151,-0.3203902 -0.04048,-0.9016294 -0.04185,-1.2766514 -0.0014,-0.3811969 0.0032,-0.5884783 0.01675,-0.6676257 0.0068,-0.039573 0.01136,-0.036292 0.0042,-0.027208 -0.0072,0.00909 -0.01218,0.00843 0.01675,-0.00628 -0.006,0.00308 0.13372,-0.039694 0.301374,-0.062786 0.167652,-0.023092 0.380589,-0.042855 0.600653,-0.056507 z" /></g></svg>
