<?xml version="1.0" encoding="UTF-8" standalone="no"?>
<!-- Created with Inkscape (http://www.inkscape.org/) -->

<svg
   width="100"
   height="100"
   viewBox="0 0 26.458333 26.458333"
   version="1.1"
   id="svg1"
   inkscape:version="1.4 (86a8ad7, 2024-10-11)"
   xml:space="preserve"
   sodipodi:docname="ghost_writer_border_flower.svg"
   xmlns:inkscape="http://www.inkscape.org/namespaces/inkscape"
   xmlns:sodipodi="http://sodipodi.sourceforge.net/DTD/sodipodi-0.dtd"
   xmlns="http://www.w3.org/2000/svg"
   xmlns:svg="http://www.w3.org/2000/svg"><sodipodi:namedview
     id="namedview1"
     pagecolor="#ffffff"
     bordercolor="#000000"
     borderopacity="0.25"
     inkscape:showpageshadow="false"
     inkscape:pageopacity="0.0"
     inkscape:pagecheckerboard="0"
     inkscape:deskcolor="#d1d1d1"
     inkscape:document-units="px"
     borderlayer="false"
     inkscape:zoom="3.4030584"
     inkscape:cx="53.481304"
     inkscape:cy="77.136496"
     inkscape:window-width="2048"
     inkscape:window-height="1209"
     inkscape:window-x="-8"
     inkscape:window-y="-8"
     inkscape:window-maximized="1"
     inkscape:current-layer="layer1" /><defs
     id="defs1" /><g
     inkscape:label="Layer 1"
     inkscape:groupmode="layer"
     id="layer1"><path
       id="path1"
       style="stroke-width:0.141313"
       d="M 13.163108,0.26459537 C 12.290987,0.26252087 11.499485,0.53115395 10.620983,1.1030174 9.7316277,1.6819384 9.1335783,2.5636737 8.8482091,3.7007826 8.7580191,4.0601505 8.7424025,4.2207124 8.7426869,4.7886206 8.7429614,5.3291516 8.8062988,5.7879131 8.9115224,6.2352344 8.1941471,5.6468937 7.3136928,5.1823268 6.4058493,4.9881536 5.8168951,4.8621878 4.9751823,4.8630508 4.3817413,4.9900722 3.0670312,5.2709701 2.16101,5.9977536 1.5307229,7.2674335 1.2551253,7.8226183 1.1442598,8.2050864 1.0932853,8.7831163 1.0065927,9.766169 1.3264479,10.816077 1.9624046,11.674425 c 0.5899949,0.796308 1.5438627,1.391509 2.7013688,1.745913 -0.5471604,0.189921 -1.091106,0.448091 -1.500334,0.730982 -1.0541896,0.728764 -1.8015183,1.85881 -2.0106779,3.058226 -0.15361464,0.880888 -0.00316,1.890422 0.4009844,2.613113 0.4581773,0.819294 1.1868879,1.515543 1.9742247,1.87254 0.5758543,0.261097 1.4716876,0.427789 2.0605612,0.374125 1.1519349,-0.104969 2.3185337,-0.723356 3.3632809,-1.732483 -0.026122,0.186244 -0.063585,0.315876 -0.08058,0.516099 -0.1236679,1.456896 0.3633271,3.036038 1.2585923,4.0156 0.452688,0.495317 1.146929,0.96253 1.724808,1.147315 0.304835,0.09747 0.908435,0.226519 1.636554,0.159242 0.728119,-0.06728 1.579425,-0.337803 2.323407,-1.045629 0.90118,-0.857375 1.399741,-2.096038 1.4658,-3.580081 0.01736,-0.390051 -0.05324,-0.87244 -0.118952,-1.318069 0.984812,0.972209 1.939336,1.493978 3.100434,1.684519 1.306869,0.214469 2.679057,-0.201944 3.610779,-1.103187 1.119005,-1.082404 1.594068,-2.476742 1.364114,-4.00217 -0.178772,-1.185921 -0.961164,-2.41321 -1.949283,-3.050552 -0.344221,-0.222027 -0.744767,-0.404998 -1.122372,-0.542959 1.540476,-0.564352 2.68871,-1.680406 3.077411,-3.075493 C 25.494454,9.2372784 25.393527,8.1886894 24.973923,7.3019681 24.758981,6.8477513 24.614123,6.6289332 24.250616,6.1987812 23.661825,5.5020347 22.962757,5.0795371 22.12866,4.9229217 21.602574,4.824109 21.122822,4.8014973 20.645593,4.8576897 c -1.12467,0.1323798 -2.078615,0.5402332 -2.904738,1.2067906 0.03558,-0.2671655 0.05428,-0.560041 0.05372,-0.9938275 C 17.793724,4.4052289 17.78062,4.2169744 17.706319,3.92142 17.444875,2.8815281 16.936765,1.9215401 16.299997,1.2987132 15.650313,0.66325135 14.910476,0.39753076 13.54107,0.28186263 c -0.128074,-0.010809 -0.252914,-0.014994 -0.376042,-0.0153487 h -0.002 a 0.22914423,0.22914423 0 0 0 0,-0.001919 z m -0.09593,1.09167533 c 0.157099,-0.00642 0.314086,-2.734e-4 0.471973,0.017267 0.848768,0.092948 1.164166,0.1716279 1.565566,0.3798801 0.373556,0.1938085 0.77061,0.6374053 1.074408,1.2010347 0.303798,0.5636293 0.518318,1.2428291 0.567901,1.8878883 0.04357,0.5667625 -0.104827,1.4764168 -0.358776,2.144979 -0.13496,0.3553135 -0.434488,0.9421454 -0.886386,1.7190529 -0.09802,0.1685077 -0.192651,0.3218505 -0.262846,0.4297632 -0.008,0.012168 -0.0119,0.01589 -0.01919,0.02686 C 15.092761,9.0945045 14.916363,9.0346194 14.699896,8.9673006 14.478703,8.8985124 14.234762,8.832631 14.037983,8.7927092 c -0.878468,-0.17821 -1.92047,-0.088893 -2.749333,0.2359861 -0.03744,0.01468 -0.06836,0.02452 -0.101684,0.036453 -0.0094,-0.015424 -0.01424,-0.021943 -0.02494,-0.040291 C 11.096629,8.9127265 11.009181,8.7498635 10.916445,8.5663162 10.730971,8.1992215 10.520734,7.7451668 10.394589,7.4247576 9.8438536,6.0258857 9.68089,4.8344483 9.8823268,4.0020005 10.028664,3.3972402 10.325295,2.8230714 10.663192,2.4652133 10.860104,2.2566757 11.306895,1.9314779 11.657019,1.7514994 12.133615,1.5065025 12.598526,1.3767513 13.067178,1.3562707 Z m 7.985154,4.5700714 c 0.318049,-0.00836 0.636028,0.022224 0.957375,0.090174 0.508615,0.1076049 1.030915,0.4334889 1.410161,0.8921424 0.673422,0.8144225 0.917562,1.4702066 0.88063,2.3214888 -0.0209,0.481897 -0.08491,0.7280173 -0.291625,1.1415587 -0.396943,0.794105 -1.213768,1.484838 -2.208292,1.84568 -0.642118,0.232981 -1.554472,0.416044 -2.666835,0.52761 -0.311822,0.03123 -0.779767,0.06433 -1.020687,0.07099 -0.125215,0.0034 -0.210982,0.0075 -0.266684,0.0077 -0.008,-0.04594 -0.01649,-0.108433 -0.03261,-0.209126 C 17.703456,11.925538 17.395562,11.192 16.986855,10.649928 16.863904,10.486849 16.608889,10.213811 16.384419,9.9976087 16.288559,9.9052757 16.210024,9.822603 16.150352,9.7577855 16.188702,9.6979165 16.229942,9.6283396 16.27506,9.5505783 16.60337,8.9848326 17.441737,7.8677932 17.903939,7.3806577 18.555796,6.6936323 19.223618,6.2940126 20.093046,6.0664265 20.41529,5.9820355 20.734338,5.9343677 21.052338,5.9263697 Z M 5.3621387,5.9954112 c 0.427543,-0.00291 0.6295896,0.013964 0.8480149,0.061395 1.3466609,0.2923719 2.5626582,1.2011869 3.5244421,2.6649157 0.144428,0.2198016 0.2947773,0.4738911 0.4009843,0.6734236 0.04017,0.075456 0.06571,0.1314576 0.09018,0.1841843 -0.04188,0.029956 -0.08597,0.060744 -0.13622,0.095929 C 9.7324803,9.9253312 9.2306249,10.451256 8.978673,10.832167 8.7396178,11.193579 8.5051414,11.665904 8.3819928,12.03512 8.2993536,12.282895 8.2641372,12.438602 8.1805413,12.948366 l 0.011512,-0.06907 -0.3530198,-0.002 C 7.2035947,12.872522 6.7743412,12.8176 5.9357961,12.637511 5.2055294,12.480726 4.6423275,12.303591 4.2071501,12.098433 3.234896,11.640065 2.605954,10.929208 2.2636227,9.8958961 2.1691671,9.6107732 2.1695514,9.6023834 2.1696119,9.0900901 c 6.28e-5,-0.53525 -0.005,-0.505839 0.111278,-0.8422592 0.22317,-0.6455215 0.674835,-1.3122668 1.0820824,-1.6327166 0.2631497,-0.2070569 0.6970366,-0.41751 1.1051054,-0.5256924 0.3122124,-0.082791 0.3975417,-0.091126 0.894061,-0.094011 z m 7.8028893,3.7565909 c 0.110086,0.00261 0.223851,0.016097 0.412495,0.044128 0.922996,0.1371473 1.544148,0.4316959 2.133467,1.0072579 0.728964,0.711957 1.064114,1.446667 1.11278,2.428929 0.04114,0.830356 -0.191134,1.611347 -0.681098,2.304222 -0.165579,0.234148 -0.741298,0.795941 -0.984235,0.959292 -0.448798,0.301772 -1.021667,0.543495 -1.498414,0.635053 -0.276862,0.05319 -0.978566,0.05395 -1.283535,-0.002 C 11.587302,16.984317 10.98679,16.674753 10.377322,16.094766 9.8800898,15.621635 9.491406,14.976619 9.3182626,14.339306 9.2239336,13.9921 9.1934807,13.185128 9.2607046,12.833216 9.4170098,12.014954 9.9211027,11.169172 10.540402,10.67097 c 0.653868,-0.526012 1.343965,-0.8059705 2.215967,-0.8940608 0.186499,-0.018861 0.298832,-0.027631 0.408659,-0.024942 z M 19.2527,13.840509 c 1.370041,-0.01313 2.612998,0.288695 3.390141,0.801969 0.542043,0.358006 0.959994,0.851708 1.281615,1.527194 0.469413,0.985883 0.384584,2.233074 -0.2168,3.159911 -0.0866,0.133472 -0.338971,0.430036 -0.55639,0.644645 -0.437327,0.431659 -0.749306,0.62073 -1.310394,0.788538 -0.270831,0.08098 -0.368818,0.0926 -0.819236,0.103604 -0.37432,0.0086 -0.591882,-0.0044 -0.725225,-0.03454 -0.862,-0.194999 -1.541316,-0.575663 -2.260094,-1.268182 -0.599433,-0.57753 -1.134995,-1.270351 -1.73632,-2.262012 l -0.141976,-0.235986 0.199532,-0.188022 c 0.419404,-0.394807 0.733665,-0.801099 0.986154,-1.281615 0.260719,-0.496175 0.396104,-0.960995 0.510344,-1.6826 0.13419,-0.0023 0.453097,-0.0222 0.805805,-0.04797 0.19973,-0.01457 0.396879,-0.02303 0.592844,-0.02494 z m -11.3714582,0.12087 h 0.00192 l 0.3088923,0.01535 c 0.012155,0.0795 0.027785,0.188126 0.046046,0.303137 0.1666505,1.049519 0.848046,2.189203 1.699867,2.847182 v -0.002 l 0.051801,0.04221 -0.090174,0.151569 c -1.1842946,1.999912 -2.546643,3.237283 -3.837168,3.572446 -0.224186,0.05824 -0.9647056,0.101795 -1.0955125,0.08058 C 4.0493846,20.822858 3.5667802,20.572844 3.0003632,19.966515 2.488132,19.418175 2.2710427,18.959051 2.1772898,18.216764 2.0426797,17.150992 2.6744834,15.83507 3.7198328,15.083714 4.6537648,14.412442 6.5148848,13.900896 7.8812454,13.96134 Z m 7.3596952,3.716301 0.01151,0.02494 c 0.691576,1.369998 1.041964,2.881972 0.945862,3.98874 -0.06192,0.713052 -0.172424,1.151868 -0.410577,1.657658 -0.437555,0.929287 -1.155369,1.514178 -2.068235,1.701786 -0.144956,0.0298 -0.428673,0.0553 -0.681099,0.05372 -0.729476,-0.0047 -1.161965,-0.160814 -1.747831,-0.625459 -0.689184,-0.546596 -1.113112,-1.323267 -1.3103943,-2.444279 -0.054438,-0.30935 -0.066698,-1.11041 -0.017267,-1.465799 0.050717,-0.364669 0.2616123,-1.193546 0.4163333,-1.625042 0.07655,-0.213474 0.225983,-0.558203 0.358775,-0.842259 0.06284,-0.134409 0.120908,-0.252293 0.166917,-0.33959 0.05961,0.02412 0.122854,0.05199 0.197614,0.08442 0.5713,0.247783 1.070536,0.354004 1.747832,0.377962 0.845382,0.02992 1.535841,-0.118423 2.267769,-0.485402 z m -6.1893578,2.006841 c -0.00393,0.01239 -0.00573,0.04593 -0.0096,0.05948 -1.26e-4,-0.003 5.9e-6,-0.0097 0,-0.0096 -5.97e-5,9e-4 0.00617,-0.03909 0.0096,-0.04988 z" /></g></svg>
