<?xml version="1.0" encoding="UTF-8" standalone="no"?>
<!-- Created with Inkscape (http://www.inkscape.org/) -->

<svg
   width="100"
   height="100"
   viewBox="0 0 26.458333 26.458333"
   version="1.1"
   id="svg1"
   inkscape:version="1.4 (86a8ad7, 2024-10-11)"
   xml:space="preserve"
   sodipodi:docname="ghost_writer_border_swirl.svg"
   xmlns:inkscape="http://www.inkscape.org/namespaces/inkscape"
   xmlns:sodipodi="http://sodipodi.sourceforge.net/DTD/sodipodi-0.dtd"
   xmlns="http://www.w3.org/2000/svg"
   xmlns:svg="http://www.w3.org/2000/svg"><sodipodi:namedview
     id="namedview1"
     pagecolor="#ffffff"
     bordercolor="#000000"
     borderopacity="0.25"
     inkscape:showpageshadow="false"
     inkscape:pageopacity="0.0"
     inkscape:pagecheckerboard="0"
     inkscape:deskcolor="#d1d1d1"
     inkscape:document-units="px"
     borderlayer="false"
     inkscape:zoom="4.8126513"
     inkscape:cx="37.505314"
     inkscape:cy="57.452739"
     inkscape:window-width="2048"
     inkscape:window-height="1209"
     inkscape:window-x="-8"
     inkscape:window-y="-8"
     inkscape:window-maximized="1"
     inkscape:current-layer="layer1" /><defs
     id="defs1" /><g
     inkscape:label="Layer 1"
     inkscape:groupmode="layer"
     id="layer1"><path
       id="path1"
       style="stroke-width:0.131024"
       d="M 13.666294,0.29083241 C 11.398441,0.1241696 9.0498493,0.75519328 7.0199012,2.0676663 5.1924293,3.2492265 3.9135184,4.6105882 2.9115703,6.4533289 2.4246303,7.3488898 2.174258,7.935854 1.7926812,9.0545068 1.5827586,9.6699292 1.3637337,10.858502 1.2762709,11.810608 c -0.05636,0.613548 -0.030208,2.191757 0.053553,2.727411 0.067853,0.433896 0.2165164,1.266751 0.2849819,1.587484 0.1203937,0.564009 0.5952396,1.812994 0.9983934,2.673858 0.1464257,0.312667 0.541817,0.992392 0.7421007,1.277637 0.072613,0.103416 0.2043538,0.307957 0.2773315,0.432254 0.1621542,0.276202 0.3089763,0.463239 0.761227,0.967792 0.1592135,0.177626 0.3910316,0.437116 0.512585,0.573789 0.1341672,0.150854 0.4176092,0.409779 0.7440134,0.698111 0.3264043,0.288331 0.6804592,0.587141 0.9161502,0.768877 0.1312112,0.101175 0.3986725,0.28638 0.6235177,0.432254 1.9863426,1.288698 3.7963583,1.960943 5.9042923,2.186137 0.754416,0.08059 1.633218,0.07211 2.398439,0.002 0.38261,-0.03511 0.736206,-0.08545 1.034733,-0.151098 0.298527,-0.06564 0.536602,-0.136089 0.722974,-0.258204 0.109545,-0.07179 0.208466,-0.194847 0.200826,-0.359575 -0.0076,-0.164728 -0.156828,-0.304454 -0.292632,-0.338536 -0.0969,-0.02432 -0.104428,-0.01066 -0.153011,-0.0096 -0.04858,0.0011 -0.107615,0.0029 -0.174049,0.0076 -0.132867,0.0093 -0.299613,0.02528 -0.47242,0.0459 -1.366739,0.163148 -2.127189,0.168671 -3.182617,0.02295 C 11.816697,24.909887 10.499535,24.494227 9.3360966,23.888869 7.7376621,23.057178 6.5343912,22.10928 5.3386987,20.734943 4.8220121,20.14106 4.7428351,20.024104 4.0514982,18.866303 3.7161549,18.304693 3.0156795,16.582613 2.8369776,15.871123 2.780471,15.646146 2.5553601,14.365838 2.5060925,13.962318 2.4484138,13.489907 2.4572676,12.088761 2.5213936,11.602131 2.571124,11.224751 2.6539871,10.735406 2.7394334,10.299629 2.8248798,9.8638526 2.9171645,9.4677995 2.9632112,9.3318382 3.1146481,8.884694 3.4542134,8.0195498 3.5867289,7.7386168 4.1989415,6.4407273 5.115613,5.1492206 6.0195953,4.2997065 7.6603967,2.757772 9.5515386,1.8095443 11.669507,1.463275 12.115017,1.390436 13.349679,1.369242 13.93215,1.43076 c 2.205504,0.2329553 4.437693,1.2483639 6.386274,2.9186747 0.780811,0.6693068 1.645211,1.6708532 2.182311,2.5304105 0.573572,0.9179281 1.149531,2.2472725 1.335017,3.0602094 0.148801,0.6521624 0.187363,0.9069624 0.22569,1.5033284 0.107403,1.671135 -0.14368,3.546112 -0.636906,4.846606 -0.594813,1.568356 -1.607026,2.893417 -3.010481,3.938107 -1.058535,0.787941 -2.355942,1.333061 -3.781271,1.583659 -0.414501,0.0729 -2.00099,0.07705 -2.509372,-0.002 -0.522444,-0.0811 -1.202405,-0.253961 -1.629561,-0.411174 -0.81519,-0.299983 -1.989639,-0.95079 -2.5782267,-1.422952 C 9.081653,19.30662 8.1707503,18.165853 7.7027104,17.204226 7.3486888,16.476861 7.131259,15.751978 6.973998,14.75606 6.8132063,13.737781 6.91399,12.547148 7.2475043,11.529451 7.7250681,10.0722 8.8185006,8.6337447 10.032295,7.8552872 c 0.07576,-0.04859 0.20076,-0.127696 0.277332,-0.175962 0.524958,-0.3308916 1.584615,-0.706509 2.463468,-0.854946 1.091036,-0.1842749 2.326425,-0.017781 3.197919,0.4169536 0.649117,0.3238048 1.06583,0.6181142 1.514804,1.0729858 0.345307,0.3498436 0.514064,0.5802624 0.76314,1.0385586 0.300142,0.5522602 0.462885,1.0228458 0.558487,1.6066098 0.291115,1.777614 -0.311892,3.559249 -1.533929,4.609441 -1.29681,1.114447 -2.890333,1.352582 -4.27473,0.66177 -1.449099,-0.723097 -2.164982,-2.433046 -1.629562,-3.821437 0.380907,-0.987723 1.383763,-1.626407 2.26073,-1.499502 0.586199,0.08482 1.126031,0.553384 1.266162,1.071073 0.07496,0.276935 0.04083,0.702724 -0.05737,0.910413 -0.136812,0.289333 -0.268866,0.425023 -0.539362,0.558487 -0.131235,0.06475 -0.167654,0.08089 -0.216128,0.0899 -0.04847,0.009 -0.147355,0.01148 -0.361487,0.01148 -0.18448,0 -0.295559,0.0016 -0.39209,0.01339 -0.04827,0.0059 -0.09593,0.01392 -0.15301,0.04016 -0.05708,0.02625 -0.118576,0.08173 -0.149185,0.13006 -0.07722,0.121944 -0.06926,0.299588 -0.01148,0.409303 0.0578,0.109714 0.14031,0.1788 0.231428,0.237166 0.182235,0.116731 0.414514,0.186429 0.675158,0.202738 0.343003,0.02147 0.702463,-0.06074 1.011782,-0.225689 0.343737,-0.183295 0.713406,-0.557925 0.889373,-0.906588 0.411488,-0.815325 0.340289,-1.796318 -0.177874,-2.5591 -0.238959,-0.351775 -0.631001,-0.71948 -0.985007,-0.8932086 -0.431062,-0.2115407 -0.83923,-0.2915989 -1.354143,-0.2677683 -0.495046,0.022909 -0.799923,0.093713 -1.225996,0.2926329 -1.217661,0.568486 -1.997352,1.802446 -2.056079,3.215132 -0.030307,0.728985 0.07333,1.314382 0.346187,1.931758 0.293102,0.66319 0.81518,1.303448 1.42491,1.753881 0.497059,0.3672 1.188206,0.669291 1.838038,0.807131 0.50406,0.106914 1.478143,0.10473 1.97766,-0.0038 1.803456,-0.391945 3.330124,-1.681056 4.014613,-3.391095 0.314393,-0.78544 0.453665,-1.457944 0.485807,-2.327672 C 20.14923,10.99845 19.996082,10.171312 19.603102,9.2591612 19.222235,8.3751274 18.59976,7.5502273 17.856868,6.9487002 17.26604,6.4703006 16.194645,5.9061935 15.519633,5.7284418 14.480894,5.454905 13.449469,5.4262375 12.36953,5.6404607 11.994155,5.7149218 11.799284,5.7737661 10.946532,6.0727153 9.9083915,6.4366549 8.9738984,7.0339832 8.1521787,7.8552872 7.4376662,8.5694383 7.0102451,9.1565043 6.5608698,10.043337 6.2394275,10.677698 6.1008285,11.022539 5.9507406,11.569616 5.7495768,12.302844 5.702061,12.703584 5.7001859,13.683073 c -0.00184,0.987798 0.050383,1.39011 0.3021957,2.381226 0.1597561,0.628789 0.2557274,0.904885 0.5278861,1.510978 0.4713242,1.049629 1.2473783,2.108916 2.1421466,2.93015 1.2704987,1.166087 2.9800197,2.033714 4.6496067,2.3621 0.735228,0.144605 0.949898,0.162818 2.006349,0.164485 1.140084,0.0019 1.436544,-0.0305 2.400352,-0.265855 1.264541,-0.308789 2.650015,-0.999153 3.76597,-1.870553 0.46213,-0.360859 1.144,-1.031994 1.503327,-1.480376 0.344401,-0.429756 0.811111,-1.116543 1.036647,-1.532017 0.458213,-0.844111 0.855738,-2.012466 0.971616,-2.865121 0.02072,-0.152496 0.06206,-0.389582 0.08607,-0.499197 0.0501,-0.228654 0.0774,-0.619529 0.09755,-1.111239 0.02014,-0.491708 0.02811,-1.063 0.01722,-1.568357 -0.0213,-0.987771 -0.08165,-1.499665 -0.267768,-2.3104578 C 24.841924,9.1044337 24.760053,8.8777794 24.340688,7.8763262 23.425419,5.6906405 21.652834,3.6782393 19.406099,2.2531916 18.827675,1.8863116 18.634594,1.777324 18.019442,1.4804888 16.543775,0.76842128 15.208023,0.40413197 13.666294,0.29083241 Z" /></g></svg>
