<?xml version="1.0" encoding="UTF-8" standalone="no"?>
<!-- Created with Inkscape (http://www.inkscape.org/) -->

<svg
   width="100"
   height="100"
   viewBox="0 0 26.458333 26.458333"
   version="1.1"
   id="svg1"
   inkscape:version="1.4 (86a8ad7, 2024-10-11)"
   xml:space="preserve"
   sodipodi:docname="star.svg"
   xmlns:inkscape="http://www.inkscape.org/namespaces/inkscape"
   xmlns:sodipodi="http://sodipodi.sourceforge.net/DTD/sodipodi-0.dtd"
   xmlns="http://www.w3.org/2000/svg"
   xmlns:svg="http://www.w3.org/2000/svg"><sodipodi:namedview
     id="namedview1"
     pagecolor="#ffffff"
     bordercolor="#000000"
     borderopacity="0.25"
     inkscape:showpageshadow="false"
     inkscape:pageopacity="0.0"
     inkscape:pagecheckerboard="0"
     inkscape:deskcolor="#d1d1d1"
     inkscape:document-units="px"
     borderlayer="false"
     inkscape:zoom="4.8126513"
     inkscape:cx="89.140055"
     inkscape:cy="79.270235"
     inkscape:window-width="2048"
     inkscape:window-height="1209"
     inkscape:window-x="-8"
     inkscape:window-y="-8"
     inkscape:window-maximized="1"
     inkscape:current-layer="layer1" /><defs
     id="defs1" /><g
     inkscape:label="Layer 1"
     inkscape:groupmode="layer"
     id="layer1"><path
       style="fill:#000000;stroke-width:0.087527"
       d="m 5.3789716,25.832405 c -0.0828,-0.02932 -0.17227,-0.06503 -0.19884,-0.07935 -0.0629,-0.03388 -0.20597,-0.192775 -0.24956,-0.277066 -0.0981,-0.189653 -0.13701,-0.597736 -0.0847,-0.887694 0.0125,-0.06921 0.0281,-0.170478 0.0346,-0.225044 0.0305,-0.253534 0.13015,-0.668315 0.29622,-1.232386 0.0581,-0.197424 0.14298,-0.489217 0.18858,-0.648428 0.11487,-0.40113 0.17308,-0.59609 0.21435,-0.71791 0.0194,-0.0573 0.0435,-0.13547 0.0535,-0.17368 0.01,-0.0382 0.0698,-0.24664 0.13294,-0.46317 0.0631,-0.21653 0.13339,-0.47184 0.15617,-0.56737 0.0467,-0.19575 0.25943,-0.97649 0.29029,-1.06528 0.0111,-0.0318 0.0687,-0.24548 0.12803,-0.47474 0.0593,-0.22927 0.17586,-0.65133 0.25893,-0.93791 0.17612,-0.60757 0.24888,-0.87644 0.29714,-1.09795 0.0192,-0.088 0.0567,-0.23203 0.0835,-0.32001 0.0585,-0.19254 0.0515,-0.38448 -0.0167,-0.4601 -0.0244,-0.0271 -0.14344,-0.12276 -0.26444,-0.21257 -0.121,-0.0898 -0.27719,-0.20587 -0.34709,-0.25792 -0.17551,-0.1307 -0.68467,-0.49795 -1.1003,-0.79362 -0.19105,-0.13592 -0.44637,-0.32162 -0.56737,-0.41268 -0.121,-0.0911 -0.38153,-0.27331 -0.57896,-0.40501 -0.19742,-0.1317 -0.40584,-0.27881 -0.46316,-0.32691 -0.14689,-0.12326 -0.56256,-0.41438 -1.07686,-0.7542 -0.242,-0.15991 -0.45688,-0.30257 -0.47751,-0.31702 -0.39369,-0.27594 -0.97479,-0.7026 -1.10936999,-0.81453 -0.22649,-0.18838 -0.53339,-0.51232 -0.58163,-0.61393 -0.0957,-0.20159 -0.11616,-0.27334 -0.12781,-0.44839 -0.0108,-0.16161 -0.004,-0.2144 0.0505,-0.38411 0.0979,-0.30598 0.21555,-0.44494 0.53211,-0.6287201 0.40022999,-0.23236 1.17195999,-0.39633 2.48949999,-0.52897 0.14648,-0.0147 0.34448,-0.0366 0.44001,-0.0485 0.0955,-0.0119 0.40816,-0.0376 0.69474,-0.0571 0.28659,-0.0195 0.60443,-0.0451 0.70633,-0.0568 0.1019,-0.0118 0.49269,-0.0323 0.86843,-0.0457 0.37574,-0.0133 0.81343,-0.0348 0.97265,-0.0477 0.15921,-0.0129 0.38326,-0.0285 0.4979,-0.0345 0.11463,-0.006 0.3439,-0.0226 0.50948,-0.0367 0.18441,-0.0157 0.48499,-0.0196 0.7758,-0.0102 0.308,0.0101 0.51922,0.007 0.60138,-0.009 0.16719,-0.0328 0.26751,-0.12838 0.31687,-0.30173 0.0344,-0.12072 0.13303,-0.38092 0.20972,-0.55314 0.0191,-0.0429 0.0641,-0.16278 0.0999,-0.26632 0.0853,-0.24653 0.26546,-0.73037 0.42788,-1.14932 0.13958,-0.36002 0.21489,-0.56502 0.34884,-0.94949 0.0466,-0.13374 0.13985,-0.37342 0.20723,-0.53264 0.0674,-0.15921 0.14517,-0.36763 0.17287,-0.46316 0.0699,-0.24087 0.18553,-0.56355 0.31964,-0.89159 0.0625,-0.15284 0.17745,-0.46548 0.25547,-0.69475 0.078,-0.22926 0.1849,-0.52106 0.23752,-0.64843 0.0526,-0.12737 0.12129,-0.29932 0.15259,-0.38211 0.0826,-0.21836 0.21168,-0.47331 0.29652,-0.58554 0.0406,-0.0537 0.11918,-0.16536 0.17466,-0.24815 0.2315,-0.34547997 0.49724,-0.56996997 0.79288,-0.66980997 0.32509,-0.10978 0.61483,-0.0347 0.96348,0.24953 0.27772,0.22644997 0.57162,0.76405997 0.89441,1.63607997 0.10441,0.28207 0.20553,0.51209 0.41231,0.93791 0.0959,0.19743 0.18209,0.38492 0.19159,0.41665 0.0221,0.0739 0.11159,0.26981 0.32792,0.7181 0.0953,0.19743 0.1936,0.41106 0.21852,0.47475 0.0249,0.0637 0.0645,0.15747 0.0879,0.20842 0.0235,0.051 0.0896,0.21248 0.1471,0.35895 0.0575,0.14648 0.16171,0.41222 0.23169,0.59054 0.07,0.17831 0.19212,0.4649 0.27144,0.63685 0.0793,0.17195 0.19911,0.43248 0.26619,0.57895 0.0671,0.14648 0.18954,0.40806 0.27212,0.5813 0.0826,0.17324 0.16855,0.37124 0.19103,0.44001 0.0624,0.19097 0.0953,0.24319 0.19036,0.30219 0.0762,0.0473 0.11552,0.0541 0.30741,0.0529 0.48888,-0.003 0.75168,-0.0128 1.2158,-0.0447 1.08743,-0.0748 1.26115,-0.086 1.505288,-0.0972 0.140106,-0.006 0.369373,1.9e-4 0.50948,0.0147 0.140107,0.0145 0.687219,0.0358 1.215805,0.0475 0.616994,0.0136 1.060555,0.0342 1.238963,0.0574 0.152844,0.0199 0.417382,0.0466 0.587862,0.0592 0.94162,0.0697 1.305965,0.21316 1.449004,0.57046 0.08903,0.2224 0.101241,0.42286 0.03837,0.6298501 -0.07874,0.25925 -0.186855,0.42237 -0.56927,0.85893 -0.594407,0.67858 -2.860858,2.85388 -3.671255,3.5236 -0.159212,0.13158 -0.388478,0.33385 -0.50948,0.4495 -0.121002,0.11564 -0.319004,0.28994 -0.440006,0.38734 -0.309411,0.24903 -0.606951,0.51791 -0.641041,0.57929 -0.0501,0.0901 -0.0335,0.23495 0.0621,0.54122 0.051,0.1633 0.0926,0.30778 0.0926,0.32107 0,0.0133 0.0406,0.14904 0.0902,0.30169 0.319179,0.98238 0.473622,1.47247 0.547239,1.73651 0.04617,0.16558 0.185965,0.60848 0.310668,0.98422 0.124702,0.37575 0.24506,0.76133 0.267461,0.85686 0.0224,0.0955 0.09689,0.34399 0.165534,0.55214 0.06864,0.20815 0.15056,0.50565 0.182036,0.6611 0.03148,0.15546 0.07778,0.34238 0.102894,0.41537 0.0973,0.28282 0.210589,0.822213 0.351041,1.671429 0.08023,0.485103 0.08165,0.739592 0.0059,1.049929 -0.05358,0.219359 -0.181107,0.486786 -0.281327,0.589931 -0.172939,0.177987 -0.447927,0.293299 -0.69945,0.293302 -0.287676,2e-6 -0.564336,-0.10371 -1.007536,-0.377702 -0.50621,-0.312942 -0.74991,-0.483053 -1.45176,-1.013378 -0.19541,-0.14765 -0.51662,-0.386169 -0.71381,-0.530043 -0.19718,-0.143874 -0.40541,-0.304737 -0.46273,-0.357473 -0.0573,-0.05274 -0.22405,-0.185828 -0.37053,-0.295759 -0.14647,-0.109931 -0.33406,-0.25273 -0.41685,-0.317332 -0.0828,-0.0646 -0.39542,-0.294303 -0.69474,-0.510444 -0.55329,-0.39954 -0.90737,-0.65812 -1.41332,-1.03212 -0.30369,-0.22449 -0.4486,-0.32717 -1.0044,-0.71167 -0.39409,-0.27263 -0.47406,-0.30345 -0.62444,-0.24062 -0.10377,0.0434 -0.31215,0.18787 -0.91789,0.63655 -0.75452,0.55887 -0.95231,0.71048 -1.16748,0.89487 -0.11352,0.0973 -0.29569,0.24648 -0.40482,0.33152 -0.59811,0.466123 -1.7664104,1.40142 -2.2477804,1.799496 -0.42641,0.352621 -1.06237,0.856053 -1.22841,0.972416 -0.59882,0.419673 -0.78144,0.529871 -1.11396,0.672197 -0.3628,0.155282 -0.64653,0.185278 -0.9008,0.09523 z M 21.328455,24.415788 c 0.08302,-0.05815 0.08845,-0.197974 0.02036,-0.523464 -0.08776,-0.419495 -0.121113,-0.562645 -0.188189,-0.807775 -0.03311,-0.121002 -0.131915,-0.486616 -0.219566,-0.812472 -0.08766,-0.32586 -0.169388,-0.61766 -0.181638,-0.64843 -0.0122,-0.0308 -0.071,-0.2227 -0.13057,-0.42649 -0.0596,-0.20379 -0.13744,-0.45911 -0.17306,-0.56738 -0.0356,-0.10826 -0.0932,-0.29063 -0.12801,-0.40527 -0.10634,-0.35043 -0.31998,-0.96313 -0.40374,-1.15791 -0.10151,-0.23602 -0.11215,-0.26836 -0.24382,-0.74106 -0.0213,-0.0764 -0.0852,-0.28147 -0.14212,-0.45567 -0.0569,-0.1742 -0.14004,-0.44515 -0.1848,-0.60211 -0.0448,-0.15697 -0.12896,-0.45213 -0.18711,-0.65592 -0.15111,-0.52959 -0.17463,-0.66033 -0.16457,-0.91475 0.0131,-0.33093 0.10081,-0.46424 0.56175,-0.85367 0.11463,-0.0969 0.22235,-0.18945 0.23937,-0.20578 0.017,-0.0163 0.0691,-0.0578 0.1158,-0.0921 0.0467,-0.0343 0.15778,-0.12619 0.24694,-0.20409 0.0892,-0.0779 0.27674,-0.22867 0.41685,-0.33506 0.14011,-0.10638 0.390217,-0.31452 0.555798,-0.46253 0.399116,-0.35677 0.664108,-0.57757 0.972644,-0.81045 0.342122,-0.25824 0.49341,-0.38815 0.90317,-0.77559 0.191055,-0.18064 0.415111,-0.39019 0.497902,-0.46565 0.563009,-0.51318 1.03519,-0.95853 1.134996,-1.07051 0.197864,-0.222 0.208028,-0.38517 0.02866,-0.4601201 -0.09861,-0.0412 -0.622318,-0.0828 -1.719454,-0.13656 -1.793917,-0.0879 -3.811656,-0.0964 -4.668086,-0.0196 -0.63215,0.0566 -0.95593,0.0201 -1.1444,-0.12915 -0.12546,-0.0994 -0.21615,-0.26171 -0.4142,-0.74148 -0.0919,-0.22277 -0.19181,-0.46235 -0.22189,-0.5324 -0.22983,-0.53523 -0.8527,-2.15088 -0.99548,-2.58214 -0.052,-0.15719 -0.31864,-0.87908 -0.3592,-0.97265 -0.011,-0.0255 -0.0621,-0.16095 -0.11347,-0.30105 -0.0514,-0.14011 -0.19893,-0.51527 -0.32793,-0.8337 -0.12899,-0.31842 -0.25872,-0.64148 -0.28828,-0.7179 -0.28434,-0.73508 -0.44588,-1.0338 -0.59968,-1.10891 -0.0837,-0.0409 -0.0943,-0.0413 -0.16797,-0.006 -0.0677,0.0323 -0.24059,0.25263 -0.24059,0.3066 0,0.009 -0.0573,0.13422 -0.12737,0.27884 -0.0701,0.14461 -0.12737,0.27147 -0.12737,0.28191 0,0.0104 -0.0195,0.06 -0.0433,0.11017 -0.12743,0.26857 -0.17876,0.39941 -0.30573,0.77922 -0.0507,0.15174 -0.15529,0.42896 -0.23238,0.61605 -0.14354,0.34841 -0.20971,0.53305 -0.3003,0.83806 -0.066,0.22206 -0.36558,1.06883 -0.46795,1.32251 -0.1469,0.36401 -0.26821,0.70336 -0.35508,0.99331 -0.0477,0.15921 -0.11231,0.352 -0.14357,0.42843 -0.0683,0.16693 -0.18616,0.48705 -0.30701,0.83369 -0.1221,0.35023 -0.20193,0.57028 -0.22684,0.62527 -0.0115,0.0255 -0.0594,0.1349 -0.10641,0.24316 -0.15017,0.34604 -0.2626,0.44595 -0.56009,0.4977301 -0.2005904,0.0349 -0.8747904,0.0801 -1.2009004,0.0806 -0.11463,1.4e-4 -0.46895,0.0215 -0.78738,0.0474 -0.31843,0.0259 -0.78217,0.0572 -1.03054,0.0695 -0.24837,0.0123 -0.59227,0.0329 -0.76422,0.0459 -0.17195,0.0129 -0.50933,0.0335 -0.74973,0.0457 -0.2404,0.0123 -0.59993,0.0384 -0.79896,0.0582 -0.52532,0.0521 -0.81916,0.0779 -1.06819,0.0939 -0.2757,0.0177 -0.87509,0.0896 -1.13475,0.13613 -0.10826,0.0194 -0.29063,0.0519 -0.40527,0.0723 -0.43849,0.078 -0.55078,0.20175 -0.36733,0.4048 0.0837,0.0926 0.41277,0.33502 0.65681,0.48377 0.07,0.0427 0.17427,0.11588 0.23158,0.16261 0.0573,0.0467 0.18237,0.13101 0.2779,0.18729 0.26799,0.15787 1.16225,0.75372 1.4937,0.99526 0.0637,0.0464 0.4597,0.31494 0.88002,0.59673 0.42032,0.2818 0.88406,0.60109 1.03054,0.70954 0.14647,0.10844 0.43161,0.30963 0.63365,0.44708 1.22445,0.83305 1.26618,0.87654 1.28424,1.33835 0.009,0.23943 0.009,0.24359 -0.18463,1.11159 -0.0841,0.37772 -0.11346,0.48118 -0.28573,1.00738 -0.0938,0.28659 -0.1866,0.59922 -0.20619,0.69475 -0.0544,0.26526 -0.2568,0.96605 -0.33485,1.15937 -0.0958,0.23739 -0.20064,0.54752 -0.2812,0.83223 -0.0523,0.18469 -0.12536,0.44001 -0.16246,0.56738 -0.0679,0.23307 -0.14637,0.5693 -0.17301,0.74106 -0.008,0.051 -0.0548,0.2229 -0.10417,0.38211 -0.14426,0.465039 -0.32002,1.161687 -0.3703,1.46771 -0.0261,0.158943 -0.0161,0.278076 0.0281,0.332842 0.032,0.03974 0.14462,0.03633 0.22821,-0.0069 0.13949,-0.07213 0.47609,-0.32789 0.671,-0.509836 0.11002,-0.102701 0.28233,-0.244592 0.38293,-0.315313 0.10059,-0.07072 0.30247,-0.239866 0.44862,-0.375877 0.14615,-0.136011 0.42599,-0.374493 0.62185,-0.52996 0.19587,-0.155466 0.56087,-0.449656 0.81113,-0.653746 0.49516,-0.40383 1.0989604,-0.88193 1.3853704,-1.09694 0.0997,-0.0748 0.2646,-0.20082 0.3665,-0.27996 0.10189,-0.0791 0.3251,-0.24971 0.49601,-0.37903 0.17092,-0.12932 0.3585,-0.27125 0.41685,-0.31539 0.31895,-0.2413 0.97263,-0.67639 1.04325,-0.69438 0.045,-0.0115 0.1247,-0.032 0.17713,-0.0457 0.15623,-0.0408 0.30336,-0.0265 0.60525,0.0589 0.20972,0.0593 0.64963,0.33701 1.06097,0.66974 0.0645,0.0522 0.25899,0.18982 0.43216,0.30583 0.17316,0.116 0.41217,0.28439 0.53111,0.37417 0.11895,0.0898 0.31679,0.23906 0.43965,0.33172 0.12285,0.0926 0.35702,0.26225 0.52038,0.37688 0.37741,0.26485 0.94213,0.6884 1.06259,0.79697 0.0509,0.0459 0.201,0.16155 0.33345,0.25695 0.59243,0.426728 1.12915,0.835302 1.76963,1.347115 0.26587,0.212449 0.55276,0.433758 0.63754,0.491795 0.0848,0.05804 0.20105,0.138538 0.258365,0.178888 0.116836,0.08225 0.271365,0.157573 0.324851,0.158342 0.01946,2.62e-4 0.05792,-0.01528 0.08548,-0.03459 z"
       id="path2" /></g></svg>
