<?xml version="1.0" encoding="UTF-8" standalone="no"?>
<!-- Created with Inkscape (http://www.inkscape.org/) -->

<svg
   width="100"
   height="100"
   viewBox="0 0 26.458333 26.458333"
   version="1.1"
   id="svg1"
   inkscape:version="1.4 (86a8ad7, 2024-10-11)"
   xml:space="preserve"
   sodipodi:docname="ghost_writer_images_leaf.svg"
   xmlns:inkscape="http://www.inkscape.org/namespaces/inkscape"
   xmlns:sodipodi="http://sodipodi.sourceforge.net/DTD/sodipodi-0.dtd"
   xmlns="http://www.w3.org/2000/svg"
   xmlns:svg="http://www.w3.org/2000/svg"><sodipodi:namedview
     id="namedview1"
     pagecolor="#ffffff"
     bordercolor="#000000"
     borderopacity="0.25"
     inkscape:showpageshadow="false"
     inkscape:pageopacity="0.0"
     inkscape:pagecheckerboard="0"
     inkscape:deskcolor="#d1d1d1"
     inkscape:document-units="px"
     borderlayer="false"
     inkscape:zoom="3.4030584"
     inkscape:cx="18.806613"
     inkscape:cy="114.74972"
     inkscape:window-width="2048"
     inkscape:window-height="1209"
     inkscape:window-x="-8"
     inkscape:window-y="-8"
     inkscape:window-maximized="1"
     inkscape:current-layer="layer1" /><defs
     id="defs1" /><g
     inkscape:label="Layer 1"
     inkscape:groupmode="layer"
     id="layer1"><path
       id="path1"
       d="m 25.53049,0.27129888 c -0.255455,-0.0258112 -0.496795,0.0201101 -1.412159,0.1846295 -2.152284,0.3868431 -2.846495,0.4862277 -4.521561,0.66487682 -0.513023,0.054723 -1.160568,0.1241407 -1.436832,0.1537999 C 17.52003,1.3432995 15.631282,1.622792 14.883939,1.75634 12.968148,2.0986828 11.332135,2.6349022 9.8683585,3.404737 7.787771,4.4989667 6.1688622,5.7600783 4.8620056,7.3169298 4.5614088,7.6750264 4.4418005,7.8365476 4.1816903,8.2420153 3.2467262,9.699472 2.5973691,11.300787 2.2617125,12.977456 2.1292609,13.63915 2.0856556,14.048383 2.0724504,14.728291 c -0.011229,0.580519 0.00324,0.888493 0.082284,1.524416 0.1323635,1.065013 0.3168135,1.929918 0.562594,2.607821 0.1205784,0.332567 0.6303683,1.579339 0.816273,1.999102 -0.00521,0.0071 -0.00699,0.0089 -0.012544,0.01456 -0.084195,0.09892 -0.2085441,0.240365 -0.3617551,0.403954 -0.4380685,0.467736 -0.8093864,0.880686 -1.1540227,1.283313 -0.2385975,0.278752 -0.9723677,1.229421 -1.34508939,1.739717 -0.2048701,0.2805 -0.3097602,0.42069 -0.3877046,0.555889 -0.077934,0.1352 -0.1120877,0.286187 -0.1287739,0.383876 -0.015845,0.09259 -0.03338,0.16362 -0.024311,0.278621 0.00911,0.115003 0.070297,0.243326 0.1082287,0.301268 0.059328,0.09062 0.060283,0.135133 0.2313864,0.242454 0.1393378,0.08751 0.2391293,0.101172 0.349418,0.116245 0.110219,0.01585 0.20968979,0.02934 0.37316079,-0.02277 0.337961,-0.107554 0.50223,-0.34651 0.6964583,-0.649535 0.3701698,-0.577506 1.016741,-1.430749 1.6238245,-2.144549 0.1860444,-0.218744 0.5252515,-0.59095 0.8236477,-0.907259 0.1491915,-0.15815 0.2878256,-0.303232 0.392504,-0.408689 0.017906,-0.01807 0.028168,-0.02687 0.043836,-0.04242 0.018862,0.0057 0.021832,0.0047 0.044661,0.01134 0.1666879,0.04761 0.4391734,0.134729 0.8323976,0.268591 0.9272771,0.315669 1.343958,0.418824 2.6277615,0.64511 1.1347273,0.200081 1.4937523,0.232341 2.3583058,0.216578 0.50549,-0.0092 1.5605,-0.109341 2.106596,-0.199092 1.718941,-0.282491 3.043658,-0.830257 4.474024,-1.84735 0.760119,-0.540501 1.461203,-1.151854 2.114832,-1.844441 0.934546,-0.990258 2.176631,-2.66582 2.740179,-3.713751 0.632536,-1.17621 1.548362,-3.167955 1.827525,-3.999373 0.02097,-0.06217 0.04745,-0.142623 0.05401,-0.160446 0.01681,-0.04529 0.03904,-0.109926 0.06,-0.176053 0.01797,-0.05709 0.05719,-0.175078 0.08242,-0.248741 0.03295,-0.09618 0.07184,-0.224702 0.09724,-0.316066 0.02141,-0.07899 0.08686,-0.309912 0.143283,-0.507816 0.228543,-0.801231 0.368963,-1.499936 0.688691,-3.4087708 0.401538,-2.3975924 0.511526,-2.9130601 0.837809,-3.8922981 0.04887,-0.1466712 0.124597,-0.3849259 0.171509,-0.5562205 0.03672,-0.1344393 0.118309,-0.379088 0.16426,-0.4942686 0.0966,-0.2420895 0.162572,-0.4498494 0.153152,-0.6824429 -0.0094,-0.23261352 -0.134636,-0.46459392 -0.28489,-0.61090992 -0.04981,-0.048517 -0.143054,-0.1236175 -0.248422,-0.1621911 -0.105377,-0.038569 -0.184171,-0.044568 -0.276895,-0.053918 z M 24.343631,2.0779621 c -0.03822,0.138048 -0.05362,0.1972687 -0.126894,0.4507311 -0.360777,1.2479485 -0.402036,1.4482061 -0.767616,3.5982236 -0.442975,2.6055082 -0.594343,3.2968572 -0.997265,4.5337462 -0.401513,1.232572 -1.519447,3.599909 -2.251118,4.76538 -0.514674,0.819816 -1.72208,2.34826 -2.389126,3.021849 -0.846131,0.854429 -1.514896,1.357446 -2.618877,1.971269 -0.67102,0.373085 -1.28885,0.604118 -2.160252,0.805376 -0.781186,0.180423 -2.072048,0.31878 -2.856945,0.307132 C 9.8610415,21.527169 9.7004545,21.511029 8.9781735,21.393643 8.070252,21.246304 8.0637584,21.243338 7.3335547,21.069519 6.9787791,20.985058 6.5360917,20.853852 6.1833485,20.733336 c -0.055618,-0.01863 -0.086798,-0.03522 -0.1372634,-0.05339 0.1552997,-0.158108 0.2741667,-0.279453 0.6750151,-0.67981 1.1416124,-1.140211 1.5576673,-1.579442 2.8965563,-3.051615 0.375692,-0.413095 0.5682615,-0.619624 0.6929965,-0.726643 0.124729,-0.107038 0.196675,-0.14001 0.436088,-0.254868 1.308918,-0.627902 3.394579,-1.020377 5.026728,-0.934556 0.254741,0.01381 0.441818,0.02641 0.662829,-0.06312 0.221003,-0.08931 0.380899,-0.360204 0.412463,-0.545001 0.0244,-0.145015 -0.02851,-0.389314 -0.110109,-0.504521 -0.104644,-0.147803 -0.331509,-0.278785 -0.538392,-0.314854 -0.206866,-0.03616 -0.442068,-0.04064 -0.824679,-0.04118 -1.036966,-0.0017 -2.015386,0.143662 -2.996814,0.36641 0.0247,-0.02477 0.07435,-0.07911 0.09313,-0.09721 0.06152,-0.05935 0.288049,-0.28053 0.50715,-0.495569 0.334287,-0.328092 0.749117,-0.715816 1.496836,-1.401078 0.09471,-0.08678 0.357746,-0.328159 0.587096,-0.53514 0.23306,-0.210333 0.838516,-0.760294 1.346788,-1.223771 1.130793,-1.031141 1.458784,-1.323105 1.99759,-1.7813 0.272935,-0.2321022 0.425564,-0.3629408 0.542703,-0.489492 0.117141,-0.1265472 0.200639,-0.3128774 0.222762,-0.4277049 0.01351,-0.069908 0.03427,-0.1693267 0.0034,-0.2954329 -0.03056,-0.1260436 -0.09522,-0.2093397 -0.137941,-0.2630135 -0.137774,-0.1730662 -0.375903,-0.2852494 -0.594608,-0.2778804 -0.218705,0.00738 -0.407876,0.097359 -0.573434,0.2214268 -0.07268,0.054477 -0.159064,0.1311728 -0.299145,0.2516453 -0.140086,0.1204796 -0.314998,0.2711395 -0.488541,0.4255544 -0.342314,0.3045969 -0.702598,0.6232574 -0.763941,0.6745996 -1.396506,1.1689146 -2.804492,2.4935526 -4.051245,3.6960746 0.07008,-0.304756 0.147489,-0.553417 0.207117,-0.959335 0.08654,-0.591739 0.13647,-0.94643 0.101481,-1.256825 -0.01761,-0.155211 -0.065,-0.321552 -0.187928,-0.457926 -0.122964,-0.136367 -0.290999,-0.195184 -0.418561,-0.217874 -0.0666,-0.01179 -0.153016,-0.03346 -0.278158,-0.0075 -0.125122,0.02581 -0.225049,0.09771 -0.280918,0.144972 -0.07943,0.06721 -0.204092,0.253992 -0.235616,0.405546 -0.03185,0.151511 -0.03972,0.301617 -0.05499,0.576111 -0.03924,0.69098 -0.283613,1.787823 -0.597644,2.62256 -0.437938,1.164062 -0.6392445,1.501724 -1.2967925,2.197082 -0.200749,0.21245 -0.841013,0.899845 -1.42986,1.535605 -1.1006808,1.188388 -1.6425772,1.756424 -2.6528273,2.773882 -0.1629958,0.16416 -0.23399,0.229244 -0.3355782,0.328591 C 4.767628,19.504386 4.734622,19.430385 4.6907684,19.324022 4.5161629,18.900507 4.3240925,18.395811 4.2362302,18.12857 3.9454435,17.24412 3.7135377,15.703125 3.7243836,14.697715 3.7282656,14.344803 3.7364464,14.257065 3.8672533,13.491202 4.0363797,12.501293 4.1095039,12.247003 4.4565704,11.346276 5.072625,9.747428 5.9168978,8.466932 7.0710821,7.3748575 7.9474762,6.5456244 8.8490255,5.8873818 9.9833445,5.2441147 11.148829,4.5831751 11.561055,4.3961467 12.761041,3.9986039 13.894715,3.6230294 14.456195,3.4963803 16.366152,3.1871737 17.771722,2.9596224 17.949021,2.9352534 19.007624,2.8365888 20.646647,2.683823 21.731947,2.5462418 22.834654,2.3425145 23.575471,2.2056421 24.03456,2.1249136 24.343637,2.0779466 Z"
       style="stroke-width:1.67901" /></g></svg>
