<?xml version="1.0" encoding="UTF-8" standalone="no"?>
<!-- Created with Inkscape (http://www.inkscape.org/) -->

<svg
   width="1080"
   height="1920"
   viewBox="0 0 285.75 508.00001"
   version="1.1"
   id="svg1"
   inkscape:version="1.4 (86a8ad7, 2024-10-11)"
   xml:space="preserve"
   sodipodi:docname="verse_launch_starfield_bonus.svg"
   inkscape:export-filename="verse_launch_starfield.png"
   inkscape:export-xdpi="96"
   inkscape:export-ydpi="96"
   xmlns:inkscape="http://www.inkscape.org/namespaces/inkscape"
   xmlns:sodipodi="http://sodipodi.sourceforge.net/DTD/sodipodi-0.dtd"
   xmlns="http://www.w3.org/2000/svg"
   xmlns:svg="http://www.w3.org/2000/svg"><sodipodi:namedview
     id="namedview1"
     pagecolor="#ffffff"
     bordercolor="#000000"
     borderopacity="0.25"
     inkscape:showpageshadow="false"
     inkscape:pageopacity="0.0"
     inkscape:pagecheckerboard="0"
     inkscape:deskcolor="#d1d1d1"
     inkscape:document-units="px"
     borderlayer="false"
     inkscape:zoom="0.30079071"
     inkscape:cx="558.52789"
     inkscape:cy="832.80498"
     inkscape:window-width="2048"
     inkscape:window-height="1209"
     inkscape:window-x="-8"
     inkscape:window-y="-8"
     inkscape:window-maximized="1"
     inkscape:current-layer="layer1" /><defs
     id="defs1" /><g
     inkscape:label="Layer 1"
     inkscape:groupmode="layer"
     id="layer1"><rect
       style="fill:#000000;stroke-width:123.132;stroke-linecap:square;stroke-linejoin:round;stop-color:#000000;fill-opacity:1"
       id="rect929"
       width="508"
       height="285.75"
       x="0"
       y="-285.75"
       transform="rotate(90)" /><path
       id="stars"
       style="fill:#ffffff;stroke-width:1.57821;opacity:0.5"
       d="M 136.65058 2.7419515 C 136.26321 2.7419515 135.99377 3.0992637 135.99377 3.6121827 C 135.99377 4.6298177 136.96934 4.4856031 137.17251 3.4380331 C 137.25243 3.0259791 137.03943 2.7419515 136.65058 2.7419515 z M 233.5444 4.3645915 C 233.05049 4.5287629 232.66928 4.8805936 232.47935 5.3939861 C 232.02459 6.6233641 232.42176 7.76365 233.44932 8.178829 C 234.64914 8.663717 234.70359 8.6606844 235.47503 8.0661744 C 236.69695 7.1244864 236.58282 4.9407974 235.28642 4.4612264 C 234.6453 4.2240604 234.03832 4.2004201 233.5444 4.3645915 z M 147.26801 4.8296794 C 146.32066 4.8296794 145.79151 5.7325233 146.16627 6.7091513 L 146.16627 6.709668 C 146.47387 7.51077 147.4359 7.5132729 148.09897 6.7143189 C 148.7928 5.8783099 148.33041 4.8296794 147.26801 4.8296794 z M 92.5096 8.1705608 C 92.28125 8.1705608 91.730639 8.3648188 91.286419 8.6025758 C 90.371019 9.0924848 90.185987 11.050758 90.979977 11.844755 C 92.085327 12.950119 94.237143 11.902159 94.237143 10.258289 C 94.237143 9.4292555 93.19558 8.1705608 92.5096 8.1705608 z M 194.34886 12.008053 C 193.8918 11.920035 193.61816 12.124712 193.61816 12.554789 C 193.61816 12.956011 193.8884 13.18597 194.2667 13.10721 C 195.17377 12.918346 195.22902 12.177561 194.34886 12.008053 z M 6.9964722 13.436389 C 6.7481396 13.409646 6.4923471 13.471573 6.2688681 13.657048 C 5.6721311 14.152291 5.5261423 15.3612 6.0053183 15.840377 C 6.4756413 16.310697 7.4641248 15.957295 7.9643718 15.140161 C 8.4200208 14.395852 7.7414702 13.516619 6.9964722 13.436389 z M 184.45076 14.577405 C 184.22278 14.602578 183.98289 14.704101 183.75261 14.895215 C 183.04222 15.484849 183.02015 16.196219 183.69215 16.868221 C 184.49212 17.668184 185.4627 17.252294 185.60263 16.049666 C 185.71157 15.113261 185.13469 14.501884 184.45076 14.577405 z M 52.309986 16.939535 C 51.546476 16.939535 50.849206 17.808149 51.096106 18.451587 C 51.343706 19.096822 52.721335 19.232722 53.083065 18.647441 C 53.421365 18.100055 52.896036 16.939535 52.309986 16.939535 z M 248.30681 21.215243 C 247.81177 21.229419 247.34795 21.809259 247.67067 22.331454 C 247.82498 22.581127 248.11718 22.785173 248.31973 22.785173 C 248.9647 22.785173 249.26613 21.894489 248.7843 21.412647 C 248.64029 21.268635 248.47182 21.210517 248.30681 21.215243 z M 225.77278 26.575122 C 225.58775 26.573645 225.404 26.731515 225.08756 27.047962 C 224.71159 27.423858 224.51804 28.027688 224.65709 28.389999 C 224.97951 29.229783 225.93093 29.235188 226.62338 28.400851 C 227.06719 27.866122 227.03978 27.632826 226.46577 27.058814 C 226.14403 26.737308 225.95782 26.5766 225.77278 26.575122 z M 170.87639 28.506787 C 170.67584 28.536521 170.47044 28.633742 170.28935 28.814779 C 169.975 29.128921 169.84532 29.59195 170.00099 29.843657 C 170.42108 30.523362 171.4764 30.397587 171.76988 29.632817 C 172.03688 28.937079 171.47807 28.417586 170.87639 28.506787 z M 110.43512 31.339173 C 110.20108 31.390576 109.96397 31.51577 109.75299 31.726746 C 109.23508 32.24462 109.22367 32.457479 109.68426 33.012456 L 109.68478 33.012456 C 110.42132 33.899932 111.53523 33.6394 111.69241 32.542717 C 111.81399 31.694663 111.13725 31.184963 110.43512 31.339173 z M 284.29479 32.91427 C 284.0378 32.877558 283.81317 33.029778 283.81317 33.398479 C 283.81317 33.762101 284.11047 34.05942 284.47411 34.05942 C 284.83764 34.05942 285.06111 33.836558 284.97021 33.563843 C 284.84116 33.176711 284.55179 32.950983 284.29479 32.91427 z M 53.210706 35.391639 C 52.753636 35.303607 52.480001 35.508813 52.480001 35.938892 C 52.480001 36.340114 52.750231 36.570073 53.128541 36.491313 C 54.035611 36.302464 54.090866 35.561147 53.210706 35.391639 z M 34.973576 42.490947 C 34.72668 42.408637 34.524508 42.654407 34.524508 43.037167 C 34.524508 43.419947 34.72668 43.665587 34.973576 43.583387 C 35.220456 43.501087 35.422644 43.255357 35.422644 43.037167 C 35.422644 42.818997 35.220456 42.573147 34.973576 42.490947 z M 263.38289 45.75173 C 262.54761 45.75173 262.21305 46.561091 262.80412 47.152161 C 263.25168 47.599731 263.96465 47.216341 264.1136 46.447811 C 264.20464 45.978431 263.96664 45.75173 263.38289 45.75173 z M 67.09513 46.169275 C 66.86547 46.169275 66.677584 46.357161 66.677584 46.586821 C 66.677584 46.816491 66.86547 47.004367 67.09513 47.004367 C 67.32479 47.004367 67.512676 46.816491 67.512676 46.586821 C 67.512676 46.357161 67.32479 46.169275 67.09513 46.169275 z M 9.0402752 47.93971 C 8.5452328 47.953896 8.0814013 48.533726 8.4041383 49.055921 C 8.5584533 49.305591 8.8506473 49.50964 9.0531943 49.50964 C 9.6981773 49.50964 9.9996074 48.618964 9.5177654 48.137114 C 9.3737574 47.993106 9.2052893 47.934981 9.0402752 47.93971 z M 82.068376 48.451307 C 81.79655 48.31263 81.457979 48.341852 81.190394 48.609437 C 80.872664 48.927067 80.89701 49.241832 81.27411 49.696192 C 81.86278 50.405492 82.54535 50.193217 82.54535 49.300867 C 82.54535 48.896807 82.340203 48.589983 82.068376 48.451307 z M 150.2575 50.909038 C 149.84251 50.789706 149.35626 51.187633 149.35626 51.830945 C 149.35626 52.465655 150.41452 52.667473 150.76548 52.099663 C 150.8787 51.916443 150.81685 51.516378 150.62802 51.210828 C 150.52618 51.046048 150.39583 50.948815 150.2575 50.909038 z M 204.15705 57.756682 C 203.22431 58.070022 202.73151 59.449452 203.22222 60.366342 C 203.74891 61.350472 205.4013 61.471989 206.14091 60.580799 C 207.23037 59.268089 205.78409 57.209312 204.15705 57.756682 z M 122.11193 58.073458 C 121.85087 58.043456 121.60114 58.165373 121.21431 58.421758 C 120.14879 59.127988 119.8803 60.193064 120.5606 61.012814 C 121.39539 62.018644 123.00375 61.758012 123.56507 60.526022 C 124.0054 59.559632 123.94927 59.340548 123.07879 58.635698 C 122.64582 58.285083 122.37299 58.103461 122.11193 58.073458 z M 260.13503 60.158086 C 259.91858 60.098181 259.68588 60.100205 259.45962 60.187025 C 258.76153 60.454915 258.50845 61.64708 259.03742 62.17605 C 259.5664 62.70502 260.75807 62.451934 261.02593 61.753854 C 261.28642 61.075081 260.78436 60.337801 260.13503 60.158086 z M 68.99889 64.124252 C 68.26126 64.124252 67.789474 64.811349 68.138994 65.376889 C 68.593094 66.111639 69.600404 65.823833 69.600404 64.959343 C 69.600404 64.500023 69.32982 64.124252 68.99889 64.124252 z M 184.57375 66.922014 C 183.98145 67.149284 183.81352 68.377689 184.3071 68.871249 C 184.8251 69.389259 185.87933 68.9407 186.03412 68.13641 C 186.20395 67.25448 185.41542 66.599024 184.57375 66.922014 z M 61.297034 68.353451 C 60.98652 68.367878 60.692835 68.444109 60.453675 68.593747 C 59.531005 69.171067 59.394786 70.979619 60.212346 71.797169 C 60.585706 72.170539 61.249055 72.47568 61.686675 72.47568 C 62.739925 72.47568 63.900781 70.670769 63.552711 69.574049 C 63.314241 68.822616 62.228577 68.31017 61.297034 68.353451 z M 283.62869 69.552861 C 282.93106 69.552861 282.46022 70.148631 282.84992 70.538331 C 283.34898 71.037391 284.23072 70.80812 284.23072 70.17918 C 284.23072 69.83468 283.95964 69.552861 283.62869 69.552861 z M 19.424654 75.027979 C 18.856678 74.98408 18.239714 75.504339 18.239714 76.220671 C 18.239714 76.774551 18.513691 77.069198 19.029846 77.069198 C 19.937259 77.069198 20.551348 75.873012 19.951754 75.273442 C 19.798032 75.119717 19.61398 75.042612 19.424654 75.027979 z M 109.11324 76.938457 C 108.31831 76.633427 107.4296 77.695369 107.75983 78.555929 C 107.89965 78.920259 108.34374 79.155495 108.74633 79.078895 C 109.66435 78.903915 109.94644 77.258207 109.11324 76.938457 z M 264.59212 83.015089 C 264.09709 83.029264 263.63326 83.609097 263.95598 84.1313 C 264.11031 84.38099 264.40249 84.585536 264.60504 84.585536 C 265.25001 84.585536 265.55146 83.694343 265.06961 83.212493 C 264.92561 83.06848 264.75713 83.010364 264.59212 83.015089 z M 139.12536 87.090809 C 138.78087 87.090809 138.49904 87.278685 138.49904 87.508355 C 138.49904 87.738005 138.78087 87.9259 139.12536 87.9259 C 139.46986 87.9259 139.75219 87.738005 139.75219 87.508355 C 139.75219 87.278685 139.46986 87.090809 139.12536 87.090809 z M 189.23393 87.090809 C 188.5882 87.090809 188.40399 87.583281 188.87426 88.053541 C 189.20786 88.387161 189.86025 88.0101 189.86025 87.48355 C 189.86025 87.26736 189.57843 87.090809 189.23393 87.090809 z M 115.4498 89.818291 C 115.18507 89.850547 114.89723 90.041483 114.78886 90.366578 C 114.67178 90.717878 114.86299 90.87464 115.29839 90.78464 C 115.68147 90.70528 115.98607 90.452061 115.97277 90.222401 C 115.9564 89.912461 115.71453 89.786035 115.4498 89.818291 z M 214.46443 90.027064 C 214.29056 90.03912 214.13157 90.228825 213.85207 90.60584 C 213.41202 91.19933 213.37766 91.550663 213.71977 91.962863 C 214.31944 92.685413 214.69111 92.664793 215.34913 91.871913 C 215.79369 91.336273 215.76231 91.102219 215.1662 90.514889 C 214.82706 90.180749 214.6383 90.015008 214.46443 90.027064 z M 246.49607 90.848719 C 245.7203 90.848719 245.25198 91.529517 245.61912 92.123577 C 245.99681 92.734707 246.83062 92.383471 246.99319 91.544801 C 247.07131 91.142011 246.86191 90.848719 246.49607 90.848719 z M 160.353 95.792087 C 159.2464 96.160568 158.50018 97.738518 159.46107 98.699403 C 159.73669 98.975023 160.26305 99.200664 160.63051 99.200664 C 162.25793 99.200664 162.95071 96.654656 161.53019 95.894406 C 161.13117 95.680854 160.72187 95.66926 160.353 95.792087 z M 45.098023 101.29459 C 44.431893 101.28594 43.293482 102.4674 43.293482 103.16735 C 43.293482 103.47903 43.588883 104.02911 43.949773 104.39001 C 44.807763 105.24802 45.209709 105.2178 46.206999 104.22051 C 47.320349 103.10718 46.640933 101.31459 45.098023 101.29459 z M 117.01922 101.70594 C 116.32169 101.70594 115.85075 102.3017 116.24045 102.69141 C 116.73951 103.19046 117.62073 102.9612 117.62073 102.33226 C 117.62073 101.98774 117.35016 101.70594 117.01922 101.70594 z M 84.638762 105.25508 C 84.297412 105.25508 83.951217 105.60072 83.869817 106.0235 C 83.762357 106.58151 83.932411 106.75152 84.490451 106.64414 C 85.404261 106.46817 85.533822 105.25508 84.638762 105.25508 z M 177.95968 106.29894 C 177.61518 106.29894 177.33285 106.58076 177.33285 106.92526 C 177.33285 107.26974 177.61518 107.55158 177.95968 107.55158 C 178.30418 107.55158 178.586 107.26974 178.586 106.92526 C 178.586 106.58076 178.30418 106.29894 177.95968 106.29894 z M 18.035075 111.20252 C 17.805012 111.21974 17.572428 111.4606 17.478003 111.9141 C 17.399233 112.29241 17.62976 112.56264 18.030941 112.56264 C 18.461001 112.56264 18.665738 112.28901 18.577678 111.83193 C 18.492927 111.39184 18.265139 111.18529 18.035075 111.20252 z M 242.98155 112.62362 C 242.68278 112.63946 242.37993 112.80115 241.89531 113.11868 C 240.6195 113.95462 240.43632 115.64037 241.49431 116.80941 C 242.47051 117.88813 243.93896 117.75676 244.92562 116.50245 C 245.94297 115.20912 245.6123 113.89789 244.04402 113.00499 C 243.57519 112.73801 243.28032 112.60777 242.98155 112.62362 z M 107.27666 112.96158 C 107.10459 112.99063 106.91628 113.14925 106.82656 113.4184 C 106.73471 113.69407 106.88531 113.84455 107.1609 113.75275 C 107.4365 113.66088 107.64794 113.44948 107.63064 113.28301 C 107.60482 113.03336 107.44873 112.93253 107.27666 112.96158 z M 162.47691 118.5416 C 162.32373 118.69478 162.29484 119.04286 162.47174 119.50382 C 162.68062 120.04814 162.86197 120.10216 163.23345 119.73068 C 163.60465 119.3592 163.60282 119.12596 163.22621 118.74934 C 162.90732 118.43043 162.63009 118.38843 162.47691 118.5416 z M 267.32322 121.22413 C 267.09316 121.24135 266.86109 121.48221 266.76667 121.93571 C 266.68789 122.31402 266.91793 122.58425 267.31909 122.58425 C 267.7492 122.58425 267.95392 122.3101 267.86582 121.85303 C 267.78107 121.41293 267.55328 121.2069 267.32322 121.22413 z M 245.60568 132.12527 C 245.3875 132.12527 245.14125 132.32746 245.05895 132.57434 C 244.97667 132.82125 245.2229 133.02341 245.60568 133.02341 C 245.98835 133.02341 246.2342 132.82125 246.1519 132.57434 C 246.0696 132.32746 245.82385 132.12527 245.60568 132.12527 z M 135.72298 134.27088 C 134.94051 134.27974 134.20494 134.5523 133.92051 135.08375 C 133.20538 136.42002 133.41734 137.9366 134.4166 138.6365 C 135.635 139.48991 136.08107 139.45811 137.39885 138.42153 C 138.65654 137.43224 138.8119 136.14898 137.80813 135.03982 C 137.33495 134.51694 136.50546 134.26202 135.72298 134.27088 z M 67.828935 134.27604 C 67.229495 134.27604 65.842493 135.53752 65.842493 136.08265 C 65.842493 136.31603 66.153327 136.85019 66.533407 137.27018 C 66.913507 137.69016 67.463582 138.03395 67.756072 138.03395 C 68.458202 138.03395 69.600404 136.87042 69.600404 136.155 C 69.600404 135.47396 68.471055 134.27604 67.828935 134.27604 z M 223.08148 134.27604 C 222.72345 134.27604 222.43035 134.46393 222.43035 134.69359 C 222.43035 134.92328 222.60751 135.11113 222.82361 135.11113 C 223.03972 135.11113 223.33235 134.92328 223.47422 134.69359 C 223.61617 134.46393 223.43953 134.27604 223.08148 134.27604 z M 92.619154 134.76387 C 92.419273 134.78534 92.224752 134.86837 92.065699 135.02742 C 91.820929 135.27215 91.739098 135.78067 91.883798 136.15758 C 92.218088 137.0287 93.555949 136.79684 93.741049 135.83564 C 93.865692 135.18846 93.218795 134.69947 92.619154 134.76387 z M 17.456816 138.93984 C 17.256936 138.96131 17.062413 139.04434 16.903361 139.20339 C 16.658718 139.44813 16.576895 139.95666 16.72146 140.33355 C 17.055754 141.20471 18.393602 140.97281 18.578711 140.01161 C 18.703351 139.36444 18.056455 138.87544 17.456816 138.93984 z M 170.74927 139.92479 C 170.24293 139.9504 169.73036 140.54632 169.9519 141.12369 C 170.093 141.49139 170.40804 141.79238 170.65212 141.79238 C 171.26354 141.79238 171.6815 140.56713 171.22573 140.11135 C 171.08578 139.9714 170.91805 139.91626 170.74927 139.92479 z M 103.81434 146.0562 C 103.33591 146.09053 102.88889 146.69369 103.20455 147.20445 C 103.42118 147.5549 103.65619 147.54727 104.10476 147.175 C 104.52579 146.82556 104.5783 146.53801 104.27632 146.23604 C 104.13694 146.09665 103.97381 146.04476 103.81434 146.0562 z M 257.0887 152.26099 C 256.90519 152.26099 256.72146 152.41945 256.40502 152.7359 C 256.02907 153.1118 255.83551 153.71564 255.97456 154.07794 C 256.11358 154.44023 256.61496 154.73681 257.0887 154.73681 C 258.234 154.73681 258.62558 153.5896 257.77187 152.7359 C 257.45543 152.41945 257.27221 152.26099 257.0887 152.26099 z M 184.74376 154.81587 C 183.91717 154.6567 183.37945 155.65677 183.75933 156.64677 C 184.15761 157.68461 185.4755 157.17978 185.4755 155.98945 C 185.4755 155.33744 185.20603 154.90487 184.74376 154.81587 z M 50.678044 156.20545 C 50.516364 156.19055 50.345568 156.27283 50.132858 156.44937 C 49.821348 156.70789 49.669611 157.08601 49.795411 157.28963 C 50.063781 157.7239 50.969364 157.77916 51.363274 157.38523 C 51.514384 157.2341 51.426603 156.85548 51.168453 156.54445 C 50.992183 156.33205 50.839724 156.22036 50.678044 156.20545 z M 17.404623 159.32981 C 16.619512 159.32981 15.984854 160.39187 16.384013 161.03772 C 16.513143 161.24671 16.972415 161.41806 17.404623 161.41806 C 17.83685 161.41806 18.296146 161.24666 18.425232 161.03772 C 18.824409 160.39187 18.189737 159.32981 17.404623 159.32981 z M 115.74746 162.87947 C 114.79204 162.87947 114.34317 164.28096 115.14078 164.77392 C 115.97644 165.29037 116.8414 164.73248 116.70347 163.76572 C 116.62305 163.2022 116.27478 162.87947 115.74746 162.87947 z M 210.3515 167.26369 C 209.51621 167.26369 209.18164 168.07358 209.77273 168.66464 C 210.22026 169.11221 210.93309 168.72832 211.08221 167.95978 C 211.17323 167.4904 210.93523 167.26369 210.3515 167.26369 z M 258.37183 167.68124 C 257.53655 167.68124 257.20198 168.49112 257.79305 169.08219 C 258.24063 169.52975 258.95358 169.14586 259.10253 168.37732 C 259.19355 167.90795 258.95559 167.68124 258.37183 167.68124 z M 170.08109 171.43967 C 169.30532 171.43967 168.83699 172.12048 169.20414 172.71452 C 169.58186 173.32567 170.41565 172.97441 170.57822 172.13575 C 170.65634 171.73297 170.44694 171.43967 170.08109 171.43967 z M 10.641728 171.92956 C 9.4000704 172.10558 9.0726734 173.87384 10.137366 174.65239 C 11.096019 175.35347 11.357375 175.33874 12.154814 174.54129 C 13.420335 173.27579 12.488645 171.66775 10.641728 171.92956 z M 153.32294 175.19758 C 152.97844 175.19758 152.69662 175.47941 152.69662 175.82389 C 152.69662 176.16839 152.97844 176.45021 153.32294 176.45021 C 153.66743 176.45021 153.94926 176.16839 153.94926 175.82389 C 153.94926 175.47941 153.66743 175.19758 153.32294 175.19758 z M 231.98274 178.62786 C 231.25905 178.4885 230.61366 179.59824 231.02828 180.2691 C 231.16548 180.49059 231.58797 180.61202 231.96827 180.53885 C 232.861 180.36704 232.87243 178.7991 231.98274 178.62786 z M 195.59013 190.79611 C 194.31829 191.1153 193.80337 192.35625 194.44498 193.55511 C 194.94847 194.49587 195.76081 194.62962 196.98643 193.97369 C 198.67475 193.07014 197.46831 190.32472 195.59013 190.79611 z M 61.845321 191.73765 C 60.587031 191.25478 59.338194 193.19103 60.292444 194.14526 C 60.455234 194.30873 60.971915 194.38589 61.440695 194.31889 C 62.549845 194.1601 62.868131 192.13011 61.845321 191.73765 z M 40.368596 192.54329 C 40.043268 192.57796 39.695909 192.83879 39.607919 193.2957 C 39.500459 193.85373 39.670513 194.02319 40.228553 193.91581 C 40.651323 193.83438 40.996981 193.48874 40.996981 193.14739 C 40.996981 192.69987 40.693923 192.50862 40.368596 192.54329 z M 133.10195 194.06826 C 132.85508 193.98596 132.6534 194.23171 132.6534 194.61448 C 132.6534 194.99717 132.85508 195.24352 133.10195 195.16122 C 133.34885 195.0789 133.55102 194.83267 133.55102 194.61448 C 133.55102 194.3963 133.34885 194.15056 133.10195 194.06826 z M 119.12451 194.17316 C 118.94143 194.23118 118.74745 194.35283 118.55607 194.5442 C 118.02884 195.07136 118.00218 195.3205 118.4181 195.82164 C 119.06902 196.60594 120.12652 196.23432 120.12652 195.22116 C 120.12652 194.3996 119.67375 193.9991 119.12451 194.17316 z M 276.59656 198.64627 C 276.22484 198.61361 275.87929 198.85124 275.87929 199.38628 C 275.87929 199.98386 276.14728 200.25186 276.74487 200.25186 C 277.34256 200.25186 277.56732 200.02688 277.47092 199.52581 C 277.36611 198.9815 276.96828 198.67894 276.59656 198.64627 z M 164.60753 199.44261 C 164.27306 199.433 163.89398 199.63262 163.55333 200.04309 C 163.13859 200.54278 163.13859 200.79601 163.55333 201.29573 C 163.83922 201.64023 164.21506 201.92204 164.38842 201.92204 C 165.01091 201.92204 165.65059 200.76165 165.39507 200.0958 C 165.23201 199.67086 164.94199 199.45222 164.60753 199.44261 z M 230.46656 199.4917 C 229.44058 199.34598 228.85809 200.24174 229.27386 201.32518 C 229.42478 201.71853 229.9019 201.92721 230.46656 201.84711 C 231.15669 201.74912 231.4081 201.43469 231.4081 200.66941 C 231.4081 199.90413 231.15669 199.5897 230.46656 199.4917 z M 74.708619 203.81237 C 74.202284 203.83797 73.689162 204.4339 73.910735 205.01126 C 74.051805 205.37894 74.367377 205.67995 74.611467 205.67995 C 75.222787 205.67995 75.640836 204.45469 75.185076 203.99892 C 75.045131 203.85897 74.877397 203.80383 74.708619 203.81237 z M 99.841969 211.23879 C 98.842219 211.23456 98.003482 212.40868 98.849264 213.4278 C 99.498554 214.21013 100.46524 214.06785 101.07497 213.09966 C 101.42518 212.54355 101.37061 212.21707 100.83881 211.68527 C 100.52608 211.37254 100.17522 211.2402 99.841969 211.23879 z M 13.437423 213.61384 C 13.06578 213.61384 12.878002 213.80173 13.019877 214.03138 C 13.161805 214.26105 13.349683 214.44893 13.437423 214.44893 C 13.525139 214.44893 13.713092 214.26105 13.854968 214.03138 C 13.996911 213.80173 13.809028 213.61384 13.437423 213.61384 z M 206.32333 217.08649 C 206.16004 217.21039 206.14462 217.45047 206.33676 217.76139 C 206.68351 218.32238 207.27005 218.33384 207.60852 217.78619 C 207.75147 217.55491 207.56665 217.24972 207.19769 217.1082 C 206.7979 216.95479 206.48661 216.96259 206.32333 217.08649 z M 43.293482 220.71211 C 42.488752 220.71211 42.162117 221.52946 42.736927 222.10427 C 43.311737 222.67908 44.128573 222.35193 44.128573 221.5472 C 44.128573 220.99043 43.850242 220.71211 43.293482 220.71211 z M 125.21613 228.6894 C 124.99871 228.72772 124.78995 228.82671 124.61978 228.99688 C 124.38397 229.23266 124.30915 229.73291 124.45339 230.10895 C 124.83294 231.09802 126.59848 230.7582 126.59848 229.69606 C 126.59848 229.00513 125.8684 228.57445 125.21613 228.6894 z M 182.39662 228.71627 C 182.19674 228.73774 182.0017 228.82077 181.84265 228.97982 C 181.59787 229.22455 181.51622 229.73308 181.66075 230.10999 C 181.99505 230.98113 183.3334 230.74924 183.51852 229.78804 C 183.64315 229.14087 182.99626 228.65187 182.39662 228.71627 z M 260.72259 230.61177 C 259.83188 230.9151 259.14688 232.23466 259.89008 232.97855 C 260.05287 233.14203 260.56955 233.2197 261.03833 233.1527 C 262.02932 233.01082 262.46752 231.21977 261.63675 230.70633 C 261.33947 230.5226 261.01954 230.51064 260.72259 230.61177 z M 203.95293 231.23137 C 203.44023 231.13264 203.22222 231.35797 203.22222 231.98688 C 203.22222 232.61587 203.44023 232.84129 203.95293 232.74239 C 204.35486 232.66499 204.68363 232.3251 204.68363 231.98688 C 204.68363 231.64869 204.35486 231.30867 203.95293 231.23137 z M 163.76675 236.89045 C 163.53668 236.90768 163.30412 237.14854 163.20968 237.60204 C 163.13093 237.98036 163.36093 238.25058 163.7621 238.25058 C 164.1922 238.25058 164.39694 237.97695 164.30884 237.51987 C 164.22409 237.07978 163.99681 236.87323 163.76675 236.89045 z M 15.043526 239.50321 C 14.332602 239.50321 13.884345 240.52014 14.215153 241.38217 C 14.347343 241.72667 14.719946 242.00849 15.043526 242.00849 C 15.367107 242.00849 15.865561 241.72667 16.151469 241.38217 C 16.566191 240.88245 16.566191 240.62923 16.151469 240.12953 C 15.865561 239.78503 15.367107 239.50321 15.043526 239.50321 z M 73.045155 239.57866 C 72.274465 239.46919 72.105677 239.64309 72.105677 240.54708 C 72.105677 241.45105 72.274465 241.62482 73.045155 241.51549 C 73.661825 241.42789 73.985149 241.09523 73.985149 240.54708 C 73.985149 239.99894 73.661825 239.66626 73.045155 239.57866 z M 104.25875 240.3383 C 104.02909 240.3383 103.84121 240.52617 103.84121 240.75585 C 103.84121 240.9855 104.02909 241.1734 104.25875 241.1734 C 104.48841 241.1734 104.6763 240.9855 104.6763 240.75585 C 104.6763 240.52617 104.48841 240.3383 104.25875 240.3383 z M 1.352889 244.09621 C 0.99484 244.09621 0.70176596 244.28408 0.70176596 244.51376 C 0.70176596 244.74341 0.87838684 244.93131 1.0945068 244.93131 C 1.3106108 244.93131 1.6037539 244.74341 1.7456299 244.51376 C 1.8875569 244.28408 1.710939 244.09621 1.352889 244.09621 z M 146.35128 254.55191 C 145.65483 254.5831 144.97902 254.89108 144.57774 255.464 C 143.70286 256.71306 143.75949 257.7086 144.76274 258.71186 C 145.76599 259.71512 146.76153 259.77175 148.01061 258.89686 C 149.11993 258.11987 149.23363 256.38956 148.24728 255.29966 C 147.76464 254.76631 147.04772 254.52071 146.35128 254.55191 z M 85.937908 258.36459 C 85.738027 258.38606 85.543506 258.46909 85.384453 258.62814 C 85.139663 258.87286 85.057992 259.38144 85.202552 259.75831 C 85.536852 260.62947 86.874693 260.39754 87.059803 259.43636 C 87.184446 258.78918 86.537549 258.30019 85.937908 258.36459 z M 179.68257 258.99866 C 178.88764 258.69361 177.99893 259.75554 178.32917 260.61614 C 178.46899 260.98047 178.91256 261.2157 179.31515 261.1391 C 180.23317 260.96411 180.51578 259.31838 179.68257 258.99866 z M 253.53957 259.12992 C 253.19507 259.12992 252.91273 259.41176 252.91273 259.75624 C 252.91273 260.10074 253.19507 260.38256 253.53957 260.38256 C 253.88405 260.38256 254.16588 260.10074 254.16588 259.75624 C 254.16588 259.41176 253.88405 259.12992 253.53957 259.12992 z M 30.082402 260.04356 C 29.723767 260.0745 29.332338 260.30015 29.200802 260.6952 C 29.098867 261.00135 29.386632 261.21713 29.896883 261.21713 C 30.409802 261.21713 30.766598 260.94768 30.766598 260.56033 C 30.766598 260.17668 30.441037 260.01263 30.082402 260.04356 z M 215.9584 260.35982 C 215.72873 260.3477 215.47556 260.65113 215.39616 261.0342 L 215.39667 261.0342 C 215.30648 261.46963 215.46301 261.66084 215.81422 261.54373 C 216.46432 261.32699 216.5782 260.39272 215.9584 260.35982 z M 61.649984 265.62255 C 61.117377 265.69062 60.601881 265.95529 60.316216 266.38891 C 59.844826 267.1045 59.93992 268.50962 60.4976 269.0673 C 60.7732 269.3429 61.392994 269.56856 61.875294 269.56856 C 63.671724 269.56856 64.422585 267.37351 63.084005 266.03493 C 62.7319 265.68282 62.182592 265.55448 61.649984 265.62255 z M 277.06785 267.5878 C 276.81086 267.62451 276.52147 267.85025 276.39243 268.23738 C 276.3015 268.51012 276.52488 268.73347 276.88853 268.73347 C 277.25215 268.73347 277.54947 268.43618 277.54947 268.07253 C 277.54947 267.7038 277.32483 267.5511 277.06785 267.5878 z M 105.52224 272.52445 C 105.38932 272.50566 105.24607 272.58978 105.06387 272.77198 C 104.79874 273.03714 104.70798 273.45816 104.86233 273.70784 C 105.01665 273.9575 105.30882 274.16156 105.51139 274.16156 C 106.1161 274.16156 106.31659 273.53687 105.9186 272.89291 C 105.77777 272.66505 105.65516 272.54325 105.52224 272.52445 z M 248.806 273.74402 C 247.29985 273.74402 246.51901 275.53482 247.56784 276.58364 C 248.24835 277.26413 248.96655 277.21323 249.75117 276.42861 C 250.52747 275.65231 250.53449 275.5963 249.97544 274.55172 C 249.7377 274.1075 249.2113 273.74402 248.806 273.74402 z M 207.43954 279.36848 C 206.39219 279.7009 205.91581 281.10699 206.57964 281.90683 C 207.19073 282.64317 208.30482 282.69209 208.98466 282.01225 C 210.16269 280.83421 209.01408 278.86873 207.43954 279.36848 z M 93.819597 283.55737 C 93.513367 283.55737 93.184493 283.79222 93.088893 284.0793 C 92.985383 284.38982 93.281377 284.60124 93.819597 284.60124 C 94.357787 284.60124 94.653902 284.38982 94.550302 284.0793 C 94.454612 283.79222 94.125807 283.55737 93.819597 283.55737 z M 221.38649 283.76563 C 221.04199 283.76563 220.76017 283.95404 220.76017 284.18369 C 220.76017 284.41335 221.04199 284.60124 221.38649 284.60124 C 221.73098 284.60124 222.01281 284.41335 222.01281 284.18369 C 222.01281 283.95404 221.73098 283.76563 221.38649 283.76563 z M 149.64513 286.76803 C 148.71586 286.90093 148.27006 287.93794 148.68137 289.00975 L 148.68137 289.0113 C 148.97878 289.78507 150.36176 289.78647 151.00422 289.01234 C 151.74401 288.12095 150.82266 286.59961 149.64513 286.76803 z M 34.939987 290.25464 C 34.614659 290.28931 34.267301 290.55014 34.179309 291.00705 C 34.071834 291.56508 34.241903 291.73506 34.799943 291.62768 C 35.222713 291.54627 35.568889 291.20008 35.568889 290.85873 C 35.568889 290.41121 35.265314 290.21997 34.939987 290.25464 z M 129.5461 290.86442 C 128.84857 290.86442 128.37764 291.46071 128.76734 291.85041 C 129.2664 292.34947 130.14761 292.11968 130.14761 291.49074 C 130.14761 291.14624 129.87704 290.86442 129.5461 290.86442 z M 80.210609 300.88603 C 79.358479 300.88603 78.954432 302.14352 79.665422 302.58308 C 80.031442 302.80938 80.461034 302.73095 80.819874 302.37224 C 81.470254 301.72205 81.127429 300.88603 80.210609 300.88603 z M 202.11893 300.89223 C 201.55052 300.88462 201.03316 302.05458 201.36652 302.59394 C 201.75431 303.22145 203.22975 303.02201 203.50489 302.30506 C 203.75932 301.64197 203.03605 300.90633 202.11893 300.89223 z M 223.08148 304.22639 C 222.38405 304.22639 221.91303 304.82218 222.30271 305.21186 C 222.80178 305.71094 223.68299 305.48167 223.68299 304.85271 C 223.68299 304.50822 223.41243 304.22639 223.08148 304.22639 z M 15.707569 304.31476 C 15.229132 304.3491 14.782105 304.95225 15.097787 305.46301 C 15.314412 305.81346 15.549432 305.80583 15.99799 305.43356 C 16.419023 305.08414 16.471531 304.79657 16.169556 304.4946 C 16.030168 304.35522 15.867047 304.30332 15.707569 304.31476 z M 70.411724 306.82934 C 69.672758 306.95271 69.085446 307.85532 69.384396 308.79718 C 69.809646 310.13704 71.896904 309.84638 71.896904 308.44733 C 71.896904 307.89821 71.571551 307.24394 71.173951 306.99315 C 70.921098 306.83366 70.658045 306.78821 70.411724 306.82934 z M 255.81385 307.89232 C 255.442 307.8628 255.03855 307.96347 254.64802 308.237 C 253.65229 308.93442 253.47939 310.05425 254.24908 310.82392 C 255.01524 311.59008 256.59077 311.42053 257.07268 310.52007 C 257.75728 309.24087 256.92939 307.98089 255.81385 307.89232 z M 114.71703 312.72665 C 114.14767 312.69006 113.71788 313.26864 114.00286 314.01133 C 114.31215 314.81735 114.86172 314.84796 115.48701 314.09453 C 115.84801 313.65956 115.80641 313.3955 115.31183 312.98503 C 115.1123 312.81945 114.90682 312.73885 114.71703 312.72665 z M 280.07231 315.57454 C 279.88086 315.54396 279.65388 315.56512 279.40982 315.65877 C 278.83754 315.87838 278.80367 316.04364 279.22792 316.55484 C 279.63152 317.04129 279.88001 317.07201 280.3369 316.69282 C 280.90109 316.22458 280.64668 315.66629 280.07231 315.57454 z M 22.907646 320.58199 C 21.89104 320.83769 21.182214 322.24349 22.01416 323.24591 C 22.290898 323.57939 22.84717 323.85207 23.250261 323.85207 C 24.91169 323.85207 25.426716 321.67747 23.980965 320.76699 C 23.619259 320.5392 23.246514 320.49675 22.907646 320.58199 z M 143.30133 322.18189 C 142.95334 322.18189 142.67501 322.553 142.67501 323.01698 C 142.67501 323.48092 142.95334 323.85207 143.30133 323.85207 C 143.64928 323.85207 143.92765 323.48092 143.92765 323.01698 C 143.92765 322.553 143.64928 322.18189 143.30133 322.18189 z M 174.6188 325.52225 C 174.2743 325.52225 173.99248 325.80407 173.99248 326.14857 C 173.99248 326.49305 174.2743 326.77489 174.6188 326.77489 C 174.96328 326.77489 175.24512 326.49305 175.24512 326.14857 C 175.24512 325.80407 174.96328 325.52225 174.6188 325.52225 z M 189.23961 326.98366 C 187.9505 326.98366 187.44315 327.82 187.94357 329.1241 C 188.09785 329.52597 188.60139 329.70614 189.33573 329.62174 C 190.30648 329.51008 190.48657 329.29362 190.48657 328.23682 C 190.48657 327.12458 190.34679 326.98366 189.23961 326.98366 z M 238.76786 327.68078 C 238.56798 327.70224 238.37345 327.78528 238.2144 327.94433 C 237.96962 328.18906 237.88797 328.69757 238.0325 329.07449 C 238.36678 329.94561 239.70462 329.71373 239.88975 328.75255 C 240.01438 328.10536 239.36749 327.61638 238.76786 327.68078 z M 73.204835 331.78595 C 72.429075 331.78595 71.961262 332.46676 72.328402 333.06081 C 72.706112 333.67194 73.539839 333.32069 73.702479 332.48203 C 73.780589 332.07926 73.570705 331.78595 73.204835 331.78595 z M 167.17223 332.86082 C 166.46904 333.13065 166.22916 334.32277 166.76915 334.86277 C 167.28442 335.37803 168.34074 334.93392 168.49411 334.13775 C 168.68702 333.1361 168.0523 332.52311 167.17223 332.86082 z M 136.46402 338.53851 C 136.26414 338.55998 136.0691 338.64301 135.91005 338.80206 C 135.66528 339.04679 135.58343 339.55531 135.72815 339.93223 C 136.06243 340.80337 137.40081 340.57146 137.58592 339.61028 C 137.71055 338.96309 137.06366 338.47411 136.46402 338.53851 z M 42.875936 339.30177 C 42.411956 339.30177 42.040845 339.58013 42.040845 339.92809 C 42.040845 340.27606 42.411956 340.55441 42.875936 340.55441 C 43.339906 340.55441 43.711027 340.27606 43.711027 339.92809 C 43.711027 339.58013 43.339906 339.30177 42.875936 339.30177 z M 111.33636 344.63065 C 110.85405 344.53256 110.31631 344.68298 109.91939 345.12157 C 109.13887 345.98405 109.10233 346.48371 109.77056 347.15194 C 110.93812 348.3195 112.91544 347.18509 112.42208 345.63059 C 112.24588 345.07544 111.81867 344.72873 111.33636 344.63065 z M 254.28371 344.79498 C 253.91198 344.82762 253.51364 345.13027 253.40882 345.67451 C 253.31234 346.17561 253.5373 346.40056 254.13488 346.40056 C 254.73246 346.40056 255.00098 346.13202 255.00098 345.53447 C 255.00098 344.99941 254.65543 344.76234 254.28371 344.79498 z M 206.93311 356.65989 C 206.7295 356.78574 206.5631 357.15991 206.5631 357.49084 C 206.5631 358.10465 207.45432 358.31425 207.95113 357.81744 C 208.32873 357.43982 207.39292 356.37573 206.93311 356.65989 z M 140.08654 358.73211 C 139.82181 358.76437 139.53397 358.9553 139.4256 359.2804 C 139.30853 359.63168 139.4992 359.78794 139.93461 359.69794 C 140.31767 359.61858 140.62229 359.36589 140.60899 359.13622 C 140.59262 358.82628 140.35127 358.69986 140.08654 358.73211 z M 230.86033 362.78148 C 230.5876 362.69057 230.36424 362.91341 230.36424 363.27705 C 230.36424 363.64067 230.66152 363.93851 231.02518 363.93851 C 231.76263 363.93851 231.6346 363.03956 230.86033 362.78148 z M 109.10084 365.37047 C 108.79246 365.33108 108.46671 365.40864 108.17273 365.65262 C 107.56936 366.15338 107.40574 367.36353 107.87765 367.83543 C 108.34956 368.30734 109.55972 368.14374 110.06047 367.54036 C 110.79241 366.65841 110.02595 365.48864 109.10084 365.37047 z M 10.869621 366.47841 C 10.420328 366.41051 9.9390931 366.55937 9.5539389 366.94453 C 8.8734509 367.62506 8.924862 368.34325 9.709485 369.12786 C 10.55736 369.97565 10.856993 369.95466 11.735718 368.98368 C 12.313581 368.34513 12.365999 368.00747 11.994617 367.3135 C 11.73646 366.83113 11.318914 366.5463 10.869621 366.47841 z M 187.77252 368.74029 C 187.42804 368.74029 187.08381 369.17978 187.00771 369.71697 C 186.90045 370.47439 187.04107 370.66066 187.63403 370.54638 C 188.55304 370.36936 188.67812 368.74029 187.77252 368.74029 z M 50.601046 370.41047 C 50.044286 370.41047 49.719779 370.73491 49.627979 371.38354 C 49.513299 372.19318 49.654017 372.33344 50.463587 372.21863 C 51.720687 372.04056 51.844616 370.41047 50.601046 370.41047 z M 267.51494 371.13704 C 267.0199 371.15121 266.55606 371.73105 266.8788 372.25325 C 267.03309 372.50291 267.32531 372.70697 267.52786 372.70697 C 268.17283 372.70697 268.47428 371.81627 267.99243 371.33444 C 267.84842 371.19043 267.67995 371.13232 267.51494 371.13704 z M 281.38903 374.86756 C 279.54213 374.60573 278.61041 376.21377 279.87594 377.47929 C 280.67336 378.27666 280.93524 378.29137 281.89391 377.59039 C 282.95858 376.81186 282.63069 375.04358 281.38903 374.86756 z M 11.128003 380.7411 C 10.632958 380.75529 10.16913 381.33513 10.491866 381.85732 C 10.646168 382.107 10.938376 382.31103 11.140922 382.31103 C 11.785892 382.31103 12.087337 381.42036 11.605493 380.93851 C 11.461481 380.7945 11.293018 380.73638 11.128003 380.7411 z M 76.226872 380.81604 C 75.651012 380.46013 74.856718 381.27754 75.215048 381.85732 C 75.369348 382.107 75.65241 382.31103 75.84395 382.31103 C 76.39942 382.31103 76.706432 381.11242 76.226872 380.81604 z M 143.30133 383.98173 C 142.65559 383.98173 142.47192 384.47423 142.94218 384.94447 C 143.27578 385.27809 143.92765 384.901 143.92765 384.37447 C 143.92765 384.15843 143.64582 383.98173 143.30133 383.98173 z M 178.19584 387.3221 C 176.96375 387.3221 176.32234 388.75691 177.17368 389.60826 C 177.93573 390.37028 178.54596 390.28654 179.14462 389.33748 C 179.71569 388.43212 179.19293 387.3221 178.19584 387.3221 z M 206.55019 391.18078 C 206.05514 391.19495 205.59131 391.77428 205.91405 392.29647 C 206.06834 392.54615 206.36055 392.75071 206.5631 392.75071 C 207.20809 392.75071 207.50953 391.86002 207.02768 391.37818 C 206.88366 391.23417 206.7152 391.17605 206.55019 391.18078 z M 85.781328 393.24784 C 85.324258 393.1598 85.050623 393.36451 85.050623 393.79457 C 85.050623 394.19574 85.320336 394.42569 85.698646 394.34699 C 86.605726 394.15813 86.661498 393.41731 85.781328 393.24784 z M 66.278126 394.98933 C 65.965669 394.9735 65.637219 395.08987 65.134009 395.32988 C 63.722079 396.00332 63.315439 398.09759 64.388319 399.17047 C 65.183909 399.96607 67.128645 400.06609 67.846505 399.34824 C 68.754515 398.44025 68.453534 396.17969 67.326124 395.44098 C 66.886919 395.15321 66.590582 395.00517 66.278126 394.98933 z M 238.78078 395.73606 C 238.43645 395.65032 238.03467 395.78495 237.43564 396.10554 C 236.53282 396.58873 236.36156 398.16359 237.12868 398.93069 C 237.91638 399.71839 239.47367 399.52069 239.98329 398.56844 C 240.34261 397.89703 240.29749 397.47973 239.77968 396.68949 C 239.41189 396.12818 239.1251 395.82179 238.78078 395.73606 z M 134.2006 395.82804 C 134.08049 395.81592 133.95117 395.87901 133.81199 396.01821 C 133.58235 396.24786 133.53059 396.65645 133.69727 396.92616 C 133.8993 397.25318 134.13926 397.27741 134.41764 396.99903 C 134.64727 396.76936 134.69904 396.36074 134.53236 396.09107 C 134.43135 395.92766 134.3207 395.84016 134.2006 395.82804 z M 5.282365 397.86151 C 4.7873222 397.87569 4.3234911 398.45552 4.6462281 398.97772 C 4.8005441 399.22738 5.0922213 399.43195 5.2947673 399.43195 C 5.9397513 399.43195 6.2416972 398.54076 5.7598552 398.05891 C 5.6158469 397.9149 5.4473792 397.85678 5.282365 397.86151 z M 191.14751 400.68459 C 190.28008 400.68459 190.02004 401.12294 190.5646 401.66748 C 190.95147 402.05435 191.64896 401.79039 191.85237 401.18017 C 191.94471 400.90321 191.63346 400.68459 191.14751 400.68459 z M 121.61842 409.16831 C 121.45513 409.04444 121.14379 409.03662 120.74405 409.19001 C 120.37511 409.33158 120.19023 409.63673 120.33322 409.86801 C 120.67168 410.41572 121.25824 410.40424 121.60498 409.8432 C 121.79714 409.5322 121.78171 409.29219 121.61842 409.16831 z M 136.16172 416.85931 C 135.75538 416.45294 134.74113 417.0108 134.74113 417.64066 C 134.74113 417.96059 135.11688 418.22254 135.57622 418.22254 C 136.36232 418.22254 136.71164 417.40919 136.16172 416.85931 z M 157.60278 419.13669 C 156.88302 418.99809 156.5857 419.8844 157.1594 420.45806 C 157.59709 420.89577 158.33349 420.52256 158.33349 419.86327 C 158.33349 419.54106 158.00469 419.21399 157.60278 419.13669 z M 33.984489 425.05778 C 33.864387 425.04566 33.734556 425.10876 33.595366 425.24795 C 33.365729 425.47762 33.313966 425.88623 33.480644 426.1559 C 33.68267 426.48274 33.923149 426.50716 34.20153 426.22877 C 34.431167 425.99911 34.482929 425.59051 34.316252 425.32081 C 34.215238 425.1574 34.104591 425.0699 33.984489 425.05778 z M 194.66202 427.40854 C 194.31752 427.40854 194.0357 427.69038 194.0357 428.03486 C 194.0357 428.37936 194.31752 428.66118 194.66202 428.66118 C 195.0065 428.66118 195.28834 428.37936 195.28834 428.03486 C 195.28834 427.69038 195.0065 427.40854 194.66202 427.40854 z M 240.35019 428.05708 C 240.13281 428.19153 240.06484 428.4793 240.19929 428.69683 L 240.19929 428.69735 C 240.33374 428.91472 240.62152 428.9827 240.83905 428.84825 C 241.05643 428.71381 241.12438 428.42553 240.98994 428.20798 C 240.85549 427.9906 240.56772 427.92264 240.35019 428.05708 z M 75.903895 431.79329 C 74.587345 431.79329 73.840242 432.95207 74.582012 433.84587 C 75.266012 434.66997 76.027779 434.69023 76.682659 433.90117 C 77.468909 432.95381 77.040145 431.79329 75.903895 431.79329 z M 257.29748 432.21083 C 256.74072 432.21083 256.41641 432.53527 256.32441 433.1839 C 256.20975 433.99354 256.34991 434.1338 257.1595 434.01899 C 258.41664 433.8409 258.54107 432.21083 257.29748 432.21083 z M 16.687354 435.82508 C 16.315632 435.85772 15.917288 436.16036 15.812472 436.70461 C 15.715978 437.20568 15.940953 437.43067 16.538526 437.43067 C 17.136116 437.43067 17.404623 437.16215 17.404623 436.56457 C 17.404623 436.02951 17.059075 435.79244 16.687354 435.82508 z M 166.79137 437.86372 C 166.43145 437.8699 166.0575 438.01622 165.72477 438.34896 C 165.06788 439.00589 165.08099 440.64399 165.74544 440.91211 C 166.85005 441.35783 167.71677 441.15613 168.14633 440.35349 C 168.82297 439.08918 167.87114 437.84517 166.79137 437.86372 z M 106.90872 440.77103 C 106.19783 440.77103 105.74904 441.78796 106.07983 442.64999 C 106.21203 442.99447 106.58515 443.27631 106.90872 443.27631 C 107.23231 443.27631 107.73075 442.99447 108.01666 442.64999 C 108.43138 442.15028 108.43138 441.89705 108.01666 441.39735 C 107.73075 441.05285 107.23231 440.77103 106.90872 440.77103 z M 218.72464 443.76465 C 218.52475 443.78612 218.33024 443.86915 218.17118 444.0282 C 217.9266 444.27291 217.84475 444.78146 217.98928 445.15836 C 218.32359 446.02952 219.66142 445.79762 219.84653 444.83642 C 219.97117 444.18924 219.32428 443.70025 218.72464 443.76465 z M 191.09997 445.46429 C 190.60492 445.47847 190.1411 446.05831 190.46383 446.5805 C 190.61813 446.83018 190.91033 447.03422 191.11288 447.03422 C 191.75785 447.03422 192.0593 446.14354 191.57746 445.66169 C 191.43344 445.51769 191.26498 445.45956 191.09997 445.46429 z M 53.996705 453.71546 C 53.220945 453.71546 52.753132 454.39628 53.120272 454.99032 C 53.497972 455.60148 54.331699 455.25022 54.494349 454.41154 C 54.572469 454.00875 54.362545 453.71546 53.996705 453.71546 z M 274.73517 458.05112 C 274.5507 458.06013 274.35876 458.21824 274.04529 458.53171 C 273.50334 459.07365 273.45443 459.36392 273.82825 459.81432 C 274.44955 460.56286 274.81538 460.54857 275.4788 459.7492 C 275.92069 459.21674 275.90364 458.98911 275.38113 458.46659 C 275.09683 458.18235 274.91964 458.0421 274.73517 458.05112 z M 154.79004 458.51775 C 154.4487 458.51775 154.10301 458.86344 154.02161 459.28618 C 153.91413 459.84421 154.0842 460.0142 154.64224 459.90682 C 155.55608 459.73084 155.68511 458.51775 154.79004 458.51775 z M 137.45259 465.15507 C 137.0839 465.01713 136.61697 465.03521 136.33638 465.31579 C 136.09636 465.55593 136.03209 465.96705 136.19427 466.22943 C 136.56321 466.82639 137.74468 466.62774 137.97711 465.9297 C 138.09126 465.58689 137.82128 465.29302 137.45259 465.15507 z M 95.52957 467.26192 C 95.02532 467.57357 94.91234 468.86626 95.35077 469.30469 C 95.785708 469.73929 96.17803 469.63692 96.759986 468.93572 C 97.202606 468.40247 97.181594 468.17291 96.642164 467.63348 C 96.282024 467.27211 95.78126 467.10624 95.52957 467.26192 z M 27.083102 467.98333 C 26.0665 468.23904 25.358199 469.64483 26.190133 470.64725 C 26.466886 470.98073 27.023158 471.25341 27.426233 471.25341 C 29.087664 471.25341 29.602705 469.07881 28.156938 468.16833 C 27.795231 467.94054 27.421969 467.89809 27.083102 467.98333 z M 246.51054 468.56985 C 245.80735 468.83968 245.56696 470.0318 246.10694 470.5718 C 246.6222 471.08706 247.67871 470.64293 247.8319 469.84678 C 248.0248 468.84512 247.39061 468.23214 246.51054 468.56985 z M 114.21732 474.43565 C 114.0401 474.56972 113.94655 474.8095 114.08916 475.04026 C 114.22131 475.25401 114.5066 475.42938 114.72271 475.42938 C 115.17164 475.42938 115.24531 474.86315 114.84829 474.46613 C 114.6555 474.27333 114.39454 474.30157 114.21732 474.43565 z M 80.665878 477.09957 C 78.907438 477.09957 78.181974 478.93996 79.443214 480.20118 C 80.279284 481.03724 80.828212 481.02933 81.781572 480.16656 C 83.147782 478.93015 82.481748 477.09957 80.665878 477.09957 z M 216.64104 481.51325 C 216.30154 481.48537 215.90208 481.7192 215.58581 482.22638 C 215.23089 482.7959 215.26008 483.0549 215.71138 483.33639 C 216.60071 483.89107 217.4797 483.36893 217.33712 482.37056 C 217.26015 481.83106 216.98054 481.54112 216.64104 481.51325 z M 175.24512 486.49486 C 174.90692 486.49486 174.56691 486.82365 174.48961 487.22556 C 174.39086 487.73828 174.61621 487.95627 175.24512 487.95627 C 175.87411 487.95627 176.10005 487.73828 176.00115 487.22556 C 175.92373 486.82365 175.58332 486.49486 175.24512 486.49486 z M 141.92312 487.74749 C 141.53988 487.77093 141.14656 487.89705 140.77384 488.14127 C 139.57667 488.92569 139.38671 490.87225 140.40797 491.89349 C 141.97962 493.46513 144.4852 492.1631 144.26355 489.89 C 144.13098 488.53047 143.07284 487.67718 141.92312 487.74749 z M 35.529615 491.29663 C 34.798935 491.29663 34.435538 492.5655 34.978744 493.22003 C 35.320315 493.63142 35.661873 493.66978 36.238615 493.36111 C 36.673838 493.1282 37.030298 492.79417 37.030298 492.61851 C 37.030298 492.1275 36.087087 491.29663 35.529615 491.29663 z M 9.7823487 491.79221 C 8.8637337 491.61713 8.3772828 492.7795 9.0366578 493.57401 C 9.3088068 493.902 9.8099148 494.06336 10.149768 493.93316 C 10.982969 493.61343 10.700362 491.96717 9.7823487 491.79221 z M 242.25137 492.17875 C 241.77951 492.11979 241.27195 492.33459 240.73208 492.82315 C 239.7844 493.68066 239.761 494.55142 240.65921 495.54392 L 240.65973 495.54392 C 241.62082 496.60592 242.7482 496.497 243.5562 495.26383 C 244.18983 494.29681 244.18983 494.14263 243.5562 493.17559 C 243.15939 492.56998 242.72322 492.2377 242.25137 492.17875 z M 285.75 492.81954 C 285.00222 493.44337 284.69589 494.51822 285.56655 495.38889 C 285.60323 495.42557 285.70225 495.42106 285.75 495.45555 L 285.75 492.81954 z M 194.538 500.97046 C 193.91973 500.99225 193.48055 501.60997 193.76957 502.36314 C 193.93066 502.78297 194.39562 502.99559 194.97363 502.91349 C 196.08922 502.75509 196.21006 501.80398 195.19584 501.16425 C 194.9702 501.02191 194.74409 500.9632 194.538 500.97046 z M 124.29526 501.02162 C 123.64773 501.16949 123.10736 501.81862 123.33614 502.41482 C 123.65586 503.24801 125.3016 502.96591 125.47658 502.04791 C 125.5533 501.64528 125.31801 501.20117 124.95361 501.06141 C 124.73847 500.97886 124.5111 500.97233 124.29526 501.02162 z M 26.73997 501.1689 C 26.161621 501.14383 25.64447 501.67935 25.89041 502.32025 C 26.204757 503.13939 26.75164 503.17535 27.380241 502.41792 C 27.737196 501.98787 27.720635 501.73608 27.313062 501.39782 C 27.132614 501.24806 26.932753 501.17725 26.73997 501.1689 z M 263.37669 502.15333 C 262.81609 502.15333 262.42109 502.91384 262.72557 503.40649 C 263.16199 504.11262 263.76995 503.86964 263.76995 502.98894 C 263.76995 502.52963 263.59282 502.15333 263.37669 502.15333 z M 83.826409 505.72056 C 83.329969 505.41376 82.831138 506.19587 83.171668 506.74685 L 83.170635 506.74685 C 83.312565 506.97651 83.605638 507.1644 83.821758 507.1644 C 84.330648 507.1644 84.333599 506.03403 83.826409 505.72056 z " /></g></svg>
