<?xml version="1.0" encoding="UTF-8" standalone="no"?>
<!-- Created with Inkscape (http://www.inkscape.org/) -->

<svg
   width="62"
   height="76"
   viewBox="0 0 16.404167 20.108333"
   version="1.1"
   id="svg1"
   inkscape:version="1.4 (86a8ad7, 2024-10-11)"
   sodipodi:docname="pointer.svg"
   xmlns:inkscape="http://www.inkscape.org/namespaces/inkscape"
   xmlns:sodipodi="http://sodipodi.sourceforge.net/DTD/sodipodi-0.dtd"
   xmlns="http://www.w3.org/2000/svg"
   xmlns:svg="http://www.w3.org/2000/svg">
  <sodipodi:namedview
     id="namedview1"
     pagecolor="#ffffff"
     bordercolor="#000000"
     borderopacity="0.25"
     inkscape:showpageshadow="false"
     inkscape:pageopacity="0.0"
     inkscape:pagecheckerboard="0"
     inkscape:deskcolor="#d1d1d1"
     inkscape:document-units="px"
     borderlayer="false"
     inkscape:zoom="4.8126513"
     inkscape:cx="49.452991"
     inkscape:cy="63.062953"
     inkscape:window-width="2048"
     inkscape:window-height="1209"
     inkscape:window-x="-8"
     inkscape:window-y="-8"
     inkscape:window-maximized="1"
     inkscape:current-layer="layer1" />
  <defs
     id="defs1" />
  <g
     inkscape:label="Layer 1"
     inkscape:groupmode="layer"
     id="layer1">
    <g
       id="g7"
       transform="matrix(0.02660444,0,0,0.02660444,19.985454,-194.15645)">
      <path
         style="fill:#e6b349;fill-opacity:1"
         d="m -387.5,8052.829 c -36.52408,-2.6103 -75.36997,-17.8001 -120.42779,-47.0905 -32.16713,-20.9106 -57.93673,-42.4905 -94.57221,-79.1963 -47.24704,-47.3376 -102.94102,-116.479 -134.84674,-167.4057 -13.55993,-21.6439 -14.45311,-23.6734 -13.65062,-31.0171 2.23587,-20.4611 8.3537,-35.3646 18.80877,-45.8197 11.27979,-11.2798 24.05931,-16.6408 41.73658,-17.5085 21.45625,-1.0532 42.0476,4.6801 65.70201,18.2938 l 9.25,5.3236 v -166.2442 c 0,-184.0568 -0.46274,-170.987 6.55583,-185.1644 8.46086,-17.0908 27.66823,-32.6438 45.80184,-37.0877 8.26746,-2.026 23.04608,-2.2465 30.64233,-0.4571 17.50669,4.1239 35.20649,18.6223 43.99601,36.0382 6.60808,13.0935 6.37675,10.5094 6.96665,77.8174 l 0.53734,61.3109 4,-3.3794 c 9.59973,-8.1103 21.78787,-14.8011 31.77533,-17.4435 8.48938,-2.246 25.30806,-2.1834 33.16495,0.1235 16.23458,4.7668 31.22031,16.7531 38.55972,30.8421 1.925,3.6953 3.99276,6.7225 4.59501,6.7272 0.60226,0 1.95226,-0.945 3,-2.1102 3.32783,-3.701 13.82653,-10.7053 21.52893,-14.3631 19.38833,-9.2075 40.1845,-8.2825 58.55894,2.6045 7.35499,4.3579 18.02092,14.7749 22.80193,22.2696 4.25147,6.6647 8.92498,18.7977 9.94166,25.8099 l 0.68178,4.7024 6.19587,-5.009 c 12.54923,-10.1453 26.69261,-15.1707 42.69588,-15.1707 11.63386,0 19.66988,1.9615 29.95229,7.311 19.15292,9.9644 34.0203,28.3344 38.00948,46.964 0.88097,4.1141 1.08595,39.2644 0.8135,139.5 -0.40467,148.8858 -7.6e-4,139.5937 -7.34123,168.8847 -12.10539,48.3046 -42.77584,96.1117 -81.43404,126.934 -47.78526,38.0994 -106.60563,57.1121 -164,53.0103 z"
         id="path5" />
      <path
         style="fill:#ffc751;fill-opacity:1"
         d="m -342.53409,8017.9042 c 29.61795,-4.3876 59.07688,-15.7888 85.0558,-32.9185 43.13806,-28.4439 75.99885,-73.791 88.9107,-122.6947 C -161.58475,7835.8435 -162,7846.0415 -162,7701 v -131 l -2.70897,-5.7812 c -4.14514,-8.8462 -12.2221,-16.6672 -21.90556,-21.2113 -7.27312,-3.4131 -8.94602,-3.8084 -16.24673,-3.8389 -18.14743,-0.076 -34.31985,9.91 -41.83475,25.8314 l -3.30399,7 -0.5,36.5 c -0.5539,40.4345 -0.68253,41.2331 -7.18264,44.5944 -3.92577,2.0301 -11.03997,1.4069 -13.99596,-1.2261 -4.76857,-4.2476 -4.8214,-4.9237 -4.8214,-61.6997 0,-31.6854 -0.4097,-55.556 -1.00765,-58.7089 -1.59929,-8.4331 -5.4227,-15.5768 -11.52609,-21.5356 -14.99042,-14.6353 -34.71203,-17.1244 -52.73643,-6.6559 -7.33742,4.2615 -14.77781,12.0059 -18.40155,19.1533 L -361,7528 l -0.5,49.5 c -0.4769,47.2127 -0.59242,49.6569 -2.5,52.8955 -3.21215,5.4533 -6.77361,7.5331 -12.90016,7.5331 -4.33854,0 -6.05416,-0.5378 -9.08061,-2.8461 -6.64355,-5.0673 -6.51734,-3.8837 -6.53659,-61.3004 -0.019,-56.596 -0.37175,-60.9599 -5.65918,-70.0054 -9.13008,-15.6193 -27.03628,-23.2882 -44.13853,-18.9037 -13.68401,3.5081 -23.33114,12.6661 -28.54585,27.0985 -0.7275,2.0135 -1.26935,24.5041 -1.61667,67.1029 l -0.52241,64.0745 -2.5,3.6904 c -3.49955,5.1659 -9.74172,8.0361 -16.14003,7.4213 -5.29693,-0.509 -8.91052,-2.6085 -12.29818,-7.1454 -2.05404,-2.7508 -2.06371,-3.2957 -2.57194,-144.9382 -0.36203,-100.8955 -0.83392,-143.065 -1.62525,-145.2354 -4.56184,-12.5119 -12.81551,-21.2217 -24.11751,-25.4503 -6.90474,-2.5834 -18.66478,-2.7979 -26.61934,-0.4854 -11.52353,3.35 -22.32011,13.0593 -27.84355,25.0397 L -589,7361 l -0.5,188.2973 -0.5,188.2972 -12.83084,-9.091 c -32.75008,-23.2046 -54.00524,-33.2545 -73.66916,-34.8325 -11.26044,-0.9037 -17.8726,0.02 -24.63547,3.4418 -8.65871,4.3809 -15.06486,12.8799 -18.00518,23.8872 -2.10519,7.881 -1.69907,11.2134 2.24454,18.417 10.88706,19.8868 42.40844,62.7833 72.78179,99.0465 41.99754,50.1414 93.15891,99.2216 133.2074,127.7885 24.30101,17.3341 52.68189,33.2008 75.40692,42.1572 11.69196,4.6081 33.32496,9.9267 44.88636,11.0357 12.23805,1.1739 34.59003,0.4576 48.07955,-1.5407 z"
         id="path7" />
    </g>
  </g>
</svg>
