<?xml version="1.0" encoding="UTF-8" standalone="no"?>
<!-- Created with Inkscape (http://www.inkscape.org/) -->

<svg
   width="100"
   height="100"
   viewBox="0 0 26.458333 26.458333"
   version="1.1"
   id="svg1"
   inkscape:version="1.4 (86a8ad7, 2024-10-11)"
   sodipodi:docname="verse_spalt_paint_blob_2.svg"
   xmlns:inkscape="http://www.inkscape.org/namespaces/inkscape"
   xmlns:sodipodi="http://sodipodi.sourceforge.net/DTD/sodipodi-0.dtd"
   xmlns="http://www.w3.org/2000/svg"
   xmlns:svg="http://www.w3.org/2000/svg">
  <sodipodi:namedview
     id="namedview1"
     pagecolor="#ffffff"
     bordercolor="#000000"
     borderopacity="0.25"
     inkscape:showpageshadow="false"
     inkscape:pageopacity="0.0"
     inkscape:pagecheckerboard="0"
     inkscape:deskcolor="#d1d1d1"
     inkscape:document-units="px"
     borderlayer="false"
     inkscape:zoom="4.8126513"
     inkscape:cx="91.633483"
     inkscape:cy="38.336457"
     inkscape:window-width="2048"
     inkscape:window-height="1209"
     inkscape:window-x="-8"
     inkscape:window-y="-8"
     inkscape:window-maximized="1"
     inkscape:current-layer="layer1" />
  <defs
     id="defs1" />
  <g
     inkscape:label="Layer 1"
     inkscape:groupmode="layer"
     id="layer1">
    <path
       style="fill:#000000;stroke-width:0.46572"
       d="M 4.6919025,20.233581 C 4.4372804,19.861718 4.0883031,19.181675 3.916397,18.722377 3.604774,17.889784 3.5730565,17.481788 3.5671532,14.229613 3.5634351,12.181896 2.9981822,10.517911 1.50392,8.1559182 0.06451333,5.8806383 -0.08690969,3.9412116 1.0391342,2.2029826 1.79181,1.0411116 3.4544172,0.17669855 5.0172547,0.13470655 c 1.7397336,-0.04675 3.1825351,0.580385 5.3258223,2.31493405 1.620497,1.311461 2.723498,1.939441 4.174047,2.376454 1.172394,0.353213 2.549561,0.397933 4.76148,0.154625 2.07264,-0.227982 3.602543,0.190806 5.012355,1.3720636 1.833324,1.5361133 2.369625,3.6981568 1.387735,5.5945338 -0.162111,0.313097 -0.678073,1.057767 -1.146581,1.654823 -1.580988,2.014761 -1.791942,2.999169 -1.236736,5.771298 0.400913,2.001772 0.228999,3.184078 -0.656132,4.512355 -1.515437,2.274143 -4.550085,3.008546 -8.234878,1.992888 C 12.177402,25.264848 9.1715196,23.96042 7.4773247,22.872619 6.4175472,22.192164 5.3227299,21.154884 4.6917456,20.233747 Z"
       id="path6" />
  </g>
</svg>
