<?xml version="1.0" encoding="UTF-8" standalone="no"?>
<!-- Created with Inkscape (http://www.inkscape.org/) -->

<svg
   width="646"
   height="1000"
   viewBox="0 0 170.92083 264.58333"
   version="1.1"
   id="svg1"
   inkscape:version="1.4 (86a8ad7, 2024-10-11)"
   xml:space="preserve"
   sodipodi:docname="intro.svg"
   xmlns:inkscape="http://www.inkscape.org/namespaces/inkscape"
   xmlns:sodipodi="http://sodipodi.sourceforge.net/DTD/sodipodi-0.dtd"
   xmlns="http://www.w3.org/2000/svg"
   xmlns:svg="http://www.w3.org/2000/svg"><sodipodi:namedview
     id="namedview1"
     pagecolor="#ffffff"
     bordercolor="#000000"
     borderopacity="0.25"
     inkscape:showpageshadow="false"
     inkscape:pageopacity="0.0"
     inkscape:pagecheckerboard="0"
     inkscape:deskcolor="#d1d1d1"
     inkscape:document-units="px"
     borderlayer="false"
     inkscape:zoom="0.60158141"
     inkscape:cx="332.45708"
     inkscape:cy="280.92623"
     inkscape:window-width="2048"
     inkscape:window-height="1209"
     inkscape:window-x="-8"
     inkscape:window-y="-8"
     inkscape:window-maximized="1"
     inkscape:current-layer="layer1" /><defs
     id="defs1">
  <filter id="whiteBulbGlow" x="-80%" y="-80%" width="260%" height="260%">
    <feGaussianBlur in="SourceGraphic" stdDeviation="2.4" result="blur1" />
    <feGaussianBlur in="SourceGraphic" stdDeviation="5.4" result="blur2" />
    <feMerge>
      <feMergeNode in="blur2" />
      <feMergeNode in="blur1" />
      <feMergeNode in="SourceGraphic" />
    </feMerge>
  </filter>

  <filter id="yellowBulbGlow" x="-80%" y="-80%" width="260%" height="260%">
    <feGaussianBlur in="SourceGraphic" stdDeviation="2.6" result="blur1" />
    <feGaussianBlur in="SourceGraphic" stdDeviation="6.2" result="blur2" />
    <feMerge>
      <feMergeNode in="blur2" />
      <feMergeNode in="blur1" />
      <feMergeNode in="SourceGraphic" />
    </feMerge>
  </filter>

  <style id="introSvgAnimations">
    #background {
      animation: introRainbowPulse 7s ease-in-out infinite;
    }

    #white-lights {
      animation: whiteLightGlow 1.4s ease-in-out infinite;
    }

    #yellow-lights {
      animation: yellowLightGlow 1.4s ease-in-out infinite;
    }

    @keyframes introRainbowPulse {
      0% {
        fill: #ff5a51;
      }

      16% {
        fill: #ff9e3d;
      }

      32% {
        fill: #ffc751;
      }

      48% {
        fill: #a7cb6f;
      }

      64% {
        fill: #40b9c5;
      }

      80% {
        fill: #7f66c6;
      }

      100% {
        fill: #ff5a51;
      }
    }

    @keyframes whiteLightGlow {
      0%,
      100% {
        fill: #ffffff;
        opacity: 1;
        filter: url(#whiteBulbGlow);
      }

      50% {
        fill: #d9d9d9;
        opacity: .48;
        filter: none;
      }
    }

    @keyframes yellowLightGlow {
      0%,
      100% {
        fill: #8a6210;
        opacity: .50;
        filter: none;
      }

      50% {
        fill: #fff1a7;
        opacity: 1;
        filter: url(#yellowBulbGlow);
      }
    }
  </style>
</defs><g
     inkscape:label="Layer 1"
     inkscape:groupmode="layer"
     id="layer1"><rect
       style="fill:#a7cb6f;fill-opacity:1;stroke-width:0.197963;stroke-linecap:round;stroke-linejoin:round"
       id="background"
       width="138.54961"
       height="233.83331"
       x="16.185486"
       y="15.375033"
       rx="0"
       ry="0" /><path
       id="path38"
       style="opacity:0.15;fill:#000000;stroke-width:0.234597;stroke-linecap:round;stroke-linejoin:round"
       d="M 17.29592,17.248627 V 247.33467 H 153.62495 V 17.248627 Z m 4.918557,6.751083 H 148.70634 V 240.58363 H 22.214477 Z" /><path
       id="rect1"
       style="fill:#333333;stroke-width:0.225431;stroke-linecap:round;stroke-linejoin:round"
       d="m 10.547458,259.74542 c -4.1520449,0 -7.4947511,-3.34276 -7.4947511,-7.49479 V 12.332692 c 0,-4.1520429 3.3427062,-7.494749 7.4947511,-7.494749 H 160.37334 c 4.15214,0 7.49479,3.3427061 7.49479,7.494749 V 252.25063 c 0,4.15203 -3.34265,7.49479 -7.49479,7.49479 z m 9.412688,-16.90748 H 150.96065 V 21.745379 H 19.960146 Z" /><path
       id="white-lights"
       style="fill:#ffffff;fill-opacity:1;stroke-width:0.22242;stroke-linecap:round;stroke-linejoin:round"
       d="m 33.225451,8.3929116 a 4.8989718,4.8989718 0 0 0 -4.898756,4.8987604 4.8989718,4.8989718 0 0 0 4.898756,4.899193 4.8989718,4.8989718 0 0 0 4.899204,-4.899193 4.8989718,4.8989718 0 0 0 -4.899204,-4.8987604 z m 41.78781,0 a 4.8989718,4.8989718 0 0 0 -4.898756,4.8987604 4.8989718,4.8989718 0 0 0 4.898756,4.899193 4.8989718,4.8989718 0 0 0 4.899194,-4.899193 4.8989718,4.8989718 0 0 0 -4.899194,-4.8987604 z m 41.788249,0 a 4.8989718,4.8989718 0 0 0 -4.89915,4.8987604 4.8989718,4.8989718 0 0 0 4.89915,4.899193 4.8989718,4.8989718 0 0 0 4.8987,-4.899193 4.8989718,4.8989718 0 0 0 -4.8987,-4.8987604 z m 42.61289,0 a 4.8989718,4.8989718 0 0 0 -4.89915,4.8987604 4.8989718,4.8989718 0 0 0 4.89915,4.899193 4.8989718,4.8989718 0 0 0 4.8988,-4.899193 4.8989718,4.8989718 0 0 0 -4.8988,-4.8987604 z M 11.506437,30.029164 a 4.8989718,4.8989718 0 0 0 -4.8991942,4.898753 4.8989718,4.8989718 0 0 0 4.8991942,4.899194 4.8989718,4.8989718 0 0 0 4.898746,-4.899194 4.8989718,4.8989718 0 0 0 -4.898746,-4.898753 z M 159.4144,51.665396 a 4.8989718,4.8989718 0 0 0 -4.89915,4.899195 4.8989718,4.8989718 0 0 0 4.89915,4.89876 4.8989718,4.8989718 0 0 0 4.8988,-4.89876 4.8989718,4.8989718 0 0 0 -4.8988,-4.899195 z M 11.506437,73.301646 a 4.8989718,4.8989718 0 0 0 -4.8991942,4.899195 4.8989718,4.8989718 0 0 0 4.8991942,4.898751 4.8989718,4.8989718 0 0 0 4.898746,-4.898751 4.8989718,4.8989718 0 0 0 -4.898746,-4.899195 z M 159.4144,94.938331 a 4.8989718,4.8989718 0 0 0 -4.89915,4.898751 4.8989718,4.8989718 0 0 0 4.89915,4.899228 4.8989718,4.8989718 0 0 0 4.8988,-4.899228 4.8989718,4.8989718 0 0 0 -4.8988,-4.898751 z M 11.506437,116.57462 a 4.8989718,4.8989718 0 0 0 -4.8991942,4.89869 4.8989718,4.8989718 0 0 0 4.8991942,4.89926 4.8989718,4.8989718 0 0 0 4.898746,-4.89926 4.8989718,4.8989718 0 0 0 -4.898746,-4.89869 z M 159.4144,138.21077 a 4.8989718,4.8989718 0 0 0 -4.89915,4.89926 4.8989718,4.8989718 0 0 0 4.89915,4.89869 4.8989718,4.8989718 0 0 0 4.8988,-4.89869 4.8989718,4.8989718 0 0 0 -4.8988,-4.89926 z M 11.506437,159.84703 a 4.8989718,4.8989718 0 0 0 -4.8991942,4.89926 4.8989718,4.8989718 0 0 0 4.8991942,4.89869 4.8989718,4.8989718 0 0 0 4.898746,-4.89869 4.8989718,4.8989718 0 0 0 -4.898746,-4.89926 z M 159.4144,181.48375 a 4.8989718,4.8989718 0 0 0 -4.89915,4.8988 4.8989718,4.8989718 0 0 0 4.89915,4.89915 4.8989718,4.8989718 0 0 0 4.8988,-4.89915 4.8989718,4.8989718 0 0 0 -4.8988,-4.8988 z M 11.506437,203.12001 a 4.8989718,4.8989718 0 0 0 -4.8991942,4.89869 4.8989718,4.8989718 0 0 0 4.8991942,4.89927 4.8989718,4.8989718 0 0 0 4.898746,-4.89927 4.8989718,4.8989718 0 0 0 -4.898746,-4.89869 z M 159.4144,224.75627 a 4.8989718,4.8989718 0 0 0 -4.89915,4.89916 4.8989718,4.8989718 0 0 0 4.89915,4.8988 4.8989718,4.8989718 0 0 0 4.8988,-4.8988 4.8989718,4.8989718 0 0 0 -4.8988,-4.89916 z M 11.506437,246.39244 a 4.8989718,4.8989718 0 0 0 -4.8991942,4.89925 4.8989718,4.8989718 0 0 0 4.8991942,4.89869 4.8989718,4.8989718 0 0 0 4.898746,-4.89869 4.8989718,4.8989718 0 0 0 -4.898746,-4.89925 z m 42.612924,0 a 4.8989718,4.8989718 0 0 0 -4.898756,4.89925 4.8989718,4.8989718 0 0 0 4.898756,4.89869 4.8989718,4.8989718 0 0 0 4.899184,-4.89869 4.8989718,4.8989718 0 0 0 -4.899184,-4.89925 z m 41.788238,0 a 4.8989718,4.8989718 0 0 0 -4.899204,4.89925 4.8989718,4.8989718 0 0 0 4.899204,4.89869 4.8989718,4.8989718 0 0 0 4.898711,-4.89869 4.8989718,4.8989718 0 0 0 -4.898711,-4.89925 z m 41.787811,0 a 4.8989718,4.8989718 0 0 0 -4.89915,4.89925 4.8989718,4.8989718 0 0 0 4.89915,4.89869 4.8989718,4.8989718 0 0 0 4.8987,-4.89869 4.8989718,4.8989718 0 0 0 -4.8987,-4.89925 z" /><g
       id="text35"
       style="font-size:27.831px;line-height:1.25;font-family:ChunkFive;-inkscape-font-specification:ChunkFive;text-align:end;letter-spacing:0px;word-spacing:0px;text-anchor:end;white-space:pre;fill:#333333;stroke-width:2.22243;stroke-linecap:round;stroke-linejoin:round"
       aria-label="LET'S&#10;MEET&#10;TODAY'S&#10;VERSE"
       transform="matrix(0.85202866,0,0,0.85202866,-237.60637,117.65758)"><path
         style="text-align:center;text-anchor:middle;fill:#333333"
         d="m 340.79452,4.5988296 h 8.79459 v 3.6736919 h -1.47504 V 20.351175 h 3.5902 v -3.534537 h 4.67561 v 7.23606 h -15.58536 v -3.701523 h 1.5307 V 8.2725215 h -1.5307 z m 16.97692,0 h 16.7821 V 10.74948 h -4.81477 V 8.2725215 h -4.45296 v 3.8406775 h 5.28789 v 3.701523 h -5.28789 v 4.536453 h 4.45296 v -2.588283 h 4.81477 v 6.289806 h -16.7821 v -3.701523 h 1.75336 V 8.2725215 h -1.75336 z m 36.56993,0 v 7.2360594 h -4.09115 V 8.2725215 h -2.33781 V 20.351175 h 2.30998 v 3.701523 h -10.35314 v -3.701523 h 2.28215 V 8.2725215 h -2.39347 v 3.5623675 h -4.09116 V 4.5988296 Z m 6.92993,-0.055662 -1.00192,8.3214684 h -3.47887 l -1.02975,-8.3214684 z m 1.7812,19.5095304 v -7.013412 h 5.17657 q 0,0.890592 0.38963,1.419381 0.38964,0.528789 0.91842,0.83493 0.55662,0.27831 1.14108,0.389634 0.61228,0.111324 1.05757,0.139155 0.36181,0 0.77927,-0.05566 0.41747,-0.05566 0.75144,-0.194817 0.3618,-0.166986 0.58445,-0.417465 0.25048,-0.27831 0.25048,-0.723606 0,-0.528789 -0.8071,-0.862761 -0.77927,-0.361803 -1.976,-0.695775 -1.1689,-0.333972 -2.56045,-0.751437 -1.39155,-0.445296 -2.58829,-1.196733 -1.1689,-0.751437 -1.976,-1.892508 -0.77927,-1.168902 -0.77927,-2.950086 0,-1.5307045 0.64012,-2.6717755 0.66794,-1.141071 1.64203,-1.8646769 1.00191,-0.723606 2.14298,-1.085409 1.16891,-0.361803 2.19865,-0.361803 0.86276,0 1.72552,0.166986 0.86277,0.139155 1.64203,0.473127 0.77927,0.333972 1.39155,0.8905919 0.64012,0.528789 1.05758,1.308057 l 0.27831,-2.3378039 H 420.92 V 11.58441 h -5.03741 q 0,-0.779268 -0.27831,-1.363719 -0.27831,-0.6122815 -0.77927,-1.0297465 -0.47312,-0.417465 -1.14107,-0.612282 -0.64011,-0.222648 -1.36372,-0.222648 -0.30614,0 -0.64011,0.111324 -0.33397,0.083493 -0.64011,0.27831 -0.27831,0.166986 -0.47313,0.445296 -0.16698,0.27831 -0.16698,0.640113 0,0.7236055 0.80709,1.1967325 0.83493,0.473127 2.0595,0.890592 1.22456,0.417465 2.64394,0.918423 1.41938,0.473127 2.64395,1.196733 1.22456,0.723606 2.03166,1.809015 0.83493,1.085409 0.83493,2.727438 0,1.642029 -0.69577,2.755269 -0.66795,1.11324 -1.75336,1.836846 -1.05757,0.695775 -2.36563,1.001916 -1.30806,0.306141 -2.56045,0.306141 -1.05758,0 -1.94817,-0.222648 -0.8906,-0.222648 -1.6142,-0.584451 -0.72361,-0.361803 -1.30806,-0.807099 -0.55662,-0.473127 -0.94625,-0.946254 l -0.30614,2.142987 z"
         id="path39" /><path
         style="text-align:center;text-anchor:middle;fill:#333333"
         d="m 359.16299,44.285835 q -0.0835,0.473127 -0.19481,1.029747 -0.11133,0.55662 -0.22265,1.085409 -0.11133,0.500958 -0.22265,0.946254 -0.0835,0.417465 -0.16699,0.667944 l -2.92225,10.826258 h -5.81668 q -0.77927,-2.7831 -1.55854,-5.538369 -0.77926,-2.783099 -1.55853,-5.566199 -0.0557,-0.166986 -0.13916,-0.528789 -0.0835,-0.389634 -0.16698,-0.862761 -0.0835,-0.473127 -0.16699,-1.001916 -0.0835,-0.528789 -0.11132,-1.057578 h -0.11133 v 10.965413 h 1.58637 v 3.590199 h -7.5422 v -3.590199 h 1.50287 v -12.27347 h -1.47504 v -3.590199 h 10.54795 l 2.81093,10.408794 2.67178,-10.408794 h 10.60361 v 3.590199 h -1.53071 v 12.245639 h 1.53071 v 3.61803 h -8.7946 v -3.61803 h 1.58637 l -0.0278,-9.295553 v -1.642029 z m 8.73892,-4.898256 H 384.684 v 6.150651 h -4.81476 v -2.476959 h -4.45296 v 3.840678 h 5.28789 v 3.701523 h -5.28789 v 4.536452 h 4.45296 v -2.588283 h 4.81476 v 6.289806 h -16.78209 v -3.701523 h 1.75335 V 43.061271 h -1.75335 z m 18.17364,0 h 16.78209 v 6.150651 h -4.81476 v -2.476959 h -4.45296 v 3.840678 h 5.28789 v 3.701523 h -5.28789 v 4.536452 h 4.45296 v -2.588283 h 4.81476 v 6.289806 h -16.78209 v -3.701523 h 1.75335 V 43.061271 h -1.75335 z m 36.56993,0 v 7.23606 h -4.09116 v -3.562368 h -2.3378 v 12.078653 h 2.30997 v 3.701523 h -10.35313 v -3.701523 h 2.28214 V 43.061271 h -2.39346 v 3.562368 h -4.09116 v -7.23606 z"
         id="path40" /><path
         style="text-align:center;text-anchor:middle;fill:#333333"
         d="m 335.68754,74.176328 v 7.23606 h -4.09116 V 77.85002 h -2.3378 v 12.078654 h 2.30997 v 3.701523 h -10.35313 v -3.701523 h 2.28214 V 77.85002 h -2.39346 v 3.562368 h -4.09116 v -7.23606 z m 10.79843,19.954827 q -2.17081,0 -4.00766,-0.640113 -1.83685,-0.640113 -3.17273,-1.920339 -1.30806,-1.280226 -2.0595,-3.200565 -0.7236,-1.94817 -0.7236,-4.564284 0,-2.254311 0.69577,-4.118988 0.72361,-1.864677 2.00383,-3.200565 1.30806,-1.363719 3.08924,-2.087325 1.80902,-0.751437 3.97984,-0.751437 2.56045,0 4.42513,0.751437 1.8925,0.723606 3.11707,2.087325 1.25239,1.335888 1.83684,3.256227 0.61229,1.920339 0.61229,4.258143 0,2.365635 -0.64012,4.258143 -0.64011,1.864677 -1.8925,3.172734 -1.2524,1.308057 -3.08925,2.003832 -1.80901,0.695775 -4.17465,0.695775 z m 0,-4.369467 q 0.66795,0 1.16891,-0.417465 0.52879,-0.417465 0.89059,-1.168902 0.38963,-0.751437 0.58445,-1.809015 0.19482,-1.057578 0.19482,-2.365635 0,-1.252395 -0.19482,-2.365635 -0.16699,-1.11324 -0.55662,-1.920339 -0.3618,-0.83493 -0.94625,-1.308057 -0.55662,-0.473127 -1.36372,-0.473127 -0.64012,0 -1.16891,0.445296 -0.52878,0.417465 -0.91842,1.196733 -0.3618,0.779268 -0.58445,1.864677 -0.19482,1.085409 -0.19482,2.365635 0,1.363719 0.22265,2.476959 0.25048,1.085409 0.64011,1.864677 0.41747,0.779268 0.97409,1.196733 0.58445,0.417465 1.25239,0.417465 z m 10.90975,3.868509 v -3.701523 h 1.72552 V 77.85002 h -1.72552 v -3.673692 h 8.48845 q 2.53262,0 4.48079,0.751437 1.97601,0.723606 3.31189,2.003832 1.36372,1.252395 2.0595,2.977917 0.7236,1.725522 0.7236,3.729354 0,4.786932 -2.75527,7.403046 -2.75526,2.588283 -7.93183,2.588283 z m 12.6631,-9.991329 q 0,-1.11324 -0.25048,-2.142987 -0.22264,-1.057578 -0.7236,-1.864677 -0.50096,-0.807099 -1.30806,-1.280226 -0.77927,-0.500958 -1.89251,-0.500958 h -1.05757 v 12.078654 h 1.05757 q 1.11324,-0.02783 1.89251,-0.500958 0.8071,-0.500958 1.30806,-1.335888 0.50096,-0.862761 0.7236,-2.003832 0.25048,-1.141071 0.25048,-2.449128 z m 29.16687,9.991329 h -11.16023 v -3.645861 h 2.64395 l -0.58446,-1.892508 h -5.70535 l -0.58445,1.892508 h 2.17082 v 3.645861 h -8.85026 v -3.645861 h 1.89251 l 3.75718,-12.217809 h -1.14107 v -3.590199 h 10.6871 l 4.92609,15.808008 h 1.94817 z m -13.77634,-8.878089 h 3.64586 l -1.83685,-6.011496 z m 24.57477,-1.809015 q 0.0278,-0.194817 0.13916,-0.500958 0.13915,-0.306141 0.27831,-0.640113 0.16698,-0.333972 0.33397,-0.667944 0.16698,-0.333972 0.27831,-0.584451 l 1.5307,-2.810931 h -1.5307 v -3.562368 h 7.48654 v 3.562368 h -1.50288 l -5.14873,9.045075 v 3.228396 h 1.55853 v 3.61803 h -8.90592 v -3.61803 h 1.58637 v -3.284058 l -5.39921,-8.989413 h -1.36372 v -3.562368 h 9.5182 v 3.562368 h -1.44721 l 1.6142,2.950086 q 0.0557,0.194817 0.16698,0.500958 0.13916,0.306141 0.27831,0.640113 0.13916,0.333972 0.25048,0.640113 0.11133,0.306141 0.16699,0.473127 z m 14.75044,-8.822427 -1.00191,8.321469 h -3.47888 l -1.02975,-8.321469 z m 1.78121,19.509531 v -7.013412 h 5.17656 q 0,0.890592 0.38964,1.419381 0.38963,0.528789 0.91842,0.83493 0.55662,0.27831 1.14107,0.389634 0.61228,0.111324 1.05758,0.139155 0.3618,0 0.77927,-0.05566 0.41746,-0.05566 0.75144,-0.194817 0.3618,-0.166986 0.58445,-0.417465 0.25048,-0.27831 0.25048,-0.723606 0,-0.528789 -0.8071,-0.862761 -0.77927,-0.361803 -1.976,-0.695775 -1.16891,-0.333972 -2.56046,-0.751437 -1.39155,-0.445296 -2.58828,-1.196733 -1.1689,-0.751437 -1.976,-1.892508 -0.77927,-1.168902 -0.77927,-2.950086 0,-1.530705 0.64011,-2.671776 0.66795,-1.141071 1.64203,-1.864677 1.00192,-0.723606 2.14299,-1.085409 1.1689,-0.361803 2.19865,-0.361803 0.86276,0 1.72552,0.166986 0.86276,0.139155 1.64203,0.473127 0.77927,0.333972 1.39155,0.890592 0.64011,0.528789 1.05758,1.308057 l 0.27831,-2.337804 h 4.78693 v 6.985581 h -5.03741 q 0,-0.779268 -0.27831,-1.363719 -0.27831,-0.612282 -0.77927,-1.029747 -0.47313,-0.417465 -1.14107,-0.612282 -0.64011,-0.222648 -1.36372,-0.222648 -0.30614,0 -0.64011,0.111324 -0.33397,0.08349 -0.64011,0.27831 -0.27831,0.166986 -0.47313,0.445296 -0.16699,0.27831 -0.16699,0.640113 0,0.723606 0.8071,1.196733 0.83493,0.473127 2.0595,0.890592 1.22456,0.417465 2.64394,0.918423 1.41938,0.473127 2.64395,1.196733 1.22456,0.723606 2.03166,1.809015 0.83493,1.085409 0.83493,2.727438 0,1.642029 -0.69578,2.755269 -0.66794,1.11324 -1.75335,1.836846 -1.05758,0.695775 -2.36563,1.001916 -1.30806,0.306141 -2.56046,0.306141 -1.05757,0 -1.94817,-0.222648 -0.89059,-0.222648 -1.61419,-0.584451 -0.72361,-0.361803 -1.30806,-0.807099 -0.55662,-0.473127 -0.94626,-0.946254 l -0.30614,2.142987 z"
         id="path41" /><path
         style="text-align:center;text-anchor:middle;fill:#333333"
         d="m 343.86986,122.1848 q 0.0557,-0.58445 0.30614,-1.5307 0.27831,-0.94626 0.69578,-2.00383 l 2.53262,-6.06716 h -1.44721 l -0.0278,-3.61803 h 7.904 v 3.61803 h -1.36372 l -6.67944,15.83584 h -5.1209 l -7.37522,-15.83584 h -1.5307 v -3.61803 h 10.26964 l -0.0278,3.61803 h -1.50288 l 2.36564,6.23414 q 0.33397,1.02975 0.55662,1.92034 0.25048,0.86276 0.30614,1.44721 z m 10.38099,-13.21972 h 16.78209 v 6.15065 h -4.81477 v -2.47696 h -4.45296 v 3.84068 h 5.28789 v 3.70152 h -5.28789 v 4.53645 h 4.45296 v -2.58828 h 4.81477 v 6.28981 h -16.78209 v -3.70153 h 1.75335 v -12.07865 h -1.75335 z m 18.17363,0 h 9.04508 q 2.42129,0 3.92417,0.44529 1.50287,0.4453 2.3378,1.22457 0.86276,0.77927 1.14107,1.83684 0.30614,1.02975 0.30614,2.22648 0,0.8071 -0.30614,1.50288 -0.30614,0.69577 -0.86276,1.22456 -0.52879,0.50096 -1.28022,0.86276 -0.72361,0.33397 -1.58637,0.4453 0.72361,0.11132 1.36372,0.47312 0.66794,0.33398 1.1689,0.86277 0.50096,0.52878 0.8071,1.19673 0.30614,0.66794 0.30614,1.41938 0,0.89059 0.13916,1.39155 0.13915,0.50096 0.52878,0.50096 0.64012,0 0.64012,-0.89059 v -0.91843 h 1.86467 v 1.53071 q 0,0.86276 -0.19481,1.66986 -0.19482,0.8071 -0.66795,1.41938 -0.47312,0.61228 -1.25239,1.00191 -0.77927,0.36181 -1.94817,0.36181 -2.75527,0 -4.09116,-1.36372 -1.30806,-1.36372 -1.30806,-3.81285 0,-0.94625 -0.0835,-1.55853 -0.0835,-0.61229 -0.38963,-0.94626 -0.27831,-0.3618 -0.83493,-0.50096 -0.55662,-0.13915 -1.47505,-0.13915 v 4.3138 h 1.6977 v 3.6737 h -8.98942 v -3.6737 h 1.55854 v -12.13431 h -1.55854 z m 7.29172,3.61803 v 4.73127 h 1.2524 q 1.22456,0 1.94817,-0.55662 0.72361,-0.58445 0.72361,-1.69769 0,-1.2524 -0.66795,-1.86468 -0.64011,-0.61228 -1.86468,-0.61228 z m 13.21972,15.83584 v -7.01342 h 5.17656 q 0,0.8906 0.38964,1.41938 0.38963,0.52879 0.91842,0.83493 0.55662,0.27831 1.14107,0.38964 0.61228,0.11132 1.05758,0.13915 0.3618,0 0.77927,-0.0557 0.41746,-0.0557 0.75144,-0.19482 0.3618,-0.16698 0.58445,-0.41746 0.25048,-0.27831 0.25048,-0.72361 0,-0.52879 -0.8071,-0.86276 -0.77927,-0.3618 -1.976,-0.69577 -1.16891,-0.33397 -2.56046,-0.75144 -1.39155,-0.4453 -2.58828,-1.19673 -1.1689,-0.75144 -1.976,-1.89251 -0.77927,-1.1689 -0.77927,-2.95009 0,-1.5307 0.64011,-2.67177 0.66795,-1.14107 1.64203,-1.86468 1.00192,-0.7236 2.14299,-1.08541 1.1689,-0.3618 2.19865,-0.3618 0.86276,0 1.72552,0.16699 0.86276,0.13915 1.64203,0.47312 0.77927,0.33397 1.39155,0.89059 0.64011,0.52879 1.05758,1.30806 l 0.27831,-2.3378 h 4.78693 v 6.98558 h -5.03741 q 0,-0.77927 -0.27831,-1.36372 -0.27831,-0.61228 -0.77927,-1.02975 -0.47313,-0.41746 -1.14107,-0.61228 -0.64011,-0.22265 -1.36372,-0.22265 -0.30614,0 -0.64011,0.11133 -0.33397,0.0835 -0.64011,0.27831 -0.27831,0.16698 -0.47313,0.44529 -0.16699,0.27831 -0.16699,0.64012 0,0.7236 0.8071,1.19673 0.83493,0.47313 2.0595,0.89059 1.22456,0.41747 2.64394,0.91842 1.41938,0.47313 2.64395,1.19674 1.22456,0.7236 2.03166,1.80901 0.83493,1.08541 0.83493,2.72744 0,1.64203 -0.69578,2.75527 -0.66794,1.11324 -1.75335,1.83684 -1.05758,0.69578 -2.36563,1.00192 -1.30806,0.30614 -2.56046,0.30614 -1.05757,0 -1.94817,-0.22265 -0.89059,-0.22265 -1.61419,-0.58445 -0.72361,-0.3618 -1.30806,-0.8071 -0.55662,-0.47312 -0.94626,-0.94625 l -0.30614,2.14299 z m 19.75998,-19.45387 h 16.78209 v 6.15065 h -4.81476 v -2.47696 h -4.45296 v 3.84068 h 5.28789 v 3.70152 h -5.28789 v 4.53645 h 4.45296 v -2.58828 h 4.81476 v 6.28981 H 412.6959 v -3.70153 h 1.75335 v -12.07865 h -1.75335 z"
         id="path42" /></g><path
       style="fill:#ffffff;fill-rule:evenodd;stroke:none;stroke-width:0.112716px;stroke-linecap:butt;stroke-linejoin:miter;stroke-opacity:1"
       d="m 107.07458,100.06557 1.91621,-2.464573 1.32834,-2.061863 V 34.875167 H 64.063336 l -3.330766,4.42669 v 58.406649 z"
       id="path4182-2-6-3"
       inkscape:connector-curvature="0" /><path
       style="fill:#333333;fill-opacity:1;stroke-width:0.112716"
       d="m 98.293367,33.394979 c -2.970311,0.003 -6.668409,0.01395 -11.27867,0.02466 l -22.3777,0.05282 -1.246927,0.591768 c -1.561921,0.7443 -2.764561,1.905399 -3.420238,3.303997 l -0.50722,1.08489 v 31.134362 c 0,9.264546 0.003,15.550806 0.01515,20.147373 h -0.002 v 5.902199 4.428512 c 0,1.23811 0.99686,2.23496 2.234957,2.23496 h 5.125275 c 3.28019,0.0187 8.327553,0.016 16.348256,0 h 0.09079 21.56453 c 1.23801,0 2.23489,-0.99685 2.23489,-2.23496 V 95.637031 89.734832 70.647689 46.937193 43.579702 41.330441 c 0,-1.238103 -0.99664,-2.234739 -2.23465,-2.234739 H 101.7684 96.978669 64.587494 61.789379 l 2.798115,-3.231561 h 40.437446 1.6361 c 1.23812,0 2.23498,0.996851 2.23498,2.234954 v 0.340128 0.02574 l 0.0448,28.315132 0.049,30.820865 0.49667,-0.12681 c 0.8582,-0.215392 1.38838,-0.683848 1.70133,-1.511091 0.27129,-0.717213 0.29743,-3.867638 0.25011,-30.87722 -0.05,-28.654188 -0.072,-30.105742 -0.40162,-30.591918 -0.6578,-0.968891 0.12734,-1.110642 -12.743968,-1.098983 z"
       id="path4186-0-4-0"
       inkscape:connector-curvature="0" /><path
       style="fill:#ffffff;fill-opacity:1;stroke-width:0.112716"
       d="m 80.089683,54.564509 h 6.322692 v 7.802089 h 7.974671 v 6.322674 H 86.412375 V 85.085977 H 80.089683 V 68.689272 h -7.974661 v -6.322674 h 7.974661 z"
       id="path4170-8-8-6-7"
       inkscape:connector-curvature="0" /><path
       inkscape:connector-curvature="0"
       style="color:#000000;clip-rule:nonzero;display:inline;overflow:visible;visibility:visible;isolation:auto;mix-blend-mode:normal;color-interpolation:sRGB;color-interpolation-filters:linearRGB;solid-color:#000000;solid-opacity:1;fill:#9a3c23;fill-opacity:1;fill-rule:nonzero;stroke:none;stroke-width:0.0563579;stroke-linecap:round;stroke-linejoin:round;stroke-miterlimit:4;stroke-dasharray:none;stroke-dashoffset:0;stroke-opacity:0.992157;marker:none;color-rendering:auto;image-rendering:auto;shape-rendering:auto;text-rendering:auto;enable-background:accumulate"
       d="m 73.710895,37.547497 v 1.548314 h 1.51859 c 0,-0.848001 -0.674762,-1.531485 -1.51859,-1.548314 z"
       id="rect4220-9-7" /><path
       style="color:#000000;clip-rule:nonzero;display:inline;overflow:visible;visibility:visible;isolation:auto;mix-blend-mode:normal;color-interpolation:sRGB;color-interpolation-filters:linearRGB;solid-color:#000000;solid-opacity:1;fill:#ff5a51;fill-opacity:1;fill-rule:evenodd;stroke:none;stroke-width:0.563579;stroke-linecap:round;stroke-linejoin:miter;stroke-miterlimit:4;stroke-dasharray:none;stroke-dashoffset:0;stroke-opacity:1;marker:none;color-rendering:auto;image-rendering:auto;shape-rendering:auto;text-rendering:auto;enable-background:accumulate"
       d="m 67.613984,37.545961 c -0.858627,0 -1.549862,0.691223 -1.549862,1.54985 v 16.93914 l 3.827084,-3.813642 3.827053,3.813642 v -16.93914 0 -1.548314 c -0.01056,0 -0.02083,-0.0017 -0.03139,-0.0017 z"
       id="rect4265-1-3-6-4" /><path
       id="yellow-lights"
       style="fill:#ffc751;fill-opacity:1;stroke-width:0.22242;stroke-linecap:round;stroke-linejoin:round"
       d="m 11.506437,8.3929116 a 4.8989718,4.8989718 0 0 0 -4.8991942,4.8987604 4.8989718,4.8989718 0 0 0 4.8991942,4.899193 4.8989718,4.8989718 0 0 0 4.898746,-4.899193 4.8989718,4.8989718 0 0 0 -4.898746,-4.8987604 z m 42.612924,0 a 4.8989718,4.8989718 0 0 0 -4.898756,4.8987604 4.8989718,4.8989718 0 0 0 4.898756,4.899193 4.8989718,4.8989718 0 0 0 4.899184,-4.899193 4.8989718,4.8989718 0 0 0 -4.899184,-4.8987604 z m 41.788238,0 a 4.8989718,4.8989718 0 0 0 -4.899204,4.8987604 4.8989718,4.8989718 0 0 0 4.899204,4.899193 4.8989718,4.8989718 0 0 0 4.898711,-4.899193 4.8989718,4.8989718 0 0 0 -4.898711,-4.8987604 z m 41.787811,0 a 4.8989718,4.8989718 0 0 0 -4.89915,4.8987604 4.8989718,4.8989718 0 0 0 4.89915,4.899193 4.8989718,4.8989718 0 0 0 4.8987,-4.899193 4.8989718,4.8989718 0 0 0 -4.8987,-4.8987604 z M 159.4144,30.029164 a 4.8989718,4.8989718 0 0 0 -4.89915,4.898753 4.8989718,4.8989718 0 0 0 4.89915,4.899194 4.8989718,4.8989718 0 0 0 4.8988,-4.899194 4.8989718,4.8989718 0 0 0 -4.8988,-4.898753 z M 11.506437,51.665396 a 4.8989718,4.8989718 0 0 0 -4.8991942,4.899195 4.8989718,4.8989718 0 0 0 4.8991942,4.89876 4.8989718,4.8989718 0 0 0 4.898746,-4.89876 4.8989718,4.8989718 0 0 0 -4.898746,-4.899195 z M 159.4144,73.301646 a 4.8989718,4.8989718 0 0 0 -4.89915,4.899195 4.8989718,4.8989718 0 0 0 4.89915,4.898751 4.8989718,4.8989718 0 0 0 4.8988,-4.898751 4.8989718,4.8989718 0 0 0 -4.8988,-4.899195 z M 11.506437,94.938331 a 4.8989718,4.8989718 0 0 0 -4.8991942,4.898751 4.8989718,4.8989718 0 0 0 4.8991942,4.899228 4.8989718,4.8989718 0 0 0 4.898746,-4.899228 4.8989718,4.8989718 0 0 0 -4.898746,-4.898751 z M 159.4144,116.57462 a 4.8989718,4.8989718 0 0 0 -4.89915,4.89869 4.8989718,4.8989718 0 0 0 4.89915,4.89926 4.8989718,4.8989718 0 0 0 4.8988,-4.89926 4.8989718,4.8989718 0 0 0 -4.8988,-4.89869 z M 11.506437,138.21077 a 4.8989718,4.8989718 0 0 0 -4.8991942,4.89926 4.8989718,4.8989718 0 0 0 4.8991942,4.89869 4.8989718,4.8989718 0 0 0 4.898746,-4.89869 4.8989718,4.8989718 0 0 0 -4.898746,-4.89926 z M 159.4144,159.84703 a 4.8989718,4.8989718 0 0 0 -4.89915,4.89926 4.8989718,4.8989718 0 0 0 4.89915,4.89869 4.8989718,4.8989718 0 0 0 4.8988,-4.89869 4.8989718,4.8989718 0 0 0 -4.8988,-4.89926 z M 11.506437,181.48375 a 4.8989718,4.8989718 0 0 0 -4.8991942,4.8988 4.8989718,4.8989718 0 0 0 4.8991942,4.89915 4.8989718,4.8989718 0 0 0 4.898746,-4.89915 4.8989718,4.8989718 0 0 0 -4.898746,-4.8988 z M 159.4144,203.12001 a 4.8989718,4.8989718 0 0 0 -4.89915,4.89869 4.8989718,4.8989718 0 0 0 4.89915,4.89927 4.8989718,4.8989718 0 0 0 4.8988,-4.89927 4.8989718,4.8989718 0 0 0 -4.8988,-4.89869 z M 11.506437,224.75627 a 4.8989718,4.8989718 0 0 0 -4.8991942,4.89916 4.8989718,4.8989718 0 0 0 4.8991942,4.8988 4.8989718,4.8989718 0 0 0 4.898746,-4.8988 4.8989718,4.8989718 0 0 0 -4.898746,-4.89916 z m 21.719014,21.63617 a 4.8989718,4.8989718 0 0 0 -4.898756,4.89925 4.8989718,4.8989718 0 0 0 4.898756,4.89869 4.8989718,4.8989718 0 0 0 4.899204,-4.89869 4.8989718,4.8989718 0 0 0 -4.899204,-4.89925 z m 41.78781,0 a 4.8989718,4.8989718 0 0 0 -4.898756,4.89925 4.8989718,4.8989718 0 0 0 4.898756,4.89869 4.8989718,4.8989718 0 0 0 4.899194,-4.89869 4.8989718,4.8989718 0 0 0 -4.899194,-4.89925 z m 41.788249,0 a 4.8989718,4.8989718 0 0 0 -4.89915,4.89925 4.8989718,4.8989718 0 0 0 4.89915,4.89869 4.8989718,4.8989718 0 0 0 4.8987,-4.89869 4.8989718,4.8989718 0 0 0 -4.8987,-4.89925 z m 42.61289,0 a 4.8989718,4.8989718 0 0 0 -4.89915,4.89925 4.8989718,4.8989718 0 0 0 4.89915,4.89869 4.8989718,4.8989718 0 0 0 4.8988,-4.89869 4.8989718,4.8989718 0 0 0 -4.8988,-4.89925 z" /><g
       id="text35-7"
       style="font-size:27.831px;line-height:1.25;font-family:ChunkFive;-inkscape-font-specification:ChunkFive;text-align:end;letter-spacing:0px;word-spacing:0px;text-anchor:end;white-space:pre;fill:#ffffff;stroke-width:2.22243;stroke-linecap:round;stroke-linejoin:round"
       aria-label="LET'S&#10;MEET&#10;TODAY'S&#10;VERSE"
       transform="matrix(0.85202866,0,0,0.85202866,-239.1358,116.12815)"><path
         style="text-align:center;text-anchor:middle;fill:#ffffff"
         d="m 340.79452,4.5988296 h 8.79459 v 3.6736919 h -1.47504 V 20.351175 h 3.5902 v -3.534537 h 4.67561 v 7.23606 h -15.58536 v -3.701523 h 1.5307 V 8.2725215 h -1.5307 z m 16.97692,0 h 16.7821 V 10.74948 h -4.81477 V 8.2725215 h -4.45296 v 3.8406775 h 5.28789 v 3.701523 h -5.28789 v 4.536453 h 4.45296 v -2.588283 h 4.81477 v 6.289806 h -16.7821 v -3.701523 h 1.75336 V 8.2725215 h -1.75336 z m 36.56993,0 v 7.2360594 h -4.09115 V 8.2725215 h -2.33781 V 20.351175 h 2.30998 v 3.701523 h -10.35314 v -3.701523 h 2.28215 V 8.2725215 h -2.39347 v 3.5623675 h -4.09116 V 4.5988296 Z m 6.92993,-0.055662 -1.00192,8.3214684 h -3.47887 l -1.02975,-8.3214684 z m 1.7812,19.5095304 v -7.013412 h 5.17657 q 0,0.890592 0.38963,1.419381 0.38964,0.528789 0.91842,0.83493 0.55662,0.27831 1.14108,0.389634 0.61228,0.111324 1.05757,0.139155 0.36181,0 0.77927,-0.05566 0.41747,-0.05566 0.75144,-0.194817 0.3618,-0.166986 0.58445,-0.417465 0.25048,-0.27831 0.25048,-0.723606 0,-0.528789 -0.8071,-0.862761 -0.77927,-0.361803 -1.976,-0.695775 -1.1689,-0.333972 -2.56045,-0.751437 -1.39155,-0.445296 -2.58829,-1.196733 -1.1689,-0.751437 -1.976,-1.892508 -0.77927,-1.168902 -0.77927,-2.950086 0,-1.5307045 0.64012,-2.6717755 0.66794,-1.141071 1.64203,-1.8646769 1.00191,-0.723606 2.14298,-1.085409 1.16891,-0.361803 2.19865,-0.361803 0.86276,0 1.72552,0.166986 0.86277,0.139155 1.64203,0.473127 0.77927,0.333972 1.39155,0.8905919 0.64012,0.528789 1.05758,1.308057 l 0.27831,-2.3378039 H 420.92 V 11.58441 h -5.03741 q 0,-0.779268 -0.27831,-1.363719 -0.27831,-0.6122815 -0.77927,-1.0297465 -0.47312,-0.417465 -1.14107,-0.612282 -0.64011,-0.222648 -1.36372,-0.222648 -0.30614,0 -0.64011,0.111324 -0.33397,0.083493 -0.64011,0.27831 -0.27831,0.166986 -0.47313,0.445296 -0.16698,0.27831 -0.16698,0.640113 0,0.7236055 0.80709,1.1967325 0.83493,0.473127 2.0595,0.890592 1.22456,0.417465 2.64394,0.918423 1.41938,0.473127 2.64395,1.196733 1.22456,0.723606 2.03166,1.809015 0.83493,1.085409 0.83493,2.727438 0,1.642029 -0.69577,2.755269 -0.66795,1.11324 -1.75336,1.836846 -1.05757,0.695775 -2.36563,1.001916 -1.30806,0.306141 -2.56045,0.306141 -1.05758,0 -1.94817,-0.222648 -0.8906,-0.222648 -1.6142,-0.584451 -0.72361,-0.361803 -1.30806,-0.807099 -0.55662,-0.473127 -0.94625,-0.946254 l -0.30614,2.142987 z"
         id="path39-6" /><path
         style="text-align:center;text-anchor:middle;fill:#ffffff"
         d="m 359.16299,44.285835 q -0.0835,0.473127 -0.19481,1.029747 -0.11133,0.55662 -0.22265,1.085409 -0.11133,0.500958 -0.22265,0.946254 -0.0835,0.417465 -0.16699,0.667944 l -2.92225,10.826258 h -5.81668 q -0.77927,-2.7831 -1.55854,-5.538369 -0.77926,-2.783099 -1.55853,-5.566199 -0.0557,-0.166986 -0.13916,-0.528789 -0.0835,-0.389634 -0.16698,-0.862761 -0.0835,-0.473127 -0.16699,-1.001916 -0.0835,-0.528789 -0.11132,-1.057578 h -0.11133 v 10.965413 h 1.58637 v 3.590199 h -7.5422 v -3.590199 h 1.50287 v -12.27347 h -1.47504 v -3.590199 h 10.54795 l 2.81093,10.408794 2.67178,-10.408794 h 10.60361 v 3.590199 h -1.53071 v 12.245639 h 1.53071 v 3.61803 h -8.7946 v -3.61803 h 1.58637 l -0.0278,-9.295553 v -1.642029 z m 8.73892,-4.898256 H 384.684 v 6.150651 h -4.81476 v -2.476959 h -4.45296 v 3.840678 h 5.28789 v 3.701523 h -5.28789 v 4.536452 h 4.45296 v -2.588283 h 4.81476 v 6.289806 h -16.78209 v -3.701523 h 1.75335 V 43.061271 h -1.75335 z m 18.17364,0 h 16.78209 v 6.150651 h -4.81476 v -2.476959 h -4.45296 v 3.840678 h 5.28789 v 3.701523 h -5.28789 v 4.536452 h 4.45296 v -2.588283 h 4.81476 v 6.289806 h -16.78209 v -3.701523 h 1.75335 V 43.061271 h -1.75335 z m 36.56993,0 v 7.23606 h -4.09116 v -3.562368 h -2.3378 v 12.078653 h 2.30997 v 3.701523 h -10.35313 v -3.701523 h 2.28214 V 43.061271 h -2.39346 v 3.562368 h -4.09116 v -7.23606 z"
         id="path40-1" /><path
         style="text-align:center;text-anchor:middle;fill:#ffffff"
         d="m 335.68754,74.176328 v 7.23606 h -4.09116 V 77.85002 h -2.3378 v 12.078654 h 2.30997 v 3.701523 h -10.35313 v -3.701523 h 2.28214 V 77.85002 h -2.39346 v 3.562368 h -4.09116 v -7.23606 z m 10.79843,19.954827 q -2.17081,0 -4.00766,-0.640113 -1.83685,-0.640113 -3.17273,-1.920339 -1.30806,-1.280226 -2.0595,-3.200565 -0.7236,-1.94817 -0.7236,-4.564284 0,-2.254311 0.69577,-4.118988 0.72361,-1.864677 2.00383,-3.200565 1.30806,-1.363719 3.08924,-2.087325 1.80902,-0.751437 3.97984,-0.751437 2.56045,0 4.42513,0.751437 1.8925,0.723606 3.11707,2.087325 1.25239,1.335888 1.83684,3.256227 0.61229,1.920339 0.61229,4.258143 0,2.365635 -0.64012,4.258143 -0.64011,1.864677 -1.8925,3.172734 -1.2524,1.308057 -3.08925,2.003832 -1.80901,0.695775 -4.17465,0.695775 z m 0,-4.369467 q 0.66795,0 1.16891,-0.417465 0.52879,-0.417465 0.89059,-1.168902 0.38963,-0.751437 0.58445,-1.809015 0.19482,-1.057578 0.19482,-2.365635 0,-1.252395 -0.19482,-2.365635 -0.16699,-1.11324 -0.55662,-1.920339 -0.3618,-0.83493 -0.94625,-1.308057 -0.55662,-0.473127 -1.36372,-0.473127 -0.64012,0 -1.16891,0.445296 -0.52878,0.417465 -0.91842,1.196733 -0.3618,0.779268 -0.58445,1.864677 -0.19482,1.085409 -0.19482,2.365635 0,1.363719 0.22265,2.476959 0.25048,1.085409 0.64011,1.864677 0.41747,0.779268 0.97409,1.196733 0.58445,0.417465 1.25239,0.417465 z m 10.90975,3.868509 v -3.701523 h 1.72552 V 77.85002 h -1.72552 v -3.673692 h 8.48845 q 2.53262,0 4.48079,0.751437 1.97601,0.723606 3.31189,2.003832 1.36372,1.252395 2.0595,2.977917 0.7236,1.725522 0.7236,3.729354 0,4.786932 -2.75527,7.403046 -2.75526,2.588283 -7.93183,2.588283 z m 12.6631,-9.991329 q 0,-1.11324 -0.25048,-2.142987 -0.22264,-1.057578 -0.7236,-1.864677 -0.50096,-0.807099 -1.30806,-1.280226 -0.77927,-0.500958 -1.89251,-0.500958 h -1.05757 v 12.078654 h 1.05757 q 1.11324,-0.02783 1.89251,-0.500958 0.8071,-0.500958 1.30806,-1.335888 0.50096,-0.862761 0.7236,-2.003832 0.25048,-1.141071 0.25048,-2.449128 z m 29.16687,9.991329 h -11.16023 v -3.645861 h 2.64395 l -0.58446,-1.892508 h -5.70535 l -0.58445,1.892508 h 2.17082 v 3.645861 h -8.85026 v -3.645861 h 1.89251 l 3.75718,-12.217809 h -1.14107 v -3.590199 h 10.6871 l 4.92609,15.808008 h 1.94817 z m -13.77634,-8.878089 h 3.64586 l -1.83685,-6.011496 z m 24.57477,-1.809015 q 0.0278,-0.194817 0.13916,-0.500958 0.13915,-0.306141 0.27831,-0.640113 0.16698,-0.333972 0.33397,-0.667944 0.16698,-0.333972 0.27831,-0.584451 l 1.5307,-2.810931 h -1.5307 v -3.562368 h 7.48654 v 3.562368 h -1.50288 l -5.14873,9.045075 v 3.228396 h 1.55853 v 3.61803 h -8.90592 v -3.61803 h 1.58637 v -3.284058 l -5.39921,-8.989413 h -1.36372 v -3.562368 h 9.5182 v 3.562368 h -1.44721 l 1.6142,2.950086 q 0.0557,0.194817 0.16698,0.500958 0.13916,0.306141 0.27831,0.640113 0.13916,0.333972 0.25048,0.640113 0.11133,0.306141 0.16699,0.473127 z m 14.75044,-8.822427 -1.00191,8.321469 h -3.47888 l -1.02975,-8.321469 z m 1.78121,19.509531 v -7.013412 h 5.17656 q 0,0.890592 0.38964,1.419381 0.38963,0.528789 0.91842,0.83493 0.55662,0.27831 1.14107,0.389634 0.61228,0.111324 1.05758,0.139155 0.3618,0 0.77927,-0.05566 0.41746,-0.05566 0.75144,-0.194817 0.3618,-0.166986 0.58445,-0.417465 0.25048,-0.27831 0.25048,-0.723606 0,-0.528789 -0.8071,-0.862761 -0.77927,-0.361803 -1.976,-0.695775 -1.16891,-0.333972 -2.56046,-0.751437 -1.39155,-0.445296 -2.58828,-1.196733 -1.1689,-0.751437 -1.976,-1.892508 -0.77927,-1.168902 -0.77927,-2.950086 0,-1.530705 0.64011,-2.671776 0.66795,-1.141071 1.64203,-1.864677 1.00192,-0.723606 2.14299,-1.085409 1.1689,-0.361803 2.19865,-0.361803 0.86276,0 1.72552,0.166986 0.86276,0.139155 1.64203,0.473127 0.77927,0.333972 1.39155,0.890592 0.64011,0.528789 1.05758,1.308057 l 0.27831,-2.337804 h 4.78693 v 6.985581 h -5.03741 q 0,-0.779268 -0.27831,-1.363719 -0.27831,-0.612282 -0.77927,-1.029747 -0.47313,-0.417465 -1.14107,-0.612282 -0.64011,-0.222648 -1.36372,-0.222648 -0.30614,0 -0.64011,0.111324 -0.33397,0.08349 -0.64011,0.27831 -0.27831,0.166986 -0.47313,0.445296 -0.16699,0.27831 -0.16699,0.640113 0,0.723606 0.8071,1.196733 0.83493,0.473127 2.0595,0.890592 1.22456,0.417465 2.64394,0.918423 1.41938,0.473127 2.64395,1.196733 1.22456,0.723606 2.03166,1.809015 0.83493,1.085409 0.83493,2.727438 0,1.642029 -0.69578,2.755269 -0.66794,1.11324 -1.75335,1.836846 -1.05758,0.695775 -2.36563,1.001916 -1.30806,0.306141 -2.56046,0.306141 -1.05757,0 -1.94817,-0.222648 -0.89059,-0.222648 -1.61419,-0.584451 -0.72361,-0.361803 -1.30806,-0.807099 -0.55662,-0.473127 -0.94626,-0.946254 l -0.30614,2.142987 z"
         id="path41-8" /><path
         style="text-align:center;text-anchor:middle;fill:#ffffff"
         d="m 343.86986,122.1848 q 0.0557,-0.58445 0.30614,-1.5307 0.27831,-0.94626 0.69578,-2.00383 l 2.53262,-6.06716 h -1.44721 l -0.0278,-3.61803 h 7.904 v 3.61803 h -1.36372 l -6.67944,15.83584 h -5.1209 l -7.37522,-15.83584 h -1.5307 v -3.61803 h 10.26964 l -0.0278,3.61803 h -1.50288 l 2.36564,6.23414 q 0.33397,1.02975 0.55662,1.92034 0.25048,0.86276 0.30614,1.44721 z m 10.38099,-13.21972 h 16.78209 v 6.15065 h -4.81477 v -2.47696 h -4.45296 v 3.84068 h 5.28789 v 3.70152 h -5.28789 v 4.53645 h 4.45296 v -2.58828 h 4.81477 v 6.28981 h -16.78209 v -3.70153 h 1.75335 v -12.07865 h -1.75335 z m 18.17363,0 h 9.04508 q 2.42129,0 3.92417,0.44529 1.50287,0.4453 2.3378,1.22457 0.86276,0.77927 1.14107,1.83684 0.30614,1.02975 0.30614,2.22648 0,0.8071 -0.30614,1.50288 -0.30614,0.69577 -0.86276,1.22456 -0.52879,0.50096 -1.28022,0.86276 -0.72361,0.33397 -1.58637,0.4453 0.72361,0.11132 1.36372,0.47312 0.66794,0.33398 1.1689,0.86277 0.50096,0.52878 0.8071,1.19673 0.30614,0.66794 0.30614,1.41938 0,0.89059 0.13916,1.39155 0.13915,0.50096 0.52878,0.50096 0.64012,0 0.64012,-0.89059 v -0.91843 h 1.86467 v 1.53071 q 0,0.86276 -0.19481,1.66986 -0.19482,0.8071 -0.66795,1.41938 -0.47312,0.61228 -1.25239,1.00191 -0.77927,0.36181 -1.94817,0.36181 -2.75527,0 -4.09116,-1.36372 -1.30806,-1.36372 -1.30806,-3.81285 0,-0.94625 -0.0835,-1.55853 -0.0835,-0.61229 -0.38963,-0.94626 -0.27831,-0.3618 -0.83493,-0.50096 -0.55662,-0.13915 -1.47505,-0.13915 v 4.3138 h 1.6977 v 3.6737 h -8.98942 v -3.6737 h 1.55854 v -12.13431 h -1.55854 z m 7.29172,3.61803 v 4.73127 h 1.2524 q 1.22456,0 1.94817,-0.55662 0.72361,-0.58445 0.72361,-1.69769 0,-1.2524 -0.66795,-1.86468 -0.64011,-0.61228 -1.86468,-0.61228 z m 13.21972,15.83584 v -7.01342 h 5.17656 q 0,0.8906 0.38964,1.41938 0.38963,0.52879 0.91842,0.83493 0.55662,0.27831 1.14107,0.38964 0.61228,0.11132 1.05758,0.13915 0.3618,0 0.77927,-0.0557 0.41746,-0.0557 0.75144,-0.19482 0.3618,-0.16698 0.58445,-0.41746 0.25048,-0.27831 0.25048,-0.72361 0,-0.52879 -0.8071,-0.86276 -0.77927,-0.3618 -1.976,-0.69577 -1.16891,-0.33397 -2.56046,-0.75144 -1.39155,-0.4453 -2.58828,-1.19673 -1.1689,-0.75144 -1.976,-1.89251 -0.77927,-1.1689 -0.77927,-2.95009 0,-1.5307 0.64011,-2.67177 0.66795,-1.14107 1.64203,-1.86468 1.00192,-0.7236 2.14299,-1.08541 1.1689,-0.3618 2.19865,-0.3618 0.86276,0 1.72552,0.16699 0.86276,0.13915 1.64203,0.47312 0.77927,0.33397 1.39155,0.89059 0.64011,0.52879 1.05758,1.30806 l 0.27831,-2.3378 h 4.78693 v 6.98558 h -5.03741 q 0,-0.77927 -0.27831,-1.36372 -0.27831,-0.61228 -0.77927,-1.02975 -0.47313,-0.41746 -1.14107,-0.61228 -0.64011,-0.22265 -1.36372,-0.22265 -0.30614,0 -0.64011,0.11133 -0.33397,0.0835 -0.64011,0.27831 -0.27831,0.16698 -0.47313,0.44529 -0.16699,0.27831 -0.16699,0.64012 0,0.7236 0.8071,1.19673 0.83493,0.47313 2.0595,0.89059 1.22456,0.41747 2.64394,0.91842 1.41938,0.47313 2.64395,1.19674 1.22456,0.7236 2.03166,1.80901 0.83493,1.08541 0.83493,2.72744 0,1.64203 -0.69578,2.75527 -0.66794,1.11324 -1.75335,1.83684 -1.05758,0.69578 -2.36563,1.00192 -1.30806,0.30614 -2.56046,0.30614 -1.05757,0 -1.94817,-0.22265 -0.89059,-0.22265 -1.61419,-0.58445 -0.72361,-0.3618 -1.30806,-0.8071 -0.55662,-0.47312 -0.94626,-0.94625 l -0.30614,2.14299 z m 19.75998,-19.45387 h 16.78209 v 6.15065 h -4.81476 v -2.47696 h -4.45296 v 3.84068 h 5.28789 v 3.70152 h -5.28789 v 4.53645 h 4.45296 v -2.58828 h 4.81476 v 6.28981 H 412.6959 v -3.70153 h 1.75335 v -12.07865 h -1.75335 z"
         id="path42-9" /></g></g></svg>
