<?xml version="1.0" encoding="UTF-8" standalone="no"?>
<!-- Created with Inkscape (http://www.inkscape.org/) -->

<svg
   width="1000"
   height="646"
   viewBox="0 0 264.58333 170.92083"
   version="1.1"
   id="svg1"
   inkscape:version="1.4 (86a8ad7, 2024-10-11)"
   xml:space="preserve"
   sodipodi:docname="wheel_of_bible_prize.svg"
   xmlns:inkscape="http://www.inkscape.org/namespaces/inkscape"
   xmlns:sodipodi="http://sodipodi.sourceforge.net/DTD/sodipodi-0.dtd"
   xmlns="http://www.w3.org/2000/svg"
   xmlns:svg="http://www.w3.org/2000/svg"><sodipodi:namedview
     id="namedview1"
     pagecolor="#ffffff"
     bordercolor="#000000"
     borderopacity="0.25"
     inkscape:showpageshadow="false"
     inkscape:pageopacity="0.0"
     inkscape:pagecheckerboard="0"
     inkscape:deskcolor="#d1d1d1"
     inkscape:document-units="px"
     borderlayer="false"
     inkscape:zoom="0.60158141"
     inkscape:cx="332.45708"
     inkscape:cy="547.72304"
     inkscape:window-width="2048"
     inkscape:window-height="1209"
     inkscape:window-x="-8"
     inkscape:window-y="-8"
     inkscape:window-maximized="1"
     inkscape:current-layer="layer1" /><defs
     id="defs1">
  <filter
   id="whiteBulbGlow"
   x="-0.80000001"
   y="-0.80000001"
   width="2.5999999"
   height="2.5999999">
    <feGaussianBlur
   in="SourceGraphic"
   stdDeviation="2.4"
   result="blur1"
   id="feGaussianBlur1" />
    <feGaussianBlur
   in="SourceGraphic"
   stdDeviation="5.4"
   result="blur2"
   id="feGaussianBlur2" />
    <feMerge
   id="feMerge4">
      <feMergeNode
   in="blur2"
   id="feMergeNode2" />
      <feMergeNode
   in="blur1"
   id="feMergeNode3" />
      <feMergeNode
   in="SourceGraphic"
   id="feMergeNode4" />
    </feMerge>
  </filter>

  <filter
   id="yellowBulbGlow"
   x="-0.80000001"
   y="-0.80000001"
   width="2.5999999"
   height="2.5999999">
    <feGaussianBlur
   in="SourceGraphic"
   stdDeviation="2.6"
   result="blur1"
   id="feGaussianBlur4" />
    <feGaussianBlur
   in="SourceGraphic"
   stdDeviation="6.2"
   result="blur2"
   id="feGaussianBlur5" />
    <feMerge
   id="feMerge7">
      <feMergeNode
   in="blur2"
   id="feMergeNode5" />
      <feMergeNode
   in="blur1"
   id="feMergeNode6" />
      <feMergeNode
   in="SourceGraphic"
   id="feMergeNode7" />
    </feMerge>
  </filter>

  <style
   id="introSvgAnimations">
    #background {
      animation: introRainbowPulse 7s ease-in-out infinite;
    }

    #white-lights {
      animation: whiteLightGlow 1.4s ease-in-out infinite;
    }

    #yellow-lights {
      animation: yellowLightGlow 1.4s ease-in-out infinite;
    }

    @keyframes introRainbowPulse {
      0% {
        fill: #ff5a51;
      }

      16% {
        fill: #ff9e3d;
      }

      32% {
        fill: #ffc751;
      }

      48% {
        fill: #a7cb6f;
      }

      64% {
        fill: #40b9c5;
      }

      80% {
        fill: #7f66c6;
      }

      100% {
        fill: #ff5a51;
      }
    }

    @keyframes whiteLightGlow {
      0%,
      100% {
        fill: #ffffff;
        opacity: 1;
        filter: url(#whiteBulbGlow);
      }

      50% {
        fill: #d9d9d9;
        opacity: .48;
        filter: none;
      }
    }

    @keyframes yellowLightGlow {
      0%,
      100% {
        fill: #8a6210;
        opacity: .50;
        filter: none;
      }

      50% {
        fill: #fff1a7;
        opacity: 1;
        filter: url(#yellowBulbGlow);
      }
    }
  </style>
</defs><g
     inkscape:label="Layer 1"
     inkscape:groupmode="layer"
     id="layer1"><rect
       style="fill:#a7cb6f;fill-opacity:1;stroke-width:0.197963;stroke-linecap:round;stroke-linejoin:round"
       id="background"
       width="138.54961"
       height="233.83331"
       x="16.185612"
       y="-249.20833"
       rx="0"
       ry="0"
       transform="rotate(90)" /><path
       id="path38"
       style="opacity:0.15;fill:#000000;stroke-width:0.234597;stroke-linecap:round;stroke-linejoin:round"
       d="M 247.33471,17.295918 H 17.248675 V 153.62495 H 247.33471 Z m -6.75108,4.918557 V 148.70634 H 23.999715 V 22.214475 Z" /><path
       id="rect1"
       style="fill:#333333;stroke-width:0.225431;stroke-linecap:round;stroke-linejoin:round"
       d="m 4.8379245,10.547456 c 0,-4.1520447 3.34276,-7.4947507 7.4947905,-7.4947507 H 252.25065 c 4.15204,0 7.49475,3.342706 7.49475,7.4947507 V 160.37334 c 0,4.15214 -3.34271,7.49479 -7.49475,7.49479 H 12.332715 c -4.1520305,0 -7.4947905,-3.34265 -7.4947905,-7.49479 z M 21.745405,19.960144 V 150.96065 H 242.83796 V 19.960144 Z" /><path
       id="white-lights"
       style="fill:#ffffff;fill-opacity:1;stroke-width:0.22242;stroke-linecap:round;stroke-linejoin:round"
       d="m 256.19043,33.225449 a 4.8989718,4.8989718 0 0 0 -4.89876,-4.898756 4.8989718,4.8989718 0 0 0 -4.8992,4.898756 4.8989718,4.8989718 0 0 0 4.8992,4.899204 4.8989718,4.8989718 0 0 0 4.89876,-4.899204 z m 0,41.787806 a 4.8989718,4.8989718 0 0 0 -4.89876,-4.89875 4.8989718,4.8989718 0 0 0 -4.8992,4.89875 4.8989718,4.8989718 0 0 0 4.8992,4.8992 4.8989718,4.8989718 0 0 0 4.89876,-4.8992 z m 0,41.788255 a 4.8989718,4.8989718 0 0 0 -4.89876,-4.89915 4.8989718,4.8989718 0 0 0 -4.8992,4.89915 4.8989718,4.8989718 0 0 0 4.8992,4.8987 4.8989718,4.8989718 0 0 0 4.89876,-4.8987 z m 0,42.61289 a 4.8989718,4.8989718 0 0 0 -4.89876,-4.89915 4.8989718,4.8989718 0 0 0 -4.8992,4.89915 4.8989718,4.8989718 0 0 0 4.8992,4.8988 4.8989718,4.8989718 0 0 0 4.89876,-4.8988 z M 234.55418,11.506435 a 4.8989718,4.8989718 0 0 0 -4.89876,-4.8991937 4.8989718,4.8989718 0 0 0 -4.89919,4.8991937 4.8989718,4.8989718 0 0 0 4.89919,4.898746 4.8989718,4.8989718 0 0 0 4.89876,-4.898746 z M 212.91794,159.4144 a 4.8989718,4.8989718 0 0 0 -4.89919,-4.89915 4.8989718,4.8989718 0 0 0 -4.89876,4.89915 4.8989718,4.8989718 0 0 0 4.89876,4.8988 4.8989718,4.8989718 0 0 0 4.89919,-4.8988 z M 191.28169,11.506435 a 4.8989718,4.8989718 0 0 0 -4.89919,-4.8991937 4.8989718,4.8989718 0 0 0 -4.89875,4.8991937 4.8989718,4.8989718 0 0 0 4.89875,4.898746 4.8989718,4.8989718 0 0 0 4.89919,-4.898746 z M 169.64501,159.4144 a 4.8989718,4.8989718 0 0 0 -4.89875,-4.89915 4.8989718,4.8989718 0 0 0 -4.89923,4.89915 4.8989718,4.8989718 0 0 0 4.89923,4.8988 4.8989718,4.8989718 0 0 0 4.89875,-4.8988 z M 148.00872,11.506435 a 4.8989718,4.8989718 0 0 0 -4.89869,-4.8991937 4.8989718,4.8989718 0 0 0 -4.89926,4.8991937 4.8989718,4.8989718 0 0 0 4.89926,4.898746 4.8989718,4.8989718 0 0 0 4.89869,-4.898746 z M 126.37257,159.4144 a 4.8989718,4.8989718 0 0 0 -4.89926,-4.89915 4.8989718,4.8989718 0 0 0 -4.89869,4.89915 4.8989718,4.8989718 0 0 0 4.89869,4.8988 4.8989718,4.8989718 0 0 0 4.89926,-4.8988 z M 104.73631,11.506435 a 4.8989718,4.8989718 0 0 0 -4.899255,-4.8991937 4.8989718,4.8989718 0 0 0 -4.89869,4.8991937 4.8989718,4.8989718 0 0 0 4.89869,4.898746 4.8989718,4.8989718 0 0 0 4.899255,-4.898746 z M 83.099595,159.4144 a 4.8989718,4.8989718 0 0 0 -4.8988,-4.89915 4.8989718,4.8989718 0 0 0 -4.89915,4.89915 4.8989718,4.8989718 0 0 0 4.89915,4.8988 4.8989718,4.8989718 0 0 0 4.8988,-4.8988 z M 61.463335,11.506435 a 4.8989718,4.8989718 0 0 0 -4.89869,-4.8991937 4.8989718,4.8989718 0 0 0 -4.89927,4.8991937 4.8989718,4.8989718 0 0 0 4.89927,4.898746 4.8989718,4.8989718 0 0 0 4.89869,-4.898746 z M 39.827075,159.4144 a 4.8989718,4.8989718 0 0 0 -4.89916,-4.89915 4.8989718,4.8989718 0 0 0 -4.8988,4.89915 4.8989718,4.8989718 0 0 0 4.8988,4.8988 4.8989718,4.8989718 0 0 0 4.89916,-4.8988 z M 18.190905,11.506435 a 4.8989718,4.8989718 0 0 0 -4.89925,-4.8991937 4.8989718,4.8989718 0 0 0 -4.8986905,4.8991937 4.8989718,4.8989718 0 0 0 4.8986905,4.898746 4.8989718,4.8989718 0 0 0 4.89925,-4.898746 z m 0,42.61292 a 4.8989718,4.8989718 0 0 0 -4.89925,-4.898752 4.8989718,4.8989718 0 0 0 -4.8986905,4.898752 4.8989718,4.8989718 0 0 0 4.8986905,4.89919 4.8989718,4.8989718 0 0 0 4.89925,-4.89919 z m 0,41.78824 a 4.8989718,4.8989718 0 0 0 -4.89925,-4.8992 4.8989718,4.8989718 0 0 0 -4.8986905,4.8992 4.8989718,4.8989718 0 0 0 4.8986905,4.898715 4.8989718,4.8989718 0 0 0 4.89925,-4.898715 z m 0,41.787815 a 4.8989718,4.8989718 0 0 0 -4.89925,-4.89915 4.8989718,4.8989718 0 0 0 -4.8986905,4.89915 4.8989718,4.8989718 0 0 0 4.8986905,4.8987 4.8989718,4.8989718 0 0 0 4.89925,-4.8987 z" /><path
       inkscape:connector-curvature="0"
       style="color:#000000;clip-rule:nonzero;display:inline;overflow:visible;visibility:visible;isolation:auto;mix-blend-mode:normal;color-interpolation:sRGB;color-interpolation-filters:linearRGB;solid-color:#000000;solid-opacity:1;fill:#9a3c23;fill-opacity:1;fill-rule:nonzero;stroke:none;stroke-width:0.0563579;stroke-linecap:round;stroke-linejoin:round;stroke-miterlimit:4;stroke-dasharray:none;stroke-dashoffset:0;stroke-opacity:0.992157;marker:none;color-rendering:auto;image-rendering:auto;shape-rendering:auto;text-rendering:auto;enable-background:accumulate"
       d="m 227.03584,73.710895 h -1.54831 v 1.51859 c 0.848,0 1.53148,-0.67476 1.54831,-1.51859 z"
       id="rect4220-9-7" /><path
       id="yellow-lights"
       style="fill:#ffc751;fill-opacity:1;stroke-width:0.22242;stroke-linecap:round;stroke-linejoin:round"
       d="m 256.19043,11.506435 a 4.8989718,4.8989718 0 0 0 -4.89876,-4.8991937 4.8989718,4.8989718 0 0 0 -4.8992,4.8991937 4.8989718,4.8989718 0 0 0 4.8992,4.898746 4.8989718,4.8989718 0 0 0 4.89876,-4.898746 z m 0,42.61292 a 4.8989718,4.8989718 0 0 0 -4.89876,-4.898752 4.8989718,4.8989718 0 0 0 -4.8992,4.898752 4.8989718,4.8989718 0 0 0 4.8992,4.89919 4.8989718,4.8989718 0 0 0 4.89876,-4.89919 z m 0,41.78824 a 4.8989718,4.8989718 0 0 0 -4.89876,-4.8992 4.8989718,4.8989718 0 0 0 -4.8992,4.8992 4.8989718,4.8989718 0 0 0 4.8992,4.898715 4.8989718,4.8989718 0 0 0 4.89876,-4.898715 z m 0,41.787815 a 4.8989718,4.8989718 0 0 0 -4.89876,-4.89915 4.8989718,4.8989718 0 0 0 -4.8992,4.89915 4.8989718,4.8989718 0 0 0 4.8992,4.8987 4.8989718,4.8989718 0 0 0 4.89876,-4.8987 z m -21.63625,21.71899 a 4.8989718,4.8989718 0 0 0 -4.89876,-4.89915 4.8989718,4.8989718 0 0 0 -4.89919,4.89915 4.8989718,4.8989718 0 0 0 4.89919,4.8988 4.8989718,4.8989718 0 0 0 4.89876,-4.8988 z M 212.91794,11.506435 a 4.8989718,4.8989718 0 0 0 -4.89919,-4.8991937 4.8989718,4.8989718 0 0 0 -4.89876,4.8991937 4.8989718,4.8989718 0 0 0 4.89876,4.898746 4.8989718,4.8989718 0 0 0 4.89919,-4.898746 z M 191.28169,159.4144 a 4.8989718,4.8989718 0 0 0 -4.89919,-4.89915 4.8989718,4.8989718 0 0 0 -4.89875,4.89915 4.8989718,4.8989718 0 0 0 4.89875,4.8988 4.8989718,4.8989718 0 0 0 4.89919,-4.8988 z M 169.64501,11.506435 a 4.8989718,4.8989718 0 0 0 -4.89875,-4.8991937 4.8989718,4.8989718 0 0 0 -4.89923,4.8991937 4.8989718,4.8989718 0 0 0 4.89923,4.898746 4.8989718,4.8989718 0 0 0 4.89875,-4.898746 z M 148.00872,159.4144 a 4.8989718,4.8989718 0 0 0 -4.89869,-4.89915 4.8989718,4.8989718 0 0 0 -4.89926,4.89915 4.8989718,4.8989718 0 0 0 4.89926,4.8988 4.8989718,4.8989718 0 0 0 4.89869,-4.8988 z M 126.37257,11.506435 a 4.8989718,4.8989718 0 0 0 -4.89926,-4.8991937 4.8989718,4.8989718 0 0 0 -4.89869,4.8991937 4.8989718,4.8989718 0 0 0 4.89869,4.898746 4.8989718,4.8989718 0 0 0 4.89926,-4.898746 z M 104.73631,159.4144 a 4.8989718,4.8989718 0 0 0 -4.899255,-4.89915 4.8989718,4.8989718 0 0 0 -4.89869,4.89915 4.8989718,4.8989718 0 0 0 4.89869,4.8988 4.8989718,4.8989718 0 0 0 4.899255,-4.8988 z M 83.099595,11.506435 a 4.8989718,4.8989718 0 0 0 -4.8988,-4.8991937 4.8989718,4.8989718 0 0 0 -4.89915,4.8991937 4.8989718,4.8989718 0 0 0 4.89915,4.898746 4.8989718,4.8989718 0 0 0 4.8988,-4.898746 z M 61.463335,159.4144 a 4.8989718,4.8989718 0 0 0 -4.89869,-4.89915 4.8989718,4.8989718 0 0 0 -4.89927,4.89915 4.8989718,4.8989718 0 0 0 4.89927,4.8988 4.8989718,4.8989718 0 0 0 4.89869,-4.8988 z M 39.827075,11.506435 a 4.8989718,4.8989718 0 0 0 -4.89916,-4.8991937 4.8989718,4.8989718 0 0 0 -4.8988,4.8991937 4.8989718,4.8989718 0 0 0 4.8988,4.898746 4.8989718,4.8989718 0 0 0 4.89916,-4.898746 z m -21.63617,21.719014 a 4.8989718,4.8989718 0 0 0 -4.89925,-4.898756 4.8989718,4.8989718 0 0 0 -4.8986905,4.898756 4.8989718,4.8989718 0 0 0 4.8986905,4.899204 4.8989718,4.8989718 0 0 0 4.89925,-4.899204 z m 0,41.787806 a 4.8989718,4.8989718 0 0 0 -4.89925,-4.89875 4.8989718,4.8989718 0 0 0 -4.8986905,4.89875 4.8989718,4.8989718 0 0 0 4.8986905,4.8992 4.8989718,4.8989718 0 0 0 4.89925,-4.8992 z m 0,41.788255 a 4.8989718,4.8989718 0 0 0 -4.89925,-4.89915 4.8989718,4.8989718 0 0 0 -4.8986905,4.89915 4.8989718,4.8989718 0 0 0 4.8986905,4.8987 4.8989718,4.8989718 0 0 0 4.89925,-4.8987 z m 0,42.61289 a 4.8989718,4.8989718 0 0 0 -4.89925,-4.89915 4.8989718,4.8989718 0 0 0 -4.8986905,4.89915 4.8989718,4.8989718 0 0 0 4.8986905,4.8988 4.8989718,4.8989718 0 0 0 4.89925,-4.8988 z" /><path
       d="m 36.804946,63.459475 h 20.051485 q 5.384195,0 8.726109,1.113971 3.341914,1.052084 5.198533,2.908703 1.856619,1.794732 2.475492,4.208337 0.68076,2.351717 0.68076,5.012871 0,3.094365 -1.299633,5.384195 -1.299633,2.28983 -3.527576,3.837012 -2.227943,1.485295 -5.198533,2.28983 -2.908703,0.742648 -6.250617,0.742648 h -4.703435 v 9.592531 h 3.775125 v 8.169127 h -19.92771 v -8.169127 h 3.465689 V 71.566711 h -3.465689 z m 16.152585,8.045349 v 10.76839 h 2.784929 q 2.723041,0 4.393998,-1.299634 1.670957,-1.36152 1.670957,-3.837012 0,-2.784929 -1.547183,-4.208336 -1.485295,-1.423408 -4.208336,-1.423408 z m 23.60728,-8.045349 h 20.113372 q 5.384197,0 8.726107,0.990197 3.34192,0.990196 5.19854,2.723041 1.9185,1.732844 2.53737,4.084562 0.68076,2.28983 0.68076,4.950983 0,1.794732 -0.68076,3.341915 -0.68076,1.547182 -1.9185,2.723041 -1.17586,1.113971 -2.84682,1.918506 -1.60907,0.742647 -3.52757,0.990197 1.60907,0.247549 3.03247,1.052084 1.4853,0.742647 2.59927,1.918506 1.11397,1.175859 1.79473,2.661154 0.68076,1.485295 0.68076,3.156252 0,1.980394 0.30944,3.094365 0.30944,1.113971 1.17586,1.113971 1.42341,0 1.42341,-1.980393 v -2.042281 h 4.14644 v 3.403801 q 0,1.918507 -0.43321,3.713234 -0.43321,1.79474 -1.48529,3.15626 -1.05209,1.36152 -2.78493,2.22794 -1.73284,0.80453 -4.33211,0.80453 -6.12684,0 -9.09743,-3.03247 -2.908707,-3.03248 -2.908707,-8.478563 0,-2.104169 -0.185662,-3.465689 -0.185662,-1.361521 -0.866422,-2.104168 -0.618873,-0.804535 -1.856619,-1.113972 -1.237746,-0.309436 -3.280027,-0.309436 v 9.592531 h 3.775126 V 106.7187 H 76.564811 V 98.549573 H 80.0305 V 71.566711 h -3.465689 z m 16.214472,8.045349 v 10.52084 h 2.784929 q 2.723041,0 4.332111,-1.237746 1.609067,-1.299633 1.609067,-3.775125 0,-2.784928 -1.48529,-4.146449 -1.423411,-1.36152 -4.146452,-1.36152 z m 29.548467,-8.045349 h 20.54658 v 8.169123 h -3.83701 v 26.859088 h 3.83701 v 8.231014 h -20.54658 v -8.231014 h 3.8989 V 71.628598 h -3.8989 z m 24.1643,16.276359 V 63.459475 h 40.59807 l 0.12377,8.231011 -22.65075,26.859087 h 11.44915 l 0.0619,-7.921574 h 10.95405 V 106.7187 h -40.9075 v -8.045352 l 22.52697,-27.04475 -11.6967,0.06189 0.0619,8.045348 z m 43.96829,-16.276359 h 37.31804 v 13.677093 h -10.7065 v -5.50797 h -9.90197 v 8.540448 h 11.75859 v 8.23101 h -11.75859 v 10.08763 h 9.90197 v -5.755519 h 10.7065 V 106.7187 h -37.31804 v -8.231014 h 3.8989 V 71.628598 h -3.8989 z"
       id="text107"
       style="font-size:61.8873px;line-height:1.35;font-family:ChunkFive;-inkscape-font-specification:'ChunkFive, Normal';text-align:center;letter-spacing:0.152031px;word-spacing:0px;text-anchor:middle;white-space:pre;fill:#f2f2f2;stroke-width:6.24248;stroke-linecap:round"
       aria-label="PRIZE" /></g></svg>
