<?xml version="1.0" encoding="UTF-8" standalone="no"?>
<!-- Created with Inkscape (http://www.inkscape.org/) -->

<svg
   width="200"
   height="200"
   viewBox="0 0 52.916667 52.916667"
   version="1.1"
   id="svg1"
   inkscape:version="1.4 (86a8ad7, 2024-10-11)"
   xml:space="preserve"
   sodipodi:docname="wheel_of_bible_wheel.svg"
   inkscape:export-filename="..\..\Downloads\TempDump\button_wheel.png"
   inkscape:export-xdpi="319.67999"
   inkscape:export-ydpi="319.67999"
   xmlns:inkscape="http://www.inkscape.org/namespaces/inkscape"
   xmlns:sodipodi="http://sodipodi.sourceforge.net/DTD/sodipodi-0.dtd"
   xmlns="http://www.w3.org/2000/svg"
   xmlns:svg="http://www.w3.org/2000/svg"><sodipodi:namedview
     id="namedview1"
     pagecolor="#ffffff"
     bordercolor="#000000"
     borderopacity="0.25"
     inkscape:showpageshadow="false"
     inkscape:pageopacity="0.0"
     inkscape:pagecheckerboard="0"
     inkscape:deskcolor="#d1d1d1"
     inkscape:document-units="px"
     borderlayer="false"
     inkscape:zoom="2"
     inkscape:cx="99"
     inkscape:cy="84.75"
     inkscape:window-width="2048"
     inkscape:window-height="1209"
     inkscape:window-x="-8"
     inkscape:window-y="-8"
     inkscape:window-maximized="1"
     inkscape:current-layer="layer1"
     showgrid="false" /><defs
     id="defs1"><rect
       x="216.5"
       y="107.25"
       width="83.75"
       height="43"
       id="rect13" /></defs><g
     inkscape:label="Layer 1"
     inkscape:groupmode="layer"
     id="layer1"><text
       xml:space="preserve"
       transform="scale(0.26458333)"
       id="text13"
       style="font-weight:800;font-size:12.5228px;line-height:0.85;font-family:Metropolis;-inkscape-font-specification:'Metropolis Ultra-Bold';text-align:center;text-decoration-color:#000000;letter-spacing:0px;word-spacing:0px;writing-mode:lr-tb;direction:ltr;white-space:pre;shape-inside:url(#rect13);display:inline;opacity:1;fill:#333333;fill-opacity:1;stroke-linecap:round;stroke-linejoin:round" /><path
       id="circle2"
       style="fill:#ff5a51;stroke-width:0.55035;stroke-linecap:round;stroke-linejoin:round"
       d="m 50.940255,19.889448 a 25.316132,25.316132 0 0 1 8e-6,13.104601 L 26.486748,26.441751 Z"
       inkscape:transform-center-y="-2.6991657e-06"
       inkscape:transform-center-x="-12.658063" /><path
       id="path3"
       style="fill:#ffc751;stroke-width:0.55035;stroke-linecap:round;stroke-linejoin:round"
       d="m 50.940263,32.994049 a 25.316132,25.316132 0 0 1 -6.5523,11.348915 L 26.486749,26.44175 Z"
       inkscape:transform-center-x="-12.226758"
       inkscape:transform-center-y="8.9506075" /><path
       id="path4"
       style="fill:#40b9c5;stroke-width:0.55035;stroke-linecap:round;stroke-linejoin:round"
       d="M 44.387962,44.342965 A 25.316132,25.316132 0 0 1 33.039055,50.895253 L 26.486748,26.441752 Z"
       inkscape:transform-center-x="-8.9506053"
       inkscape:transform-center-y="12.226754" /><path
       id="path5"
       style="fill:#a7cb6f;stroke-width:0.55035;stroke-linecap:round;stroke-linejoin:round"
       d="M 19.934452,50.895253 A 25.316132,25.316132 0 0 1 8.5855393,44.342957 L 26.48675,26.441746 Z"
       inkscape:transform-center-x="8.9506075"
       inkscape:transform-center-y="12.226755" /><path
       id="path6"
       style="fill:#ff5a51;stroke-width:0.55035;stroke-linecap:round;stroke-linejoin:round"
       d="m 2.0332454,32.994042 a 25.316132,25.316132 0 0 1 2.5e-6,-13.104592 l 24.4535071,6.552295 z"
       inkscape:transform-center-x="12.658061"
       inkscape:transform-center-y="-1.9334668e-06" /><path
       id="path7"
       style="fill:#40b9c5;fill-opacity:1;stroke-width:0.55035;stroke-linecap:round;stroke-linejoin:round"
       d="M 8.5855414,8.5405372 A 25.316132,25.316132 0 0 1 19.934448,1.9882425 l 6.552303,24.4535125 z"
       inkscape:transform-center-y="-12.226751"
       inkscape:transform-center-x="8.950607" /><path
       id="path8"
       style="fill:#a7cb6f;fill-opacity:1;stroke-width:0.55035;stroke-linecap:round;stroke-linejoin:round"
       d="M 33.039047,1.9882366 A 25.316132,25.316132 0 0 1 44.387964,8.5405361 L 26.486749,26.441747 Z"
       inkscape:transform-center-y="-12.226753"
       inkscape:transform-center-x="-8.950602" /><path
       id="path9"
       style="fill:#ffa351;stroke-width:0.55035;stroke-linecap:round;stroke-linejoin:round"
       d="m 33.039042,50.895257 a 25.316132,25.316132 0 0 1 -13.104585,3e-6 l 6.552294,-24.453509 z"
       inkscape:transform-center-y="12.65806" /><path
       id="path10"
       style="fill:#7f66c6;stroke-width:0.55035;stroke-linecap:round;stroke-linejoin:round"
       d="M 8.5855443,44.342961 A 25.316132,25.316132 0 0 1 2.0332456,32.99405 L 26.486748,26.441751 Z"
       inkscape:transform-center-y="8.9506042"
       inkscape:transform-center-x="12.226756" /><path
       id="path11"
       style="fill:#ffc751;fill-opacity:1;stroke-width:0.55035;stroke-linecap:round;stroke-linejoin:round"
       d="M 2.0332422,19.889448 A 25.316132,25.316132 0 0 1 8.5855371,8.5405402 L 26.486749,26.44175 Z"
       inkscape:transform-center-x="12.226752"
       inkscape:transform-center-y="-8.9506045" /><path
       id="path12"
       style="fill:#ffa351;stroke-width:0.55035;stroke-linecap:round;stroke-linejoin:round"
       d="m 19.934455,1.9882446 a 25.316132,25.316132 0 0 1 13.104592,-8e-6 L 26.486755,26.441748 Z"
       inkscape:transform-center-x="2.0897069e-06"
       inkscape:transform-center-y="-12.658063" /><path
       id="path13"
       style="fill:#7f66c6;fill-opacity:1;stroke-width:0.55035;stroke-linecap:round;stroke-linejoin:round"
       d="M 44.387962,8.5405382 A 25.316132,25.316132 0 0 1 50.940253,19.889442 L 26.486749,26.44175 Z"
       inkscape:transform-center-x="-12.226748"
       inkscape:transform-center-y="-8.9506038" /><path
       id="path14"
       style="opacity:0.15;fill:#000000;fill-opacity:1;stroke:none;stroke-width:3.76092;stroke-linecap:round;stroke-linejoin:round"
       d="M 11.019874,45.087142 A 24.225503,24.225503 0 0 0 45.132141,41.908623 24.225503,24.225503 0 0 0 41.953635,7.7963607 24.225503,24.225503 0 0 0 7.841355,10.974876 24.225503,24.225503 0 0 0 11.019874,45.087142 Z m 1.554464,-1.873908 A 21.790777,21.790777 0 0 1 9.7152663,12.52933 21.790777,21.790777 0 0 1 40.399176,9.6702647 21.790777,21.790777 0 0 1 43.25823,40.354167 21.790777,21.790777 0 0 1 12.574338,43.213234 Z" /><path
       id="path1-4"
       style="fill:#fff7db;fill-opacity:1;stroke:none;stroke-width:3.99701;stroke-linecap:round;stroke-linejoin:round"
       d="M 10.048959,46.257584 A 25.746229,25.746229 0 0 0 46.302583,42.879548 25.746229,25.746229 0 0 0 42.924541,6.6259149 25.746229,25.746229 0 0 0 6.6709194,10.003962 25.746229,25.746229 0 0 0 10.048959,46.257584 Z m 1.652039,-1.99154 A 23.158667,23.158667 0 0 1 8.6624577,11.656 23.158667,23.158667 0 0 1 41.272498,8.6174517 23.158667,23.158667 0 0 1 44.311045,41.227506 23.158667,23.158667 0 0 1 11.700998,44.266044 Z" /><path
       id="path16"
       style="opacity:0.15;fill:#000000;fill-opacity:1;stroke:none;stroke-width:0.880742;stroke-linecap:round;stroke-linejoin:round"
       d="m 22.864636,30.808218 a 5.6732487,5.6732487 0 0 0 7.988583,-0.744365 5.6732487,5.6732487 0 0 0 -0.74436,-7.98857 5.6732487,5.6732487 0 0 0 -7.988579,0.744365 5.6732487,5.6732487 0 0 0 0.744356,7.98857 z" /><path
       id="path16-5"
       style="fill:#333333;fill-opacity:1;stroke:none;stroke-width:0.755755;stroke-linecap:round;stroke-linejoin:round"
       d="m 23.378673,30.188561 a 4.8681335,4.8681335 0 0 0 6.854888,-0.638722 4.8681335,4.8681335 0 0 0 -0.63873,-6.854899 4.8681335,4.8681335 0 0 0 -6.854883,0.638734 4.8681335,4.8681335 0 0 0 0.638725,6.854887 z" /><path
       style="font-size:3.23658px;line-height:0.85;font-family:ChunkFive;-inkscape-font-specification:ChunkFive;text-align:end;letter-spacing:0px;word-spacing:0px;text-anchor:end;white-space:pre;fill:#333333;stroke-width:0.258451;stroke-linecap:round;stroke-linejoin:round"
       d="m 41.056709,25.062969 v 0.336605 q 0.05501,0.02587 0.100322,0.06473 0.04857,0.03878 0.08088,0.09389 l 0.02589,-0.181247 0.472543,-1e-6 v 0.757351 l -0.498431,-1e-6 q -2.5e-5,-0.171531 -0.10355,-0.265415 -0.100351,-0.09385 -0.25567,-0.09393 -0.02914,6.1e-5 -0.06473,0.0097 -0.03238,0.0097 -0.06151,0.03239 -0.02908,0.01947 -0.04854,0.05179 -0.01623,0.02926 -0.01618,0.07122 -1e-6,0.08091 0.08089,0.132704 0.08092,0.0518 0.200674,0.100337 0.122997,0.04531 0.262154,0.100329 0.142435,0.05173 0.262162,0.132714 0.122988,0.08094 0.203911,0.200659 0.08089,0.119766 0.08091,0.300998 1e-5,0.177999 -0.06795,0.297779 -0.06475,0.119736 -0.168291,0.194191 -0.103551,0.07122 -0.233027,0.103569 -0.126233,0.02916 -0.252454,0.03236 v 0.333361 l -0.456348,-4e-6 -8e-6,-0.423986 q -0.08737,-0.04847 -0.168294,-0.119759 l -0.03558,0.194205 -0.472548,-10e-7 -5e-6,-0.780004 0.50814,1e-6 q -10e-7,0.0971 0.04208,0.158604 0.04523,0.05824 0.106844,0.09383 0.06148,0.03237 0.129456,0.04531 0.06795,0.0097 0.113237,0.0129 0.03556,4e-6 0.07445,-0.0065 0.04209,-0.0065 0.07768,-0.02268 0.03561,-0.01618 0.0583,-0.04856 0.02587,-0.03241 0.02593,-0.08093 3e-6,-0.05828 -0.07773,-0.100264 -0.07768,-0.04208 -0.194215,-0.08409 -0.116519,-0.04208 -0.255703,-0.09382 -0.135944,-0.0518 -0.252461,-0.135944 -0.116543,-0.08412 -0.194176,-0.203929 -0.07771,-0.122994 -0.07769,-0.304245 -5e-6,-0.161829 0.05501,-0.278334 0.05501,-0.116515 0.139178,-0.190964 0.08741,-0.07765 0.190964,-0.116491 0.106856,-0.04206 0.207145,-0.04857 l -2.5e-5,-0.271872 z m 0.851215,0.673208 q 0.06799,-0.03232 0.132709,-0.0647 0.06471,-0.03241 0.129463,-0.07448 0.068,-0.04526 0.142392,-0.110051 0.07447,-0.06796 0.161867,-0.174742 l 0.576107,7e-6 10e-7,1.831901 0.301002,-5e-6 -10e-7,0.430469 -1.294638,-4e-6 5e-6,-0.430466 0.323666,1e-6 -6e-6,-1.20077 -0.323663,0.152123 z M 44.4098,27.61339 q -0.203905,6e-6 -0.375449,-0.0712 -0.168268,-0.07449 -0.291291,-0.220082 -0.122983,-0.148877 -0.194194,-0.368974 -0.06801,-0.223299 -0.06799,-0.521081 10e-6,-0.255698 0.06474,-0.469297 0.06794,-0.216859 0.187721,-0.368965 0.122999,-0.152104 0.291304,-0.236275 0.168318,-0.08737 0.36896,-0.0874 0.236266,0 0.411037,0.08415 0.178013,0.08415 0.291299,0.239495 0.113229,0.155394 0.168306,0.375432 0.05826,0.216848 0.05826,0.485489 0,0.268642 -0.0615,0.485493 -0.05826,0.213608 -0.174783,0.365727 -0.116514,0.148885 -0.288064,0.229798 -0.168292,0.0777 -0.388393,0.07768 z m -5e-6,-0.501671 q 0.05503,-2.8e-5 0.103556,-0.04531 0.04855,-0.04855 0.08413,-0.132715 0.0356,-0.08733 0.05502,-0.207143 0.01944,-0.12298 0.01938,-0.271857 2.1e-5,-0.145661 -0.02267,-0.265405 -0.01944,-0.122978 -0.05823,-0.210384 -0.03882,-0.0874 -0.09063,-0.135924 -0.05178,-0.05181 -0.110063,-0.05179 -0.04532,2e-6 -0.09387,0.04531 -0.04531,0.04206 -0.08418,0.12621 -0.03888,0.08414 -0.06478,0.203898 -0.02594,0.11651 -0.02589,0.265403 0,0.155359 0.02589,0.281579 0.02916,0.126233 0.06794,0.21686 0.04213,0.08737 0.09386,0.13593 0.0518,0.0453 0.100309,0.04528 z m 1.938721,0.501672 q -0.203909,5e-6 -0.375449,-0.0712 -0.168285,-0.07447 -0.291293,-0.22007 -0.123024,-0.148867 -0.194192,-0.368972 -0.06802,-0.223307 -0.06799,-0.521083 -1e-6,-0.255699 0.06473,-0.469308 0.06794,-0.216852 0.187721,-0.368962 0.123008,-0.1521 0.291304,-0.236276 0.168324,-0.08736 0.368956,-0.08742 0.236267,1e-6 0.411039,0.08414 0.178018,0.08413 0.291298,0.239495 0.113216,0.155409 0.168303,0.375433 0.05826,0.216849 0.05826,0.485495 10e-7,0.268639 -0.0615,0.485484 -0.05826,0.213612 -0.174775,0.365737 -0.116514,0.148885 -0.288064,0.229797 -0.168301,0.07768 -0.388393,0.07768 z m 2e-6,-0.501667 q 0.05501,-3.3e-5 0.103566,-0.04535 0.04855,-0.04855 0.08412,-0.132707 0.03556,-0.08738 0.05502,-0.207135 0.01944,-0.122974 0.01942,-0.271869 6e-6,-0.145648 -0.02266,-0.265393 -0.01944,-0.122978 -0.05824,-0.210391 -0.03882,-0.0874 -0.09062,-0.135929 -0.05181,-0.05179 -0.110021,-0.05186 -0.04533,-3.2e-5 -0.09386,0.0453 -0.04531,0.04206 -0.08418,0.12621 -0.03888,0.08414 -0.06478,0.203898 -0.02594,0.116505 -0.02589,0.265401 0,0.15536 0.02589,0.281583 0.02916,0.126233 0.06794,0.216859 0.04205,0.08741 0.09386,0.13593 0.0518,0.0453 0.100318,0.04529 z"
       id="text1"
       inkscape:transform-center-x="-16.032912"
       inkscape:transform-center-y="6.8045967e-06"
       aria-label="$100" /><path
       style="font-size:3.23658px;line-height:0.85;font-family:ChunkFive;-inkscape-font-specification:ChunkFive;text-align:end;letter-spacing:0px;word-spacing:0px;text-anchor:end;white-space:pre;fill:#333333;stroke-width:0.258451;stroke-linecap:round;stroke-linejoin:round"
       d="m 39.670755,32.461458 -0.168303,0.29151 q 0.03472,0.04993 0.05452,0.106219 0.02267,0.05787 0.0231,0.12175 l 0.113048,-0.144021 0.409228,0.236269 -0.378678,0.655894 -0.43166,-0.249216 q 0.08577,-0.148558 0.04301,-0.281638 -0.03998,-0.131451 -0.174478,-0.209149 -0.02522,-0.01463 -0.06091,-0.02398 -0.0329,-0.0078 -0.06945,-0.0027 -0.0349,0.0022 -0.06793,0.02058 -0.02867,0.01722 -0.04962,0.05359 -0.04045,0.07007 0.0037,0.15538 0.04414,0.08525 0.123693,0.187191 0.08386,0.100738 0.176873,0.217971 0.09744,0.116033 0.160636,0.246041 0.06604,0.131576 0.07626,0.27573 0.01019,0.144173 -0.08043,0.301128 -0.08898,0.154162 -0.207702,0.223932 -0.115952,0.07133 -0.242833,0.08405 -0.125282,0.0099 -0.253595,-0.02682 -0.123902,-0.03786 -0.234833,-0.09814 l -0.166681,0.288701 -0.395215,-0.228178 0.211992,-0.367187 q -0.05137,-0.08578 -0.08587,-0.187861 l -0.127922,0.15039 -0.409234,-0.236271 0.390008,-0.675515 0.440069,0.254071 q -0.04855,0.08409 -0.04283,0.15838 0.01007,0.07314 0.04561,0.134678 0.03706,0.05878 0.08949,0.103953 0.05399,0.04238 0.09161,0.06789 0.0308,0.01778 0.06774,0.0316 0.03971,0.0154 0.0786,0.0192 0.03889,0.0038 0.07477,-0.0129 0.03861,-0.01513 0.06292,-0.05712 0.02913,-0.05047 -0.01715,-0.125706 -0.04623,-0.07528 -0.126182,-0.169904 -0.07992,-0.09464 -0.174534,-0.209102 -0.09183,-0.112832 -0.150666,-0.243962 -0.05888,-0.131116 -0.06619,-0.273686 -0.0058,-0.14533 0.08484,-0.30233 0.08091,-0.14015 0.186827,-0.213554 0.105913,-0.07339 0.216013,-0.09579 0.114524,-0.02354 0.223626,-0.0054 0.113541,0.01696 0.203676,0.06151 l 0.135907,-0.235441 z m 0.08541,2.998035 q -0.100939,-0.05826 -0.182825,-0.142929 -0.08355,-0.08185 -0.148957,-0.175698 -0.06097,-0.09502 -0.09874,-0.191528 -0.03332,-0.0977 -0.03968,-0.183649 l 0.45742,-0.132091 q 0.03317,0.123799 0.08658,0.225579 0.05784,0.100628 0.178276,0.170212 0.117715,0.06795 0.215737,0.05356 0.09965,-0.01716 0.161111,-0.123753 0.06638,-0.114935 0.02776,-0.196996 -0.0358,-0.08043 -0.142288,-0.141929 l -0.210218,-0.121364 0.192572,-0.333554 0.204611,0.118132 q 0.100861,0.05826 0.195715,0.04944 0.09918,-0.01 0.154218,-0.105314 0.03234,-0.05607 0.03421,-0.111061 0.0018,-0.05502 -0.01999,-0.101264 -0.01749,-0.04748 -0.05423,-0.08734 -0.03396,-0.03834 -0.07881,-0.0642 -0.08129,-0.04694 -0.194061,-0.05225 -0.112767,-0.0053 -0.230967,0.03109 l -0.08256,-0.484905 q 0.06072,-0.02103 0.148282,-0.03021 0.09198,-0.01042 0.19312,-0.0044 0.10398,0.0077 0.208202,0.03425 0.108663,0.02539 0.203973,0.08038 0.170968,0.09873 0.278448,0.216845 0.110252,0.119725 0.154614,0.250004 0.04718,0.131876 0.03172,0.268717 -0.01539,0.136801 -0.09314,0.271366 -0.04206,0.07285 -0.09682,0.116 -0.05479,0.04306 -0.114314,0.06854 -0.05506,0.0243 -0.110965,0.03688 -0.05146,0.01142 -0.09082,0.01483 0.01911,0.04471 0.04124,0.109794 0.02222,0.06511 0.02902,0.14387 0.0097,0.08036 -0.006,0.172189 -0.01402,0.08903 -0.06906,0.184359 -0.09065,0.156975 -0.227042,0.231428 -0.133606,0.07611 -0.28826,0.09145 -0.153016,0.01254 -0.315812,-0.02911 -0.158372,-0.0428 -0.301329,-0.125382 z m 1.666558,0.958492 q -0.176591,-0.101949 -0.289545,-0.249395 -0.108504,-0.148635 -0.142222,-0.336233 -0.03208,-0.190423 0.01631,-0.416637 0.05275,-0.227392 0.201675,-0.485255 0.12785,-0.221443 0.290711,-0.374066 0.167265,-0.153833 0.347055,-0.225672 0.182574,-0.07023 0.370412,-0.05897 0.189438,0.0085 0.363227,0.108787 0.204613,0.118133 0.313893,0.278395 0.112098,0.161875 0.132524,0.353057 0.02037,0.191189 -0.04196,0.409292 -0.05797,0.216926 -0.192292,0.449579 -0.134322,0.232653 -0.296004,0.389694 -0.15726,0.155861 -0.334227,0.229349 -0.175347,0.07068 -0.364369,0.05498 -0.184593,-0.01686 -0.375197,-0.126923 z m 0.250833,-0.434462 q 0.04767,0.02748 0.11234,0.01257 0.06632,-0.01777 0.139218,-0.07287 0.07454,-0.05792 0.151217,-0.151875 0.07833,-0.09679 0.152749,-0.225737 0.07283,-0.126134 0.113073,-0.241171 0.04471,-0.11624 0.05476,-0.211322 0.01005,-0.09507 -0.01051,-0.163027 -0.01892,-0.07071 -0.0694,-0.0999 -0.03925,-0.02266 -0.103948,-0.0077 -0.06027,0.01377 -0.136008,0.06721 -0.07574,0.05343 -0.15805,0.14419 -0.08067,0.08802 -0.155123,0.216901 -0.07768,0.134545 -0.118369,0.256801 -0.03786,0.123911 -0.04959,0.221775 -0.0073,0.09674 0.01332,0.164648 0.02221,0.06513 0.06423,0.08937 z m 1.428139,1.403814 Q 42.92511,37.285379 42.812154,37.137945 42.70365,36.989309 42.669932,36.80171 q -0.03208,-0.190424 0.01631,-0.416638 0.05275,-0.227392 0.201674,-0.485253 0.127851,-0.221444 0.29071,-0.374066 0.167265,-0.15383 0.347056,-0.225674 0.182573,-0.07023 0.370411,-0.05897 0.189457,0.0085 0.363223,0.108796 0.204618,0.118124 0.313901,0.278387 0.112087,0.161881 0.132517,0.353062 0.02035,0.191198 -0.04197,0.409288 -0.05797,0.216927 -0.19229,0.449573 -0.134323,0.232654 -0.296007,0.389699 -0.157259,0.155859 -0.334229,0.22935 -0.175346,0.07068 -0.364365,0.05499 -0.184592,-0.01688 -0.375196,-0.126922 z m 0.250839,-0.43446 q 0.04761,0.02751 0.112336,0.01254 0.06632,-0.01777 0.139215,-0.07287 0.07447,-0.05782 0.151217,-0.151875 0.07832,-0.09678 0.152758,-0.22573 0.0728,-0.126125 0.113073,-0.241172 0.04468,-0.116226 0.05476,-0.211312 0.01006,-0.09514 -0.01051,-0.163028 -0.01897,-0.07075 -0.06939,-0.0999 -0.03926,-0.02263 -0.103974,-0.0077 -0.06027,0.01377 -0.136007,0.06721 -0.07576,0.05344 -0.158049,0.14419 -0.08072,0.08793 -0.155125,0.216904 -0.07768,0.134542 -0.118368,0.2568 -0.03786,0.123888 -0.04959,0.221777 -0.0072,0.09673 0.01332,0.164649 0.02221,0.06513 0.06423,0.08938 z"
       id="text2"
       inkscape:transform-center-x="-13.884895"
       inkscape:transform-center-y="8.0165562"
       aria-label="$300" /><path
       style="font-size:3.23658px;line-height:0.85;font-family:ChunkFive;-inkscape-font-specification:ChunkFive;text-align:end;letter-spacing:0px;word-spacing:0px;text-anchor:end;white-space:pre;fill:#333333;stroke-width:0.258451;stroke-linecap:round;stroke-linejoin:round"
       d="m 34.834707,38.143271 -0.291509,0.168303 q 0.0051,0.06059 -0.0059,0.119248 -0.0093,0.06145 -0.04087,0.116985 l 0.169912,-0.0682 0.23627,0.409225 -0.655889,0.378687 -0.249214,-0.431652 q 0.148516,-0.08582 0.178064,-0.222398 0.0311,-0.133832 -0.04656,-0.268366 -0.01452,-0.02528 -0.04075,-0.05121 -0.02458,-0.0232 -0.05882,-0.03708 -0.0314,-0.01545 -0.06912,-0.01614 -0.03325,5.13e-4 -0.06977,0.0216 -0.07007,0.04045 -0.07448,0.136412 -0.0044,0.09598 0.01344,0.223944 0.02217,0.129173 0.04419,0.277201 0.02638,0.149205 0.01613,0.293387 -0.0086,0.14697 -0.07182,0.27692 -0.06327,0.129948 -0.220218,0.22057 -0.154153,0.08902 -0.291855,0.09002 -0.13605,0.0038 -0.252315,-0.04869 -0.113446,-0.05406 -0.206205,-0.150021 -0.08837,-0.09474 -0.154253,-0.20245 l -0.288709,0.166705 -0.228174,-0.395215 0.36719,-0.211998 q -0.0017,-0.0999 0.01957,-0.205625 l -0.186004,0.06622 -0.236267,-0.40923 0.675514,-0.390001 0.254066,0.440072 q -0.08409,0.04855 -0.116318,0.115736 -0.02782,0.06829 -0.02793,0.1394 0.0027,0.06943 0.02549,0.134766 0.02557,0.0637 0.04538,0.104568 0.01778,0.0308 0.04287,0.06125 0.02668,0.03319 0.05848,0.05593 0.03181,0.02276 0.0712,0.02622 0.04097,0.0062 0.08305,-0.01801 0.05047,-0.02912 0.04798,-0.117463 -0.0024,-0.08831 -0.02422,-0.21025 -0.02182,-0.121939 -0.04653,-0.268374 -0.02313,-0.143629 -0.0085,-0.28661 0.01458,-0.142991 0.07952,-0.270115 0.06766,-0.128795 0.224638,-0.219403 0.140151,-0.08091 0.268576,-0.09153 0.12841,-0.01061 0.234968,0.02505 0.110952,0.03687 0.196382,0.107149 0.08984,0.07147 0.145622,0.1551 l 0.23544,-0.135949 z m -1.400773,2.681115 q -0.06148,-0.106511 -0.09496,-0.22921 -0.03188,-0.119881 -0.03922,-0.242708 -0.0058,-0.120022 0.01223,-0.231278 0.01965,-0.108479 0.05983,-0.187732 l 0.493138,0.122611 q -0.03717,0.129833 -0.04545,0.25792 -0.0067,0.130905 0.0646,0.254231 0.08253,0.142946 0.207939,0.17892 0.127033,0.0388 0.250359,-0.03248 0.05607,-0.03234 0.09077,-0.08229 0.0375,-0.05155 0.05132,-0.111834 0.01821,-0.05908 0.0071,-0.123689 -0.0083,-0.06612 -0.0423,-0.125059 -0.05664,-0.0981 -0.134304,-0.135487 -0.07323,-0.03615 -0.14676,-0.05359 l -0.04738,-0.451027 1.062935,-0.385711 0.640841,1.109972 -0.417642,0.24112 -0.43532,-0.753994 -0.299397,0.109324 q 0.05233,0.02582 0.117285,0.09293 0.0649,0.06715 0.124811,0.170856 0.07118,0.123344 0.09714,0.265333 0.02584,0.14202 -0.0064,0.280235 -0.03065,0.141056 -0.124449,0.269914 -0.09089,0.127306 -0.253538,0.221123 -0.176586,0.101957 -0.35481,0.103975 -0.173809,0.0032 -0.33311,-0.06556 -0.154855,-0.06756 -0.287096,-0.193005 -0.130597,-0.122671 -0.218003,-0.274034 z m 0.999636,1.725022 q -0.101958,-0.176586 -0.126053,-0.360753 -0.01965,-0.182975 0.04495,-0.362301 0.0674,-0.180986 0.222445,-0.352665 0.159378,-0.170552 0.417285,-0.319408 0.22144,-0.127848 0.438791,-0.178592 0.221775,-0.04959 0.413395,-0.02191 0.193241,0.03046 0.35027,0.134137 0.159821,0.102093 0.260182,0.275823 0.118133,0.204612 0.132644,0.398045 0.01613,0.196238 -0.06177,0.372019 -0.07796,0.175763 -0.240982,0.333473 -0.158667,0.15888 -0.391319,0.293201 -0.232652,0.134321 -0.451193,0.189481 -0.214122,0.05635 -0.404126,0.03151 -0.187194,-0.02646 -0.343042,-0.134571 -0.151421,-0.106914 -0.261468,-0.297517 z m 0.434459,-0.250835 q 0.0275,0.04766 0.09099,0.06707 0.06632,0.01777 0.157001,0.0065 0.09343,-0.01288 0.206895,-0.05592 0.116204,-0.04466 0.245152,-0.119119 0.126134,-0.07283 0.218508,-0.152322 0.09676,-0.07837 0.153082,-0.155627 0.05627,-0.0773 0.07241,-0.146443 0.01893,-0.07072 -0.0102,-0.121161 -0.02263,-0.03925 -0.08616,-0.05864 -0.0591,-0.01822 -0.15139,-0.0098 -0.0923,0.0084 -0.208931,0.04594 -0.11387,0.03579 -0.24279,0.11028 -0.134545,0.07766 -0.230905,0.163207 -0.09474,0.08837 -0.153834,0.167268 -0.05468,0.08012 -0.07079,0.149249 -0.01333,0.06751 0.01095,0.109526 z m 0.534897,1.92981 q -0.101957,-0.176585 -0.126056,-0.360756 -0.01971,-0.182954 0.04495,-0.362294 0.06742,-0.180954 0.222443,-0.352663 0.159381,-0.170555 0.41728,-0.319417 0.221441,-0.127847 0.438792,-0.178593 0.221774,-0.04959 0.413396,-0.02191 0.193229,0.03047 0.350274,0.134138 0.159821,0.102084 0.260161,0.27583 0.118132,0.204612 0.132651,0.398039 0.01615,0.196235 -0.06176,0.372019 -0.07792,0.175776 -0.240981,0.333471 -0.158666,0.158878 -0.391316,0.293199 -0.232649,0.13432 -0.45119,0.18948 -0.214124,0.05635 -0.404128,0.03151 -0.187195,-0.02646 -0.343043,-0.134571 -0.151409,-0.106932 -0.261461,-0.297523 z m 0.434453,-0.250834 q 0.02754,0.04764 0.09102,0.06703 0.06632,0.01777 0.156981,0.0065 0.09347,-0.01284 0.206896,-0.05592 0.116218,-0.04467 0.245153,-0.119117 0.126132,-0.07283 0.21851,-0.152325 0.09678,-0.07833 0.153084,-0.155629 0.05624,-0.07735 0.07242,-0.146438 0.019,-0.07077 -0.0101,-0.121221 -0.02266,-0.03925 -0.08616,-0.05864 -0.05908,-0.01821 -0.151377,-0.0098 -0.09231,0.0084 -0.208931,0.04594 -0.11387,0.03579 -0.242792,0.110278 -0.134544,0.07768 -0.230913,0.163216 -0.09474,0.08837 -0.153832,0.167263 -0.0546,0.08017 -0.07079,0.149252 -0.01333,0.06751 0.01094,0.109511 z"
       id="text3"
       inkscape:transform-center-x="-8.0163769"
       inkscape:transform-center-y="13.884842"
       aria-label="$500" /><path
       style="font-size:3.23658px;line-height:0.85;font-family:ChunkFive;-inkscape-font-specification:ChunkFive;text-align:end;letter-spacing:0px;word-spacing:0px;text-anchor:end;white-space:pre;fill:#333333;stroke-width:0.258451;stroke-linecap:round;stroke-linejoin:round"
       d="m 27.865536,40.78514 -0.336605,1e-6 q -0.02587,0.05501 -0.06473,0.100323 -0.03878,0.04857 -0.09389,0.08088 l 0.181246,0.02589 3e-6,0.472539 -0.757366,10e-7 2e-6,-0.498428 q 0.171533,-6.6e-5 0.265423,-0.103554 0.09385,-0.100351 0.09388,-0.255701 -6e-5,-0.02914 -0.0097,-0.06478 -0.0097,-0.03239 -0.03238,-0.06148 -0.01947,-0.02908 -0.05179,-0.04854 -0.02926,-0.01622 -0.07122,-0.01618 -0.08091,0 -0.132705,0.08089 -0.0518,0.08092 -0.100252,0.200703 -0.04531,0.122997 -0.100331,0.262163 -0.05178,0.142411 -0.132751,0.262141 -0.08094,0.122988 -0.200654,0.203904 -0.119754,0.08092 -0.301002,0.08091 -0.178001,6.2e-5 -0.297791,-0.06788 -0.119752,-0.06475 -0.194198,-0.168319 -0.07122,-0.103563 -0.103571,-0.233028 -0.02916,-0.12621 -0.03237,-0.252451 h -0.33336 l 4e-6,-0.456363 0.423997,5e-6 q 0.04848,-0.08737 0.119758,-0.168292 l -0.194205,-0.0356 -7e-6,-0.472548 0.78002,5e-6 3e-6,0.508139 q -0.0971,-1e-6 -0.158575,0.0421 -0.05827,0.04526 -0.09389,0.10676 -0.03238,0.06148 -0.04531,0.129455 -0.0097,0.06795 -0.01295,0.113284 -4e-6,0.03556 0.0065,0.07449 0.0065,0.04209 0.02268,0.07768 0.01618,0.03561 0.04855,0.05831 0.03241,0.02587 0.08093,0.02593 0.05826,10e-6 0.100271,-0.07772 0.04208,-0.07768 0.08415,-0.194192 0.04208,-0.116519 0.09387,-0.255684 0.05182,-0.135915 0.135944,-0.252462 0.08411,-0.116564 0.203925,-0.194166 0.122992,-0.07771 0.304242,-0.07769 0.161831,5e-6 0.278328,0.05504 0.116499,0.05503 0.190965,0.139178 0.07765,0.08741 0.116492,0.190966 0.04203,0.106839 0.04856,0.20713 l 0.271868,-2.6e-5 z m -0.249216,0.818851 2e-6,1.750993 -0.430471,-3e-6 -1.831902,-0.870637 4e-6,-0.699096 1.831904,0.8674 -6e-6,-0.530801 h -0.210377 l -10e-7,-0.517854 z m -2.301202,2.760807 q -5e-6,-0.203908 0.0712,-0.375449 0.07447,-0.168285 0.220086,-0.29128 0.14886,-0.123033 0.368973,-0.194194 0.223309,-0.06802 0.521084,-0.06797 0.255683,6e-6 0.469301,0.06473 0.216855,0.06794 0.368964,0.187721 0.152106,0.122999 0.236277,0.291304 0.08737,0.168316 0.0874,0.368955 0,0.236265 -0.08415,0.411037 -0.08415,0.178011 -0.239505,0.291296 -0.155392,0.113247 -0.375434,0.168306 -0.216851,0.05826 -0.485493,0.05826 -0.268625,-5e-6 -0.485491,-0.06151 -0.213607,-0.05826 -0.365733,-0.174774 -0.148884,-0.116514 -0.229797,-0.288062 -0.07768,-0.168302 -0.07768,-0.388393 z m 0.501671,0 q 5.2e-5,0.05502 0.04529,0.103561 0.04855,0.04855 0.132717,0.08413 0.08743,0.03559 0.207139,0.05502 0.122958,0.01944 0.271867,0.01942 0.14565,1.8e-5 0.265393,-0.02266 0.122963,-0.01948 0.210392,-0.05824 0.08737,-0.03882 0.135937,-0.09063 0.05181,-0.0518 0.05182,-0.11006 -2e-6,-0.04531 -0.04531,-0.09387 -0.04206,-0.04531 -0.126208,-0.08418 -0.08414,-0.03888 -0.2039,-0.06478 -0.11651,-0.02594 -0.265397,-0.02589 -0.15536,0 -0.281587,0.02588 -0.126209,0.02916 -0.216857,0.06794 -0.08737,0.04213 -0.135932,0.09386 -0.0453,0.0518 -0.04532,0.100321 z m -0.50167,1.938715 q 5e-6,-0.203907 0.0712,-0.375447 0.07447,-0.168284 0.220115,-0.291289 0.148856,-0.123006 0.368975,-0.194195 0.223305,-0.06802 0.521081,-0.06799 0.255698,0 0.469302,0.06473 0.216856,0.06794 0.368966,0.187722 0.152111,0.12299 0.236275,0.291301 0.08736,0.168325 0.0874,0.368959 -1.1e-5,0.236266 -0.08414,0.411042 -0.08414,0.178014 -0.239502,0.29129 -0.155365,0.11324 -0.375433,0.168306 -0.216851,0.05826 -0.485491,0.05826 -0.268643,0 -0.48549,-0.0615 -0.213608,-0.05826 -0.365728,-0.174783 -0.148885,-0.116514 -0.229798,-0.288065 -0.07768,-0.168291 -0.07768,-0.388391 z m 0.501671,10e-7 q 1.8e-5,0.05503 0.0453,0.103563 0.04855,0.04855 0.1327,0.08412 0.08734,0.03561 0.207138,0.05502 0.122982,0.01942 0.271865,0.0194 0.145651,1.8e-5 0.265397,-0.02266 0.122977,-0.01942 0.210388,-0.05824 0.08746,-0.0388 0.135944,-0.09062 0.05179,-0.0518 0.05185,-0.110029 1.8e-5,-0.04531 -0.0453,-0.09386 -0.04206,-0.04531 -0.12621,-0.08418 -0.08414,-0.03888 -0.203896,-0.06478 -0.11647,-0.02593 -0.265401,-0.02588 -0.155361,-1.1e-5 -0.281588,0.02589 -0.126214,0.02917 -0.216854,0.06794 -0.08737,0.04213 -0.135932,0.09386 -0.0453,0.05181 -0.04529,0.100331 z"
       id="text4"
       inkscape:transform-center-x="1.1433543e-05"
       aria-label="$700"
       inkscape:transform-center-y="16.032896" /><path
       style="font-size:3.23658px;line-height:0.85;font-family:ChunkFive;-inkscape-font-specification:ChunkFive;text-align:end;letter-spacing:0px;word-spacing:0px;text-anchor:end;white-space:pre;fill:#333333;stroke-width:0.258451;stroke-linecap:round;stroke-linejoin:round"
       d="m 20.543102,39.494022 -0.291508,-0.168303 q -0.04992,0.03471 -0.106219,0.05452 -0.05787,0.02267 -0.12175,0.0231 l 0.14402,0.113048 -0.236268,0.409222 -0.655893,-0.378678 0.249217,-0.431654 q 0.148561,0.08574 0.281637,0.04301 0.131451,-0.03998 0.209177,-0.174484 0.01463,-0.02522 0.02399,-0.06095 0.0078,-0.03289 0.0027,-0.06947 -0.0022,-0.0349 -0.02058,-0.06793 -0.01722,-0.02868 -0.05359,-0.04962 -0.07007,-0.04045 -0.155378,0.0037 -0.08532,0.04418 -0.187207,0.123638 -0.100738,0.08386 -0.217967,0.17687 -0.116029,0.09746 -0.246021,0.160672 -0.131586,0.06603 -0.27573,0.07626 -0.144172,0.01019 -0.301127,-0.08043 -0.154159,-0.08898 -0.22394,-0.207695 -0.07133,-0.115953 -0.08402,-0.242848 -0.0099,-0.125298 0.02682,-0.253592 0.03786,-0.123901 0.09812,-0.234844 l -0.288705,-0.166682 0.228177,-0.395221 0.367188,0.211996 q 0.08578,-0.05137 0.187866,-0.08586 l -0.150397,-0.127915 0.236267,-0.409232 0.675514,0.390003 -0.254074,0.440066 q -0.08409,-0.04855 -0.158367,-0.04284 -0.0731,0.01006 -0.134682,0.04562 -0.05878,0.03706 -0.103961,0.08948 -0.04238,0.05399 -0.06793,0.09161 -0.01778,0.0308 -0.03161,0.06775 -0.0154,0.03971 -0.0192,0.07861 -0.0038,0.03893 0.0129,0.07477 0.01512,0.03858 0.05712,0.06292 0.05046,0.02914 0.125686,-0.01719 0.07528,-0.04623 0.16993,-0.126148 0.0947,-0.07987 0.209152,-0.174482 0.112832,-0.09183 0.243961,-0.150665 0.131127,-0.05886 0.273684,-0.06619 0.145329,-0.0058 0.302327,0.08484 0.140147,0.08092 0.213519,0.186829 0.07342,0.10589 0.09579,0.216015 0.02355,0.114538 0.0054,0.223626 -0.01696,0.113541 -0.06151,0.203679 l 0.235431,0.135895 z m -2.166348,0.02367 q -0.08415,0.04861 -0.194427,0.123223 -0.11035,0.07457 -0.184769,0.203508 -0.08499,0.160218 -0.04312,0.307714 0.0403,0.150324 0.226892,0.254328 -0.02369,-0.08842 -0.01557,-0.19959 0.01087,-0.109548 0.0701,-0.224903 0.07205,-0.137797 0.183701,-0.23402 0.112814,-0.09184 0.245886,-0.134573 0.135867,-0.04117 0.284354,-0.02645 0.146871,0.01752 0.289809,0.100047 0.140149,0.08091 0.238758,0.201413 0.097,0.123276 0.138903,0.270806 0.0431,0.151931 0.02427,0.320464 -0.01882,0.168536 -0.111907,0.342763 -0.09309,0.174238 -0.237742,0.288782 -0.143444,0.118992 -0.321498,0.161956 -0.176869,0.04737 -0.381063,0.01918 -0.204205,-0.02816 -0.417674,-0.143979 -0.108107,-0.05872 -0.227804,-0.142723 -0.118481,-0.07961 -0.222387,-0.184456 -0.10555,-0.102014 -0.189272,-0.22887 -0.08374,-0.126843 -0.118408,-0.273908 -0.03628,-0.144286 -0.01741,-0.312808 0.02155,-0.166915 0.12282,-0.355131 0.03764,-0.07161 0.106259,-0.151685 0.06581,-0.08161 0.145635,-0.155107 0.07985,-0.07349 0.172023,-0.136132 0.09061,-0.05982 0.179449,-0.09074 z m 0.220579,0.770167 q -0.02632,0.05199 -0.03215,0.101048 -0.0073,0.05166 -0.0028,0.09553 0.0058,0.04824 0.01642,0.08797 0.01348,0.04134 0.02622,0.07116 0.0533,0.03077 0.115816,0.05189 0.06532,0.02278 0.12917,0.02226 0.06661,0.0011 0.123364,-0.02592 0.05956,-0.02549 0.09837,-0.09271 0.03074,-0.05329 0.03866,-0.112207 0.01071,-0.05736 -0.0035,-0.110414 -0.01421,-0.05307 -0.04777,-0.09854 -0.03075,-0.04389 -0.08121,-0.07301 -0.04206,-0.02426 -0.09335,-0.03894 -0.05014,-0.01023 -0.103933,-0.0077 -0.05276,0.007 -0.09934,0.03614 -0.04671,0.02905 -0.08393,0.09355 z m -2.086782,1.089888 q 0.101958,-0.176585 0.249385,-0.289547 0.148646,-0.108521 0.336261,-0.142224 0.190435,-0.03217 0.416636,0.01631 0.227399,0.05275 0.485259,0.201676 0.22143,0.127836 0.374065,0.290711 0.153832,0.167265 0.225672,0.347054 0.07017,0.182589 0.05897,0.370411 -0.0085,0.189438 -0.108796,0.363222 -0.118134,0.204615 -0.278397,0.313897 -0.161874,0.112095 -0.353062,0.132526 -0.191194,0.02037 -0.409291,-0.04195 -0.216924,-0.05797 -0.449575,-0.192291 -0.232651,-0.134321 -0.389694,-0.296004 -0.155861,-0.157258 -0.229344,-0.334234 -0.07068,-0.175343 -0.05498,-0.364368 0.01688,-0.18459 0.126923,-0.375195 z m 0.434461,0.250838 q -0.02749,0.04767 -0.01256,0.112341 0.01777,0.06632 0.07287,0.139217 0.05786,0.07451 0.151878,0.151218 0.09678,0.07833 0.22575,0.152764 0.12613,0.07284 0.241153,0.113088 0.11624,0.04471 0.211322,0.05476 0.09509,0.01008 0.163021,-0.0105 0.07074,-0.01893 0.09989,-0.0694 0.02266,-0.03924 0.0077,-0.103934 -0.01377,-0.06027 -0.06721,-0.136006 -0.05343,-0.07574 -0.144192,-0.15805 -0.08791,-0.08069 -0.216899,-0.155123 -0.134547,-0.07768 -0.256801,-0.118379 -0.123879,-0.03785 -0.221771,-0.04959 -0.09673,-0.0072 -0.16465,0.01332 -0.06513,0.02221 -0.08937,0.06423 z m -1.40381,1.428149 q 0.101949,-0.176591 0.249386,-0.289549 0.148653,-0.108515 0.336238,-0.142222 0.190422,-0.03207 0.416635,0.01631 0.227399,0.05275 0.485267,0.201668 0.221442,0.127829 0.37406,0.290707 0.153831,0.167265 0.225672,0.347055 0.07024,0.182572 0.05897,0.370415 -0.0085,0.189439 -0.108787,0.363229 -0.118133,0.204612 -0.27838,0.313906 -0.161882,0.112089 -0.353062,0.132516 -0.191183,0.02037 -0.409286,-0.04196 -0.216928,-0.05797 -0.449576,-0.192291 -0.232653,-0.134323 -0.389697,-0.296007 -0.155861,-0.157259 -0.229349,-0.334227 -0.07068,-0.175348 -0.05498,-0.364371 0.01688,-0.184592 0.126923,-0.375197 z m 0.434462,0.250831 q -0.02748,0.04766 -0.01255,0.112365 0.01777,0.06632 0.07286,0.139201 0.0579,0.07451 0.151878,0.151218 0.09679,0.07832 0.225735,0.152749 0.126137,0.07282 0.241167,0.113071 0.116237,0.04467 0.211315,0.05476 0.0951,0.01008 0.163029,-0.01051 0.07075,-0.0189 0.0999,-0.06939 0.02261,-0.03922 0.0077,-0.103948 -0.01377,-0.06027 -0.06721,-0.136006 -0.05344,-0.07576 -0.14419,-0.15805 -0.08793,-0.08072 -0.216902,-0.155124 -0.134546,-0.07768 -0.256797,-0.118378 -0.123888,-0.03785 -0.221775,-0.04959 -0.09673,-0.0072 -0.164651,0.01332 -0.06513,0.02221 -0.08937,0.06423 z"
       id="text5"
       inkscape:transform-center-x="8.0165588"
       inkscape:transform-center-y="13.88487"
       aria-label="$900" /><path
       style="font-size:3.23658px;line-height:0.85;font-family:ChunkFive;-inkscape-font-specification:ChunkFive;text-align:end;letter-spacing:0px;word-spacing:0px;text-anchor:end;white-space:pre;fill:#ffffff;stroke-width:0.258451;stroke-linecap:round;stroke-linejoin:round"
       d="m 17.710243,32.813181 -0.90816,0.524328 q -0.243862,0.140793 -0.424347,0.177726 -0.178867,0.03975 -0.311514,0.0042 -0.131025,-0.03273 -0.222179,-0.125852 -0.09237,-0.0887 -0.16188,-0.209271 -0.08092,-0.140146 -0.08191,-0.277846 -9.8e-4,-0.137713 0.05944,-0.266033 0.06207,-0.125512 0.175564,-0.239643 0.112351,-0.109664 0.263678,-0.197083 l 0.21303,-0.122987 -0.250832,-0.434458 -0.171001,0.0987 -0.213605,-0.369986 0.902551,-0.521095 0.213617,0.369992 -0.156958,0.09062 0.705571,1.222096 0.15696,-0.09064 z m -0.941952,0.05799 -0.281583,-0.487708 -0.126133,0.07283 q -0.123332,0.07118 -0.165002,0.173773 -0.04007,0.105339 0.02469,0.217458 0.07283,0.126133 0.180111,0.150142 0.104491,0.02562 0.227825,-0.04558 z m -0.851946,0.977713 -0.910961,0.525945 q -0.24386,0.140795 -0.42111,0.183339 -0.177254,0.04252 -0.306662,0.01261 -0.132204,-0.02828 -0.221728,-0.11866 -0.09071,-0.08591 -0.160288,-0.206431 -0.0469,-0.08133 -0.05649,-0.169176 -0.0096,-0.08786 0.01569,-0.173497 0.02414,-0.0812 0.07877,-0.161333 0.0534,-0.07569 0.133857,-0.137108 -0.07935,0.0309 -0.164835,0.03173 -0.08667,0.0052 -0.167895,-0.01892 -0.0812,-0.02414 -0.150893,-0.07358 -0.06968,-0.04947 -0.11339,-0.125131 -0.05178,-0.08967 -0.09491,-0.132071 -0.04313,-0.04243 -0.08237,-0.01969 -0.06442,0.03722 -0.01269,0.126911 l 0.05339,0.09251 -0.187795,0.10843 -0.08904,-0.154141 q -0.05016,-0.08688 -0.07748,-0.179501 -0.0273,-0.09261 -0.01526,-0.181791 0.01207,-0.08918 0.06788,-0.173734 0.05748,-0.08176 0.175166,-0.149737 0.27749,-0.160209 0.49133,-0.100541 0.211037,0.06131 0.353451,0.307954 0.05502,0.0953 0.09903,0.152112 0.04401,0.05689 0.09423,0.07267 0.04919,0.02032 0.11323,0.0019 0.06415,-0.01833 0.156609,-0.07178 l -0.250827,-0.434455 -0.17099,0.0987 -0.213614,-0.369995 0.905358,-0.522706 0.213611,0.369991 -0.15696,0.09064 0.705577,1.222094 0.156952,-0.09063 z m -0.944755,0.05961 -0.275107,-0.476497 -0.126132,0.07283 q -0.123345,0.07118 -0.163832,0.169346 -0.03894,0.100939 0.02584,0.213055 0.07283,0.126133 0.175704,0.148961 0.100051,0.02443 0.223394,-0.04676 z m -1.121038,1.13306 -0.930582,0.537265 -0.213622,-0.369986 0.173775,-0.100335 -0.702334,-1.216491 -0.173775,0.100335 -0.215227,-0.372795 0.93058,-0.537274 0.215228,0.372798 -0.176589,0.101946 0.702326,1.216485 0.176592,-0.10195 z m -1.513141,-0.109266 0.425605,0.737176 -1.838738,1.061601 -0.220863,-0.369547 0.323545,-1.808779 -0.518545,0.299384 0.20437,0.36038 -0.496121,0.286436 -0.4207588,-0.728773 1.8527608,-1.069684 0.210375,0.364381 -0.313084,1.813955 0.528161,-0.30863 -0.213147,-0.362783 z m -1.558892,1.88292 -1.6901854,0.975831 -0.357643,-0.619457 0.4849139,-0.279964 0.1440243,0.249469 L 9.8081013,36.882156 9.584774,36.495352 9.052218,36.80282 8.8369929,36.430032 9.3695459,36.122556 9.105763,35.665672 8.6572908,35.924598 8.807797,36.185271 8.3228795,36.465232 7.957152,35.831765 l 1.6901818,-0.975833 0.215233,0.372793 -0.176593,0.10195 0.7023402,1.216485 0.17659,-0.101948 z"
       id="text6"
       inkscape:transform-center-x="13.884891"
       inkscape:transform-center-y="8.0164293"
       aria-label="PRIZE" /><path
       style="font-size:3.23658px;line-height:0.85;font-family:ChunkFive;-inkscape-font-specification:ChunkFive;text-align:end;letter-spacing:0px;word-spacing:0px;text-anchor:end;white-space:pre;fill:#333333;stroke-width:0.258451;stroke-linecap:round;stroke-linejoin:round"
       d="m 12.221045,27.820529 v -0.336605 q -0.05502,-0.02587 -0.100322,-0.06473 -0.04857,-0.03878 -0.08088,-0.09389 l -0.02589,0.181244 -0.472542,-3e-6 v -0.757354 l 0.49843,-3e-6 q 2e-6,0.171541 0.103572,0.265411 0.100351,0.09385 0.255674,0.09391 0.02914,-6.1e-5 0.06472,-0.0097 0.03238,-0.0097 0.06151,-0.03239 0.02908,-0.01947 0.04854,-0.05179 0.01622,-0.02926 0.01618,-0.07122 0,-0.08091 -0.08089,-0.132704 -0.08085,-0.05176 -0.200692,-0.10028 -0.122997,-0.04531 -0.262158,-0.10033 -0.142418,-0.05175 -0.262147,-0.132732 -0.122989,-0.08094 -0.203909,-0.200657 -0.08091,-0.119763 -0.08091,-0.300998 -2.1e-5,-0.177998 0.06796,-0.297766 0.06475,-0.119752 0.168312,-0.194205 0.10354,-0.07122 0.233027,-0.10357 0.126232,-0.02916 0.252449,-0.03238 v -0.333361 l 0.456343,-2e-6 v 0.423993 q 0.08741,0.04851 0.168294,0.119759 l 0.0357,-0.194191 0.472533,-8e-6 6e-6,0.780024 -0.508146,1e-6 q 0,-0.0971 -0.04209,-0.158579 -0.04527,-0.05828 -0.106844,-0.09383 -0.06148,-0.03237 -0.129456,-0.04531 -0.06794,-0.0097 -0.11328,-0.01291 -0.03556,-4e-6 -0.07445,0.0065 -0.04207,0.0065 -0.07768,0.02268 -0.03562,0.01617 -0.05831,0.04855 -0.02587,0.0324 -0.02593,0.08093 -2.2e-5,0.05827 0.07773,0.100245 0.07768,0.04208 0.194194,0.08415 0.116519,0.04208 0.255675,0.09391 0.135941,0.05181 0.252459,0.135944 0.116531,0.08413 0.194166,0.203924 0.0777,0.122979 0.07769,0.304242 6e-6,0.16183 -0.05503,0.278357 -0.05504,0.116511 -0.139177,0.190963 -0.08741,0.07765 -0.190963,0.116492 -0.106876,0.04205 -0.207146,0.04857 l -2.1e-5,0.271889 z m -0.877111,-0.614953 q -0.171536,0.197429 -0.385151,0.297766 -0.213624,0.10357 -0.456365,0.103576 -0.16183,5e-6 -0.301006,-0.04855 -0.142393,-0.04855 -0.2459762,-0.142416 -0.1036044,-0.09059 -0.1618272,-0.22333 -0.061468,-0.129458 -0.061433,-0.294545 1.48e-5,-0.139187 0.032364,-0.239514 0.032379,-0.100361 0.097123,-0.181223 0.06471,-0.07772 0.1618614,-0.148853 0.09708,-0.0712 0.226556,-0.155351 0.05823,-0.03881 0.132675,-0.09392 0.07128,-0.05179 0.142409,-0.113279 0.06797,-0.0582 0.126241,-0.119733 0.05504,-0.05829 0.08413,-0.106838 l -0.569634,1e-6 6e-6,0.258924 -0.5437443,5e-6 -7e-7,-0.689393 1.74776,10e-7 -7e-6,0.469306 q -0.06793,0.110059 -0.11976,0.184487 -0.05178,0.07767 -0.103534,0.13595 -0.055,0.0615 -0.113298,0.113275 -0.05826,0.05501 -0.135925,0.116528 -0.08741,0.07765 -0.187727,0.142414 -0.100335,0.06474 -0.184482,0.126231 -0.08739,0.06477 -0.14244,0.129432 -0.05825,0.06802 -0.05818,0.142421 -7e-6,0.122973 0.08089,0.168321 0.07768,0.04531 0.190963,0.04527 0.0647,1.6e-5 0.122982,-0.02591 0.055,-0.02262 0.106818,-0.05822 0.04851,-0.03564 0.09063,-0.08088 0.04208,-0.04212 0.07768,-0.08093 z M 8.5637076,25.270108 q 0.2039079,5e-6 0.3754444,0.0712 0.1682861,0.07447 0.291322,0.220063 0.1229836,0.148878 0.1941923,0.368971 0.068017,0.223309 0.067982,0.521084 -5e-6,0.255679 -0.064729,0.469298 -0.067942,0.216859 -0.1877224,0.368969 -0.1229941,0.15211 -0.2913014,0.236273 -0.1683193,0.08737 -0.3689579,0.08743 -0.2362662,-1e-6 -0.411034,-0.08415 -0.1780171,-0.08414 -0.2912989,-0.239495 -0.1132455,-0.155391 -0.1683175,-0.375436 -0.058262,-0.216853 -0.05826,-0.485492 2e-7,-0.268644 0.0615,-0.48549 0.058261,-0.213611 0.174775,-0.365737 0.1165135,-0.148885 0.2880621,-0.229797 0.1682993,-0.07768 0.38839,-0.07768 z m 1.9e-6,0.501666 q -0.055012,2.2e-5 -0.1035444,0.04528 -0.048549,0.04855 -0.084129,0.132716 -0.035604,0.08731 -0.055019,0.207135 -0.019438,0.122989 -0.019433,0.271882 -1.8e-5,0.145651 0.02265,0.265394 0.019396,0.122985 0.058237,0.21039 0.038804,0.08737 0.090621,0.135944 0.051774,0.05178 0.1100466,0.05181 0.045318,-3.2e-5 0.093865,-0.0453 0.045328,-0.04207 0.084182,-0.126208 0.038881,-0.08414 0.06478,-0.203899 0.025947,-0.1165 0.025892,-0.2654 4e-7,-0.155361 -0.025888,-0.281581 -0.029162,-0.12621 -0.067944,-0.216861 -0.042047,-0.08741 -0.093859,-0.135931 -0.0518,-0.0453 -0.1003224,-0.04529 z M 6.6249893,25.270112 q 0.2039069,6e-6 0.3754488,0.0712 0.1682862,0.07447 0.2912798,0.220121 0.1229855,0.148878 0.1941938,0.368973 0.068013,0.2233 0.067973,0.521082 4.3e-6,0.25568 -0.06473,0.469301 -0.067942,0.216857 -0.1877244,0.368967 -0.1230005,0.152104 -0.2912987,0.236272 -0.1683,0.08735 -0.3689587,0.08739 -0.2362631,0 -0.4110403,-0.08414 -0.1780067,-0.08416 -0.2912862,-0.239512 -0.1132325,-0.155391 -0.1683073,-0.375437 -0.058261,-0.216851 -0.05826,-0.485493 6e-7,-0.268641 0.061499,-0.485489 0.058259,-0.21361 0.1747746,-0.365735 0.1165131,-0.148884 0.2880635,-0.229798 0.1682997,-0.07768 0.3883917,-0.07768 z m -1e-6,0.501674 q -0.055042,-2.7e-5 -0.1035745,0.04534 -0.04855,0.04855 -0.084119,0.132699 -0.035617,0.08739 -0.05502,0.207137 -0.01942,0.122984 -0.019416,0.271868 4.1e-6,0.14565 0.02265,0.265396 0.019426,0.123002 0.058237,0.210387 0.038857,0.08737 0.090619,0.135931 0.051731,0.05184 0.110029,0.05185 0.045325,3.2e-5 0.093863,-0.0453 0.045311,-0.04206 0.084183,-0.12621 0.038881,-0.08414 0.064779,-0.203895 0.025947,-0.1165 0.025891,-0.265402 1.3e-6,-0.15536 -0.025891,-0.281582 -0.029162,-0.126233 -0.067941,-0.216858 -0.042035,-0.08741 -0.093861,-0.135932 -0.051801,-0.0453 -0.1003081,-0.04528 z"
       id="text7"
       inkscape:transform-center-x="16.032835"
       aria-label="$200"
       inkscape:transform-center-y="7.1305509e-05" /><path
       style="font-size:3.23658px;line-height:0.85;font-family:ChunkFive;-inkscape-font-specification:ChunkFive;text-align:end;letter-spacing:0px;word-spacing:0px;text-anchor:end;white-space:pre;fill:#333333;stroke-width:0.258451;stroke-linecap:round;stroke-linejoin:round"
       d="m 13.426072,20.493249 0.168302,-0.291507 q -0.03471,-0.04992 -0.05452,-0.10622 -0.02267,-0.05787 -0.0231,-0.12175 l -0.113048,0.144021 -0.409235,-0.236268 0.378679,-0.655889 0.431655,0.249209 q -0.08574,0.148559 -0.04301,0.281638 0.03998,0.131452 0.174491,0.209169 0.02522,0.01463 0.0609,0.02398 0.0329,0.0078 0.06947,0.0027 0.0349,-0.0022 0.06793,-0.02058 0.02866,-0.01721 0.04962,-0.05359 0.04045,-0.07007 -0.0037,-0.15539 -0.04415,-0.08526 -0.123662,-0.18719 -0.08386,-0.100738 -0.176874,-0.21797 -0.09742,-0.11611 -0.160723,-0.245986 -0.06603,-0.131586 -0.07626,-0.275728 -0.0102,-0.144171 0.08042,-0.301131 0.08902,-0.15416 0.207696,-0.22394 0.115952,-0.07133 0.242832,-0.08405 0.125297,-0.0099 0.253594,0.02682 0.123901,0.03786 0.23481,0.0982 l 0.16668,-0.288698 0.395213,0.228183 -0.211984,0.367189 q 0.05137,0.08578 0.08587,0.18786 l 0.128004,-0.150344 0.409234,0.236276 -0.390016,0.675508 -0.440066,-0.254078 q 0.04855,-0.08409 0.04283,-0.158369 -0.01006,-0.0731 -0.04561,-0.134678 -0.03707,-0.05879 -0.08946,-0.103966 -0.05398,-0.04237 -0.09163,-0.06788 -0.0308,-0.01778 -0.06772,-0.03159 -0.03971,-0.0154 -0.07861,-0.0192 -0.03893,-0.0038 -0.07472,0.01287 -0.03858,0.01512 -0.06292,0.05712 -0.02915,0.05047 0.01709,0.125733 0.04623,0.07528 0.126101,0.169973 0.07987,0.0947 0.174516,0.209113 0.09182,0.112841 0.150664,0.24396 0.05887,0.131122 0.06619,0.273688 0.0058,0.145329 -0.08484,0.302327 -0.08091,0.140151 -0.186828,0.213555 -0.105913,0.07339 -0.216018,0.09578 -0.114524,0.02354 -0.22363,0.0054 -0.113541,-0.01696 -0.203662,-0.06151 l -0.13592,0.235451 z m 0.01044,-1.623435 -1.388213,0.540201 -0.580208,-0.334986 0.637598,-1.104366 -0.148559,-0.08574 0.174774,-0.302719 0.14856,0.08574 0.10519,-0.182194 -0.15136,-0.08738 0.213625,-0.369994 0.908152,0.524329 -0.21361,0.369989 -0.176587,-0.101958 -0.105189,0.182193 0.807252,0.466065 z m -0.750607,-0.564173 -0.299381,0.518558 0.714212,-0.27904 z m -1.135142,-1.840083 q 0.176587,0.101958 0.289539,0.249392 0.108506,0.148636 0.142215,0.336265 0.03209,0.190419 -0.01631,0.416637 -0.05275,0.227396 -0.201675,0.485254 -0.12785,0.221444 -0.290712,0.374066 -0.167268,0.153833 -0.347052,0.22567 -0.182576,0.07023 -0.370415,0.05897 -0.189439,-0.0085 -0.363233,-0.108778 -0.204612,-0.118133 -0.313902,-0.278387 -0.1120949,-0.161876 -0.1325227,-0.353057 -0.020364,-0.191191 0.04197,-0.40929 0.057969,-0.216927 0.1922917,-0.449577 0.134329,-0.232645 0.296006,-0.389697 0.15726,-0.15586 0.334228,-0.229352 0.175347,-0.07068 0.364368,-0.05498 0.184598,0.01685 0.3752,0.126924 z m -0.250839,0.434456 q -0.04764,-0.02755 -0.112381,-0.01249 -0.06632,0.01777 -0.139215,0.07287 -0.07447,0.05787 -0.151217,0.151875 -0.07829,0.09683 -0.152741,0.22574 -0.07279,0.126132 -0.113071,0.241169 -0.04473,0.116226 -0.05476,0.211315 -0.01006,0.09513 0.01051,0.163027 0.01896,0.07072 0.06934,0.09991 0.03925,0.02266 0.103938,0.0077 0.06027,-0.01377 0.136007,-0.06721 0.07574,-0.05343 0.158031,-0.144187 0.08072,-0.08792 0.155123,-0.216894 0.07768,-0.134546 0.11837,-0.256807 0.03785,-0.123882 0.04959,-0.221777 0.0072,-0.09673 -0.01332,-0.164647 -0.02221,-0.06513 -0.06423,-0.08937 z M 9.8717866,15.496202 q 0.1765914,0.101949 0.2895384,0.249391 0.108506,0.148637 0.142224,0.33624 0.03208,0.190421 -0.0163,0.416632 -0.05275,0.227399 -0.201675,0.48526 -0.1278286,0.221436 -0.2907117,0.374063 -0.167266,0.153831 -0.3470543,0.225671 -0.1825746,0.07022 -0.3704091,0.05897 Q 8.8879608,17.633927 8.7141534,17.533614 8.5095397,17.415481 8.400262,17.25522 8.2881732,17.093338 8.267747,16.902153 8.247388,16.710957 8.309697,16.492861 8.367666,16.275933 8.5019969,16.04329 q 0.1343221,-0.232653 0.296005,-0.389693 0.1572608,-0.155862 0.3342279,-0.229352 0.1753477,-0.07068 0.3643696,-0.05498 0.1845783,0.01692 0.3751954,0.126922 z m -0.2508394,0.434451 q -0.047675,-0.0275 -0.1124049,-0.01246 -0.066321,0.01777 -0.1392025,0.07287 -0.07454,0.05787 -0.1512169,0.151877 -0.07831,0.0968 -0.1527482,0.225735 -0.072831,0.126118 -0.1130736,0.241171 -0.044686,0.116221 -0.054758,0.211316 -0.010055,0.09514 0.010512,0.163029 0.018978,0.07078 0.06937,0.09991 0.039226,0.02269 0.1039476,0.0077 0.060271,-0.01377 0.1360079,-0.06721 0.075742,-0.05343 0.1580491,-0.144189 0.080689,-0.0879 0.1551225,-0.216896 0.077678,-0.134548 0.1183684,-0.256805 0.037867,-0.123898 0.049589,-0.221773 0.0073,-0.09673 -0.013318,-0.16465 -0.022212,-0.06513 -0.06426,-0.08936 z"
       id="text8"
       inkscape:transform-center-x="13.884891"
       inkscape:transform-center-y="-8.0164346"
       aria-label="$400" /><path
       style="font-size:3.23658px;line-height:0.85;font-family:ChunkFive;-inkscape-font-specification:ChunkFive;text-align:end;letter-spacing:0px;word-spacing:0px;text-anchor:end;white-space:pre;fill:#333333;stroke-width:0.258451;stroke-linecap:round;stroke-linejoin:round"
       d="m 18.145274,14.751451 0.291508,-0.168302 q -0.0051,-0.06059 0.0059,-0.119249 0.0093,-0.06144 0.04078,-0.117022 l -0.169912,0.0682 -0.236271,-0.409233 0.655893,-0.378677 0.249217,0.431664 q -0.14854,0.08578 -0.178067,0.2224 -0.0311,0.133831 0.04653,0.268372 0.01452,0.02528 0.04075,0.05121 0.02458,0.0232 0.05881,0.03707 0.03136,0.01544 0.06912,0.01614 0.03325,-5.13e-4 0.06977,-0.0216 0.07009,-0.04046 0.07448,-0.136404 0.0044,-0.09598 -0.01354,-0.223946 -0.0222,-0.129172 -0.04419,-0.277197 -0.02643,-0.149226 -0.01609,-0.293391 0.0086,-0.146981 0.07182,-0.27692 0.06329,-0.129919 0.220219,-0.220571 0.154139,-0.08902 0.29184,-0.09009 0.136083,-0.0038 0.252314,0.04868 0.11346,0.05408 0.206209,0.150023 0.08837,0.09474 0.15433,0.20239 l 0.288697,-0.166681 0.228176,0.395212 -0.367188,0.211995 q 0.0017,0.09997 -0.01958,0.205615 l 0.186002,-0.06623 0.236277,0.409229 -0.675517,0.390012 -0.254067,-0.440073 q 0.08409,-0.04855 0.116288,-0.115739 0.02784,-0.06836 0.02793,-0.139407 -0.0027,-0.06943 -0.02549,-0.134767 -0.02557,-0.0637 -0.04539,-0.104603 -0.01778,-0.0308 -0.04285,-0.06123 -0.02669,-0.03319 -0.05848,-0.05593 -0.03178,-0.02274 -0.0712,-0.02622 -0.041,-0.0062 -0.08305,0.01801 -0.05046,0.02912 -0.04798,0.117451 0.0024,0.08831 0.02422,0.210251 0.02182,0.121938 0.04654,0.268372 0.02311,0.143631 0.0085,0.286609 -0.01459,0.142988 -0.07952,0.270124 -0.06764,0.128759 -0.224637,0.219404 -0.140152,0.08091 -0.268557,0.09151 -0.12841,0.01061 -0.23497,-0.02505 -0.110967,-0.03688 -0.196373,-0.107146 -0.08984,-0.07151 -0.145622,-0.1551 l -0.235429,0.135925 z m -0.387885,-2.451959 q 2e-5,0.09718 0.0095,0.22999 0.0094,0.132852 0.08387,0.261765 0.09625,0.153708 0.26057,0.185912 0.162719,0.02939 0.332623,-0.03881 -0.08843,-0.0237 -0.184303,-0.09913 -0.100305,-0.07663 -0.170637,-0.185514 -0.0833,-0.13129 -0.106393,-0.274918 -0.02754,-0.144777 0.0048,-0.283034 0.02947,-0.136638 0.118095,-0.255047 0.08698,-0.121233 0.229924,-0.20376 0.140152,-0.08091 0.295429,-0.103251 0.15364,-0.02517 0.306779,0.0135 0.148712,0.03747 0.285254,0.138043 0.136528,0.100594 0.240863,0.268284 0.10597,0.170544 0.13403,0.348666 0.02529,0.179746 -0.02371,0.353774 -0.05346,0.172862 -0.181541,0.332841 -0.128154,0.159944 -0.335147,0.286922 -0.0909,0.05618 -0.213485,0.115749 -0.127,0.05837 -0.266503,0.101546 -0.143937,0.04199 -0.296841,0.05551 -0.152914,0.0135 -0.301606,-0.02396 -0.148712,-0.03747 -0.283621,-0.135204 -0.13935,-0.09894 -0.251757,-0.280691 -0.04321,-0.06845 -0.07823,-0.167865 -0.03777,-0.0978 -0.06151,-0.203655 -0.02372,-0.105898 -0.03026,-0.214234 -0.0081,-0.11116 0.0095,-0.203582 z m 0.77727,0.194055 q 0.03189,0.04883 0.07464,0.08397 0.04268,0.03503 0.0906,0.05982 0.04345,0.02346 0.08769,0.03531 0.04427,0.01185 0.07353,0.01732 0.05326,-0.03077 0.104065,-0.0787 0.04635,-0.04918 0.07902,-0.10913 0.02824,-0.0611 0.03429,-0.128209 0.0017,-0.06822 -0.03712,-0.135541 -0.03077,-0.05326 -0.07505,-0.09116 -0.04708,-0.0363 -0.100188,-0.05056 -0.05308,-0.01421 -0.106442,-0.0096 -0.05625,0.0063 -0.106628,0.03541 -0.04204,0.0243 -0.07597,0.06253 -0.03834,0.03711 -0.05866,0.0862 -0.02468,0.04796 -0.02117,0.105669 0.0019,0.05498 0.03747,0.116668 z m 0.0052,-2.159423 q 0.101949,0.176591 0.12606,0.360743 0.01964,0.182978 -0.04494,0.362301 -0.06742,0.180952 -0.222446,0.352665 -0.159382,0.170559 -0.417282,0.319405 -0.221424,0.127846 -0.438792,0.178593 -0.221775,0.04959 -0.413396,0.02191 -0.19323,-0.03046 -0.350273,-0.134138 -0.15982,-0.102083 -0.260172,-0.275827 -0.118123,-0.204618 -0.132651,-0.398044 -0.01614,-0.196235 0.06176,-0.37202 0.07792,-0.175781 0.240989,-0.333468 0.15867,-0.15888 0.391319,-0.2932 0.23265,-0.13432 0.451192,-0.189492 0.214123,-0.056351 0.404123,-0.031508 0.187193,0.026461 0.34304,0.134571 0.151422,0.106914 0.261469,0.297519 z m -0.43446,0.250828 q -0.02752,-0.04764 -0.09106,-0.06702 -0.06632,-0.01777 -0.156998,-0.0065 -0.09351,0.01289 -0.206898,0.05592 -0.116197,0.04464 -0.245154,0.119117 -0.126122,0.07281 -0.21851,0.152324 -0.09684,0.07831 -0.153078,0.15562 -0.05628,0.07732 -0.07242,0.146452 -0.019,0.07071 0.01017,0.121218 0.02267,0.0392 0.0862,0.05866 0.05908,0.01821 0.151392,0.0098 0.09231,-0.0084 0.208969,-0.04585 0.113865,-0.03578 0.24279,-0.110281 0.134546,-0.07768 0.230911,-0.163211 0.09474,-0.08838 0.153835,-0.16727 0.05468,-0.08012 0.07079,-0.149251 0.01333,-0.06751 -0.01085,-0.109542 z M 17.570503,8.6551445 q 0.101949,0.1765918 0.126062,0.3607453 0.01965,0.1829751 -0.04496,0.3623258 -0.06742,0.1809509 -0.22244,0.3526588 -0.159385,0.170561 -0.417283,0.3194176 -0.221425,0.127846 -0.438797,0.178596 -0.221772,0.04959 -0.413393,0.02191 -0.193222,-0.03045 -0.350261,-0.134156 -0.15982,-0.102083 -0.260164,-0.2758329 -0.118133,-0.2046122 -0.132643,-0.3980446 -0.01614,-0.1962341 0.06177,-0.3720121 0.07797,-0.1757616 0.240977,-0.3334879 0.158668,-0.1588773 0.391316,-0.2931984 0.23265,-0.1343206 0.451194,-0.1894953 0.214119,-0.056347 0.404122,-0.031508 0.187196,0.026461 0.343043,0.1345715 0.151421,0.1069134 0.261467,0.2975161 z m -0.434451,0.2508347 q -0.02755,-0.047643 -0.09101,-0.067029 -0.06632,-0.017771 -0.157,-0.00651 -0.09352,0.012865 -0.206898,0.055919 -0.116218,0.044673 -0.245153,0.1191175 -0.126145,0.072812 -0.218508,0.1523233 -0.09681,0.078323 -0.153081,0.1556275 -0.05628,0.077318 -0.07241,0.1464439 -0.01902,0.070768 0.01022,0.1212181 0.02264,0.039267 0.08616,0.058638 0.05908,0.018212 0.15139,0.0098 0.09231,-0.0084 0.208972,-0.045846 0.113828,-0.035778 0.242767,-0.1102687 0.134544,-0.077679 0.230913,-0.1632146 0.09474,-0.088373 0.153833,-0.1672667 0.0546,-0.08017 0.07079,-0.1492515 0.01332,-0.067492 -0.01094,-0.1095108 z"
       id="text9"
       inkscape:transform-center-x="8.016487"
       inkscape:transform-center-y="-13.884949"
       aria-label="$600" /><path
       style="font-size:3.23658px;line-height:0.85;font-family:ChunkFive;-inkscape-font-specification:ChunkFive;text-align:end;letter-spacing:0px;word-spacing:0px;text-anchor:end;white-space:pre;fill:#333333;stroke-width:0.258451;stroke-linecap:round;stroke-linejoin:round"
       d="m 25.107973,12.075711 h 0.336606 q 0.02589,-0.05504 0.06473,-0.100322 0.03878,-0.04856 0.09389,-0.08088 l -0.181249,-0.02589 -4e-6,-0.472547 0.757361,7e-6 10e-7,0.49843 q -0.171551,2e-5 -0.265409,0.103571 -0.09385,0.100352 -0.09391,0.255673 6.1e-5,0.02914 0.0097,0.06472 0.0097,0.03238 0.03236,0.06147 0.01947,0.02908 0.05179,0.04854 0.02925,0.01622 0.07122,0.01618 0.08091,10e-7 0.132705,-0.08089 0.0518,-0.08092 0.100252,-0.200706 0.04531,-0.122996 0.10033,-0.262156 0.05177,-0.142403 0.13276,-0.262138 0.08094,-0.12298 0.200656,-0.203908 0.119755,-0.08092 0.301002,-0.08091 0.177996,-2.2e-5 0.297788,0.0679 0.119749,0.06475 0.194196,0.168283 0.07122,0.103551 0.103569,0.233026 0.02916,0.126233 0.03237,0.252453 h 0.333359 l 1e-6,0.456361 -0.423991,-5e-6 q -0.04851,0.08741 -0.119759,0.168295 l 0.194195,0.03565 -2e-6,0.472539 -0.780012,-2e-6 2e-6,-0.508138 q 0.0971,10e-7 0.158579,-0.04209 0.05827,-0.04526 0.09383,-0.106845 0.03237,-0.06148 0.04531,-0.129454 0.0097,-0.06793 0.01293,-0.1133 7e-6,-0.03557 -0.0065,-0.07445 -0.0065,-0.04208 -0.02268,-0.07768 -0.01617,-0.03561 -0.04855,-0.0583 -0.03241,-0.02587 -0.08093,-0.02593 -0.05826,-10e-6 -0.100264,0.07773 -0.04208,0.07768 -0.08415,0.19419 -0.04208,0.11652 -0.09392,0.255694 -0.05187,0.135895 -0.135944,0.252462 -0.08411,0.116548 -0.203923,0.194164 -0.122957,0.07769 -0.304242,0.07769 -0.161829,6e-6 -0.278355,-0.05503 -0.116516,-0.05501 -0.190964,-0.139177 -0.07765,-0.08741 -0.116491,-0.190964 -0.04202,-0.106827 -0.04857,-0.207146 l -0.27189,-3.2e-5 z m 1.848088,-0.818863 q -0.07766,2e-5 -0.16183,-0.02266 -0.08415,-0.02586 -0.161823,-0.0712 -0.07768,-0.04531 -0.142409,-0.110038 -0.06471,-0.0647 -0.103626,-0.14561 -0.07447,0.122974 -0.194222,0.184463 -0.11974,0.05828 -0.23627,0.05824 -0.13592,-6.1e-5 -0.252468,-0.05179 -0.116515,-0.05176 -0.200618,-0.148939 -0.08737,-0.100383 -0.135974,-0.242719 -0.04855,-0.145649 -0.04855,-0.326892 2.5e-5,-0.187716 0.04855,-0.330142 0.04855,-0.1456461 0.135972,-0.2427132 0.08418,-0.1003008 0.200661,-0.1488749 0.116493,-0.051825 0.25245,-0.051782 0.16183,4.9e-6 0.275111,0.084151 0.113294,0.080889 0.165076,0.1877171 0.08098,-0.1650572 0.239486,-0.2492441 0.155365,-0.084158 0.32042,-0.0842 0.148881,3.54e-5 0.278336,0.061532 0.129434,0.058286 0.223321,0.171531 0.09383,0.1100871 0.14887,0.2686541 0.05502,0.158595 0.05502,0.352778 6e-6,0.200661 -0.05502,0.362508 -0.05498,0.158594 -0.148862,0.268642 -0.09387,0.110026 -0.223328,0.168301 -0.129429,0.05832 -0.278345,0.05826 z m -0.01942,-0.559925 q 0.05826,0 0.106825,-0.02262 0.04859,-0.02586 0.08415,-0.06474 0.03564,-0.04213 0.05502,-0.09711 0.01939,-0.05499 0.01942,-0.116525 -10e-6,-0.11974 -0.06472,-0.207161 -0.06476,-0.08735 -0.200682,-0.09061 -0.08415,-2.1e-5 -0.139202,0.04527 -0.05503,0.04203 -0.08739,0.106806 -0.03239,0.06148 -0.0453,0.132726 -0.01297,0.07122 -0.01617,0.126237 0.04204,0.07445 0.119726,0.132741 0.07767,0.05501 0.16829,0.05503 z m -1.006579,-0.553458 q -0.08739,-1e-5 -0.145666,0.0744 -0.05831,0.07117 -0.05823,0.168304 -2.1e-5,0.09385 0.0615,0.165061 0.06149,0.06799 0.142435,0.06797 0.06796,-10e-7 0.110051,-0.03559 0.03886,-0.03561 0.06153,-0.08413 0.02269,-0.05185 0.03235,-0.106815 0.0097,-0.05504 0.0097,-0.09388 -0.02915,-0.0615 -0.08415,-0.106809 -0.05504,-0.04853 -0.129437,-0.04858 z m 1.72834,-1.6247629 q 5e-6,0.203907 -0.0712,0.3754499 -0.07447,0.1682862 -0.220096,0.2912975 -0.148859,0.1230521 -0.368977,0.1941947 -0.223303,0.068014 -0.521087,0.067973 -0.255698,6e-7 -0.469299,-0.064729 Q 25.79089,9.3149472 25.63878,9.195167 25.486673,9.0721659 25.402506,8.9038676 q -0.08737,-0.1683183 -0.08742,-0.3689591 -1e-6,-0.2362645 0.08415,-0.4110351 0.08415,-0.178013 0.239506,-0.2912973 0.155376,-0.1132401 0.375433,-0.1682961 0.216852,-0.058261 0.485493,-0.058258 0.268646,-2.3e-6 0.485489,0.061499 0.21361,0.058261 0.365735,0.1747869 0.148884,0.1165132 0.229795,0.2880596 0.07768,0.1683017 0.07768,0.3883931 z m -0.501668,6e-6 q -2.6e-5,-0.055036 -0.04529,-0.1035702 -0.04855,-0.048549 -0.132715,-0.084129 -0.08733,-0.035595 -0.207138,-0.05502 -0.12295,-0.019428 -0.271867,-0.019418 -0.145638,-1.14e-5 -0.265397,0.022662 -0.123013,0.019403 -0.210383,0.058233 -0.08739,0.038822 -0.135942,0.09062 -0.0518,0.0518 -0.05179,0.1100221 0,0.045321 0.0453,0.093865 0.04206,0.04531 0.126208,0.084183 0.08414,0.038881 0.203898,0.06478 0.1165,0.025947 0.2654,0.025895 0.15536,0 0.281579,-0.025891 0.126209,-0.029162 0.21686,-0.067943 0.08742,-0.042041 0.135932,-0.093861 0.04528,-0.051789 0.0453,-0.1003237 z m 0.50167,-1.9387132 q 5e-6,0.2039062 -0.0712,0.375447 -0.07447,0.1682862 -0.220079,0.2912892 -0.148864,0.122999 -0.368966,0.1941903 -0.223304,0.068013 -0.521098,0.067977 -0.25568,4.2e-6 -0.469298,-0.064729 Q 25.790905,7.3762275 25.638795,7.256446 25.48669,7.1334452 25.402518,6.9651421 25.31516,6.7968339 25.315147,6.5961775 q 0,-0.2362642 0.08414,-0.4110358 0.08412,-0.1780212 0.239486,-0.2913032 0.155392,-0.1132254 0.375433,-0.1683281 0.216849,-0.058258 0.48549,-0.05826 0.268641,-4e-7 0.485485,0.0615 0.213612,0.058259 0.365739,0.1747726 0.148886,0.1165135 0.229798,0.2880632 0.07768,0.1683004 0.07768,0.3883897 z m -0.501662,6e-7 q -3.1e-5,-0.055019 -0.04537,-0.1035678 -0.04855,-0.04855 -0.132703,-0.084144 -0.08736,-0.035602 -0.207141,-0.05502 -0.122973,-0.019439 -0.271865,-0.019417 -0.145652,-3.89e-5 -0.265395,0.022653 -0.123005,0.019391 -0.210393,0.058238 -0.0874,0.038835 -0.135938,0.090629 -0.05171,0.051818 -0.05181,0.1100513 1.1e-5,0.045281 0.0453,0.093863 0.04206,0.045311 0.126209,0.084183 0.08414,0.038881 0.203897,0.06478 0.116508,0.025938 0.265405,0.025889 0.15536,1e-6 0.281583,-0.025891 0.126233,-0.029163 0.216851,-0.06794 0.08742,-0.042046 0.135932,-0.093861 0.0453,-0.051801 0.04528,-0.1003082 z"
       id="text10"
       inkscape:transform-center-x="9.2426069e-05"
       inkscape:transform-center-y="-16.032932"
       aria-label="$800" /><path
       style="font-size:3.23658px;line-height:0.85;font-family:ChunkFive;-inkscape-font-specification:ChunkFive;text-align:end;letter-spacing:0px;word-spacing:0px;text-anchor:end;white-space:pre;fill:#333333;stroke-width:0.258451;stroke-linecap:round;stroke-linejoin:round"
       d="m 31.608307,14.813397 0.29151,0.168303 q 0.04994,-0.03471 0.10622,-0.05452 0.05787,-0.02267 0.12175,-0.0231 l -0.144019,-0.113046 0.236271,-0.409236 0.655889,0.37868 -0.249211,0.431655 q -0.148552,-0.08576 -0.281638,-0.04301 -0.131452,0.03998 -0.209166,0.174465 -0.01463,0.02522 -0.02398,0.0609 -0.0078,0.03289 -0.0027,0.06947 0.0022,0.03495 0.02058,0.06793 0.01722,0.02867 0.05359,0.04962 0.07007,0.04045 0.15538,-0.0037 0.08532,-0.04418 0.187216,-0.123619 0.100737,-0.08386 0.217966,-0.176868 0.115987,-0.09754 0.246032,-0.160656 0.131585,-0.06603 0.275729,-0.07626 0.14417,-0.0102 0.30113,0.08043 0.154162,0.08896 0.22392,0.207708 0.07133,0.115953 0.08402,0.242842 0.0099,0.125281 -0.02682,0.253595 -0.03785,0.12388 -0.09813,0.234837 l 0.288698,0.16668 -0.228177,0.395214 -0.367188,-0.211992 q -0.08578,0.05137 -0.187855,0.08585 l 0.150347,0.127984 -0.236265,0.409234 -0.675511,-0.390008 0.25407,-0.440048 q 0.08409,0.04855 0.15838,0.04283 0.07313,-0.01008 0.134678,-0.04561 0.05877,-0.03705 0.103965,-0.08946 0.04238,-0.05399 0.06789,-0.09161 0.01778,-0.0308 0.0316,-0.06773 0.0154,-0.03971 0.0192,-0.0786 0.0038,-0.03893 -0.01287,-0.07472 -0.01513,-0.03861 -0.05712,-0.06292 -0.05051,-0.02913 -0.125742,0.01709 -0.07528,0.04623 -0.169973,0.126099 -0.09471,0.07986 -0.209149,0.174479 -0.112814,0.09184 -0.24394,0.150656 -0.13117,0.05877 -0.273685,0.06619 -0.145329,0.0058 -0.30233,-0.08484 -0.140145,-0.08092 -0.213539,-0.186842 -0.07339,-0.105913 -0.09579,-0.216013 -0.02355,-0.114539 -0.0054,-0.223627 0.01696,-0.113541 0.06151,-0.203666 l -0.235531,-0.135869 z m 1.008629,-0.400577 q 0.006,-0.07504 0.01028,-0.14729 0.0043,-0.07224 2.38e-4,-0.14933 -0.0052,-0.08151 -0.02409,-0.178345 -0.02162,-0.09847 -0.07049,-0.227534 l 0.288052,-0.498925 1.586477,0.915949 0.150496,-0.260678 0.372798,0.215227 -0.647317,1.121189 -0.372798,-0.215237 0.161831,-0.2803 -1.039896,-0.600379 -0.03009,0.356363 z m 2.876651,-1.228084 q -0.101958,0.176586 -0.249385,0.289548 -0.148636,0.108504 -0.33626,0.142224 -0.190435,0.0321 -0.416638,-0.01631 -0.2274,-0.05275 -0.485286,-0.201663 -0.221428,-0.127836 -0.374059,-0.290707 -0.153831,-0.167265 -0.225674,-0.347056 -0.07024,-0.182587 -0.05898,-0.370409 0.0085,-0.189438 0.108788,-0.363228 0.118133,-0.204613 0.278394,-0.313892 0.161882,-0.112088 0.353063,-0.132517 0.191186,-0.02036 0.409288,0.04196 0.216927,0.05797 0.449577,0.192292 0.232653,0.134321 0.389694,0.296001 0.155863,0.157262 0.229348,0.334226 0.07068,0.175349 0.05499,0.364368 -0.01688,0.184591 -0.126923,0.375197 z m -0.434452,-0.250832 q 0.0275,-0.04766 0.01256,-0.112331 -0.01777,-0.06632 -0.07287,-0.139216 -0.05786,-0.07452 -0.151878,-0.151218 -0.09683,-0.07827 -0.225741,-0.15273 -0.126118,-0.07282 -0.241166,-0.113082 -0.116223,-0.04465 -0.211313,-0.05476 -0.09508,-0.01008 -0.16304,0.01052 -0.07069,0.01893 -0.09985,0.06943 -0.02263,0.03925 -0.0077,0.103934 0.01377,0.06027 0.06721,0.136005 0.05343,0.07574 0.144193,0.158052 0.08793,0.08072 0.216897,0.155123 0.134545,0.07768 0.256802,0.118369 0.123903,0.03786 0.221773,0.04959 0.09673,0.0072 0.164651,-0.01332 0.06513,-0.02221 0.08937,-0.06423 z m 1.40382,-1.428144 q -0.101949,0.176591 -0.249388,0.289552 -0.148636,0.108505 -0.336237,0.142222 -0.19042,0.03209 -0.416634,-0.01631 -0.227398,-0.05275 -0.485261,-0.201677 -0.221444,-0.127853 -0.374064,-0.290713 -0.153833,-0.167268 -0.225669,-0.347051 -0.07023,-0.182577 -0.05897,-0.370411 0.0085,-0.189456 0.10877,-0.363241 0.118132,-0.20461 0.278393,-0.313891 0.161881,-0.1120868 0.353064,-0.1325152 0.191192,-0.020376 0.409288,0.04196 0.216923,0.057971 0.449572,0.1922902 0.232652,0.13432 0.389694,0.296005 0.155865,0.157261 0.229353,0.334228 0.07068,0.175345 0.05498,0.364368 -0.01685,0.184596 -0.126922,0.375196 z m -0.434464,-0.250826 q 0.02754,-0.04765 0.01256,-0.112313 -0.01777,-0.06632 -0.07287,-0.139218 -0.05784,-0.0745 -0.151876,-0.151217 -0.09676,-0.0783 -0.225732,-0.152749 -0.126134,-0.07283 -0.241165,-0.113079 -0.116232,-0.04468 -0.211317,-0.05476 -0.0951,-0.01008 -0.16304,0.01052 -0.07076,0.01896 -0.0999,0.0694 -0.02265,0.03925 -0.0077,0.103947 0.01376,0.06029 0.06721,0.13601 0.05343,0.07574 0.144192,0.158051 0.08793,0.08072 0.216896,0.155122 0.134546,0.07768 0.2568,0.118381 0.123899,0.03787 0.221773,0.04959 0.09673,0.0072 0.164649,-0.01332 0.06513,-0.02221 0.08937,-0.06423 z m 1.40382,-1.4281456 q -0.101958,0.1765856 -0.249387,0.2895496 -0.148624,0.108504 -0.33623,0.14223 -0.190425,0.03207 -0.416639,-0.01631 -0.227393,-0.05275 -0.485251,-0.201675 -0.221448,-0.1278484 -0.374069,-0.2907116 -0.153831,-0.1672646 -0.225672,-0.3470562 -0.07023,-0.1825759 -0.05898,-0.370408 0.0085,-0.1894388 0.108798,-0.3632293 0.118132,-0.2046107 0.278385,-0.3138971 0.161868,-0.1121042 0.353053,-0.1325315 0.191181,-0.020381 0.409282,0.04196 0.216927,0.057969 0.449578,0.1922916 0.232649,0.134322 0.389693,0.2960036 0.155863,0.1572614 0.22935,0.3342274 0.07068,0.1753469 0.05499,0.364369 -0.01687,0.1845924 -0.126922,0.3751933 z M 36.997849,9.5759535 q 0.02752,-0.047631 0.01255,-0.1123477 -0.01777,-0.066321 -0.07287,-0.1392004 -0.05792,-0.074542 -0.151877,-0.1512169 -0.0968,-0.078311 -0.225733,-0.1527591 -0.126118,-0.07283 -0.241171,-0.1130714 -0.116213,-0.04468 -0.211318,-0.054759 -0.09509,-0.010051 -0.163037,0.010518 -0.07073,0.018954 -0.09992,0.06935 -0.02266,0.039243 -0.0077,0.103937 0.01377,0.060271 0.06721,0.1360206 0.05343,0.075742 0.14419,0.1580496 0.0879,0.080689 0.216896,0.1551224 0.134544,0.077678 0.256806,0.1183697 0.123903,0.037859 0.221774,0.049589 0.09673,0.0072 0.16465,-0.013318 0.06513,-0.022211 0.08936,-0.064228 z"
       id="text11"
       inkscape:transform-center-x="-8.0164409"
       inkscape:transform-center-y="-13.884835"
       aria-label="$1000" /><path
       style="font-size:3.23658px;line-height:0.85;font-family:ChunkFive;-inkscape-font-specification:ChunkFive;text-align:end;letter-spacing:0px;word-spacing:0px;text-anchor:end;white-space:pre;fill:#ffffff;stroke-width:0.258451;stroke-linecap:round;stroke-linejoin:round"
       d="m 35.26326,20.07032 0.908151,-0.524326 q 0.243864,-0.140796 0.424352,-0.177728 0.178866,-0.03975 0.311515,-0.0042 0.131031,0.03273 0.222177,0.125852 0.09236,0.08868 0.161925,0.209243 0.08092,0.140146 0.08191,0.277853 9.88e-4,0.137687 -0.05945,0.266031 -0.06207,0.125511 -0.175548,0.239657 -0.112351,0.109664 -0.263678,0.197083 l -0.213026,0.122996 0.250839,0.434461 0.170993,-0.09869 0.21361,0.369989 -0.902557,0.521094 -0.213609,-0.369997 0.156958,-0.09062 -0.705572,-1.222095 -0.156936,0.09064 z m 0.941949,-0.05799 0.281585,0.487718 0.126133,-0.07283 q 0.123344,-0.07118 0.165,-0.173769 0.04007,-0.105338 -0.02465,-0.217475 -0.07283,-0.126133 -0.180118,-0.150133 -0.104491,-0.02562 -0.227824,0.04558 z m 0.85194,-0.977721 0.910952,-0.525943 q 0.243863,-0.140795 0.421117,-0.183331 0.177255,-0.04252 0.306662,-0.01261 0.132204,0.02828 0.221719,0.118658 0.09071,0.08591 0.160293,0.206456 0.0469,0.08125 0.0565,0.16918 0.0096,0.08786 -0.01569,0.173499 -0.02414,0.08119 -0.07877,0.16133 -0.0534,0.07569 -0.133857,0.137109 0.07935,-0.03089 0.16485,-0.03167 0.08667,-0.0052 0.167895,0.01892 0.0812,0.02414 0.150875,0.0736 0.06968,0.04947 0.11339,0.125131 0.05178,0.0897 0.09493,0.132032 0.04314,0.0424 0.08237,0.01969 0.06444,-0.03719 0.01268,-0.126904 l -0.05341,-0.09249 0.187796,-0.108431 0.08902,0.15414 q 0.05017,0.0869 0.07747,0.179508 0.0273,0.09261 0.01526,0.181789 -0.01211,0.08919 -0.06788,0.173734 -0.05748,0.08175 -0.175172,0.14973 -0.277489,0.160207 -0.491338,0.100543 -0.211034,-0.06131 -0.353444,-0.307949 -0.05502,-0.0953 -0.09903,-0.152113 -0.044,-0.05687 -0.09423,-0.07268 -0.04916,-0.02032 -0.11323,-0.0019 -0.06415,0.01833 -0.15661,0.07178 l 0.25084,0.43446 0.170964,-0.09872 0.213617,0.369986 -0.905353,0.522713 -0.213622,-0.369993 0.15696,-0.09064 -0.705576,-1.222094 -0.156946,0.09064 z m 0.94475,-0.05961 0.275113,0.476497 0.126133,-0.07283 q 0.123311,-0.07122 0.163831,-0.169343 0.03893,-0.100925 -0.02584,-0.213056 -0.07283,-0.126133 -0.175709,-0.148963 -0.10005,-0.02443 -0.22339,0.04676 z m 1.121043,-1.133062 0.930585,-0.537267 0.213614,0.369988 -0.173777,0.100335 0.70234,1.216486 0.173775,-0.100334 0.215236,0.372784 -0.930587,0.537276 -0.215233,-0.372799 0.176591,-0.101947 -0.702344,-1.216487 -0.176586,0.101959 z m 1.513159,0.109289 -0.425612,-0.737181 1.838746,-1.061602 0.22086,0.369541 -0.323542,1.808788 0.518547,-0.299391 -0.204368,-0.360375 0.496119,-0.28644 0.420757,0.72877 -1.852759,1.069694 -0.210377,-0.364389 0.313091,-1.813952 -0.528159,0.308628 0.213153,0.362791 z m 1.558887,-1.882941 1.690188,-0.975822 0.357639,0.619448 -0.484912,0.279966 -0.144028,-0.249469 -0.448468,0.258932 0.223324,0.386808 0.532562,-0.307471 0.215234,0.372791 -0.532568,0.307476 0.263781,0.456874 0.448479,-0.258917 -0.150507,-0.260674 0.484913,-0.279958 0.365733,0.633466 -1.690188,0.975824 -0.215231,-0.372788 0.176591,-0.10195 -0.702337,-1.216484 -0.176585,0.101956 z"
       id="text12"
       inkscape:transform-center-x="-13.884898"
       inkscape:transform-center-y="-8.0164252"
       aria-label="PRIZE" /><path
       id="path6506"
       d="m 26.486751,22.820774 c 0.547085,-1e-6 0.82857,1.57067 1.271185,1.892258 0.442579,0.321494 2.023229,0.103748 2.19229,0.624052 0.169051,0.520309 -1.237467,1.273592 -1.406512,1.793927 -0.169063,0.520289 0.526181,1.956168 0.08361,2.277731 -0.442614,0.321574 -1.593485,-0.783355 -2.140571,-0.783355 -0.54708,0 -1.697959,1.104894 -2.140537,0.783345 -0.442617,-0.321533 0.252642,-1.757432 0.08358,-2.277737 -0.169056,-0.520309 -1.575566,-1.273602 -1.406508,-1.793886 0.16905,-0.520338 1.749693,-0.302578 2.192301,-0.624101 0.44259,-0.32157 0.724079,-1.892234 1.27116,-1.892234 z"
       style="color:#000000;font-style:normal;font-variant:normal;font-weight:normal;font-stretch:normal;font-size:medium;line-height:normal;font-family:sans-serif;text-indent:0;text-align:start;text-decoration:none;text-decoration-line:none;text-decoration-style:solid;text-decoration-color:#000000;letter-spacing:normal;word-spacing:normal;text-transform:none;writing-mode:lr-tb;direction:ltr;baseline-shift:baseline;text-anchor:start;white-space:normal;clip-rule:nonzero;display:inline;overflow:visible;visibility:visible;opacity:1;isolation:auto;mix-blend-mode:normal;color-interpolation:sRGB;color-interpolation-filters:linearRGB;solid-color:#000000;solid-opacity:1;fill:#ffc751;fill-opacity:1;fill-rule:nonzero;stroke:none;stroke-width:0.100493;stroke-linecap:round;stroke-linejoin:round;stroke-miterlimit:4;stroke-dasharray:none;stroke-dashoffset:288.506;stroke-opacity:1;color-rendering:auto;image-rendering:auto;shape-rendering:auto;text-rendering:auto;enable-background:accumulate"
       inkscape:connector-curvature="0" /></g></svg>
