<?xml version="1.0" encoding="UTF-8" standalone="no"?>
<!-- Created with Inkscape (http://www.inkscape.org/) -->

<svg
   width="202"
   height="146"
   viewBox="0 0 53.445833 38.629167"
   version="1.1"
   id="svg1"
   inkscape:version="1.4 (86a8ad7, 2024-10-11)"
   sodipodi:docname="tower_bible_cloud_1.svg"
   xmlns:inkscape="http://www.inkscape.org/namespaces/inkscape"
   xmlns:sodipodi="http://sodipodi.sourceforge.net/DTD/sodipodi-0.dtd"
   xmlns="http://www.w3.org/2000/svg"
   xmlns:svg="http://www.w3.org/2000/svg">
  <sodipodi:namedview
     id="namedview1"
     pagecolor="#ffffff"
     bordercolor="#000000"
     borderopacity="0.25"
     inkscape:showpageshadow="false"
     inkscape:pageopacity="0.0"
     inkscape:pagecheckerboard="0"
     inkscape:deskcolor="#d1d1d1"
     inkscape:document-units="px"
     borderlayer="false"
     inkscape:zoom="0.30079071"
     inkscape:cx="-535.2559"
     inkscape:cy="743.04158"
     inkscape:window-width="2048"
     inkscape:window-height="1209"
     inkscape:window-x="-8"
     inkscape:window-y="-8"
     inkscape:window-maximized="1"
     inkscape:current-layer="layer1" />
  <defs
     id="defs1" />
  <g
     inkscape:label="Layer 1"
     inkscape:groupmode="layer"
     id="layer1">
    <path
       id="path1420-3"
       style="fill:#ffffff;stroke-width:0.280835;stroke-linecap:round;stroke-linejoin:round;stop-color:#000000"
       d="M 28.071152,1.3564357e-6 A 10.479729,10.46622 0 0 0 18.087582,7.3258654 a 8.168456,8.1579263 0 0 0 -5.5534,-2.19641 8.168456,8.1579263 0 0 0 -8.1685303,8.1577796 8.168456,8.1579263 0 0 0 0.60168,3.02358 A 8.168456,8.1579263 0 0 0 1.6986302e-6,23.802985 8.168456,8.1579263 0 0 0 8.1684817,31.960745 a 8.168456,8.1579263 0 0 0 2.3608703,-0.34842 10.479729,10.46622 0 0 0 9.58062,6.24738 10.479729,10.46622 0 0 0 7.57639,-3.23927 10.479729,10.46622 0 0 0 8.21739,4.00873 10.479729,10.46622 0 0 0 10.46986,-10.06088 10.479729,10.46622 0 0 0 7.07222,-9.89509 10.479729,10.46622 0 0 0 -10.47991,-10.4660796 10.479729,10.46622 0 0 0 -4.50314,1.02734 A 10.479729,10.46622 0 0 0 28.071152,1.3564357e-6 Z M 19.847682,16.915375 a 10.479729,10.46622 0 0 0 0.0217,0.029 10.479729,10.46622 0 0 0 -0.0378,0.007 8.168456,8.1579263 0 0 0 0.0161,-0.0314 z m 8.52054,4.00965 a 10.479729,10.46622 0 0 0 -0.028,0.0283 10.479729,10.46622 0 0 0 -0.0201,-0.0267 10.479729,10.46622 0 0 0 0.048,0 z" />
  </g>
</svg>
