<?xml version="1.0" encoding="UTF-8" standalone="no"?>
<!-- Created with Inkscape (http://www.inkscape.org/) -->

<svg
   width="100"
   height="42"
   viewBox="0 0 26.458333 11.1125"
   version="1.1"
   id="svg1"
   inkscape:version="1.4 (86a8ad7, 2024-10-11)"
   sodipodi:docname="tower_bible_grass_tuft_1.svg"
   xmlns:inkscape="http://www.inkscape.org/namespaces/inkscape"
   xmlns:sodipodi="http://sodipodi.sourceforge.net/DTD/sodipodi-0.dtd"
   xmlns="http://www.w3.org/2000/svg"
   xmlns:svg="http://www.w3.org/2000/svg">
  <sodipodi:namedview
     id="namedview1"
     pagecolor="#ffffff"
     bordercolor="#000000"
     borderopacity="0.25"
     inkscape:showpageshadow="false"
     inkscape:pageopacity="0.0"
     inkscape:pagecheckerboard="0"
     inkscape:deskcolor="#d1d1d1"
     inkscape:document-units="px"
     borderlayer="false"
     inkscape:zoom="3.4030584"
     inkscape:cx="59.358371"
     inkscape:cy="55.979058"
     inkscape:window-width="2048"
     inkscape:window-height="1209"
     inkscape:window-x="-8"
     inkscape:window-y="-8"
     inkscape:window-maximized="1"
     inkscape:current-layer="layer1" />
  <defs
     id="defs1" />
  <g
     inkscape:label="Layer 1"
     inkscape:groupmode="layer"
     id="layer1">
    <path
       style="fill:#8ead5e;fill-opacity:1;stroke-width:0.350395"
       d="m 17.229552,0.47772993 c -0.51961,10e-6 -2.11401,1.62743997 -2.95683,3.01813997 -0.45261,0.7472 -1.16128,2.41835 -1.57481,3.71418 l -0.75215,2.35572 -1.19491,-2.35572 C 9.3047816,4.3594499 6.8177916,0.73127993 6.4436916,0.92677993 c -0.96043,0.50084997 -0.45112,6.17481997 0.72002,8.02191997 0.20366,0.32108 0.2969,0.58303 0.2077,0.58304 -0.0893,0 -1.33736,-0.47504 -2.77357,-1.05598 C 2.0525686,7.4461899 1.5831084e-6,7.1106699 1.5831084e-6,7.7238599 1.3583108e-5,7.9518499 2.0445496,9.9670399 3.3520876,11.1125 H 21.112172 c 0.1803,-0.29655 0.70938,-0.85535 1.45156,-1.5050101 2.39443,-2.09589 3.89463,-3.64528 3.8946,-4.02232 4e-5,-1.08862 -5.62312,1.04447 -8.31255,3.15338 -0.93415,0.7324 -1.69619,1.17685 -1.69237,0.98756 0.003,-0.18949 0.24403,-1.56709 0.53486,-3.06107 0.57661,-2.96226 0.70266,-6.18729997 0.24128,-6.18730997 z"
       id="path38" />
  </g>
</svg>
