<?xml version="1.0" encoding="UTF-8" standalone="no"?>
<!-- Created with Inkscape (http://www.inkscape.org/) -->

<svg
   width="100"
   height="42"
   viewBox="0 0 26.458333 11.1125"
   version="1.1"
   id="svg1"
   inkscape:version="1.4 (86a8ad7, 2024-10-11)"
   sodipodi:docname="tower_bible_grass_tuft_2.svg"
   xmlns:inkscape="http://www.inkscape.org/namespaces/inkscape"
   xmlns:sodipodi="http://sodipodi.sourceforge.net/DTD/sodipodi-0.dtd"
   xmlns="http://www.w3.org/2000/svg"
   xmlns:svg="http://www.w3.org/2000/svg">
  <sodipodi:namedview
     id="namedview1"
     pagecolor="#ffffff"
     bordercolor="#000000"
     borderopacity="0.25"
     inkscape:showpageshadow="false"
     inkscape:pageopacity="0.0"
     inkscape:pagecheckerboard="0"
     inkscape:deskcolor="#d1d1d1"
     inkscape:document-units="px"
     borderlayer="false"
     inkscape:zoom="4"
     inkscape:cx="61.5"
     inkscape:cy="-15.375"
     inkscape:window-width="2048"
     inkscape:window-height="1209"
     inkscape:window-x="-8"
     inkscape:window-y="-8"
     inkscape:window-maximized="1"
     inkscape:current-layer="layer1" />
  <defs
     id="defs1" />
  <g
     inkscape:label="Layer 1"
     inkscape:groupmode="layer"
     id="layer1">
    <path
       style="fill:#8ead5e;fill-opacity:1;stroke-width:0.465556"
       d="M 12.776231,-6.9999999e-8 C 11.796321,-6.9999999e-8 10.771861,4.5397999 11.031161,7.7329199 L 11.288021,10.89354 7.8852114,8.1202599 c -3.64528,-2.97177 -5.867735,-4.36735 -6.33207,-3.97568 -0.54591,0.46125 0.961947,4.00656 2.55131,6.0001201 0.27268,0.34172 0.51317,0.66956 0.71892,0.9678 H 21.971911 l 1.26639,-2.5747701 c 1.68348,-3.42295 2.27374,-6.13132 1.33528,-6.13134 -1.15117,-2.6e-4 -4.52012,3.08969 -6.1039,5.59766 -0.84111,1.33214 -1.67106,2.4218701 -1.84386,2.4220001 -0.17096,-0.0211 -0.54433,-1.3083201 -0.82664,-2.9072501 C 15.249441,4.4030199 13.478961,3.3993e-4 12.776231,-6.9999999e-8 Z"
       id="path1158" />
  </g>
</svg>
